<REAPER_PROJECT 0.1 "7.16/win32" 1769562771
  RIPPLE 0
  GROUPOVERRIDE 0 1 0
  AUTOXFADE 129
  ENVATTACH 1
  POOLEDENVATTACH 0
  MIXERUIFLAGS 11 48
  PEAKGAIN 1
  FEEDBACK 0
  PANLAW 1
  PROJOFFS 0 0 0
  MAXPROJLEN 0 600
  GRID 1151 8 1 8 1 0 0 0
  TIMEMODE 1 0 -1 24 2 0 -1
  CURSOR 2.08695652173912
  ZOOM 6.4426269445337 0 0
  VZOOMEX 0 19
  USE_REC_CFG 0
  RECMODE 1
  SMPTESYNC 0 30 100 40 1000 300 0 0 0 0 0
  LOOP 0
  LOOPGRAN 0 4
  RECORD_PATH "" ""
  <RECORD_CFG
    ZXZhdxgA
  >
  <APPLYFX_CFG
  >
  RENDER_FILE ""
  RENDER_PATTERN ""
  RENDER_FMT 0 2 0
  RENDER_1X 0
  RENDER_RANGE 1 0 0 18 1000
  RENDER_RESAMPLE 3 0 1
  RENDER_ADDTOPROJ 0
  RENDER_STEMS 0
  RENDER_DITHER 0
  TIMELOCKMODE 0
  TEMPOENVLOCKMODE 1
  ITEMMIX 0
  DEFPITCHMODE 0 0
  TAKELANE 1
  SAMPLERATE 44100 0 0
  <RENDER_CFG
  >
  LOCK 1
  <METRONOME 6 2
    VOL 0.752735 0.723913
    FREQ 800 1600 0
    BEATLEN 4
    SAMPLES "" ""
    PATTERN 2863311530 2863311529
    MULT 1
  >
  GLOBAL_AUTO -1
  TEMPO 120 4 4
  PLAYRATE 1 0 0.25 4
  SELECTION 222.85264414322901 220.84024466941179
  SELECTION2 222.85264414322901 220.84024466941179
  MASTERAUTOMODE 0
  MASTERTRACKHEIGHT 35 0
  MASTERPEAKCOL 16576
  MASTERMUTESOLO 0
  MASTERTRACKVIEW 1 0.6667 0.5 0.5 0 -1 -1 0 0 0 0 0 0 0
  MASTERHWOUT 0 0 1 0 0 0 0 -1
  MASTER_NCH 2 2
  MASTER_VOLUME 1.05925372517729 0 -1 -1 1
  MASTER_FX 1
  MASTER_SEL 0
  <MASTERFXLIST
    SHOW 0
    LASTSEL 0
    DOCKED 0
    BYPASS 0 0 0
    <VST "VST: W1 Limiter (George Yohng)" "George Yohng_s W1 Limiter.dll" 0 "" 877033292<5653543446774C77316C696D69746572> ""
      THdGNO5e7f4CAAAAAQAAAAAAAAACAAAAAAAAAAIAAAABAAAAAAAAAAIAAAAAAAAATAAAAAEAAAAAABAA
      DAAAgXRocmVzaAAA/tR4PwwAAIFjZWlsaW5nAP7UeD8MAACBcmVsZWFzZQAwQB8/FAAAgWFkYXB0UmVsZWFzZQAAAAAAAAAAAAAAgA==
      AERlZmF1bHQAEAAAAA==
    >
    PRESETNAME Default
    FLOATPOS 24 24 481 152
    FXID {69D45D23-FE06-4141-B0BB-1A6D9443AFA8}
    WAK 0 0
  >
  <MASTERPLAYSPEEDENV
    EGUID {AEF6CDE6-004F-4F88-8506-6C19518A07D5}
    ACT 0 -1
    VIS 0 1 1
    LANEHEIGHT 0 0
    ARM 0
    DEFSHAPE 0 -1 -1
  >
  <TEMPOENVEX
    EGUID {2C6D5229-26A3-4D94-91AE-B8F86DBF46A7}
    ACT 1 -1
    VIS 1 0 1
    LANEHEIGHT 0 0
    ARM 0
    DEFSHAPE 1 -1 -1
    PT 0.000000000000 115.0000000000 1
    PT 2.086956521739 125.4024677680 1
    PT 4.000794457081 117.2714332151 1
    PT 6.047328667674 117.1061598439 1
    PT 8.096751177301 116.9190940940 1
    PT 10.149452678794 116.6983149427 1
    PT 12.206037644205 116.6065897350 1
    PT 14.264240362812 117.3706465603 1
    PT 16.309044639124 117.5269802702 1
    PT 18.351128928606 117.8894940896 1
    PT 20.386933746103 117.5269802702 1
    PT 22.429018035585 115.4675951174 1
    PT 24.507523262580 117.2385705026 1
    PT 26.554631129650 117.2960099886 1
    PT 28.600736534456 116.2329470756 1
    PT 30.665555555555 116.5453201241 1
    PT 32.724840301990 116.6413133570 1
    PT 34.782430302417 118.2484035000 1
    PT 36.812056013177 114.8783562776 1
    PT 38.901222395572 115.4119296400 1
    PT 40.980730127127 115.9478587189 1
    PT 43.050626049758 117.4040327687 1
    PT 45.094848844667 117.7738092499 1
    PT 47.132653357644 116.8537013651 1
    PT 49.186503575449 117.0365710073 1
    PT 51.237144652288 120.1914785106 1
    PT 53.233958427889 120.8623430058 1
    PT 55.219688590249 120.8180434147 1
    PT 57.206146847782 120.6231756027 1
    PT 59.195814246279 121.4064429768 1
    PT 61.172645080916 121.4064429768 1
    PT 63.149475915553 123.0038961738 1
    PT 65.100633622467 122.0006017515 1
    PT 67.067837034208 121.6038518271 1
    PT 69.041458727879 118.9030852008 1
    PT 71.059909297052 118.8914109961 1
    PT 73.078558062251 118.8914109961 1
    PT 75.097206827450 118.9030852008 1
    PT 77.115657396622 116.6714022990 1
    PT 79.172716755392 118.9077325947 1
    PT 81.191088435374 118.9079878665 1
    PT 83.209455782313 117.5555901104 1
    PT 85.251043083900 116.5017348630 1
    PT 87.311098243442 116.6714022990 1
    PT 89.368157602211 115.4110630767 1
    PT 91.447680947738 116.3085052468 1
    PT 93.511158588439 117.2073222416 1
    PT 95.558812228245 116.1403609410 1
    PT 97.625277305978 116.6714022990 1
    PT 99.682336664748 117.2200139086 1
    PT 101.729768600621 115.4222790038 1
    PT 103.809089872662 116.7265087601 1
    PT 105.865178095888 118.6396764507 1
    PT 107.888110113069 117.5551409404 1
    PT 109.929705215419 116.7043899624 1
    PT 111.986183125782 116.4896711428 1
    PT 114.046451625517 118.3328621419 1
    PT 116.074628715598 119.4670429292 1
    PT 118.083550959888 118.8972478119 1
    PT 120.102100627074 121.6038518271 1
    PT 122.075722320746 121.4064429768 1
    PT 124.052553155382 121.4064429768 1
    PT 126.029383990019 121.9936398747 1
    PT 127.996699665218 122.4069573863 1
    PT 129.957372531570 122.3999490568 1
    PT 131.918157661380 123.2065385069 1
    PT 133.866106227329 117.0365710073 1
    PT 135.916747304168 118.3328621419 1
    PT 137.944924394249 118.1459223913 1
    PT 139.976310625296 119.2765053807 1
    PT 141.988442010552 117.5886303045 1
    PT 144.029455664495 118.1459223913 1
    PT 146.060841895542 119.2765053807 1
    PT 148.072973280797 120.0423256399 1
    PT 150.072268102191 116.8072491803 1
    PT 152.126935100038 116.9515800799 1
    PT 154.179066416570 118.2276957574 1
    PT 156.209047619050 117.0880731493 1
    PT 158.258786704720 117.9595723560 1
    PT 160.293382076733 118.9068518110 1
    PT 162.311768707484 118.1364409132 1
    PT 164.343317974966 118.9070830665 1
    PT 166.361700680273 118.6987195858 1
    PT 168.383626450303 119.0865746396 1
    PT 170.398966976523 118.5203944115 1
    PT 172.423934925640 117.5549767321 1
    PT 174.465532879820 119.4200231293 1
    PT 176.475246106388 119.5488845690 1
    PT 178.482793068163 117.4174279170 1
    PT 180.526782655208 120.3372318664 1
    PT 182.521177875022 118.5956802867 1
    PT 184.544860351651 120.2231489571 1
    PT 186.541148105565 117.2315842052 1
    PT 188.588377967953 118.5203944115 1
    PT 190.613345917069 117.0735424552 1
    PT 192.663339408057 119.0483210505 1
    PT 194.679327520129 119.6825106378 1
    PT 196.684633046567 120.9886775227 1
    PT 198.668289740021 119.6297288951 1
    PT 200.674480025802 117.5550275450 1
    PT 202.716077097507 118.7708283492 1
    PT 204.736775305440 118.7085220217 1
    PT 206.758534113591 116.9204891827 1
    PT 208.811211122366 118.3992611256 1
    PT 210.838250799119 118.0855996085 1
    PT 212.870674742392 120.5284288436 1
    PT 214.861906207886 118.9067371719 1
    PT 216.880294784582 119.2842160429 1
    PT 218.892296103463 123.2065385069 1
    PT 220.840244669412 119.2606155600 1
    PT 222.852644143229 119.2606155600 1
  >
  <PROJBAY
  >
  <TRACK {4D889F49-FE1F-4D1D-9FB8-BFD5BA06901A}
    NAME "SONG AUDIO"
    PEAKCOL 16576
    BEAT -1
    AUTOMODE 0
    VOLPAN 1 0 -1 -1 1
    MUTESOLO 0 0 0
    IPHASE 0
    PLAYOFFS 0 1
    ISBUS 0 0
    BUSCOMP 0 0 0 0 0
    SHOWINMIX 1 0.6667 0.5 1 0.5 -1 -1 -1
    SEL 0
    REC 0 0 0 0 0 0 0 0
    TRACKHEIGHT 24 0 0 0 0 0 0
    INQ 0 0 0 0.5 100 0 0 100
    NCHAN 2
    FX 1
    TRACKID {4D889F49-FE1F-4D1D-9FB8-BFD5BA06901A}
    PERF 0
    MIDIOUT -1
    MAINSEND 1 0
    <FXCHAIN
      SHOW 0
      LASTSEL 0
      DOCKED 0
      BYPASS 0 0 0
      <VST "VST: W1 Limiter (George Yohng)" "George Yohng_s W1 Limiter.dll" 0 "" 877033292<5653543446774C77316C696D69746572> ""
        THdGNO5e7f4CAAAAAQAAAAAAAAACAAAAAAAAAAIAAAABAAAAAAAAAAIAAAAAAAAATAAAAAEAAAAAABAA
        DAAAgXRocmVzaAAA/tR4PwwAAIFjZWlsaW5nAP7UeD8MAACBcmVsZWFzZQAwQB8/FAAAgWFkYXB0UmVsZWFzZQAAAAAAAAAAAAAAgA==
        AERlZmF1bHQAEAAAAA==
      >
      PRESETNAME Default
      FLOATPOS 24 24 481 152
      FXID {D32BE511-3942-4A83-B6D7-DF2FE763A2B4}
      WAK 0 0
    >
  >
  <TRACK {BDCFF37A-71AC-4D17-AF26-EA560B308842}
    NAME COUNTIN
    PEAKCOL 16576
    BEAT -1
    AUTOMODE 0
    VOLPAN 1 0 -1 -1 1
    MUTESOLO 0 0 0
    IPHASE 0
    PLAYOFFS 0 1
    ISBUS 0 0
    BUSCOMP 0 0 0 0 0
    SHOWINMIX 1 0.6667 0.5 1 0.5 -1 -1 -1
    SEL 0
    REC 0 0 0 0 0 0 0 0
    TRACKHEIGHT 0 0 0 0 0 0 0
    INQ 0 0 0 0.5 100 0 0 100
    NCHAN 2
    FX 1
    TRACKID {BDCFF37A-71AC-4D17-AF26-EA560B308842}
    PERF 0
    MIDIOUT -1
    MAINSEND 1 0
    <ITEM
      POSITION 0
      SNAPOFFS 0
      LENGTH 0.28216019417451
      LOOP 0
      ALLTAKES 0
      FADEIN 1 0 0 1 0 0 0
      FADEOUT 1 0 0 1 0 0 0
      MUTE 0 0
      SEL 0
      IGUID {D829F3DA-0BE5-4277-954B-C2D10DB114A6}
      IID 1
      NAME stick.wav
      VOLPAN 0.271028 0 1 -1
      SOFFS 0
      PLAYRATE 1.00000000000052 1 0 -1 0 0.0025
      CHANMODE 0
      GUID {3A242298-C3E5-4DC8-9A3C-2EE82D8D2134}
      <SOURCE WAVE
        FILE "D:\REAPER\ProjectTemplates\hihat.wav"
      >
    >
    <ITEM
      POSITION 0.99999999999949
      SNAPOFFS 0
      LENGTH 0.28216019417451
      LOOP 0
      ALLTAKES 0
      FADEIN 1 0 0 1 0 0 0
      FADEOUT 1 0 0 1 0 0 0
      MUTE 0 0
      SEL 0
      IGUID {5AEC5162-2B2C-4FF2-BB3B-E29ADC0916FE}
      IID 2
      NAME stick.wav
      VOLPAN 0.271028 0 1 -1
      SOFFS 0
      PLAYRATE 1.00000000000052 1 0 -1 0 0.0025
      CHANMODE 0
      GUID {16E29BEE-96F5-48F0-9FB0-3F04A1AF90D5}
      <SOURCE WAVE
        FILE "D:\REAPER\ProjectTemplates\hihat.wav"
      >
    >
    <ITEM
      POSITION 1.99999999999898
      SNAPOFFS 0
      LENGTH 0.28216019417451
      LOOP 0
      ALLTAKES 0
      FADEIN 1 0 0 1 0 0 0
      FADEOUT 1 0 0 1 0 0 0
      MUTE 0 0
      SEL 0
      IGUID {1FA8F8C4-F448-4E02-B340-4A6644F6D8AB}
      IID 3
      NAME stick.wav
      VOLPAN 0.271028 0 1 -1
      SOFFS 0
      PLAYRATE 1.00000000000052 1 0 -1 0 0.0025
      CHANMODE 0
      GUID {8D594F7C-8B39-4D29-A27D-55F46BC65189}
      <SOURCE WAVE
        FILE "D:\REAPER\ProjectTemplates\hihat.wav"
      >
    >
    <ITEM
      POSITION 2.49999999999872
      SNAPOFFS 0
      LENGTH 0.28216019417451
      LOOP 0
      ALLTAKES 0
      FADEIN 1 0 0 1 0 0 0
      FADEOUT 1 0 0 1 0 0 0
      MUTE 0 0
      SEL 0
      IGUID {1D23FF37-8166-4C8E-915E-19EFDB52B4D8}
      IID 4
      NAME stick.wav
      VOLPAN 0.271028 0 1 -1
      SOFFS 0
      PLAYRATE 1.00000000000052 1 0 -1 0 0.0025
      CHANMODE 0
      GUID {1D91F480-CA0B-4E03-8204-02893D660CDF}
      <SOURCE WAVE
        FILE "D:\REAPER\ProjectTemplates\hihat.wav"
      >
    >
    <ITEM
      POSITION 2.99999999999846
      SNAPOFFS 0
      LENGTH 0.28216019417451
      LOOP 0
      ALLTAKES 0
      FADEIN 1 0 0 1 0 0 0
      FADEOUT 1 0 0 1 0 0 0
      MUTE 0 0
      SEL 0
      IGUID {A6BA2F37-4089-4BF2-A73E-A602F32B7614}
      IID 5
      NAME stick.wav
      VOLPAN 0.271028 0 1 -1
      SOFFS 0
      PLAYRATE 1.0000000000005 1 0 -1 0 0.0025
      CHANMODE 0
      GUID {ABD24FE2-95CA-428E-ADD9-9A13921FCC29}
      <SOURCE WAVE
        FILE "D:\REAPER\ProjectTemplates\hihat.wav"
      >
    >
    <ITEM
      POSITION 3.49999999999821
      SNAPOFFS 0
      LENGTH 0.28216019417451
      LOOP 0
      ALLTAKES 0
      FADEIN 1 0 0 1 0 0 0
      FADEOUT 1 0 0 1 0 0 0
      MUTE 0 0
      SEL 0
      IGUID {49CCEEAD-12F1-472E-8B9C-48A90BF6E20A}
      IID 6
      NAME stick.wav
      VOLPAN 0.271028 0 1 -1
      SOFFS 0
      PLAYRATE 1.00000000000052 1 0 -1 0 0.0025
      CHANMODE 0
      GUID {3DFEA1C1-AD72-4DF8-A1BD-3977672F4D80}
      <SOURCE WAVE
        FILE "D:\REAPER\ProjectTemplates\hihat.wav"
      >
    >
  >
  <TRACK {8F33A645-3DF2-48FA-99BC-10992A4F8042}
    NAME "PART DRUMS"
    PEAKCOL 16842751
    BEAT -1
    AUTOMODE 0
    VOLPAN 1 0 -1 -1 1
    MUTESOLO 0 0 0
    IPHASE 0
    PLAYOFFS 0 1
    ISBUS 0 0
    BUSCOMP 1 0 0 0 0
    SHOWINMIX 1 0.6667 0.5 1 0.5 -1 -1 -1
    SEL 0
    REC 0 4096 1 7 0 0 0 0
    TRACKHEIGHT 0 0 0 0 0 0 0
    INQ 0 0 0 0.5 100 0 0 100
    NCHAN 2
    FX 1
    TRACKID {8F33A645-3DF2-48FA-99BC-10992A4F8042}
    PERF 0
    MIDIOUT -1
    <MIDINOTENAMES
      0 24 "KICK RF" 0 24
      0 25 "HI-HAT OPEN" 0 25
      0 26 "SNARE HARD LH" 0 26
      0 27 "SNARE HARD RH" 0 27
      0 28 "SNARE RIM LH" 0 28
      0 29 "SNARE RIM RH" 0 29
      0 30 "HI-HAT LH" 0 30
      0 31 "HI-HAT RH" 0 31
      0 32 "PERCUSSION RH" 0 32
      0 33 "PERCUSSION LH" 0 33
      0 34 "CRASH1 HARD LH" 0 34
      0 35 "CRASH1 SOFT LH" 0 35
      0 36 "CRASH1 HARD RH" 0 36
      0 37 "CRASH1 SOFT RH" 0 37
      0 38 "CRASH2 HARD RH" 0 38
      0 39 "CRASH2 SOFT RH" 0 39
      0 40 "CRASH1 CHOKE" 0 40
      0 41 "CRASH2 CHOKE" 0 41
      0 42 "RIDE CYM RH" 0 42
      0 43 "RIDE CYM LH" 0 43
      0 44 "CRASH2 HARD LH" 0 44
      0 45 "CRASH2 SOFT LH" 0 45
      0 46 "TOM1 LH" 0 46
      0 47 "TOM1 RH" 0 47
      0 48 "TOM2 LH" 0 48
      0 49 "TOM2 RH" 0 49
      0 50 "FLOOR TOM LH" 0 50
      0 51 "FLOOR TOM RH" 0 51
      0 52 "--DRUM ANIMATION--" 0 52
      0 56 ---- 0 56
      0 60 "EASY Kick" 0 60
      0 61 "EASY Red" 0 61
      0 62 "EASY Yellow" 0 62
      0 63 "EASY Blue" 0 63
      0 64 "EASY Green" 0 64
      0 68 ---- 0 68
      0 72 "MEDIUM Kick" 0 72
      0 73 "MEDIUM Red" 0 73
      0 74 "MEDIUM Yellow" 0 74
      0 75 "MEDIUM Blue" 0 75
      0 76 "MEDIUM Green" 0 76
      0 80 ---- 0 80
      0 84 "HARD Kick" 0 84
      0 85 "HARD Red" 0 85
      0 86 "HARD Yellow" 0 86
      0 87 "HARD Blue" 0 87
      0 88 "HARD Green" 0 88
      0 92 ---- 0 92
      0 96 "EXPERT Kick" 0 96
      0 97 "EXPERT Red" 0 97
      0 98 "EXPERT Yellow" 0 98
      0 99 "EXPERT Blue" 0 99
      0 100 "EXPERT Green" 0 100
      0 101 "" 0 101
      0 102 ---- 0 102
      0 103 "Solo Marker" 0 103
      0 108 ---- 0 108
      0 110 "PRO Yellow Tom" 0 110
      0 111 "PRO Blue Tom" 0 111
      0 112 "PRO Green Tom" 0 112
      0 114 ---- 0 114
      0 116 OVERDRIVE 0 116
      0 118 ---- 0 118
      0 120 "DRUM FILL (use all 5)" 0 120
      0 121 "DRUM FILL" 0 121
      0 122 "DRUM FILL" 0 122
      0 123 "DRUM FILL" 0 123
      0 124 "DRUM FILL" 0 124
      0 125 ---- 0 125
      0 126 "Roll Marker 1-Lane" 0 126
      0 127 "Roll Marker 2-Lane / Cym" 0 127
    >
    MAINSEND 1 0
    <FXCHAIN
      WNDRECT 1935 518 877 574
      SHOW 0
      LASTSEL 1
      DOCKED 0
      BYPASS 1 0 0
      <VST "VSTi: ReaSynth (Cockos)" reasynth.dll 0 "" 1919251321<5653547265737972656173796E746800> ""
        eXNlcu9e7f4AAAAAAgAAAAEAAAAAAAAAAgAAAAAAAABEAAAAAAAAAAAAAAA=
        776t3g3wrd4AAAAAAAAAAAAAAAAAAAAAObRIPn3L2z61tLE5AAAAALbz/T5VpCs6AAAAAAAAAAAAAIA/AAAAAAAAgD8=
        AFByb2dyYW0gMQAAAAAA
      >
      FLOATPOS 0 0 0 0
      FXID {58F55556-9407-4062-A048-6AFCC0B53535}
      WAK 0 0
      BYPASS 0 0 0
      <VST "VSTi: RBN Preview (RBN)" rbprev_vst.dll 0 "" 1919053942<5653547262707672626E707265766965> ""
        dnBicu5e7f4AAAAAAgAAAAEAAAAAAAAAAgAAAAAAAAAEAAAAAQAAAAAAAAA=
        AwGqAA==
        AFByb2dyYW0gMQAAAAAA
      >
      FLOATPOS 32 32 659 497
      FXID {D7126437-AB1E-4109-A0FA-F2D5D0AC68DC}
      WAK 0 0
    >
    <ITEM
      POSITION 0
      SNAPOFFS 0
      LENGTH 224.86504361704624
      LOOP 0
      ALLTAKES 0
      FADEIN 1 0 0 1 0 0 0
      FADEOUT 1 0 0 1 0 0 0
      MUTE 0 0
      COLOR 19150555 R
      SEL 0
      IGUID {9FF11F36-E94F-4396-9C0E-8449C916EC21}
      IID 7
      NAME "PART DRUMS"
      VOLPAN 1 0 1 -1
      SOFFS 0 0
      PLAYRATE 1 1 0 -65536 0 0.0025
      CHANMODE 0
      GUID {70A79ADF-E70C-430A-913F-E16D0CC85517}
      <SOURCE MIDI
        HASDATA 1 480 QN
        CCINTERP 32
        POOLEDEVTS {EA2A27A1-F9FE-472A-B64C-69CB0A9D87E2}
        <X 0 0 0 0 3 "PART DRUMS"
          /wNQQVJUIERSVU1T
        >
        <X 300 0 0 0 1 "[mix 1 drums0]"
          /wFbbWl4IDEgZHJ1bXMwXQ==
        >
        <X 0 0 0 0 1 "[mix 0 drums0]"
          /wFbbWl4IDAgZHJ1bXMwXQ==
        >
        <X 60 0 0 0 1 "[mix 2 drums0]"
          /wFbbWl4IDIgZHJ1bXMwXQ==
        >
        <X 60 0 0 0 1 "[mix 3 drums0]"
          /wFbbWl4IDMgZHJ1bXMwXQ==
        >
        E 3420 90 60 60
        E 0 90 62 60
        E 0 90 74 7f
        E 0 90 54 60
        E 0 90 56 60
        E 0 90 48 60
        E 0 90 4a 60
        E 0 90 3c 60
        E 0 90 3e 60
        E 60 80 60 00
        E 0 80 62 00
        E 0 80 54 00
        E 0 80 56 00
        E 0 80 48 00
        E 0 80 4a 00
        E 0 80 3c 00
        E 0 80 3e 00
        E 180 90 62 60
        E 0 90 56 60
        E 60 80 62 00
        E 0 80 56 00
        E 180 90 62 60
        E 0 90 61 60
        E 0 90 56 60
        E 0 90 55 60
        E 0 90 4a 60
        E 0 90 49 60
        E 60 80 62 00
        E 0 80 61 00
        E 0 80 56 00
        E 0 80 55 00
        E 0 80 4a 00
        E 0 80 49 00
        E 180 90 60 60
        E 0 90 62 60
        E 0 90 54 60
        E 0 90 56 60
        E 60 80 60 00
        E 0 80 62 00
        E 0 80 54 00
        E 0 80 56 00
        E 180 80 74 00
        E 0 90 62 60
        E 0 90 60 60
        E 0 90 56 60
        E 0 90 54 60
        E 0 90 4a 60
        E 0 90 48 60
        E 0 90 3e 60
        E 0 90 3c 60
        E 60 80 62 00
        E 0 80 60 00
        E 0 80 56 00
        E 0 80 54 00
        E 0 80 4a 00
        E 0 80 48 00
        E 0 80 3e 00
        E 0 80 3c 00
        E 180 90 62 60
        E 0 90 56 60
        E 60 80 62 00
        E 0 80 56 00
        E 180 90 62 60
        E 0 90 61 60
        E 0 90 56 60
        E 0 90 55 60
        E 0 90 4a 60
        E 0 90 49 60
        E 60 80 62 00
        E 0 80 61 00
        E 0 80 56 00
        E 0 80 55 00
        E 0 80 4a 00
        E 0 80 49 00
        E 420 90 60 60
        E 0 90 62 60
        E 0 90 54 60
        E 0 90 56 60
        E 0 90 48 60
        E 0 90 4a 60
        E 0 90 3c 60
        E 0 90 3e 60
        E 60 80 60 00
        E 0 80 62 00
        E 0 80 54 00
        E 0 80 56 00
        E 0 80 48 00
        E 0 80 4a 00
        E 0 80 3c 00
        E 0 80 3e 00
        E 180 90 62 60
        E 0 90 56 60
        E 60 80 62 00
        E 0 80 56 00
        E 180 90 62 60
        E 0 90 61 60
        E 0 90 56 60
        E 0 90 55 60
        E 0 90 4a 60
        E 0 90 49 60
        E 60 80 62 00
        E 0 80 61 00
        E 0 80 56 00
        E 0 80 55 00
        E 0 80 4a 00
        E 0 80 49 00
        E 180 90 60 60
        E 0 90 62 60
        E 0 90 54 60
        E 0 90 56 60
        E 60 80 60 00
        E 0 80 62 00
        E 0 80 54 00
        E 0 80 56 00
        E 180 90 62 60
        E 0 90 60 60
        E 0 90 56 60
        E 0 90 54 60
        E 0 90 4a 60
        E 0 90 48 60
        E 0 90 3e 60
        E 0 90 3c 60
        E 60 80 62 00
        E 0 80 60 00
        E 0 80 56 00
        E 0 80 54 00
        E 0 80 4a 00
        E 0 80 48 00
        E 0 80 3e 00
        E 0 80 3c 00
        E 180 90 62 60
        E 0 90 56 60
        E 60 80 62 00
        E 0 80 56 00
        E 180 90 62 60
        E 0 90 61 60
        E 0 90 56 60
        E 0 90 55 60
        E 0 90 4a 60
        E 0 90 49 60
        E 60 80 62 00
        E 0 80 61 00
        E 0 80 56 00
        E 0 80 55 00
        E 0 80 4a 00
        E 0 80 49 00
        E 180 90 62 60
        E 0 90 56 60
        E 60 80 62 00
        E 0 80 56 00
        E 180 90 60 60
        E 0 90 62 60
        E 0 90 54 60
        E 0 90 56 60
        E 0 90 48 60
        E 0 90 4a 60
        E 0 90 3c 60
        E 0 90 3e 60
        E 60 80 60 00
        E 0 80 62 00
        E 0 80 54 00
        E 0 80 56 00
        E 0 80 48 00
        E 0 80 4a 00
        E 0 80 3c 00
        E 0 80 3e 00
        E 180 90 62 60
        E 0 90 56 60
        E 60 80 62 00
        E 0 80 56 00
        E 180 90 62 60
        E 0 90 61 60
        E 0 90 56 60
        E 0 90 55 60
        E 0 90 4a 60
        E 0 90 49 60
        E 60 80 62 00
        E 0 80 61 00
        E 0 80 56 00
        E 0 80 55 00
        E 0 80 4a 00
        E 0 80 49 00
        E 180 90 60 60
        E 0 90 62 60
        E 0 90 54 60
        E 0 90 56 60
        E 60 80 60 00
        E 0 80 62 00
        E 0 80 54 00
        E 0 80 56 00
        E 180 90 62 60
        E 0 90 60 60
        E 0 90 56 60
        E 0 90 54 60
        E 0 90 4a 60
        E 0 90 48 60
        E 0 90 3e 60
        E 0 90 3c 60
        E 60 80 62 00
        E 0 80 60 00
        E 0 80 56 00
        E 0 80 54 00
        E 0 80 4a 00
        E 0 80 48 00
        E 0 80 3e 00
        E 0 80 3c 00
        E 180 90 62 60
        E 0 90 56 60
        E 60 80 62 00
        E 0 80 56 00
        E 180 90 62 60
        E 0 90 61 60
        E 0 90 56 60
        E 0 90 55 60
        E 0 90 4a 60
        E 0 90 49 60
        E 60 80 62 00
        E 0 80 61 00
        E 0 80 56 00
        E 0 80 55 00
        E 0 80 4a 00
        E 0 80 49 00
        E 180 90 62 60
        E 0 90 56 60
        E 60 80 62 00
        E 0 80 56 00
        E 180 90 60 60
        E 0 90 62 60
        E 0 90 54 60
        E 0 90 56 60
        E 0 90 48 60
        E 0 90 4a 60
        E 0 90 3c 60
        E 0 90 3e 60
        E 60 80 60 00
        E 0 80 62 00
        E 0 80 54 00
        E 0 80 56 00
        E 0 80 48 00
        E 0 80 4a 00
        E 0 80 3c 00
        E 0 80 3e 00
        E 180 90 62 60
        E 0 90 56 60
        E 60 80 62 00
        E 0 80 56 00
        E 180 90 62 60
        E 0 90 61 60
        E 0 90 56 60
        E 0 90 55 60
        E 0 90 4a 60
        E 0 90 49 60
        E 60 80 62 00
        E 0 80 61 00
        E 0 80 56 00
        E 0 80 55 00
        E 0 80 4a 00
        E 0 80 49 00
        E 180 90 62 60
        E 0 90 56 60
        E 60 80 62 00
        E 0 80 56 00
        E 180 90 62 60
        E 0 90 60 60
        E 0 90 56 60
        E 0 90 54 60
        E 0 90 4a 60
        E 0 90 48 60
        E 0 90 3e 60
        E 0 90 3c 60
        E 60 80 62 00
        E 0 80 60 00
        E 0 80 56 00
        E 0 80 54 00
        E 0 80 4a 00
        E 0 80 48 00
        E 0 80 3e 00
        E 0 80 3c 00
        E 180 90 62 60
        E 0 90 60 60
        E 0 90 56 60
        E 0 90 54 60
        E 60 80 62 00
        E 0 80 60 00
        E 0 80 56 00
        E 0 80 54 00
        E 180 90 62 60
        E 0 90 61 60
        E 0 90 56 60
        E 0 90 55 60
        E 0 90 4a 60
        E 0 90 49 60
        E 60 80 62 00
        E 0 80 61 00
        E 0 80 56 00
        E 0 80 55 00
        E 0 80 4a 00
        E 0 80 49 00
        E 180 90 62 60
        E 0 90 56 60
        E 60 80 62 00
        E 0 80 56 00
        E 180 90 60 60
        E 0 90 62 60
        E 0 90 54 60
        E 0 90 56 60
        E 0 90 48 60
        E 0 90 4a 60
        E 0 90 3c 60
        E 0 90 3e 60
        E 60 80 60 00
        E 0 80 62 00
        E 0 80 54 00
        E 0 80 56 00
        E 0 80 48 00
        E 0 80 4a 00
        E 0 80 3c 00
        E 0 80 3e 00
        E 180 90 62 60
        E 0 90 56 60
        E 60 80 62 00
        E 0 80 56 00
        E 180 90 62 60
        E 0 90 61 60
        E 0 90 56 60
        E 0 90 55 60
        E 0 90 4a 60
        E 0 90 49 60
        E 60 80 62 00
        E 0 80 61 00
        E 0 80 56 00
        E 0 80 55 00
        E 0 80 4a 00
        E 0 80 49 00
        E 180 90 60 60
        E 0 90 62 60
        E 0 90 54 60
        E 0 90 56 60
        E 60 80 60 00
        E 0 80 62 00
        E 0 80 54 00
        E 0 80 56 00
        E 180 90 62 60
        E 0 90 60 60
        E 0 90 56 60
        E 0 90 54 60
        E 0 90 4a 60
        E 0 90 48 60
        E 0 90 3e 60
        E 0 90 3c 60
        E 60 80 62 00
        E 0 80 60 00
        E 0 80 56 00
        E 0 80 54 00
        E 0 80 4a 00
        E 0 80 48 00
        E 0 80 3e 00
        E 0 80 3c 00
        E 180 90 62 60
        E 0 90 56 60
        E 60 80 62 00
        E 0 80 56 00
        E 180 90 62 60
        E 0 90 61 60
        E 0 90 56 60
        E 0 90 55 60
        E 0 90 4a 60
        E 0 90 49 60
        E 60 80 62 00
        E 0 80 61 00
        E 0 80 56 00
        E 0 80 55 00
        E 0 80 4a 00
        E 0 80 49 00
        E 180 90 62 60
        E 0 90 56 60
        E 60 80 62 00
        E 0 80 56 00
        E 180 90 60 60
        E 0 90 62 60
        E 0 90 54 60
        E 0 90 56 60
        E 0 90 48 60
        E 0 90 4a 60
        E 0 90 3c 60
        E 0 90 3e 60
        E 60 80 60 00
        E 0 80 62 00
        E 0 80 54 00
        E 0 80 56 00
        E 0 80 48 00
        E 0 80 4a 00
        E 0 80 3c 00
        E 0 80 3e 00
        E 180 90 62 60
        E 0 90 56 60
        E 60 80 62 00
        E 0 80 56 00
        E 180 90 62 60
        E 0 90 61 60
        E 0 90 56 60
        E 0 90 55 60
        E 0 90 4a 60
        E 0 90 49 60
        E 60 80 62 00
        E 0 80 61 00
        E 0 80 56 00
        E 0 80 55 00
        E 0 80 4a 00
        E 0 80 49 00
        E 180 90 60 60
        E 0 90 62 60
        E 0 90 54 60
        E 0 90 56 60
        E 60 80 60 00
        E 0 80 62 00
        E 0 80 54 00
        E 0 80 56 00
        E 180 90 62 60
        E 0 90 60 60
        E 0 90 56 60
        E 0 90 54 60
        E 0 90 4a 60
        E 0 90 48 60
        E 0 90 3e 60
        E 0 90 3c 60
        E 60 80 62 00
        E 0 80 60 00
        E 0 80 56 00
        E 0 80 54 00
        E 0 80 4a 00
        E 0 80 48 00
        E 0 80 3e 00
        E 0 80 3c 00
        E 180 90 62 60
        E 0 90 56 60
        E 60 80 62 00
        E 0 80 56 00
        E 180 90 62 60
        E 0 90 61 60
        E 0 90 56 60
        E 0 90 55 60
        E 0 90 4a 60
        E 0 90 49 60
        E 60 80 62 00
        E 0 80 61 00
        E 0 80 56 00
        E 0 80 55 00
        E 0 80 4a 00
        E 0 80 49 00
        E 180 90 62 60
        E 0 90 56 60
        E 60 80 62 00
        E 0 80 56 00
        E 180 90 60 60
        E 0 90 62 60
        E 0 90 54 60
        E 0 90 56 60
        E 0 90 48 60
        E 0 90 4a 60
        E 0 90 3c 60
        E 0 90 3e 60
        E 60 80 60 00
        E 0 80 62 00
        E 0 80 54 00
        E 0 80 56 00
        E 0 80 48 00
        E 0 80 4a 00
        E 0 80 3c 00
        E 0 80 3e 00
        E 180 90 62 60
        E 0 90 56 60
        E 60 80 62 00
        E 0 80 56 00
        E 180 90 62 60
        E 0 90 61 60
        E 0 90 56 60
        E 0 90 55 60
        E 0 90 4a 60
        E 0 90 49 60
        E 60 80 62 00
        E 0 80 61 00
        E 0 80 56 00
        E 0 80 55 00
        E 0 80 4a 00
        E 0 80 49 00
        E 180 90 60 60
        E 0 90 62 60
        E 0 90 54 60
        E 0 90 56 60
        E 60 80 60 00
        E 0 80 62 00
        E 0 80 54 00
        E 0 80 56 00
        E 180 90 62 60
        E 0 90 60 60
        E 0 90 56 60
        E 0 90 54 60
        E 0 90 4a 60
        E 0 90 48 60
        E 0 90 3e 60
        E 0 90 3c 60
        E 60 80 62 00
        E 0 80 60 00
        E 0 80 56 00
        E 0 80 54 00
        E 0 80 4a 00
        E 0 80 48 00
        E 0 80 3e 00
        E 0 80 3c 00
        E 180 90 62 60
        E 0 90 56 60
        E 60 80 62 00
        E 0 80 56 00
        E 180 90 62 60
        E 0 90 61 60
        E 0 90 56 60
        E 0 90 55 60
        E 0 90 4a 60
        E 0 90 49 60
        E 60 80 62 00
        E 0 80 61 00
        E 0 80 56 00
        E 0 80 55 00
        E 0 80 4a 00
        E 0 80 49 00
        E 180 90 62 60
        E 0 90 56 60
        E 60 80 62 00
        E 0 80 56 00
        E 180 90 60 60
        E 0 90 62 60
        E 0 90 54 60
        E 0 90 56 60
        E 0 90 48 60
        E 0 90 4a 60
        E 0 90 3c 60
        E 0 90 3e 60
        E 60 80 60 00
        E 0 80 62 00
        E 0 80 54 00
        E 0 80 56 00
        E 0 80 48 00
        E 0 80 4a 00
        E 0 80 3c 00
        E 0 80 3e 00
        E 180 90 62 60
        E 0 90 56 60
        E 60 80 62 00
        E 0 80 56 00
        E 180 90 62 60
        E 0 90 61 60
        E 0 90 56 60
        E 0 90 55 60
        E 0 90 4a 60
        E 0 90 49 60
        E 60 80 62 00
        E 0 80 61 00
        E 0 80 56 00
        E 0 80 55 00
        E 0 80 4a 00
        E 0 80 49 00
        E 180 90 62 60
        E 0 90 60 60
        E 0 90 56 60
        E 0 90 54 60
        E 60 80 62 00
        E 0 80 60 00
        E 0 80 56 00
        E 0 80 54 00
        E 180 90 7b 7f
        E 0 90 62 60
        E 0 90 60 60
        E 0 90 78 7f
        E 0 90 79 7f
        E 0 90 7a 7f
        E 0 90 56 60
        E 0 90 54 60
        E 0 90 4a 60
        E 0 90 48 60
        E 0 90 3e 60
        E 0 90 3c 60
        E 0 90 7c 7f
        E 60 80 62 00
        E 0 80 60 00
        E 0 80 56 00
        E 0 80 54 00
        E 0 80 4a 00
        E 0 80 48 00
        E 0 80 3e 00
        E 0 80 3c 00
        E 180 90 62 60
        E 0 90 60 60
        E 0 90 56 60
        E 0 90 54 60
        E 60 80 62 00
        E 0 80 60 00
        E 0 80 56 00
        E 0 80 54 00
        E 180 90 63 60
        E 0 90 61 60
        E 0 90 57 60
        E 0 90 55 60
        E 0 90 4b 60
        E 0 90 49 60
        E 60 80 63 00
        E 0 80 61 00
        E 0 80 57 00
        E 0 80 55 00
        E 0 80 4b 00
        E 0 80 49 00
        E 180 90 62 60
        E 0 90 56 60
        E 60 80 62 00
        E 0 80 56 00
        E 180 80 7b 00
        E 0 80 78 00
        E 0 80 79 00
        E 0 80 7a 00
        E 0 80 7c 00
        E 0 90 60 60
        E 0 90 62 60
        E 0 90 54 60
        E 0 90 56 60
        E 0 90 48 60
        E 0 90 4a 60
        E 0 90 3c 60
        E 0 90 3e 60
        E 60 80 60 00
        E 0 80 62 00
        E 0 80 54 00
        E 0 80 56 00
        E 0 80 48 00
        E 0 80 4a 00
        E 0 80 3c 00
        E 0 80 3e 00
        E 180 90 62 60
        E 0 90 56 60
        E 60 80 62 00
        E 0 80 56 00
        E 180 90 62 60
        E 0 90 61 60
        E 0 90 56 60
        E 0 90 55 60
        E 0 90 4a 60
        E 0 90 49 60
        E 60 80 62 00
        E 0 80 61 00
        E 0 80 56 00
        E 0 80 55 00
        E 0 80 4a 00
        E 0 80 49 00
        E 180 90 60 60
        E 0 90 62 60
        E 0 90 54 60
        E 0 90 56 60
        E 60 80 60 00
        E 0 80 62 00
        E 0 80 54 00
        E 0 80 56 00
        E 180 90 62 60
        E 0 90 60 60
        E 0 90 56 60
        E 0 90 54 60
        E 0 90 4a 60
        E 0 90 48 60
        E 0 90 3e 60
        E 0 90 3c 60
        E 60 80 62 00
        E 0 80 60 00
        E 0 80 56 00
        E 0 80 54 00
        E 0 80 4a 00
        E 0 80 48 00
        E 0 80 3e 00
        E 0 80 3c 00
        E 180 90 62 60
        E 0 90 56 60
        E 60 80 62 00
        E 0 80 56 00
        E 180 90 62 60
        E 0 90 61 60
        E 0 90 56 60
        E 0 90 55 60
        E 0 90 4a 60
        E 0 90 49 60
        E 60 80 62 00
        E 0 80 61 00
        E 0 80 56 00
        E 0 80 55 00
        E 0 80 4a 00
        E 0 80 49 00
        E 180 90 62 60
        E 0 90 56 60
        E 60 80 62 00
        E 0 80 56 00
        E 180 90 60 60
        E 0 90 62 60
        E 0 90 54 60
        E 0 90 56 60
        E 0 90 48 60
        E 0 90 4a 60
        E 0 90 3c 60
        E 0 90 3e 60
        E 60 80 60 00
        E 0 80 62 00
        E 0 80 54 00
        E 0 80 56 00
        E 0 80 48 00
        E 0 80 4a 00
        E 0 80 3c 00
        E 0 80 3e 00
        E 180 90 62 60
        E 0 90 56 60
        E 60 80 62 00
        E 0 80 56 00
        E 180 90 62 60
        E 0 90 61 60
        E 0 90 56 60
        E 0 90 55 60
        E 0 90 4a 60
        E 0 90 49 60
        E 60 80 62 00
        E 0 80 61 00
        E 0 80 56 00
        E 0 80 55 00
        E 0 80 4a 00
        E 0 80 49 00
        E 180 90 60 60
        E 0 90 62 60
        E 0 90 54 60
        E 0 90 56 60
        E 60 80 60 00
        E 0 80 62 00
        E 0 80 54 00
        E 0 80 56 00
        E 180 90 62 60
        E 0 90 60 60
        E 0 90 56 60
        E 0 90 54 60
        E 0 90 4a 60
        E 0 90 48 60
        E 0 90 3e 60
        E 0 90 3c 60
        E 60 80 62 00
        E 0 80 60 00
        E 0 80 56 00
        E 0 80 54 00
        E 0 80 4a 00
        E 0 80 48 00
        E 0 80 3e 00
        E 0 80 3c 00
        E 180 90 62 60
        E 0 90 56 60
        E 60 80 62 00
        E 0 80 56 00
        E 180 90 62 60
        E 0 90 61 60
        E 0 90 56 60
        E 0 90 55 60
        E 0 90 4a 60
        E 0 90 49 60
        E 60 80 62 00
        E 0 80 61 00
        E 0 80 56 00
        E 0 80 55 00
        E 0 80 4a 00
        E 0 80 49 00
        E 180 90 62 60
        E 0 90 56 60
        E 60 80 62 00
        E 0 80 56 00
        E 180 90 60 60
        E 0 90 62 60
        E 0 90 54 60
        E 0 90 56 60
        E 0 90 48 60
        E 0 90 4a 60
        E 0 90 3c 60
        E 0 90 3e 60
        E 60 80 60 00
        E 0 80 62 00
        E 0 80 54 00
        E 0 80 56 00
        E 0 80 48 00
        E 0 80 4a 00
        E 0 80 3c 00
        E 0 80 3e 00
        E 180 90 62 60
        E 0 90 56 60
        E 60 80 62 00
        E 0 80 56 00
        E 180 90 62 60
        E 0 90 61 60
        E 0 90 56 60
        E 0 90 55 60
        E 0 90 4a 60
        E 0 90 49 60
        E 60 80 62 00
        E 0 80 61 00
        E 0 80 56 00
        E 0 80 55 00
        E 0 80 4a 00
        E 0 80 49 00
        E 180 90 60 60
        E 0 90 62 60
        E 0 90 54 60
        E 0 90 56 60
        E 60 80 60 00
        E 0 80 62 00
        E 0 80 54 00
        E 0 80 56 00
        E 180 90 62 60
        E 0 90 60 60
        E 0 90 56 60
        E 0 90 54 60
        E 0 90 4a 60
        E 0 90 48 60
        E 0 90 3e 60
        E 0 90 3c 60
        E 60 80 62 00
        E 0 80 60 00
        E 0 80 56 00
        E 0 80 54 00
        E 0 80 4a 00
        E 0 80 48 00
        E 0 80 3e 00
        E 0 80 3c 00
        E 180 90 62 60
        E 0 90 56 60
        E 60 80 62 00
        E 0 80 56 00
        E 180 90 62 60
        E 0 90 61 60
        E 0 90 56 60
        E 0 90 55 60
        E 0 90 4a 60
        E 0 90 49 60
        E 60 80 62 00
        E 0 80 61 00
        E 0 80 56 00
        E 0 80 55 00
        E 0 80 4a 00
        E 0 80 49 00
        E 180 90 62 60
        E 0 90 56 60
        E 60 80 62 00
        E 0 80 56 00
        E 180 90 60 60
        E 0 90 62 60
        E 0 90 54 60
        E 0 90 56 60
        E 0 90 48 60
        E 0 90 4a 60
        E 0 90 3c 60
        E 0 90 3e 60
        E 60 80 60 00
        E 0 80 62 00
        E 0 80 54 00
        E 0 80 56 00
        E 0 80 48 00
        E 0 80 4a 00
        E 0 80 3c 00
        E 0 80 3e 00
        E 180 90 62 60
        E 0 90 56 60
        E 60 80 62 00
        E 0 80 56 00
        E 180 90 62 60
        E 0 90 61 60
        E 0 90 56 60
        E 0 90 55 60
        E 0 90 4a 60
        E 0 90 49 60
        E 60 80 62 00
        E 0 80 61 00
        E 0 80 56 00
        E 0 80 55 00
        E 0 80 4a 00
        E 0 80 49 00
        E 180 90 62 60
        E 0 90 56 60
        E 60 80 62 00
        E 0 80 56 00
        E 180 90 60 60
        E 0 90 62 60
        E 0 90 54 60
        E 0 90 56 60
        E 0 90 48 60
        E 0 90 4a 60
        E 0 90 3c 60
        E 0 90 3e 60
        E 60 80 60 00
        E 0 80 62 00
        E 0 80 54 00
        E 0 80 56 00
        E 0 80 48 00
        E 0 80 4a 00
        E 0 80 3c 00
        E 0 80 3e 00
        E 180 90 60 60
        E 0 90 62 60
        E 0 90 54 60
        E 0 90 56 60
        E 60 80 60 00
        E 0 80 62 00
        E 0 80 54 00
        E 0 80 56 00
        E 180 90 62 60
        E 0 90 61 60
        E 0 90 56 60
        E 0 90 55 60
        E 0 90 4a 60
        E 0 90 49 60
        E 60 80 62 00
        E 0 80 61 00
        E 0 80 56 00
        E 0 80 55 00
        E 0 80 4a 00
        E 0 80 49 00
        E 180 90 62 60
        E 0 90 56 60
        E 60 80 62 00
        E 0 80 56 00
        E 180 90 60 60
        E 0 90 62 60
        E 0 90 54 60
        E 0 90 56 60
        E 0 90 48 60
        E 0 90 4a 60
        E 0 90 3c 60
        E 0 90 3e 60
        E 60 80 60 00
        E 0 80 62 00
        E 0 80 54 00
        E 0 80 56 00
        E 0 80 48 00
        E 0 80 4a 00
        E 0 80 3c 00
        E 0 80 3e 00
        E 180 90 62 60
        E 0 90 56 60
        E 60 80 62 00
        E 0 80 56 00
        E 180 90 62 60
        E 0 90 61 60
        E 0 90 56 60
        E 0 90 55 60
        E 0 90 4a 60
        E 0 90 49 60
        E 60 80 62 00
        E 0 80 61 00
        E 0 80 56 00
        E 0 80 55 00
        E 0 80 4a 00
        E 0 80 49 00
        E 180 90 60 60
        E 0 90 62 60
        E 0 90 54 60
        E 0 90 56 60
        E 60 80 60 00
        E 0 80 62 00
        E 0 80 54 00
        E 0 80 56 00
        E 180 90 62 60
        E 0 90 60 60
        E 0 90 56 60
        E 0 90 54 60
        E 0 90 4a 60
        E 0 90 48 60
        E 0 90 3e 60
        E 0 90 3c 60
        E 60 80 62 00
        E 0 80 60 00
        E 0 80 56 00
        E 0 80 54 00
        E 0 80 4a 00
        E 0 80 48 00
        E 0 80 3e 00
        E 0 80 3c 00
        E 180 90 62 60
        E 0 90 56 60
        E 60 80 62 00
        E 0 80 56 00
        E 180 90 62 60
        E 0 90 61 60
        E 0 90 56 60
        E 0 90 55 60
        E 0 90 4a 60
        E 0 90 49 60
        E 60 80 62 00
        E 0 80 61 00
        E 0 80 56 00
        E 0 80 55 00
        E 0 80 4a 00
        E 0 80 49 00
        E 180 90 62 60
        E 0 90 56 60
        E 60 80 62 00
        E 0 80 56 00
        E 180 90 60 60
        E 0 90 62 60
        E 0 90 54 60
        E 0 90 56 60
        E 0 90 48 60
        E 0 90 4a 60
        E 0 90 3c 60
        E 0 90 3e 60
        E 60 80 60 00
        E 0 80 62 00
        E 0 80 54 00
        E 0 80 56 00
        E 0 80 48 00
        E 0 80 4a 00
        E 0 80 3c 00
        E 0 80 3e 00
        E 180 90 62 60
        E 0 90 56 60
        E 60 80 62 00
        E 0 80 56 00
        E 180 90 62 60
        E 0 90 61 60
        E 0 90 56 60
        E 0 90 55 60
        E 0 90 4a 60
        E 0 90 49 60
        E 60 80 62 00
        E 0 80 61 00
        E 0 80 56 00
        E 0 80 55 00
        E 0 80 4a 00
        E 0 80 49 00
        E 180 90 60 60
        E 0 90 62 60
        E 0 90 54 60
        E 0 90 56 60
        E 60 80 60 00
        E 0 80 62 00
        E 0 80 54 00
        E 0 80 56 00
        E 180 90 62 60
        E 0 90 60 60
        E 0 90 56 60
        E 0 90 54 60
        E 0 90 4a 60
        E 0 90 48 60
        E 0 90 3e 60
        E 0 90 3c 60
        E 60 80 62 00
        E 0 80 60 00
        E 0 80 56 00
        E 0 80 54 00
        E 0 80 4a 00
        E 0 80 48 00
        E 0 80 3e 00
        E 0 80 3c 00
        E 180 90 62 60
        E 0 90 56 60
        E 60 80 62 00
        E 0 80 56 00
        E 180 90 62 60
        E 0 90 61 60
        E 0 90 56 60
        E 0 90 55 60
        E 0 90 4a 60
        E 0 90 49 60
        E 60 80 62 00
        E 0 80 61 00
        E 0 80 56 00
        E 0 80 55 00
        E 0 80 4a 00
        E 0 80 49 00
        E 180 90 62 60
        E 0 90 56 60
        E 60 80 62 00
        E 0 80 56 00
        E 180 90 60 60
        E 0 90 62 60
        E 0 90 54 60
        E 0 90 56 60
        E 0 90 48 60
        E 0 90 4a 60
        E 0 90 3c 60
        E 0 90 3e 60
        E 60 80 60 00
        E 0 80 62 00
        E 0 80 54 00
        E 0 80 56 00
        E 0 80 48 00
        E 0 80 4a 00
        E 0 80 3c 00
        E 0 80 3e 00
        E 180 90 62 60
        E 0 90 56 60
        E 60 80 62 00
        E 0 80 56 00
        E 180 90 62 60
        E 0 90 61 60
        E 0 90 56 60
        E 0 90 55 60
        E 0 90 4a 60
        E 0 90 49 60
        E 60 80 62 00
        E 0 80 61 00
        E 0 80 56 00
        E 0 80 55 00
        E 0 80 4a 00
        E 0 80 49 00
        E 180 90 60 60
        E 0 90 62 60
        E 0 90 54 60
        E 0 90 56 60
        E 60 80 60 00
        E 0 80 62 00
        E 0 80 54 00
        E 0 80 56 00
        E 180 90 62 60
        E 0 90 60 60
        E 0 90 56 60
        E 0 90 54 60
        E 0 90 4a 60
        E 0 90 48 60
        E 0 90 3e 60
        E 0 90 3c 60
        E 60 80 62 00
        E 0 80 60 00
        E 0 80 56 00
        E 0 80 54 00
        E 0 80 4a 00
        E 0 80 48 00
        E 0 80 3e 00
        E 0 80 3c 00
        E 180 90 62 60
        E 0 90 56 60
        E 60 80 62 00
        E 0 80 56 00
        E 180 90 62 60
        E 0 90 61 60
        E 0 90 56 60
        E 0 90 55 60
        E 0 90 4a 60
        E 0 90 49 60
        E 60 80 62 00
        E 0 80 61 00
        E 0 80 56 00
        E 0 80 55 00
        E 0 80 4a 00
        E 0 80 49 00
        E 180 90 62 60
        E 0 90 56 60
        E 60 80 62 00
        E 0 80 56 00
        E 180 90 60 60
        E 0 90 62 60
        E 0 90 54 60
        E 0 90 56 60
        E 0 90 48 60
        E 0 90 4a 60
        E 0 90 3c 60
        E 0 90 3e 60
        E 60 80 60 00
        E 0 80 62 00
        E 0 80 54 00
        E 0 80 56 00
        E 0 80 48 00
        E 0 80 4a 00
        E 0 80 3c 00
        E 0 80 3e 00
        E 180 90 62 60
        E 0 90 56 60
        E 60 80 62 00
        E 0 80 56 00
        E 180 90 62 60
        E 0 90 61 60
        E 0 90 56 60
        E 0 90 55 60
        E 0 90 4a 60
        E 0 90 49 60
        E 60 80 62 00
        E 0 80 61 00
        E 0 80 56 00
        E 0 80 55 00
        E 0 80 4a 00
        E 0 80 49 00
        E 180 90 62 60
        E 0 90 56 60
        E 60 80 62 00
        E 0 80 56 00
        E 180 90 62 60
        E 0 90 60 60
        E 0 90 56 60
        E 0 90 54 60
        E 0 90 4a 60
        E 0 90 48 60
        E 0 90 3e 60
        E 0 90 3c 60
        E 60 80 62 00
        E 0 80 60 00
        E 0 80 56 00
        E 0 80 54 00
        E 0 80 4a 00
        E 0 80 48 00
        E 0 80 3e 00
        E 0 80 3c 00
        E 180 90 62 60
        E 0 90 60 60
        E 0 90 56 60
        E 0 90 54 60
        E 60 80 62 00
        E 0 80 60 00
        E 0 80 56 00
        E 0 80 54 00
        E 180 90 63 60
        E 0 90 61 60
        E 0 90 57 60
        E 0 90 55 60
        E 0 90 4b 60
        E 0 90 49 60
        E 60 80 63 00
        E 0 80 61 00
        E 0 80 57 00
        E 0 80 55 00
        E 0 80 4b 00
        E 0 80 49 00
        E 180 90 61 60
        E 0 90 55 60
        E 60 80 61 00
        E 0 80 55 00
        E 60 90 61 60
        E 60 80 61 00
        E 60 90 64 60
        E 0 90 60 60
        E 0 90 58 60
        E 0 90 54 60
        E 0 90 4c 60
        E 0 90 48 60
        E 0 90 40 60
        E 0 90 3c 60
        E 60 80 64 00
        E 0 80 60 00
        E 0 80 58 00
        E 0 80 54 00
        E 0 80 4c 00
        E 0 80 48 00
        E 0 80 40 00
        E 0 80 3c 00
        E 420 90 62 60
        E 0 90 61 60
        E 0 90 56 60
        E 0 90 55 60
        E 0 90 4a 60
        E 0 90 49 60
        E 60 80 62 00
        E 0 80 61 00
        E 0 80 56 00
        E 0 80 55 00
        E 0 80 4a 00
        E 0 80 49 00
        E 180 90 60 60
        E 0 90 62 60
        E 0 90 54 60
        E 0 90 56 60
        E 60 80 60 00
        E 0 80 62 00
        E 0 80 54 00
        E 0 80 56 00
        E 180 90 62 60
        E 0 90 60 60
        E 0 90 56 60
        E 0 90 54 60
        E 0 90 4a 60
        E 0 90 48 60
        E 0 90 3e 60
        E 0 90 3c 60
        E 60 80 62 00
        E 0 80 60 00
        E 0 80 56 00
        E 0 80 54 00
        E 0 80 4a 00
        E 0 80 48 00
        E 0 80 3e 00
        E 0 80 3c 00
        E 180 90 62 60
        E 0 90 56 60
        E 60 80 62 00
        E 0 80 56 00
        E 180 90 62 60
        E 0 90 61 60
        E 0 90 56 60
        E 0 90 55 60
        E 0 90 4a 60
        E 0 90 49 60
        E 60 80 62 00
        E 0 80 61 00
        E 0 80 56 00
        E 0 80 55 00
        E 0 80 4a 00
        E 0 80 49 00
        E 180 90 62 60
        E 0 90 56 60
        E 60 80 62 00
        E 0 80 56 00
        E 180 90 60 60
        E 0 90 62 60
        E 0 90 54 60
        E 0 90 56 60
        E 0 90 48 60
        E 0 90 4a 60
        E 0 90 3c 60
        E 0 90 3e 60
        E 60 80 60 00
        E 0 80 62 00
        E 0 80 54 00
        E 0 80 56 00
        E 0 80 48 00
        E 0 80 4a 00
        E 0 80 3c 00
        E 0 80 3e 00
        E 180 90 62 60
        E 0 90 56 60
        E 60 80 62 00
        E 0 80 56 00
        E 180 90 62 60
        E 0 90 61 60
        E 0 90 56 60
        E 0 90 55 60
        E 0 90 4a 60
        E 0 90 49 60
        E 60 80 62 00
        E 0 80 61 00
        E 0 80 56 00
        E 0 80 55 00
        E 0 80 4a 00
        E 0 80 49 00
        E 180 90 60 60
        E 0 90 62 60
        E 0 90 54 60
        E 0 90 56 60
        E 60 80 60 00
        E 0 80 62 00
        E 0 80 54 00
        E 0 80 56 00
        E 180 90 62 60
        E 0 90 60 60
        E 0 90 56 60
        E 0 90 54 60
        E 0 90 4a 60
        E 0 90 48 60
        E 0 90 3e 60
        E 0 90 3c 60
        E 60 80 62 00
        E 0 80 60 00
        E 0 80 56 00
        E 0 80 54 00
        E 0 80 4a 00
        E 0 80 48 00
        E 0 80 3e 00
        E 0 80 3c 00
        E 180 90 62 60
        E 0 90 56 60
        E 60 80 62 00
        E 0 80 56 00
        E 180 90 62 60
        E 0 90 61 60
        E 0 90 56 60
        E 0 90 55 60
        E 0 90 4a 60
        E 0 90 49 60
        E 60 80 62 00
        E 0 80 61 00
        E 0 80 56 00
        E 0 80 55 00
        E 0 80 4a 00
        E 0 80 49 00
        E 180 90 62 60
        E 0 90 56 60
        E 60 80 62 00
        E 0 80 56 00
        E 180 90 60 60
        E 0 90 62 60
        E 0 90 54 60
        E 0 90 56 60
        E 0 90 48 60
        E 0 90 4a 60
        E 0 90 3c 60
        E 0 90 3e 60
        E 60 80 60 00
        E 0 80 62 00
        E 0 80 54 00
        E 0 80 56 00
        E 0 80 48 00
        E 0 80 4a 00
        E 0 80 3c 00
        E 0 80 3e 00
        E 180 90 62 60
        E 0 90 56 60
        E 60 80 62 00
        E 0 80 56 00
        E 180 90 62 60
        E 0 90 61 60
        E 0 90 56 60
        E 0 90 55 60
        E 0 90 4a 60
        E 0 90 49 60
        E 60 80 62 00
        E 0 80 61 00
        E 0 80 56 00
        E 0 80 55 00
        E 0 80 4a 00
        E 0 80 49 00
        E 180 90 60 60
        E 0 90 62 60
        E 0 90 54 60
        E 0 90 56 60
        E 60 80 60 00
        E 0 80 62 00
        E 0 80 54 00
        E 0 80 56 00
        E 180 90 62 60
        E 0 90 60 60
        E 0 90 56 60
        E 0 90 54 60
        E 0 90 4a 60
        E 0 90 48 60
        E 0 90 3e 60
        E 0 90 3c 60
        E 60 80 62 00
        E 0 80 60 00
        E 0 80 56 00
        E 0 80 54 00
        E 0 80 4a 00
        E 0 80 48 00
        E 0 80 3e 00
        E 0 80 3c 00
        E 180 90 62 60
        E 0 90 56 60
        E 60 80 62 00
        E 0 80 56 00
        E 180 90 62 60
        E 0 90 61 60
        E 0 90 56 60
        E 0 90 55 60
        E 0 90 4a 60
        E 0 90 49 60
        E 60 80 62 00
        E 0 80 61 00
        E 0 80 56 00
        E 0 80 55 00
        E 0 80 4a 00
        E 0 80 49 00
        E 180 90 62 60
        E 0 90 56 60
        E 60 80 62 00
        E 0 80 56 00
        E 180 90 60 60
        E 0 90 62 60
        E 0 90 54 60
        E 0 90 56 60
        E 0 90 48 60
        E 0 90 4a 60
        E 0 90 3c 60
        E 0 90 3e 60
        E 60 80 60 00
        E 0 80 62 00
        E 0 80 54 00
        E 0 80 56 00
        E 0 80 48 00
        E 0 80 4a 00
        E 0 80 3c 00
        E 0 80 3e 00
        E 180 90 62 60
        E 0 90 56 60
        E 60 80 62 00
        E 0 80 56 00
        E 180 90 62 60
        E 0 90 61 60
        E 0 90 56 60
        E 0 90 55 60
        E 0 90 4a 60
        E 0 90 49 60
        E 60 80 62 00
        E 0 80 61 00
        E 0 80 56 00
        E 0 80 55 00
        E 0 80 4a 00
        E 0 80 49 00
        E 180 90 60 60
        E 0 90 62 60
        E 0 90 54 60
        E 0 90 56 60
        E 60 80 60 00
        E 0 80 62 00
        E 0 80 54 00
        E 0 80 56 00
        E 180 90 62 60
        E 0 90 60 60
        E 0 90 56 60
        E 0 90 54 60
        E 0 90 4a 60
        E 0 90 48 60
        E 0 90 3e 60
        E 0 90 3c 60
        E 60 80 62 00
        E 0 80 60 00
        E 0 80 56 00
        E 0 80 54 00
        E 0 80 4a 00
        E 0 80 48 00
        E 0 80 3e 00
        E 0 80 3c 00
        E 180 90 62 60
        E 0 90 56 60
        E 60 80 62 00
        E 0 80 56 00
        E 180 90 62 60
        E 0 90 61 60
        E 0 90 56 60
        E 0 90 55 60
        E 0 90 4a 60
        E 0 90 49 60
        E 60 80 62 00
        E 0 80 61 00
        E 0 80 56 00
        E 0 80 55 00
        E 0 80 4a 00
        E 0 80 49 00
        E 180 90 62 60
        E 0 90 56 60
        E 60 80 62 00
        E 0 80 56 00
        E 180 90 60 60
        E 0 90 62 60
        E 0 90 54 60
        E 0 90 56 60
        E 0 90 48 60
        E 0 90 4a 60
        E 0 90 3c 60
        E 0 90 3e 60
        E 60 80 60 00
        E 0 80 62 00
        E 0 80 54 00
        E 0 80 56 00
        E 0 80 48 00
        E 0 80 4a 00
        E 0 80 3c 00
        E 0 80 3e 00
        E 180 90 62 60
        E 0 90 56 60
        E 60 80 62 00
        E 0 80 56 00
        E 180 90 62 60
        E 0 90 61 60
        E 0 90 56 60
        E 0 90 55 60
        E 0 90 4a 60
        E 0 90 49 60
        E 60 80 62 00
        E 0 80 61 00
        E 0 80 56 00
        E 0 80 55 00
        E 0 80 4a 00
        E 0 80 49 00
        E 180 90 60 60
        E 0 90 62 60
        E 0 90 54 60
        E 0 90 56 60
        E 60 80 60 00
        E 0 80 62 00
        E 0 80 54 00
        E 0 80 56 00
        E 180 90 62 60
        E 0 90 60 60
        E 0 90 56 60
        E 0 90 54 60
        E 0 90 4a 60
        E 0 90 48 60
        E 0 90 3e 60
        E 0 90 3c 60
        E 60 80 62 00
        E 0 80 60 00
        E 0 80 56 00
        E 0 80 54 00
        E 0 80 4a 00
        E 0 80 48 00
        E 0 80 3e 00
        E 0 80 3c 00
        E 180 90 62 60
        E 0 90 56 60
        E 60 80 62 00
        E 0 80 56 00
        E 180 90 62 60
        E 0 90 61 60
        E 0 90 56 60
        E 0 90 55 60
        E 0 90 4a 60
        E 0 90 49 60
        E 60 80 62 00
        E 0 80 61 00
        E 0 80 56 00
        E 0 80 55 00
        E 0 80 4a 00
        E 0 80 49 00
        E 180 90 62 60
        E 0 90 56 60
        E 60 80 62 00
        E 0 80 56 00
        E 180 90 60 60
        E 0 90 62 60
        E 0 90 54 60
        E 0 90 56 60
        E 0 90 48 60
        E 0 90 4a 60
        E 0 90 3c 60
        E 0 90 3e 60
        E 60 80 60 00
        E 0 80 62 00
        E 0 80 54 00
        E 0 80 56 00
        E 0 80 48 00
        E 0 80 4a 00
        E 0 80 3c 00
        E 0 80 3e 00
        E 180 90 62 60
        E 0 90 56 60
        E 60 80 62 00
        E 0 80 56 00
        E 180 90 61 60
        E 0 90 62 60
        E 0 90 55 60
        E 0 90 56 60
        E 0 90 49 60
        E 0 90 4a 60
        E 60 80 61 00
        E 0 80 62 00
        E 0 80 55 00
        E 0 80 56 00
        E 0 80 49 00
        E 0 80 4a 00
        E 180 90 60 60
        E 0 90 62 60
        E 0 90 54 60
        E 0 90 56 60
        E 60 80 60 00
        E 0 80 62 00
        E 0 80 54 00
        E 0 80 56 00
        E 180 90 62 60
        E 0 90 60 60
        E 0 90 56 60
        E 0 90 54 60
        E 0 90 4a 60
        E 0 90 48 60
        E 0 90 3e 60
        E 0 90 3c 60
        E 60 80 62 00
        E 0 80 60 00
        E 0 80 56 00
        E 0 80 54 00
        E 0 80 4a 00
        E 0 80 48 00
        E 0 80 3e 00
        E 0 80 3c 00
        E 180 90 62 60
        E 0 90 56 60
        E 60 80 62 00
        E 0 80 56 00
        E 180 90 62 60
        E 0 90 61 60
        E 0 90 56 60
        E 0 90 55 60
        E 0 90 4a 60
        E 0 90 49 60
        E 60 80 62 00
        E 0 80 61 00
        E 0 80 56 00
        E 0 80 55 00
        E 0 80 4a 00
        E 0 80 49 00
        E 180 90 62 60
        E 0 90 56 60
        E 60 80 62 00
        E 0 80 56 00
        E 180 90 60 60
        E 0 90 62 60
        E 0 90 54 60
        E 0 90 56 60
        E 0 90 48 60
        E 0 90 4a 60
        E 0 90 3c 60
        E 0 90 3e 60
        E 60 80 60 00
        E 0 80 62 00
        E 0 80 54 00
        E 0 80 56 00
        E 0 80 48 00
        E 0 80 4a 00
        E 0 80 3c 00
        E 0 80 3e 00
        E 180 90 62 60
        E 0 90 56 60
        E 60 80 62 00
        E 0 80 56 00
        E 180 90 62 60
        E 0 90 61 60
        E 0 90 56 60
        E 0 90 55 60
        E 0 90 4a 60
        E 0 90 49 60
        E 60 80 62 00
        E 0 80 61 00
        E 0 80 56 00
        E 0 80 55 00
        E 0 80 4a 00
        E 0 80 49 00
        E 180 90 60 60
        E 0 90 62 60
        E 0 90 54 60
        E 0 90 56 60
        E 60 80 60 00
        E 0 80 62 00
        E 0 80 54 00
        E 0 80 56 00
        E 180 90 62 60
        E 0 90 60 60
        E 0 90 56 60
        E 0 90 54 60
        E 0 90 4a 60
        E 0 90 48 60
        E 0 90 3e 60
        E 0 90 3c 60
        E 60 80 62 00
        E 0 80 60 00
        E 0 80 56 00
        E 0 80 54 00
        E 0 80 4a 00
        E 0 80 48 00
        E 0 80 3e 00
        E 0 80 3c 00
        E 180 90 62 60
        E 0 90 56 60
        E 60 80 62 00
        E 0 80 56 00
        E 180 90 62 60
        E 0 90 61 60
        E 0 90 56 60
        E 0 90 55 60
        E 0 90 4a 60
        E 0 90 49 60
        E 60 80 62 00
        E 0 80 61 00
        E 0 80 56 00
        E 0 80 55 00
        E 0 80 4a 00
        E 0 80 49 00
        E 180 90 62 60
        E 0 90 56 60
        E 60 80 62 00
        E 0 80 56 00
        E 180 90 60 60
        E 0 90 62 60
        E 0 90 54 60
        E 0 90 56 60
        E 0 90 48 60
        E 0 90 4a 60
        E 0 90 3c 60
        E 0 90 3e 60
        E 60 80 60 00
        E 0 80 62 00
        E 0 80 54 00
        E 0 80 56 00
        E 0 80 48 00
        E 0 80 4a 00
        E 0 80 3c 00
        E 0 80 3e 00
        E 180 90 62 60
        E 0 90 56 60
        E 60 80 62 00
        E 0 80 56 00
        E 180 90 62 60
        E 0 90 61 60
        E 0 90 56 60
        E 0 90 55 60
        E 0 90 4a 60
        E 0 90 49 60
        E 60 80 62 00
        E 0 80 61 00
        E 0 80 56 00
        E 0 80 55 00
        E 0 80 4a 00
        E 0 80 49 00
        E 180 90 62 60
        E 0 90 56 60
        E 60 80 62 00
        E 0 80 56 00
        E 180 90 62 60
        E 0 90 60 60
        E 0 90 56 60
        E 0 90 54 60
        E 0 90 4a 60
        E 0 90 48 60
        E 0 90 3e 60
        E 0 90 3c 60
        E 60 80 62 00
        E 0 80 60 00
        E 0 80 56 00
        E 0 80 54 00
        E 0 80 4a 00
        E 0 80 48 00
        E 0 80 3e 00
        E 0 80 3c 00
        E 180 90 60 60
        E 0 90 62 60
        E 0 90 54 60
        E 0 90 56 60
        E 60 80 60 00
        E 0 80 62 00
        E 0 80 54 00
        E 0 80 56 00
        E 180 90 63 60
        E 0 90 61 60
        E 0 90 57 60
        E 0 90 55 60
        E 0 90 4b 60
        E 0 90 49 60
        E 60 80 63 00
        E 0 80 61 00
        E 0 80 57 00
        E 0 80 55 00
        E 0 80 4b 00
        E 0 80 49 00
        E 180 90 61 60
        E 0 90 55 60
        E 60 80 61 00
        E 0 80 55 00
        E 60 90 61 60
        E 60 80 61 00
        E 60 90 60 60
        E 0 90 63 60
        E 0 90 54 60
        E 0 90 57 60
        E 0 90 48 60
        E 0 90 4b 60
        E 0 90 3c 60
        E 0 90 3f 60
        E 60 80 60 00
        E 0 80 63 00
        E 0 80 54 00
        E 0 80 57 00
        E 0 80 48 00
        E 0 80 4b 00
        E 0 80 3c 00
        E 0 80 3f 00
        E 180 90 62 60
        E 0 90 56 60
        E 60 80 62 00
        E 0 80 56 00
        E 180 90 62 60
        E 0 90 61 60
        E 0 90 56 60
        E 0 90 55 60
        E 0 90 4a 60
        E 0 90 49 60
        E 60 80 62 00
        E 0 80 61 00
        E 0 80 56 00
        E 0 80 55 00
        E 0 80 4a 00
        E 0 80 49 00
        E 180 90 61 60
        E 0 90 62 60
        E 0 90 55 60
        E 0 90 56 60
        E 60 80 61 00
        E 0 80 62 00
        E 0 80 55 00
        E 0 80 56 00
        E 180 90 62 60
        E 0 90 56 60
        E 0 90 4a 60
        E 0 90 3e 60
        E 60 80 62 00
        E 0 80 56 00
        E 0 80 4a 00
        E 0 80 3e 00
        E 180 90 60 60
        E 0 90 62 60
        E 0 90 54 60
        E 0 90 56 60
        E 60 80 60 00
        E 0 80 62 00
        E 0 80 54 00
        E 0 80 56 00
        E 180 90 62 60
        E 0 90 61 60
        E 0 90 56 60
        E 0 90 55 60
        E 0 90 4a 60
        E 0 90 49 60
        E 60 80 62 00
        E 0 80 61 00
        E 0 80 56 00
        E 0 80 55 00
        E 0 80 4a 00
        E 0 80 49 00
        E 180 90 62 60
        E 0 90 60 60
        E 0 90 56 60
        E 0 90 54 60
        E 60 80 62 00
        E 0 80 60 00
        E 0 80 56 00
        E 0 80 54 00
        E 180 90 60 60
        E 0 90 62 60
        E 0 90 54 60
        E 0 90 56 60
        E 0 90 48 60
        E 0 90 4a 60
        E 0 90 3c 60
        E 0 90 3e 60
        E 60 80 60 00
        E 0 80 62 00
        E 0 80 54 00
        E 0 80 56 00
        E 0 80 48 00
        E 0 80 4a 00
        E 0 80 3c 00
        E 0 80 3e 00
        E 180 90 62 60
        E 0 90 56 60
        E 60 80 62 00
        E 0 80 56 00
        E 180 90 62 60
        E 0 90 61 60
        E 0 90 56 60
        E 0 90 55 60
        E 0 90 4a 60
        E 0 90 49 60
        E 60 80 62 00
        E 0 80 61 00
        E 0 80 56 00
        E 0 80 55 00
        E 0 80 4a 00
        E 0 80 49 00
        E 180 90 61 60
        E 0 90 62 60
        E 0 90 55 60
        E 0 90 56 60
        E 60 80 61 00
        E 0 80 62 00
        E 0 80 55 00
        E 0 80 56 00
        E 180 90 62 60
        E 0 90 56 60
        E 0 90 4a 60
        E 0 90 3e 60
        E 60 80 62 00
        E 0 80 56 00
        E 0 80 4a 00
        E 0 80 3e 00
        E 180 90 60 60
        E 0 90 62 60
        E 0 90 54 60
        E 0 90 56 60
        E 60 80 60 00
        E 0 80 62 00
        E 0 80 54 00
        E 0 80 56 00
        E 180 90 62 60
        E 0 90 61 60
        E 0 90 56 60
        E 0 90 55 60
        E 0 90 4a 60
        E 0 90 49 60
        E 60 80 62 00
        E 0 80 61 00
        E 0 80 56 00
        E 0 80 55 00
        E 0 80 4a 00
        E 0 80 49 00
        E 180 90 62 60
        E 0 90 60 60
        E 0 90 56 60
        E 0 90 54 60
        E 60 80 62 00
        E 0 80 60 00
        E 0 80 56 00
        E 0 80 54 00
        E 180 90 60 60
        E 0 90 62 60
        E 0 90 54 60
        E 0 90 56 60
        E 0 90 48 60
        E 0 90 4a 60
        E 0 90 3c 60
        E 0 90 3e 60
        E 60 80 60 00
        E 0 80 62 00
        E 0 80 54 00
        E 0 80 56 00
        E 0 80 48 00
        E 0 80 4a 00
        E 0 80 3c 00
        E 0 80 3e 00
        E 180 90 62 60
        E 0 90 56 60
        E 60 80 62 00
        E 0 80 56 00
        E 180 90 62 60
        E 0 90 61 60
        E 0 90 56 60
        E 0 90 55 60
        E 0 90 4a 60
        E 0 90 49 60
        E 60 80 62 00
        E 0 80 61 00
        E 0 80 56 00
        E 0 80 55 00
        E 0 80 4a 00
        E 0 80 49 00
        E 180 90 61 60
        E 0 90 62 60
        E 0 90 55 60
        E 0 90 56 60
        E 60 80 61 00
        E 0 80 62 00
        E 0 80 55 00
        E 0 80 56 00
        E 180 90 62 60
        E 0 90 56 60
        E 0 90 4a 60
        E 0 90 3e 60
        E 60 80 62 00
        E 0 80 56 00
        E 0 80 4a 00
        E 0 80 3e 00
        E 180 90 60 60
        E 0 90 62 60
        E 0 90 54 60
        E 0 90 56 60
        E 60 80 60 00
        E 0 80 62 00
        E 0 80 54 00
        E 0 80 56 00
        E 180 90 62 60
        E 0 90 61 60
        E 0 90 56 60
        E 0 90 55 60
        E 0 90 4a 60
        E 0 90 49 60
        E 60 80 62 00
        E 0 80 61 00
        E 0 80 56 00
        E 0 80 55 00
        E 0 80 4a 00
        E 0 80 49 00
        E 180 90 62 60
        E 0 90 60 60
        E 0 90 56 60
        E 0 90 54 60
        E 60 80 62 00
        E 0 80 60 00
        E 0 80 56 00
        E 0 80 54 00
        E 180 90 60 60
        E 0 90 62 60
        E 0 90 54 60
        E 0 90 56 60
        E 0 90 48 60
        E 0 90 4a 60
        E 0 90 3c 60
        E 0 90 3e 60
        E 60 80 60 00
        E 0 80 62 00
        E 0 80 54 00
        E 0 80 56 00
        E 0 80 48 00
        E 0 80 4a 00
        E 0 80 3c 00
        E 0 80 3e 00
        E 180 90 62 60
        E 0 90 56 60
        E 60 80 62 00
        E 0 80 56 00
        E 180 90 62 60
        E 0 90 61 60
        E 0 90 56 60
        E 0 90 55 60
        E 0 90 4a 60
        E 0 90 49 60
        E 60 80 62 00
        E 0 80 61 00
        E 0 80 56 00
        E 0 80 55 00
        E 0 80 4a 00
        E 0 80 49 00
        E 180 90 61 60
        E 0 90 62 60
        E 0 90 55 60
        E 0 90 56 60
        E 60 80 61 00
        E 0 80 62 00
        E 0 80 55 00
        E 0 80 56 00
        E 180 90 62 60
        E 0 90 56 60
        E 0 90 4a 60
        E 0 90 3e 60
        E 60 80 62 00
        E 0 80 56 00
        E 0 80 4a 00
        E 0 80 3e 00
        E 180 90 60 60
        E 0 90 62 60
        E 0 90 54 60
        E 0 90 56 60
        E 60 80 60 00
        E 0 80 62 00
        E 0 80 54 00
        E 0 80 56 00
        E 180 90 62 60
        E 0 90 61 60
        E 0 90 56 60
        E 0 90 55 60
        E 0 90 4a 60
        E 0 90 49 60
        E 60 80 62 00
        E 0 80 61 00
        E 0 80 56 00
        E 0 80 55 00
        E 0 80 4a 00
        E 0 80 49 00
        E 180 90 62 60
        E 0 90 60 60
        E 0 90 56 60
        E 0 90 54 60
        E 60 80 62 00
        E 0 80 60 00
        E 0 80 56 00
        E 0 80 54 00
        E 180 90 60 60
        E 0 90 62 60
        E 0 90 54 60
        E 0 90 56 60
        E 0 90 48 60
        E 0 90 4a 60
        E 0 90 3c 60
        E 0 90 3e 60
        E 60 80 60 00
        E 0 80 62 00
        E 0 80 54 00
        E 0 80 56 00
        E 0 80 48 00
        E 0 80 4a 00
        E 0 80 3c 00
        E 0 80 3e 00
        E 180 90 62 60
        E 0 90 56 60
        E 60 80 62 00
        E 0 80 56 00
        E 180 90 62 60
        E 0 90 61 60
        E 0 90 56 60
        E 0 90 55 60
        E 0 90 4a 60
        E 0 90 49 60
        E 60 80 62 00
        E 0 80 61 00
        E 0 80 56 00
        E 0 80 55 00
        E 0 80 4a 00
        E 0 80 49 00
        E 180 90 61 60
        E 0 90 62 60
        E 0 90 55 60
        E 0 90 56 60
        E 60 80 61 00
        E 0 80 62 00
        E 0 80 55 00
        E 0 80 56 00
        E 180 90 62 60
        E 0 90 56 60
        E 0 90 4a 60
        E 0 90 3e 60
        E 60 80 62 00
        E 0 80 56 00
        E 0 80 4a 00
        E 0 80 3e 00
        E 180 90 60 60
        E 0 90 62 60
        E 0 90 54 60
        E 0 90 56 60
        E 60 80 60 00
        E 0 80 62 00
        E 0 80 54 00
        E 0 80 56 00
        E 180 90 62 60
        E 0 90 61 60
        E 0 90 56 60
        E 0 90 55 60
        E 0 90 4a 60
        E 0 90 49 60
        E 60 80 62 00
        E 0 80 61 00
        E 0 80 56 00
        E 0 80 55 00
        E 0 80 4a 00
        E 0 80 49 00
        E 180 90 62 60
        E 0 90 60 60
        E 0 90 56 60
        E 0 90 54 60
        E 60 80 62 00
        E 0 80 60 00
        E 0 80 56 00
        E 0 80 54 00
        E 180 90 60 60
        E 0 90 62 60
        E 0 90 54 60
        E 0 90 56 60
        E 0 90 48 60
        E 0 90 4a 60
        E 0 90 3c 60
        E 0 90 3e 60
        E 60 80 60 00
        E 0 80 62 00
        E 0 80 54 00
        E 0 80 56 00
        E 0 80 48 00
        E 0 80 4a 00
        E 0 80 3c 00
        E 0 80 3e 00
        E 180 90 62 60
        E 0 90 56 60
        E 60 80 62 00
        E 0 80 56 00
        E 180 90 62 60
        E 0 90 61 60
        E 0 90 56 60
        E 0 90 55 60
        E 0 90 4a 60
        E 0 90 49 60
        E 60 80 62 00
        E 0 80 61 00
        E 0 80 56 00
        E 0 80 55 00
        E 0 80 4a 00
        E 0 80 49 00
        E 180 90 61 60
        E 0 90 62 60
        E 0 90 55 60
        E 0 90 56 60
        E 60 80 61 00
        E 0 80 62 00
        E 0 80 55 00
        E 0 80 56 00
        E 180 90 62 60
        E 0 90 56 60
        E 0 90 4a 60
        E 0 90 3e 60
        E 60 80 62 00
        E 0 80 56 00
        E 0 80 4a 00
        E 0 80 3e 00
        E 180 90 60 60
        E 0 90 62 60
        E 0 90 54 60
        E 0 90 56 60
        E 60 80 60 00
        E 0 80 62 00
        E 0 80 54 00
        E 0 80 56 00
        E 180 90 62 60
        E 0 90 61 60
        E 0 90 56 60
        E 0 90 55 60
        E 0 90 4a 60
        E 0 90 49 60
        E 60 80 62 00
        E 0 80 61 00
        E 0 80 56 00
        E 0 80 55 00
        E 0 80 4a 00
        E 0 80 49 00
        E 180 90 62 60
        E 0 90 60 60
        E 0 90 56 60
        E 0 90 54 60
        E 60 80 62 00
        E 0 80 60 00
        E 0 80 56 00
        E 0 80 54 00
        E 180 90 60 60
        E 0 90 62 60
        E 0 90 54 60
        E 0 90 56 60
        E 0 90 48 60
        E 0 90 4a 60
        E 0 90 3c 60
        E 0 90 3e 60
        E 60 80 60 00
        E 0 80 62 00
        E 0 80 54 00
        E 0 80 56 00
        E 0 80 48 00
        E 0 80 4a 00
        E 0 80 3c 00
        E 0 80 3e 00
        E 180 90 62 60
        E 0 90 56 60
        E 60 80 62 00
        E 0 80 56 00
        E 180 90 62 60
        E 0 90 61 60
        E 0 90 56 60
        E 0 90 55 60
        E 0 90 4a 60
        E 0 90 49 60
        E 60 80 62 00
        E 0 80 61 00
        E 0 80 56 00
        E 0 80 55 00
        E 0 80 4a 00
        E 0 80 49 00
        E 180 90 61 60
        E 0 90 62 60
        E 0 90 55 60
        E 0 90 56 60
        E 60 80 61 00
        E 0 80 62 00
        E 0 80 55 00
        E 0 80 56 00
        E 180 90 62 60
        E 0 90 56 60
        E 0 90 4a 60
        E 0 90 3e 60
        E 60 80 62 00
        E 0 80 56 00
        E 0 80 4a 00
        E 0 80 3e 00
        E 180 90 60 60
        E 0 90 62 60
        E 0 90 54 60
        E 0 90 56 60
        E 60 80 60 00
        E 0 80 62 00
        E 0 80 54 00
        E 0 80 56 00
        E 180 90 62 60
        E 0 90 61 60
        E 0 90 56 60
        E 0 90 55 60
        E 0 90 4a 60
        E 0 90 49 60
        E 60 80 62 00
        E 0 80 61 00
        E 0 80 56 00
        E 0 80 55 00
        E 0 80 4a 00
        E 0 80 49 00
        E 180 90 62 60
        E 0 90 56 60
        E 60 80 62 00
        E 0 80 56 00
        E 180 90 60 60
        E 0 90 62 60
        E 0 90 54 60
        E 0 90 56 60
        E 0 90 48 60
        E 0 90 4a 60
        E 0 90 3c 60
        E 0 90 3e 60
        E 60 80 60 00
        E 0 80 62 00
        E 0 80 54 00
        E 0 80 56 00
        E 0 80 48 00
        E 0 80 4a 00
        E 0 80 3c 00
        E 0 80 3e 00
        E 180 90 62 60
        E 0 90 60 60
        E 0 90 56 60
        E 0 90 54 60
        E 60 80 62 00
        E 0 80 60 00
        E 0 80 56 00
        E 0 80 54 00
        E 180 90 62 60
        E 0 90 61 60
        E 0 90 56 60
        E 0 90 55 60
        E 0 90 4a 60
        E 0 90 49 60
        E 60 80 62 00
        E 0 80 61 00
        E 0 80 56 00
        E 0 80 55 00
        E 0 80 4a 00
        E 0 80 49 00
        E 180 90 62 60
        E 0 90 56 60
        E 60 80 62 00
        E 0 80 56 00
        E 60 90 61 60
        E 60 80 61 00
        E 60 90 62 60
        E 0 90 60 60
        E 0 90 56 60
        E 0 90 54 60
        E 0 90 4a 60
        E 0 90 48 60
        E 0 90 3e 60
        E 0 90 3c 60
        E 60 80 62 00
        E 0 80 60 00
        E 0 80 56 00
        E 0 80 54 00
        E 0 80 4a 00
        E 0 80 48 00
        E 0 80 3e 00
        E 0 80 3c 00
        E 180 90 60 60
        E 0 90 62 60
        E 0 90 54 60
        E 0 90 56 60
        E 60 80 60 00
        E 0 80 62 00
        E 0 80 54 00
        E 0 80 56 00
        E 180 90 62 60
        E 0 90 61 60
        E 0 90 56 60
        E 0 90 55 60
        E 0 90 4a 60
        E 0 90 49 60
        E 60 80 62 00
        E 0 80 61 00
        E 0 80 56 00
        E 0 80 55 00
        E 0 80 4a 00
        E 0 80 49 00
        E 180 90 61 60
        E 0 90 55 60
        E 60 80 61 00
        E 0 80 55 00
        E 60 90 61 60
        E 60 80 61 00
        E 60 90 64 60
        E 0 90 60 60
        E 0 90 58 60
        E 0 90 54 60
        E 0 90 4c 60
        E 0 90 48 60
        E 0 90 40 60
        E 0 90 3c 60
        E 60 80 64 00
        E 0 80 60 00
        E 0 80 58 00
        E 0 80 54 00
        E 0 80 4c 00
        E 0 80 48 00
        E 0 80 40 00
        E 0 80 3c 00
        E 420 90 61 60
        E 0 90 63 60
        E 0 90 55 60
        E 0 90 57 60
        E 0 90 49 60
        E 0 90 4b 60
        E 60 80 61 00
        E 0 80 63 00
        E 0 80 55 00
        E 0 80 57 00
        E 0 80 49 00
        E 0 80 4b 00
        E 420 90 63 60
        E 0 90 60 60
        E 0 90 57 60
        E 0 90 54 60
        E 0 90 4b 60
        E 0 90 48 60
        E 0 90 3f 60
        E 0 90 3c 60
        E 60 80 63 00
        E 0 80 60 00
        E 0 80 57 00
        E 0 80 54 00
        E 0 80 4b 00
        E 0 80 48 00
        E 0 80 3f 00
        E 0 80 3c 00
        E 180 90 60 60
        E 0 90 54 60
        E 60 80 60 00
        E 0 80 54 00
        E 180 90 61 60
        E 0 90 63 60
        E 0 90 55 60
        E 0 90 57 60
        E 0 90 49 60
        E 0 90 4b 60
        E 60 80 61 00
        E 0 80 63 00
        E 0 80 55 00
        E 0 80 57 00
        E 0 80 49 00
        E 0 80 4b 00
        E 420 90 63 60
        E 0 90 60 60
        E 0 90 57 60
        E 0 90 54 60
        E 0 90 4b 60
        E 0 90 48 60
        E 0 90 3f 60
        E 0 90 3c 60
        E 60 80 63 00
        E 0 80 60 00
        E 0 80 57 00
        E 0 80 54 00
        E 0 80 4b 00
        E 0 80 48 00
        E 0 80 3f 00
        E 0 80 3c 00
        E 420 90 61 60
        E 0 90 63 60
        E 0 90 55 60
        E 0 90 57 60
        E 0 90 49 60
        E 0 90 4b 60
        E 60 80 61 00
        E 0 80 63 00
        E 0 80 55 00
        E 0 80 57 00
        E 0 80 49 00
        E 0 80 4b 00
        E 420 90 63 60
        E 0 90 60 60
        E 0 90 57 60
        E 0 90 54 60
        E 0 90 4b 60
        E 0 90 48 60
        E 0 90 3f 60
        E 0 90 3c 60
        E 60 80 63 00
        E 0 80 60 00
        E 0 80 57 00
        E 0 80 54 00
        E 0 80 4b 00
        E 0 80 48 00
        E 0 80 3f 00
        E 0 80 3c 00
        E 180 90 60 60
        E 0 90 54 60
        E 60 80 60 00
        E 0 80 54 00
        E 180 90 61 60
        E 0 90 63 60
        E 0 90 55 60
        E 0 90 57 60
        E 0 90 49 60
        E 0 90 4b 60
        E 60 80 61 00
        E 0 80 63 00
        E 0 80 55 00
        E 0 80 57 00
        E 0 80 49 00
        E 0 80 4b 00
        E 420 90 64 60
        E 0 90 60 60
        E 0 90 58 60
        E 0 90 54 60
        E 0 90 4c 60
        E 0 90 48 60
        E 0 90 40 60
        E 0 90 3c 60
        E 60 80 64 00
        E 0 80 60 00
        E 0 80 58 00
        E 0 80 54 00
        E 0 80 4c 00
        E 0 80 48 00
        E 0 80 40 00
        E 0 80 3c 00
        E 420 90 61 60
        E 0 90 63 60
        E 0 90 55 60
        E 0 90 57 60
        E 0 90 49 60
        E 0 90 4b 60
        E 60 80 61 00
        E 0 80 63 00
        E 0 80 55 00
        E 0 80 57 00
        E 0 80 49 00
        E 0 80 4b 00
        E 420 90 63 60
        E 0 90 60 60
        E 0 90 57 60
        E 0 90 54 60
        E 0 90 4b 60
        E 0 90 48 60
        E 0 90 3f 60
        E 0 90 3c 60
        E 60 80 63 00
        E 0 80 60 00
        E 0 80 57 00
        E 0 80 54 00
        E 0 80 4b 00
        E 0 80 48 00
        E 0 80 3f 00
        E 0 80 3c 00
        E 180 90 60 60
        E 0 90 54 60
        E 60 80 60 00
        E 0 80 54 00
        E 180 90 61 60
        E 0 90 63 60
        E 0 90 55 60
        E 0 90 57 60
        E 0 90 49 60
        E 0 90 4b 60
        E 60 80 61 00
        E 0 80 63 00
        E 0 80 55 00
        E 0 80 57 00
        E 0 80 49 00
        E 0 80 4b 00
        E 420 90 63 60
        E 0 90 60 60
        E 0 90 57 60
        E 0 90 54 60
        E 0 90 4b 60
        E 0 90 48 60
        E 0 90 3f 60
        E 0 90 3c 60
        E 60 80 63 00
        E 0 80 60 00
        E 0 80 57 00
        E 0 80 54 00
        E 0 80 4b 00
        E 0 80 48 00
        E 0 80 3f 00
        E 0 80 3c 00
        E 420 90 61 60
        E 0 90 63 60
        E 0 90 55 60
        E 0 90 57 60
        E 0 90 49 60
        E 0 90 4b 60
        E 60 80 61 00
        E 0 80 63 00
        E 0 80 55 00
        E 0 80 57 00
        E 0 80 49 00
        E 0 80 4b 00
        E 420 90 63 60
        E 0 90 60 60
        E 0 90 57 60
        E 0 90 54 60
        E 0 90 4b 60
        E 0 90 48 60
        E 0 90 3f 60
        E 0 90 3c 60
        E 60 80 63 00
        E 0 80 60 00
        E 0 80 57 00
        E 0 80 54 00
        E 0 80 4b 00
        E 0 80 48 00
        E 0 80 3f 00
        E 0 80 3c 00
        E 180 90 60 60
        E 0 90 54 60
        E 60 80 60 00
        E 0 80 54 00
        E 180 90 61 60
        E 0 90 63 60
        E 0 90 55 60
        E 0 90 57 60
        E 0 90 49 60
        E 0 90 4b 60
        E 60 80 61 00
        E 0 80 63 00
        E 0 80 55 00
        E 0 80 57 00
        E 0 80 49 00
        E 0 80 4b 00
        E 420 90 64 60
        E 0 90 60 60
        E 0 90 58 60
        E 0 90 54 60
        E 0 90 4c 60
        E 0 90 48 60
        E 0 90 40 60
        E 0 90 3c 60
        E 60 80 64 00
        E 0 80 60 00
        E 0 80 58 00
        E 0 80 54 00
        E 0 80 4c 00
        E 0 80 48 00
        E 0 80 40 00
        E 0 80 3c 00
        E 420 90 61 60
        E 0 90 63 60
        E 0 90 55 60
        E 0 90 57 60
        E 0 90 49 60
        E 0 90 4b 60
        E 60 80 61 00
        E 0 80 63 00
        E 0 80 55 00
        E 0 80 57 00
        E 0 80 49 00
        E 0 80 4b 00
        E 420 90 63 60
        E 0 90 60 60
        E 0 90 57 60
        E 0 90 54 60
        E 0 90 4b 60
        E 0 90 48 60
        E 0 90 3f 60
        E 0 90 3c 60
        E 60 80 63 00
        E 0 80 60 00
        E 0 80 57 00
        E 0 80 54 00
        E 0 80 4b 00
        E 0 80 48 00
        E 0 80 3f 00
        E 0 80 3c 00
        E 180 90 60 60
        E 0 90 54 60
        E 60 80 60 00
        E 0 80 54 00
        E 180 90 61 60
        E 0 90 63 60
        E 0 90 55 60
        E 0 90 57 60
        E 0 90 49 60
        E 0 90 4b 60
        E 60 80 61 00
        E 0 80 63 00
        E 0 80 55 00
        E 0 80 57 00
        E 0 80 49 00
        E 0 80 4b 00
        E 420 90 63 60
        E 0 90 60 60
        E 0 90 57 60
        E 0 90 54 60
        E 0 90 4b 60
        E 0 90 48 60
        E 0 90 3f 60
        E 0 90 3c 60
        E 60 80 63 00
        E 0 80 60 00
        E 0 80 57 00
        E 0 80 54 00
        E 0 80 4b 00
        E 0 80 48 00
        E 0 80 3f 00
        E 0 80 3c 00
        E 420 90 61 60
        E 0 90 63 60
        E 0 90 55 60
        E 0 90 57 60
        E 0 90 49 60
        E 0 90 4b 60
        E 60 80 61 00
        E 0 80 63 00
        E 0 80 55 00
        E 0 80 57 00
        E 0 80 49 00
        E 0 80 4b 00
        E 420 90 63 60
        E 0 90 60 60
        E 0 90 57 60
        E 0 90 54 60
        E 0 90 4b 60
        E 0 90 48 60
        E 0 90 3f 60
        E 0 90 3c 60
        E 60 80 63 00
        E 0 80 60 00
        E 0 80 57 00
        E 0 80 54 00
        E 0 80 4b 00
        E 0 80 48 00
        E 0 80 3f 00
        E 0 80 3c 00
        E 180 90 60 60
        E 0 90 54 60
        E 60 80 60 00
        E 0 80 54 00
        E 180 90 61 60
        E 0 90 63 60
        E 0 90 55 60
        E 0 90 57 60
        E 0 90 49 60
        E 0 90 4b 60
        E 60 80 61 00
        E 0 80 63 00
        E 0 80 55 00
        E 0 80 57 00
        E 0 80 49 00
        E 0 80 4b 00
        E 420 90 64 60
        E 0 90 60 60
        E 0 90 58 60
        E 0 90 54 60
        E 0 90 4c 60
        E 0 90 48 60
        E 0 90 40 60
        E 0 90 3c 60
        E 60 80 64 00
        E 0 80 60 00
        E 0 80 58 00
        E 0 80 54 00
        E 0 80 4c 00
        E 0 80 48 00
        E 0 80 40 00
        E 0 80 3c 00
        E 420 90 61 60
        E 0 90 63 60
        E 0 90 55 60
        E 0 90 57 60
        E 0 90 49 60
        E 0 90 4b 60
        E 60 80 61 00
        E 0 80 63 00
        E 0 80 55 00
        E 0 80 57 00
        E 0 80 49 00
        E 0 80 4b 00
        E 420 90 63 60
        E 0 90 60 60
        E 0 90 57 60
        E 0 90 54 60
        E 0 90 4b 60
        E 0 90 48 60
        E 0 90 3f 60
        E 0 90 3c 60
        E 60 80 63 00
        E 0 80 60 00
        E 0 80 57 00
        E 0 80 54 00
        E 0 80 4b 00
        E 0 80 48 00
        E 0 80 3f 00
        E 0 80 3c 00
        E 180 90 60 60
        E 0 90 54 60
        E 60 80 60 00
        E 0 80 54 00
        E 180 90 61 60
        E 0 90 63 60
        E 0 90 55 60
        E 0 90 57 60
        E 0 90 49 60
        E 0 90 4b 60
        E 60 80 61 00
        E 0 80 63 00
        E 0 80 55 00
        E 0 80 57 00
        E 0 80 49 00
        E 0 80 4b 00
        E 420 90 63 60
        E 0 90 60 60
        E 0 90 57 60
        E 0 90 54 60
        E 0 90 4b 60
        E 0 90 48 60
        E 0 90 3f 60
        E 0 90 3c 60
        E 60 80 63 00
        E 0 80 60 00
        E 0 80 57 00
        E 0 80 54 00
        E 0 80 4b 00
        E 0 80 48 00
        E 0 80 3f 00
        E 0 80 3c 00
        E 180 90 60 60
        E 0 90 54 60
        E 60 80 60 00
        E 0 80 54 00
        E 180 90 60 60
        E 0 90 54 60
        E 0 90 48 60
        E 60 80 60 00
        E 0 80 54 00
        E 0 80 48 00
        E 180 90 60 60
        E 0 90 54 60
        E 60 80 60 00
        E 0 80 54 00
        E 180 90 62 60
        E 0 90 60 60
        E 0 90 61 60
        E 0 90 6e 60
        E 0 90 56 60
        E 0 90 54 60
        E 0 90 55 60
        E 0 90 4a 60
        E 0 90 48 60
        E 0 90 49 60
        E 0 90 3e 60
        E 0 90 3c 60
        E 0 90 3d 60
        E 60 80 62 00
        E 0 80 60 00
        E 0 80 61 00
        E 0 80 6e 00
        E 0 80 56 00
        E 0 80 54 00
        E 0 80 55 00
        E 0 80 4a 00
        E 0 80 48 00
        E 0 80 49 00
        E 0 80 3e 00
        E 0 80 3c 00
        E 0 80 3d 00
        E 900 90 60 60
        E 0 90 62 60
        E 0 90 54 60
        E 0 90 56 60
        E 0 90 48 60
        E 0 90 4a 60
        E 0 90 3c 60
        E 0 90 3e 60
        E 60 80 60 00
        E 0 80 62 00
        E 0 80 54 00
        E 0 80 56 00
        E 0 80 48 00
        E 0 80 4a 00
        E 0 80 3c 00
        E 0 80 3e 00
        E 420 90 62 60
        E 0 90 61 60
        E 0 90 56 60
        E 0 90 55 60
        E 0 90 4a 60
        E 0 90 49 60
        E 60 80 62 00
        E 0 80 61 00
        E 0 80 56 00
        E 0 80 55 00
        E 0 80 4a 00
        E 0 80 49 00
        E 180 90 60 60
        E 0 90 54 60
        E 60 80 60 00
        E 0 80 54 00
        E 180 90 62 60
        E 0 90 60 60
        E 0 90 56 60
        E 0 90 54 60
        E 0 90 4a 60
        E 0 90 48 60
        E 0 90 3e 60
        E 0 90 3c 60
        E 60 80 62 00
        E 0 80 60 00
        E 0 80 56 00
        E 0 80 54 00
        E 0 80 4a 00
        E 0 80 48 00
        E 0 80 3e 00
        E 0 80 3c 00
        E 420 90 62 60
        E 0 90 61 60
        E 0 90 56 60
        E 0 90 55 60
        E 0 90 4a 60
        E 0 90 49 60
        E 60 80 62 00
        E 0 80 61 00
        E 0 80 56 00
        E 0 80 55 00
        E 0 80 4a 00
        E 0 80 49 00
        E 420 90 60 60
        E 0 90 62 60
        E 0 90 54 60
        E 0 90 56 60
        E 0 90 48 60
        E 0 90 4a 60
        E 0 90 3c 60
        E 0 90 3e 60
        E 60 80 60 00
        E 0 80 62 00
        E 0 80 54 00
        E 0 80 56 00
        E 0 80 48 00
        E 0 80 4a 00
        E 0 80 3c 00
        E 0 80 3e 00
        E 180 90 62 60
        E 0 90 56 60
        E 60 80 62 00
        E 0 80 56 00
        E 180 90 62 60
        E 0 90 61 60
        E 0 90 56 60
        E 0 90 55 60
        E 0 90 4a 60
        E 0 90 49 60
        E 60 80 62 00
        E 0 80 61 00
        E 0 80 56 00
        E 0 80 55 00
        E 0 80 4a 00
        E 0 80 49 00
        E 180 90 60 60
        E 0 90 62 60
        E 0 90 54 60
        E 0 90 56 60
        E 60 80 60 00
        E 0 80 62 00
        E 0 80 54 00
        E 0 80 56 00
        E 180 90 62 60
        E 0 90 60 60
        E 0 90 56 60
        E 0 90 54 60
        E 0 90 4a 60
        E 0 90 48 60
        E 0 90 3e 60
        E 0 90 3c 60
        E 60 80 62 00
        E 0 80 60 00
        E 0 80 56 00
        E 0 80 54 00
        E 0 80 4a 00
        E 0 80 48 00
        E 0 80 3e 00
        E 0 80 3c 00
        E 180 90 62 60
        E 0 90 56 60
        E 60 80 62 00
        E 0 80 56 00
        E 180 90 62 60
        E 0 90 61 60
        E 0 90 56 60
        E 0 90 55 60
        E 0 90 4a 60
        E 0 90 49 60
        E 60 80 62 00
        E 0 80 61 00
        E 0 80 56 00
        E 0 80 55 00
        E 0 80 4a 00
        E 0 80 49 00
        E 420 90 60 60
        E 0 90 62 60
        E 0 90 54 60
        E 0 90 56 60
        E 0 90 48 60
        E 0 90 4a 60
        E 0 90 3c 60
        E 0 90 3e 60
        E 60 80 60 00
        E 0 80 62 00
        E 0 80 54 00
        E 0 80 56 00
        E 0 80 48 00
        E 0 80 4a 00
        E 0 80 3c 00
        E 0 80 3e 00
        E 420 90 62 60
        E 0 90 61 60
        E 0 90 56 60
        E 0 90 55 60
        E 0 90 4a 60
        E 0 90 49 60
        E 60 80 62 00
        E 0 80 61 00
        E 0 80 56 00
        E 0 80 55 00
        E 0 80 4a 00
        E 0 80 49 00
        E 180 90 60 60
        E 0 90 54 60
        E 60 80 60 00
        E 0 80 54 00
        E 180 90 62 60
        E 0 90 60 60
        E 0 90 56 60
        E 0 90 54 60
        E 0 90 4a 60
        E 0 90 48 60
        E 0 90 3e 60
        E 0 90 3c 60
        E 60 80 62 00
        E 0 80 60 00
        E 0 80 56 00
        E 0 80 54 00
        E 0 80 4a 00
        E 0 80 48 00
        E 0 80 3e 00
        E 0 80 3c 00
        E 180 90 62 60
        E 0 90 56 60
        E 60 80 62 00
        E 0 80 56 00
        E 180 90 62 60
        E 0 90 61 60
        E 0 90 56 60
        E 0 90 55 60
        E 0 90 4a 60
        E 0 90 49 60
        E 60 80 62 00
        E 0 80 61 00
        E 0 80 56 00
        E 0 80 55 00
        E 0 80 4a 00
        E 0 80 49 00
        E 420 90 60 60
        E 0 90 62 60
        E 0 90 54 60
        E 0 90 56 60
        E 0 90 48 60
        E 0 90 4a 60
        E 0 90 3c 60
        E 0 90 3e 60
        E 60 80 60 00
        E 0 80 62 00
        E 0 80 54 00
        E 0 80 56 00
        E 0 80 48 00
        E 0 80 4a 00
        E 0 80 3c 00
        E 0 80 3e 00
        E 180 90 62 60
        E 0 90 56 60
        E 60 80 62 00
        E 0 80 56 00
        E 180 90 62 60
        E 0 90 61 60
        E 0 90 56 60
        E 0 90 55 60
        E 0 90 4a 60
        E 0 90 49 60
        E 60 80 62 00
        E 0 80 61 00
        E 0 80 56 00
        E 0 80 55 00
        E 0 80 4a 00
        E 0 80 49 00
        E 420 90 62 60
        E 0 90 60 60
        E 0 90 56 60
        E 0 90 54 60
        E 0 90 4a 60
        E 0 90 48 60
        E 0 90 3e 60
        E 0 90 3c 60
        E 60 80 62 00
        E 0 80 60 00
        E 0 80 56 00
        E 0 80 54 00
        E 0 80 4a 00
        E 0 80 48 00
        E 0 80 3e 00
        E 0 80 3c 00
        E 180 90 62 60
        E 0 90 60 60
        E 0 90 56 60
        E 0 90 54 60
        E 60 80 62 00
        E 0 80 60 00
        E 0 80 56 00
        E 0 80 54 00
        E 180 90 62 60
        E 0 90 61 60
        E 0 90 56 60
        E 0 90 55 60
        E 0 90 4a 60
        E 0 90 49 60
        E 60 80 62 00
        E 0 80 61 00
        E 0 80 56 00
        E 0 80 55 00
        E 0 80 4a 00
        E 0 80 49 00
        E 420 90 60 60
        E 0 90 62 60
        E 0 90 54 60
        E 0 90 56 60
        E 0 90 48 60
        E 0 90 4a 60
        E 0 90 3c 60
        E 0 90 3e 60
        E 60 80 60 00
        E 0 80 62 00
        E 0 80 54 00
        E 0 80 56 00
        E 0 80 48 00
        E 0 80 4a 00
        E 0 80 3c 00
        E 0 80 3e 00
        E 420 90 62 60
        E 0 90 61 60
        E 0 90 56 60
        E 0 90 55 60
        E 0 90 4a 60
        E 0 90 49 60
        E 60 80 62 00
        E 0 80 61 00
        E 0 80 56 00
        E 0 80 55 00
        E 0 80 4a 00
        E 0 80 49 00
        E 180 90 60 60
        E 0 90 62 60
        E 0 90 54 60
        E 0 90 56 60
        E 60 80 60 00
        E 0 80 62 00
        E 0 80 54 00
        E 0 80 56 00
        E 180 90 62 60
        E 0 90 60 60
        E 0 90 56 60
        E 0 90 54 60
        E 0 90 4a 60
        E 0 90 48 60
        E 0 90 3e 60
        E 0 90 3c 60
        E 60 80 62 00
        E 0 80 60 00
        E 0 80 56 00
        E 0 80 54 00
        E 0 80 4a 00
        E 0 80 48 00
        E 0 80 3e 00
        E 0 80 3c 00
        E 420 90 62 60
        E 0 90 61 60
        E 0 90 56 60
        E 0 90 55 60
        E 0 90 4a 60
        E 0 90 49 60
        E 60 80 62 00
        E 0 80 61 00
        E 0 80 56 00
        E 0 80 55 00
        E 0 80 4a 00
        E 0 80 49 00
        E 180 90 62 60
        E 0 90 56 60
        E 60 80 62 00
        E 0 80 56 00
        E 180 90 60 60
        E 0 90 62 60
        E 0 90 54 60
        E 0 90 56 60
        E 0 90 48 60
        E 0 90 4a 60
        E 0 90 3c 60
        E 0 90 3e 60
        E 60 80 60 00
        E 0 80 62 00
        E 0 80 54 00
        E 0 80 56 00
        E 0 80 48 00
        E 0 80 4a 00
        E 0 80 3c 00
        E 0 80 3e 00
        E 420 90 62 60
        E 0 90 61 60
        E 0 90 56 60
        E 0 90 55 60
        E 0 90 4a 60
        E 0 90 49 60
        E 60 80 62 00
        E 0 80 61 00
        E 0 80 56 00
        E 0 80 55 00
        E 0 80 4a 00
        E 0 80 49 00
        E 180 90 60 60
        E 0 90 62 60
        E 0 90 54 60
        E 0 90 56 60
        E 60 80 60 00
        E 0 80 62 00
        E 0 80 54 00
        E 0 80 56 00
        E 180 90 62 60
        E 0 90 60 60
        E 0 90 56 60
        E 0 90 54 60
        E 0 90 4a 60
        E 0 90 48 60
        E 0 90 3e 60
        E 0 90 3c 60
        E 60 80 62 00
        E 0 80 60 00
        E 0 80 56 00
        E 0 80 54 00
        E 0 80 4a 00
        E 0 80 48 00
        E 0 80 3e 00
        E 0 80 3c 00
        E 420 90 62 60
        E 0 90 61 60
        E 0 90 56 60
        E 0 90 55 60
        E 0 90 4a 60
        E 0 90 49 60
        E 60 80 62 00
        E 0 80 61 00
        E 0 80 56 00
        E 0 80 55 00
        E 0 80 4a 00
        E 0 80 49 00
        E 420 90 60 60
        E 0 90 62 60
        E 0 90 54 60
        E 0 90 56 60
        E 0 90 48 60
        E 0 90 4a 60
        E 0 90 3c 60
        E 0 90 3e 60
        E 60 80 60 00
        E 0 80 62 00
        E 0 80 54 00
        E 0 80 56 00
        E 0 80 48 00
        E 0 80 4a 00
        E 0 80 3c 00
        E 0 80 3e 00
        E 420 90 62 60
        E 0 90 61 60
        E 0 90 56 60
        E 0 90 55 60
        E 0 90 4a 60
        E 0 90 49 60
        E 60 80 62 00
        E 0 80 61 00
        E 0 80 56 00
        E 0 80 55 00
        E 0 80 4a 00
        E 0 80 49 00
        E 180 90 60 60
        E 0 90 62 60
        E 0 90 54 60
        E 0 90 56 60
        E 60 80 60 00
        E 0 80 62 00
        E 0 80 54 00
        E 0 80 56 00
        E 180 90 62 60
        E 0 90 60 60
        E 0 90 56 60
        E 0 90 54 60
        E 0 90 4a 60
        E 0 90 48 60
        E 0 90 3e 60
        E 0 90 3c 60
        E 60 80 62 00
        E 0 80 60 00
        E 0 80 56 00
        E 0 80 54 00
        E 0 80 4a 00
        E 0 80 48 00
        E 0 80 3e 00
        E 0 80 3c 00
        E 420 90 62 60
        E 0 90 61 60
        E 0 90 56 60
        E 0 90 55 60
        E 0 90 4a 60
        E 0 90 49 60
        E 60 80 62 00
        E 0 80 61 00
        E 0 80 56 00
        E 0 80 55 00
        E 0 80 4a 00
        E 0 80 49 00
        E 420 90 60 60
        E 0 90 62 60
        E 0 90 54 60
        E 0 90 56 60
        E 0 90 48 60
        E 0 90 4a 60
        E 0 90 3c 60
        E 0 90 3e 60
        E 60 80 60 00
        E 0 80 62 00
        E 0 80 54 00
        E 0 80 56 00
        E 0 80 48 00
        E 0 80 4a 00
        E 0 80 3c 00
        E 0 80 3e 00
        E 180 90 62 60
        E 0 90 56 60
        E 60 80 62 00
        E 0 80 56 00
        E 180 90 62 60
        E 0 90 61 60
        E 0 90 56 60
        E 0 90 55 60
        E 0 90 4a 60
        E 0 90 49 60
        E 60 80 62 00
        E 0 80 61 00
        E 0 80 56 00
        E 0 80 55 00
        E 0 80 4a 00
        E 0 80 49 00
        E 180 90 62 60
        E 0 90 56 60
        E 60 80 62 00
        E 0 80 56 00
        E 180 90 62 60
        E 0 90 60 60
        E 0 90 56 60
        E 0 90 54 60
        E 0 90 4a 60
        E 0 90 48 60
        E 0 90 3e 60
        E 0 90 3c 60
        E 60 80 62 00
        E 0 80 60 00
        E 0 80 56 00
        E 0 80 54 00
        E 0 80 4a 00
        E 0 80 48 00
        E 0 80 3e 00
        E 0 80 3c 00
        E 180 90 62 60
        E 0 90 60 60
        E 0 90 56 60
        E 0 90 54 60
        E 60 80 62 00
        E 0 80 60 00
        E 0 80 56 00
        E 0 80 54 00
        E 180 90 63 60
        E 0 90 61 60
        E 0 90 57 60
        E 0 90 55 60
        E 0 90 4b 60
        E 0 90 49 60
        E 60 80 63 00
        E 0 80 61 00
        E 0 80 57 00
        E 0 80 55 00
        E 0 80 4b 00
        E 0 80 49 00
        E 420 90 60 60
        E 0 90 64 60
        E 0 90 54 60
        E 0 90 58 60
        E 0 90 48 60
        E 0 90 4c 60
        E 0 90 3c 60
        E 0 90 40 60
        E 60 80 60 00
        E 0 80 64 00
        E 0 80 54 00
        E 0 80 58 00
        E 0 80 48 00
        E 0 80 4c 00
        E 0 80 3c 00
        E 0 80 40 00
        E 420 90 62 60
        E 0 90 61 60
        E 0 90 56 60
        E 0 90 55 60
        E 0 90 4a 60
        E 0 90 49 60
        E 60 80 62 00
        E 0 80 61 00
        E 0 80 56 00
        E 0 80 55 00
        E 0 80 4a 00
        E 0 80 49 00
        E 180 90 60 60
        E 0 90 54 60
        E 60 80 60 00
        E 0 80 54 00
        E 180 90 62 60
        E 0 90 60 60
        E 0 90 56 60
        E 0 90 54 60
        E 0 90 4a 60
        E 0 90 48 60
        E 0 90 3e 60
        E 0 90 3c 60
        E 60 80 62 00
        E 0 80 60 00
        E 0 80 56 00
        E 0 80 54 00
        E 0 80 4a 00
        E 0 80 48 00
        E 0 80 3e 00
        E 0 80 3c 00
        E 420 90 62 60
        E 0 90 61 60
        E 0 90 56 60
        E 0 90 55 60
        E 0 90 4a 60
        E 0 90 49 60
        E 60 80 62 00
        E 0 80 61 00
        E 0 80 56 00
        E 0 80 55 00
        E 0 80 4a 00
        E 0 80 49 00
        E 420 90 60 60
        E 0 90 62 60
        E 0 90 54 60
        E 0 90 56 60
        E 0 90 48 60
        E 0 90 4a 60
        E 0 90 3c 60
        E 0 90 3e 60
        E 60 80 60 00
        E 0 80 62 00
        E 0 80 54 00
        E 0 80 56 00
        E 0 80 48 00
        E 0 80 4a 00
        E 0 80 3c 00
        E 0 80 3e 00
        E 420 90 62 60
        E 0 90 61 60
        E 0 90 56 60
        E 0 90 55 60
        E 0 90 4a 60
        E 0 90 49 60
        E 60 80 62 00
        E 0 80 61 00
        E 0 80 56 00
        E 0 80 55 00
        E 0 80 4a 00
        E 0 80 49 00
        E 180 90 60 60
        E 0 90 54 60
        E 60 80 60 00
        E 0 80 54 00
        E 180 90 62 60
        E 0 90 60 60
        E 0 90 56 60
        E 0 90 54 60
        E 0 90 4a 60
        E 0 90 48 60
        E 0 90 3e 60
        E 0 90 3c 60
        E 60 80 62 00
        E 0 80 60 00
        E 0 80 56 00
        E 0 80 54 00
        E 0 80 4a 00
        E 0 80 48 00
        E 0 80 3e 00
        E 0 80 3c 00
        E 420 90 62 60
        E 0 90 61 60
        E 0 90 56 60
        E 0 90 55 60
        E 0 90 4a 60
        E 0 90 49 60
        E 60 80 62 00
        E 0 80 61 00
        E 0 80 56 00
        E 0 80 55 00
        E 0 80 4a 00
        E 0 80 49 00
        E 420 90 60 60
        E 0 90 62 60
        E 0 90 54 60
        E 0 90 56 60
        E 0 90 48 60
        E 0 90 4a 60
        E 0 90 3c 60
        E 0 90 3e 60
        E 60 80 60 00
        E 0 80 62 00
        E 0 80 54 00
        E 0 80 56 00
        E 0 80 48 00
        E 0 80 4a 00
        E 0 80 3c 00
        E 0 80 3e 00
        E 420 90 62 60
        E 0 90 61 60
        E 0 90 56 60
        E 0 90 55 60
        E 0 90 4a 60
        E 0 90 49 60
        E 60 80 62 00
        E 0 80 61 00
        E 0 80 56 00
        E 0 80 55 00
        E 0 80 4a 00
        E 0 80 49 00
        E 180 90 60 60
        E 0 90 54 60
        E 60 80 60 00
        E 0 80 54 00
        E 180 90 62 60
        E 0 90 60 60
        E 0 90 56 60
        E 0 90 54 60
        E 0 90 4a 60
        E 0 90 48 60
        E 0 90 3e 60
        E 0 90 3c 60
        E 60 80 62 00
        E 0 80 60 00
        E 0 80 56 00
        E 0 80 54 00
        E 0 80 4a 00
        E 0 80 48 00
        E 0 80 3e 00
        E 0 80 3c 00
        E 420 90 62 60
        E 0 90 61 60
        E 0 90 56 60
        E 0 90 55 60
        E 0 90 4a 60
        E 0 90 49 60
        E 60 80 62 00
        E 0 80 61 00
        E 0 80 56 00
        E 0 80 55 00
        E 0 80 4a 00
        E 0 80 49 00
        E 420 90 60 60
        E 0 90 62 60
        E 0 90 54 60
        E 0 90 56 60
        E 0 90 48 60
        E 0 90 4a 60
        E 0 90 3c 60
        E 0 90 3e 60
        E 60 80 60 00
        E 0 80 62 00
        E 0 80 54 00
        E 0 80 56 00
        E 0 80 48 00
        E 0 80 4a 00
        E 0 80 3c 00
        E 0 80 3e 00
        E 420 90 62 60
        E 0 90 61 60
        E 0 90 56 60
        E 0 90 55 60
        E 0 90 4a 60
        E 0 90 49 60
        E 60 80 62 00
        E 0 80 61 00
        E 0 80 56 00
        E 0 80 55 00
        E 0 80 4a 00
        E 0 80 49 00
        E 420 90 60 60
        E 0 90 62 60
        E 0 90 54 60
        E 0 90 56 60
        E 0 90 48 60
        E 0 90 4a 60
        E 0 90 3c 60
        E 0 90 3e 60
        E 60 80 60 00
        E 0 80 62 00
        E 0 80 54 00
        E 0 80 56 00
        E 0 80 48 00
        E 0 80 4a 00
        E 0 80 3c 00
        E 0 80 3e 00
        E 180 90 60 60
        E 0 90 54 60
        E 60 80 60 00
        E 0 80 54 00
        E 180 90 63 60
        E 0 90 61 60
        E 0 90 57 60
        E 0 90 55 60
        E 0 90 4b 60
        E 0 90 49 60
        E 60 80 63 00
        E 0 80 61 00
        E 0 80 57 00
        E 0 80 55 00
        E 0 80 4b 00
        E 0 80 49 00
        E 420 90 60 60
        E 0 90 62 60
        E 0 90 54 60
        E 0 90 56 60
        E 0 90 48 60
        E 0 90 4a 60
        E 0 90 3c 60
        E 0 90 3e 60
        E 60 80 60 00
        E 0 80 62 00
        E 0 80 54 00
        E 0 80 56 00
        E 0 80 48 00
        E 0 80 4a 00
        E 0 80 3c 00
        E 0 80 3e 00
        E 420 90 62 60
        E 0 90 61 60
        E 0 90 56 60
        E 0 90 55 60
        E 0 90 4a 60
        E 0 90 49 60
        E 60 80 62 00
        E 0 80 61 00
        E 0 80 56 00
        E 0 80 55 00
        E 0 80 4a 00
        E 0 80 49 00
        E 180 90 60 60
        E 0 90 54 60
        E 60 80 60 00
        E 0 80 54 00
        E 180 90 62 60
        E 0 90 60 60
        E 0 90 56 60
        E 0 90 54 60
        E 0 90 4a 60
        E 0 90 48 60
        E 0 90 3e 60
        E 0 90 3c 60
        E 60 80 62 00
        E 0 80 60 00
        E 0 80 56 00
        E 0 80 54 00
        E 0 80 4a 00
        E 0 80 48 00
        E 0 80 3e 00
        E 0 80 3c 00
        E 420 90 62 60
        E 0 90 61 60
        E 0 90 56 60
        E 0 90 55 60
        E 0 90 4a 60
        E 0 90 49 60
        E 60 80 62 00
        E 0 80 61 00
        E 0 80 56 00
        E 0 80 55 00
        E 0 80 4a 00
        E 0 80 49 00
        E 420 90 60 60
        E 0 90 62 60
        E 0 90 54 60
        E 0 90 56 60
        E 0 90 48 60
        E 0 90 4a 60
        E 0 90 3c 60
        E 0 90 3e 60
        E 60 80 60 00
        E 0 80 62 00
        E 0 80 54 00
        E 0 80 56 00
        E 0 80 48 00
        E 0 80 4a 00
        E 0 80 3c 00
        E 0 80 3e 00
        E 420 90 62 60
        E 0 90 61 60
        E 0 90 56 60
        E 0 90 55 60
        E 0 90 4a 60
        E 0 90 49 60
        E 60 80 62 00
        E 0 80 61 00
        E 0 80 56 00
        E 0 80 55 00
        E 0 80 4a 00
        E 0 80 49 00
        E 180 90 60 60
        E 0 90 54 60
        E 60 80 60 00
        E 0 80 54 00
        E 180 90 62 60
        E 0 90 60 60
        E 0 90 56 60
        E 0 90 54 60
        E 0 90 4a 60
        E 0 90 48 60
        E 0 90 3e 60
        E 0 90 3c 60
        E 60 80 62 00
        E 0 80 60 00
        E 0 80 56 00
        E 0 80 54 00
        E 0 80 4a 00
        E 0 80 48 00
        E 0 80 3e 00
        E 0 80 3c 00
        E 420 90 62 60
        E 0 90 61 60
        E 0 90 56 60
        E 0 90 55 60
        E 0 90 4a 60
        E 0 90 49 60
        E 60 80 62 00
        E 0 80 61 00
        E 0 80 56 00
        E 0 80 55 00
        E 0 80 4a 00
        E 0 80 49 00
        E 420 90 60 60
        E 0 90 62 60
        E 0 90 54 60
        E 0 90 56 60
        E 0 90 48 60
        E 0 90 4a 60
        E 0 90 3c 60
        E 0 90 3e 60
        E 60 80 60 00
        E 0 80 62 00
        E 0 80 54 00
        E 0 80 56 00
        E 0 80 48 00
        E 0 80 4a 00
        E 0 80 3c 00
        E 0 80 3e 00
        E 420 90 62 60
        E 0 90 61 60
        E 0 90 56 60
        E 0 90 55 60
        E 0 90 4a 60
        E 0 90 49 60
        E 60 80 62 00
        E 0 80 61 00
        E 0 80 56 00
        E 0 80 55 00
        E 0 80 4a 00
        E 0 80 49 00
        E 180 90 60 60
        E 0 90 54 60
        E 60 80 60 00
        E 0 80 54 00
        E 180 90 62 60
        E 0 90 60 60
        E 0 90 56 60
        E 0 90 54 60
        E 0 90 4a 60
        E 0 90 48 60
        E 0 90 3e 60
        E 0 90 3c 60
        E 60 80 62 00
        E 0 80 60 00
        E 0 80 56 00
        E 0 80 54 00
        E 0 80 4a 00
        E 0 80 48 00
        E 0 80 3e 00
        E 0 80 3c 00
        E 420 90 62 60
        E 0 90 61 60
        E 0 90 56 60
        E 0 90 55 60
        E 0 90 4a 60
        E 0 90 49 60
        E 60 80 62 00
        E 0 80 61 00
        E 0 80 56 00
        E 0 80 55 00
        E 0 80 4a 00
        E 0 80 49 00
        E 420 90 60 60
        E 0 90 62 60
        E 0 90 54 60
        E 0 90 56 60
        E 0 90 48 60
        E 0 90 4a 60
        E 0 90 3c 60
        E 0 90 3e 60
        E 60 80 60 00
        E 0 80 62 00
        E 0 80 54 00
        E 0 80 56 00
        E 0 80 48 00
        E 0 80 4a 00
        E 0 80 3c 00
        E 0 80 3e 00
        E 420 90 62 60
        E 0 90 61 60
        E 0 90 56 60
        E 0 90 55 60
        E 0 90 4a 60
        E 0 90 49 60
        E 60 80 62 00
        E 0 80 61 00
        E 0 80 56 00
        E 0 80 55 00
        E 0 80 4a 00
        E 0 80 49 00
        E 180 90 62 60
        E 0 90 56 60
        E 60 80 62 00
        E 0 80 56 00
        E 180 90 62 60
        E 0 90 60 60
        E 0 90 56 60
        E 0 90 54 60
        E 0 90 4a 60
        E 0 90 48 60
        E 0 90 3e 60
        E 0 90 3c 60
        E 60 80 62 00
        E 0 80 60 00
        E 0 80 56 00
        E 0 80 54 00
        E 0 80 4a 00
        E 0 80 48 00
        E 0 80 3e 00
        E 0 80 3c 00
        E 180 90 62 60
        E 0 90 60 60
        E 0 90 56 60
        E 0 90 54 60
        E 60 80 62 00
        E 0 80 60 00
        E 0 80 56 00
        E 0 80 54 00
        E 180 90 63 60
        E 0 90 61 60
        E 0 90 57 60
        E 0 90 55 60
        E 0 90 4b 60
        E 0 90 49 60
        E 60 80 63 00
        E 0 80 61 00
        E 0 80 57 00
        E 0 80 55 00
        E 0 80 4b 00
        E 0 80 49 00
        E 180 90 61 60
        E 0 90 55 60
        E 60 80 61 00
        E 0 80 55 00
        E 60 90 61 60
        E 60 80 61 00
        E 60 90 64 60
        E 0 90 60 60
        E 0 90 58 60
        E 0 90 54 60
        E 0 90 4c 60
        E 0 90 48 60
        E 0 90 40 60
        E 0 90 3c 60
        E 60 80 64 00
        E 0 80 60 00
        E 0 80 58 00
        E 0 80 54 00
        E 0 80 4c 00
        E 0 80 48 00
        E 0 80 40 00
        E 0 80 3c 00
        E 420 90 62 60
        E 0 90 61 60
        E 0 90 56 60
        E 0 90 55 60
        E 0 90 4a 60
        E 0 90 49 60
        E 60 80 62 00
        E 0 80 61 00
        E 0 80 56 00
        E 0 80 55 00
        E 0 80 4a 00
        E 0 80 49 00
        E 180 90 61 60
        E 0 90 62 60
        E 0 90 55 60
        E 0 90 56 60
        E 60 80 61 00
        E 0 80 62 00
        E 0 80 55 00
        E 0 80 56 00
        E 180 90 62 60
        E 0 90 56 60
        E 0 90 4a 60
        E 0 90 3e 60
        E 60 80 62 00
        E 0 80 56 00
        E 0 80 4a 00
        E 0 80 3e 00
        E 180 90 60 60
        E 0 90 62 60
        E 0 90 54 60
        E 0 90 56 60
        E 60 80 60 00
        E 0 80 62 00
        E 0 80 54 00
        E 0 80 56 00
        E 180 90 62 60
        E 0 90 61 60
        E 0 90 56 60
        E 0 90 55 60
        E 0 90 4a 60
        E 0 90 49 60
        E 60 80 62 00
        E 0 80 61 00
        E 0 80 56 00
        E 0 80 55 00
        E 0 80 4a 00
        E 0 80 49 00
        E 180 90 62 60
        E 0 90 60 60
        E 0 90 56 60
        E 0 90 54 60
        E 60 80 62 00
        E 0 80 60 00
        E 0 80 56 00
        E 0 80 54 00
        E 180 90 60 60
        E 0 90 62 60
        E 0 90 54 60
        E 0 90 56 60
        E 0 90 48 60
        E 0 90 4a 60
        E 0 90 3c 60
        E 0 90 3e 60
        E 60 80 60 00
        E 0 80 62 00
        E 0 80 54 00
        E 0 80 56 00
        E 0 80 48 00
        E 0 80 4a 00
        E 0 80 3c 00
        E 0 80 3e 00
        E 180 90 62 60
        E 0 90 56 60
        E 60 80 62 00
        E 0 80 56 00
        E 180 90 62 60
        E 0 90 61 60
        E 0 90 56 60
        E 0 90 55 60
        E 0 90 4a 60
        E 0 90 49 60
        E 60 80 62 00
        E 0 80 61 00
        E 0 80 56 00
        E 0 80 55 00
        E 0 80 4a 00
        E 0 80 49 00
        E 180 90 61 60
        E 0 90 62 60
        E 0 90 55 60
        E 0 90 56 60
        E 60 80 61 00
        E 0 80 62 00
        E 0 80 55 00
        E 0 80 56 00
        E 180 90 62 60
        E 0 90 56 60
        E 0 90 4a 60
        E 0 90 3e 60
        E 60 80 62 00
        E 0 80 56 00
        E 0 80 4a 00
        E 0 80 3e 00
        E 180 90 60 60
        E 0 90 62 60
        E 0 90 54 60
        E 0 90 56 60
        E 60 80 60 00
        E 0 80 62 00
        E 0 80 54 00
        E 0 80 56 00
        E 180 90 62 60
        E 0 90 61 60
        E 0 90 56 60
        E 0 90 55 60
        E 0 90 4a 60
        E 0 90 49 60
        E 60 80 62 00
        E 0 80 61 00
        E 0 80 56 00
        E 0 80 55 00
        E 0 80 4a 00
        E 0 80 49 00
        E 180 90 62 60
        E 0 90 60 60
        E 0 90 56 60
        E 0 90 54 60
        E 60 80 62 00
        E 0 80 60 00
        E 0 80 56 00
        E 0 80 54 00
        E 180 90 60 60
        E 0 90 62 60
        E 0 90 54 60
        E 0 90 56 60
        E 0 90 48 60
        E 0 90 4a 60
        E 0 90 3c 60
        E 0 90 3e 60
        E 60 80 60 00
        E 0 80 62 00
        E 0 80 54 00
        E 0 80 56 00
        E 0 80 48 00
        E 0 80 4a 00
        E 0 80 3c 00
        E 0 80 3e 00
        E 180 90 62 60
        E 0 90 56 60
        E 60 80 62 00
        E 0 80 56 00
        E 180 90 62 60
        E 0 90 61 60
        E 0 90 56 60
        E 0 90 55 60
        E 0 90 4a 60
        E 0 90 49 60
        E 60 80 62 00
        E 0 80 61 00
        E 0 80 56 00
        E 0 80 55 00
        E 0 80 4a 00
        E 0 80 49 00
        E 180 90 61 60
        E 0 90 62 60
        E 0 90 55 60
        E 0 90 56 60
        E 60 80 61 00
        E 0 80 62 00
        E 0 80 55 00
        E 0 80 56 00
        E 180 90 62 60
        E 0 90 56 60
        E 0 90 4a 60
        E 0 90 3e 60
        E 60 80 62 00
        E 0 80 56 00
        E 0 80 4a 00
        E 0 80 3e 00
        E 180 90 60 60
        E 0 90 62 60
        E 0 90 54 60
        E 0 90 56 60
        E 60 80 60 00
        E 0 80 62 00
        E 0 80 54 00
        E 0 80 56 00
        E 180 90 62 60
        E 0 90 61 60
        E 0 90 56 60
        E 0 90 55 60
        E 0 90 4a 60
        E 0 90 49 60
        E 60 80 62 00
        E 0 80 61 00
        E 0 80 56 00
        E 0 80 55 00
        E 0 80 4a 00
        E 0 80 49 00
        E 180 90 62 60
        E 0 90 60 60
        E 0 90 56 60
        E 0 90 54 60
        E 60 80 62 00
        E 0 80 60 00
        E 0 80 56 00
        E 0 80 54 00
        E 180 90 60 60
        E 0 90 62 60
        E 0 90 54 60
        E 0 90 56 60
        E 0 90 48 60
        E 0 90 4a 60
        E 0 90 3c 60
        E 0 90 3e 60
        E 60 80 60 00
        E 0 80 62 00
        E 0 80 54 00
        E 0 80 56 00
        E 0 80 48 00
        E 0 80 4a 00
        E 0 80 3c 00
        E 0 80 3e 00
        E 180 90 62 60
        E 0 90 56 60
        E 60 80 62 00
        E 0 80 56 00
        E 180 90 62 60
        E 0 90 61 60
        E 0 90 56 60
        E 0 90 55 60
        E 0 90 4a 60
        E 0 90 49 60
        E 60 80 62 00
        E 0 80 61 00
        E 0 80 56 00
        E 0 80 55 00
        E 0 80 4a 00
        E 0 80 49 00
        E 180 90 61 60
        E 0 90 62 60
        E 0 90 55 60
        E 0 90 56 60
        E 60 80 61 00
        E 0 80 62 00
        E 0 80 55 00
        E 0 80 56 00
        E 180 90 62 60
        E 0 90 56 60
        E 0 90 4a 60
        E 0 90 3e 60
        E 60 80 62 00
        E 0 80 56 00
        E 0 80 4a 00
        E 0 80 3e 00
        E 180 90 60 60
        E 0 90 62 60
        E 0 90 54 60
        E 0 90 56 60
        E 60 80 60 00
        E 0 80 62 00
        E 0 80 54 00
        E 0 80 56 00
        E 180 90 62 60
        E 0 90 61 60
        E 0 90 56 60
        E 0 90 55 60
        E 0 90 4a 60
        E 0 90 49 60
        E 60 80 62 00
        E 0 80 61 00
        E 0 80 56 00
        E 0 80 55 00
        E 0 80 4a 00
        E 0 80 49 00
        E 180 90 62 60
        E 0 90 60 60
        E 0 90 56 60
        E 0 90 54 60
        E 60 80 62 00
        E 0 80 60 00
        E 0 80 56 00
        E 0 80 54 00
        E 180 90 60 60
        E 0 90 62 60
        E 0 90 54 60
        E 0 90 56 60
        E 0 90 48 60
        E 0 90 4a 60
        E 0 90 3c 60
        E 0 90 3e 60
        E 60 80 60 00
        E 0 80 62 00
        E 0 80 54 00
        E 0 80 56 00
        E 0 80 48 00
        E 0 80 4a 00
        E 0 80 3c 00
        E 0 80 3e 00
        E 180 90 62 60
        E 0 90 56 60
        E 60 80 62 00
        E 0 80 56 00
        E 180 90 62 60
        E 0 90 61 60
        E 0 90 56 60
        E 0 90 55 60
        E 0 90 4a 60
        E 0 90 49 60
        E 60 80 62 00
        E 0 80 61 00
        E 0 80 56 00
        E 0 80 55 00
        E 0 80 4a 00
        E 0 80 49 00
        E 180 90 61 60
        E 0 90 62 60
        E 0 90 55 60
        E 0 90 56 60
        E 60 80 61 00
        E 0 80 62 00
        E 0 80 55 00
        E 0 80 56 00
        E 180 90 62 60
        E 0 90 56 60
        E 0 90 4a 60
        E 0 90 3e 60
        E 60 80 62 00
        E 0 80 56 00
        E 0 80 4a 00
        E 0 80 3e 00
        E 180 90 60 60
        E 0 90 62 60
        E 0 90 54 60
        E 0 90 56 60
        E 60 80 60 00
        E 0 80 62 00
        E 0 80 54 00
        E 0 80 56 00
        E 180 90 62 60
        E 0 90 61 60
        E 0 90 56 60
        E 0 90 55 60
        E 0 90 4a 60
        E 0 90 49 60
        E 60 80 62 00
        E 0 80 61 00
        E 0 80 56 00
        E 0 80 55 00
        E 0 80 4a 00
        E 0 80 49 00
        E 180 90 62 60
        E 0 90 60 60
        E 0 90 56 60
        E 0 90 54 60
        E 60 80 62 00
        E 0 80 60 00
        E 0 80 56 00
        E 0 80 54 00
        E 180 90 60 60
        E 0 90 62 60
        E 0 90 54 60
        E 0 90 56 60
        E 0 90 48 60
        E 0 90 4a 60
        E 0 90 3c 60
        E 0 90 3e 60
        E 60 80 60 00
        E 0 80 62 00
        E 0 80 54 00
        E 0 80 56 00
        E 0 80 48 00
        E 0 80 4a 00
        E 0 80 3c 00
        E 0 80 3e 00
        E 180 90 62 60
        E 0 90 56 60
        E 60 80 62 00
        E 0 80 56 00
        E 180 90 62 60
        E 0 90 61 60
        E 0 90 56 60
        E 0 90 55 60
        E 0 90 4a 60
        E 0 90 49 60
        E 60 80 62 00
        E 0 80 61 00
        E 0 80 56 00
        E 0 80 55 00
        E 0 80 4a 00
        E 0 80 49 00
        E 180 90 61 60
        E 0 90 62 60
        E 0 90 55 60
        E 0 90 56 60
        E 60 80 61 00
        E 0 80 62 00
        E 0 80 55 00
        E 0 80 56 00
        E 180 90 62 60
        E 0 90 56 60
        E 0 90 4a 60
        E 0 90 3e 60
        E 60 80 62 00
        E 0 80 56 00
        E 0 80 4a 00
        E 0 80 3e 00
        E 180 90 60 60
        E 0 90 62 60
        E 0 90 54 60
        E 0 90 56 60
        E 60 80 60 00
        E 0 80 62 00
        E 0 80 54 00
        E 0 80 56 00
        E 180 90 62 60
        E 0 90 61 60
        E 0 90 56 60
        E 0 90 55 60
        E 0 90 4a 60
        E 0 90 49 60
        E 60 80 62 00
        E 0 80 61 00
        E 0 80 56 00
        E 0 80 55 00
        E 0 80 4a 00
        E 0 80 49 00
        E 180 90 62 60
        E 0 90 60 60
        E 0 90 56 60
        E 0 90 54 60
        E 60 80 62 00
        E 0 80 60 00
        E 0 80 56 00
        E 0 80 54 00
        E 180 90 60 60
        E 0 90 62 60
        E 0 90 54 60
        E 0 90 56 60
        E 0 90 48 60
        E 0 90 4a 60
        E 0 90 3c 60
        E 0 90 3e 60
        E 60 80 60 00
        E 0 80 62 00
        E 0 80 54 00
        E 0 80 56 00
        E 0 80 48 00
        E 0 80 4a 00
        E 0 80 3c 00
        E 0 80 3e 00
        E 180 90 62 60
        E 0 90 56 60
        E 60 80 62 00
        E 0 80 56 00
        E 180 90 62 60
        E 0 90 61 60
        E 0 90 56 60
        E 0 90 55 60
        E 0 90 4a 60
        E 0 90 49 60
        E 60 80 62 00
        E 0 80 61 00
        E 0 80 56 00
        E 0 80 55 00
        E 0 80 4a 00
        E 0 80 49 00
        E 180 90 61 60
        E 0 90 62 60
        E 0 90 55 60
        E 0 90 56 60
        E 60 80 61 00
        E 0 80 62 00
        E 0 80 55 00
        E 0 80 56 00
        E 180 90 62 60
        E 0 90 56 60
        E 0 90 4a 60
        E 0 90 3e 60
        E 60 80 62 00
        E 0 80 56 00
        E 0 80 4a 00
        E 0 80 3e 00
        E 180 90 60 60
        E 0 90 62 60
        E 0 90 54 60
        E 0 90 56 60
        E 60 80 60 00
        E 0 80 62 00
        E 0 80 54 00
        E 0 80 56 00
        E 180 90 62 60
        E 0 90 61 60
        E 0 90 56 60
        E 0 90 55 60
        E 0 90 4a 60
        E 0 90 49 60
        E 60 80 62 00
        E 0 80 61 00
        E 0 80 56 00
        E 0 80 55 00
        E 0 80 4a 00
        E 0 80 49 00
        E 180 90 62 60
        E 0 90 56 60
        E 60 80 62 00
        E 0 80 56 00
        E 180 90 60 60
        E 0 90 62 60
        E 0 90 54 60
        E 0 90 56 60
        E 0 90 48 60
        E 0 90 4a 60
        E 0 90 3c 60
        E 0 90 3e 60
        E 60 80 60 00
        E 0 80 62 00
        E 0 80 54 00
        E 0 80 56 00
        E 0 80 48 00
        E 0 80 4a 00
        E 0 80 3c 00
        E 0 80 3e 00
        E 180 90 62 60
        E 0 90 60 60
        E 0 90 56 60
        E 0 90 54 60
        E 60 80 62 00
        E 0 80 60 00
        E 0 80 56 00
        E 0 80 54 00
        E 180 90 62 60
        E 0 90 61 60
        E 0 90 56 60
        E 0 90 55 60
        E 0 90 4a 60
        E 0 90 49 60
        E 60 80 62 00
        E 0 80 61 00
        E 0 80 56 00
        E 0 80 55 00
        E 0 80 4a 00
        E 0 80 49 00
        E 180 90 62 60
        E 0 90 56 60
        E 60 80 62 00
        E 0 80 56 00
        E 60 90 61 60
        E 60 80 61 00
        E 60 90 62 60
        E 0 90 60 60
        E 0 90 56 60
        E 0 90 54 60
        E 0 90 4a 60
        E 0 90 48 60
        E 0 90 3e 60
        E 0 90 3c 60
        E 60 80 62 00
        E 0 80 60 00
        E 0 80 56 00
        E 0 80 54 00
        E 0 80 4a 00
        E 0 80 48 00
        E 0 80 3e 00
        E 0 80 3c 00
        E 180 90 60 60
        E 0 90 62 60
        E 0 90 54 60
        E 0 90 56 60
        E 60 80 60 00
        E 0 80 62 00
        E 0 80 54 00
        E 0 80 56 00
        E 180 90 62 60
        E 0 90 61 60
        E 0 90 56 60
        E 0 90 55 60
        E 0 90 4a 60
        E 0 90 49 60
        E 60 80 62 00
        E 0 80 61 00
        E 0 80 56 00
        E 0 80 55 00
        E 0 80 4a 00
        E 0 80 49 00
        E 180 90 61 60
        E 0 90 55 60
        E 60 80 61 00
        E 0 80 55 00
        E 60 90 61 60
        E 60 80 61 00
        E 60 90 64 60
        E 0 90 60 60
        E 0 90 58 60
        E 0 90 54 60
        E 0 90 4c 60
        E 0 90 48 60
        E 0 90 40 60
        E 0 90 3c 60
        E 60 80 64 00
        E 0 80 60 00
        E 0 80 58 00
        E 0 80 54 00
        E 0 80 4c 00
        E 0 80 48 00
        E 0 80 40 00
        E 0 80 3c 00
        E 420 90 61 60
        E 0 90 63 60
        E 0 90 55 60
        E 0 90 57 60
        E 0 90 49 60
        E 0 90 4b 60
        E 60 80 61 00
        E 0 80 63 00
        E 0 80 55 00
        E 0 80 57 00
        E 0 80 49 00
        E 0 80 4b 00
        E 420 90 63 60
        E 0 90 60 60
        E 0 90 57 60
        E 0 90 54 60
        E 0 90 4b 60
        E 0 90 48 60
        E 0 90 3f 60
        E 0 90 3c 60
        E 60 80 63 00
        E 0 80 60 00
        E 0 80 57 00
        E 0 80 54 00
        E 0 80 4b 00
        E 0 80 48 00
        E 0 80 3f 00
        E 0 80 3c 00
        E 180 90 60 60
        E 0 90 54 60
        E 60 80 60 00
        E 0 80 54 00
        E 180 90 61 60
        E 0 90 63 60
        E 0 90 55 60
        E 0 90 57 60
        E 0 90 49 60
        E 0 90 4b 60
        E 60 80 61 00
        E 0 80 63 00
        E 0 80 55 00
        E 0 80 57 00
        E 0 80 49 00
        E 0 80 4b 00
        E 420 90 63 60
        E 0 90 60 60
        E 0 90 57 60
        E 0 90 54 60
        E 0 90 4b 60
        E 0 90 48 60
        E 0 90 3f 60
        E 0 90 3c 60
        E 60 80 63 00
        E 0 80 60 00
        E 0 80 57 00
        E 0 80 54 00
        E 0 80 4b 00
        E 0 80 48 00
        E 0 80 3f 00
        E 0 80 3c 00
        E 420 90 61 60
        E 0 90 63 60
        E 0 90 55 60
        E 0 90 57 60
        E 0 90 49 60
        E 0 90 4b 60
        E 60 80 61 00
        E 0 80 63 00
        E 0 80 55 00
        E 0 80 57 00
        E 0 80 49 00
        E 0 80 4b 00
        E 420 90 63 60
        E 0 90 60 60
        E 0 90 57 60
        E 0 90 54 60
        E 0 90 4b 60
        E 0 90 48 60
        E 0 90 3f 60
        E 0 90 3c 60
        E 60 80 63 00
        E 0 80 60 00
        E 0 80 57 00
        E 0 80 54 00
        E 0 80 4b 00
        E 0 80 48 00
        E 0 80 3f 00
        E 0 80 3c 00
        E 180 90 60 60
        E 0 90 54 60
        E 60 80 60 00
        E 0 80 54 00
        E 180 90 61 60
        E 0 90 63 60
        E 0 90 55 60
        E 0 90 57 60
        E 0 90 49 60
        E 0 90 4b 60
        E 60 80 61 00
        E 0 80 63 00
        E 0 80 55 00
        E 0 80 57 00
        E 0 80 49 00
        E 0 80 4b 00
        E 420 90 64 60
        E 0 90 60 60
        E 0 90 58 60
        E 0 90 54 60
        E 0 90 4c 60
        E 0 90 48 60
        E 0 90 40 60
        E 0 90 3c 60
        E 60 80 64 00
        E 0 80 60 00
        E 0 80 58 00
        E 0 80 54 00
        E 0 80 4c 00
        E 0 80 48 00
        E 0 80 40 00
        E 0 80 3c 00
        E 420 90 61 60
        E 0 90 63 60
        E 0 90 55 60
        E 0 90 57 60
        E 0 90 49 60
        E 0 90 4b 60
        E 60 80 61 00
        E 0 80 63 00
        E 0 80 55 00
        E 0 80 57 00
        E 0 80 49 00
        E 0 80 4b 00
        E 420 90 63 60
        E 0 90 60 60
        E 0 90 57 60
        E 0 90 54 60
        E 0 90 4b 60
        E 0 90 48 60
        E 0 90 3f 60
        E 0 90 3c 60
        E 60 80 63 00
        E 0 80 60 00
        E 0 80 57 00
        E 0 80 54 00
        E 0 80 4b 00
        E 0 80 48 00
        E 0 80 3f 00
        E 0 80 3c 00
        E 180 90 60 60
        E 0 90 54 60
        E 60 80 60 00
        E 0 80 54 00
        E 180 90 61 60
        E 0 90 63 60
        E 0 90 55 60
        E 0 90 57 60
        E 0 90 49 60
        E 0 90 4b 60
        E 60 80 61 00
        E 0 80 63 00
        E 0 80 55 00
        E 0 80 57 00
        E 0 80 49 00
        E 0 80 4b 00
        E 420 90 63 60
        E 0 90 60 60
        E 0 90 57 60
        E 0 90 54 60
        E 0 90 4b 60
        E 0 90 48 60
        E 0 90 3f 60
        E 0 90 3c 60
        E 60 80 63 00
        E 0 80 60 00
        E 0 80 57 00
        E 0 80 54 00
        E 0 80 4b 00
        E 0 80 48 00
        E 0 80 3f 00
        E 0 80 3c 00
        E 420 90 61 60
        E 0 90 63 60
        E 0 90 55 60
        E 0 90 57 60
        E 0 90 49 60
        E 0 90 4b 60
        E 60 80 61 00
        E 0 80 63 00
        E 0 80 55 00
        E 0 80 57 00
        E 0 80 49 00
        E 0 80 4b 00
        E 420 90 63 60
        E 0 90 60 60
        E 0 90 57 60
        E 0 90 54 60
        E 0 90 4b 60
        E 0 90 48 60
        E 0 90 3f 60
        E 0 90 3c 60
        E 60 80 63 00
        E 0 80 60 00
        E 0 80 57 00
        E 0 80 54 00
        E 0 80 4b 00
        E 0 80 48 00
        E 0 80 3f 00
        E 0 80 3c 00
        E 180 90 60 60
        E 0 90 54 60
        E 60 80 60 00
        E 0 80 54 00
        E 180 90 61 60
        E 0 90 63 60
        E 0 90 55 60
        E 0 90 57 60
        E 0 90 49 60
        E 0 90 4b 60
        E 60 80 61 00
        E 0 80 63 00
        E 0 80 55 00
        E 0 80 57 00
        E 0 80 49 00
        E 0 80 4b 00
        E 420 90 64 60
        E 0 90 60 60
        E 0 90 58 60
        E 0 90 54 60
        E 0 90 4c 60
        E 0 90 48 60
        E 0 90 40 60
        E 0 90 3c 60
        E 60 80 64 00
        E 0 80 60 00
        E 0 80 58 00
        E 0 80 54 00
        E 0 80 4c 00
        E 0 80 48 00
        E 0 80 40 00
        E 0 80 3c 00
        E 420 90 61 60
        E 0 90 63 60
        E 0 90 55 60
        E 0 90 57 60
        E 0 90 49 60
        E 0 90 4b 60
        E 60 80 61 00
        E 0 80 63 00
        E 0 80 55 00
        E 0 80 57 00
        E 0 80 49 00
        E 0 80 4b 00
        E 420 90 63 60
        E 0 90 60 60
        E 0 90 57 60
        E 0 90 54 60
        E 0 90 4b 60
        E 0 90 48 60
        E 0 90 3f 60
        E 0 90 3c 60
        E 60 80 63 00
        E 0 80 60 00
        E 0 80 57 00
        E 0 80 54 00
        E 0 80 4b 00
        E 0 80 48 00
        E 0 80 3f 00
        E 0 80 3c 00
        E 180 90 60 60
        E 0 90 54 60
        E 60 80 60 00
        E 0 80 54 00
        E 180 90 61 60
        E 0 90 63 60
        E 0 90 55 60
        E 0 90 57 60
        E 0 90 49 60
        E 0 90 4b 60
        E 60 80 61 00
        E 0 80 63 00
        E 0 80 55 00
        E 0 80 57 00
        E 0 80 49 00
        E 0 80 4b 00
        E 420 90 63 60
        E 0 90 60 60
        E 0 90 57 60
        E 0 90 54 60
        E 0 90 4b 60
        E 0 90 48 60
        E 0 90 3f 60
        E 0 90 3c 60
        E 60 80 63 00
        E 0 80 60 00
        E 0 80 57 00
        E 0 80 54 00
        E 0 80 4b 00
        E 0 80 48 00
        E 0 80 3f 00
        E 0 80 3c 00
        E 420 90 61 60
        E 0 90 63 60
        E 0 90 55 60
        E 0 90 57 60
        E 0 90 49 60
        E 0 90 4b 60
        E 60 80 61 00
        E 0 80 63 00
        E 0 80 55 00
        E 0 80 57 00
        E 0 80 49 00
        E 0 80 4b 00
        E 420 90 63 60
        E 0 90 60 60
        E 0 90 57 60
        E 0 90 54 60
        E 0 90 4b 60
        E 0 90 48 60
        E 0 90 3f 60
        E 0 90 3c 60
        E 60 80 63 00
        E 0 80 60 00
        E 0 80 57 00
        E 0 80 54 00
        E 0 80 4b 00
        E 0 80 48 00
        E 0 80 3f 00
        E 0 80 3c 00
        E 180 90 60 60
        E 0 90 54 60
        E 60 80 60 00
        E 0 80 54 00
        E 180 90 61 60
        E 0 90 63 60
        E 0 90 55 60
        E 0 90 57 60
        E 0 90 49 60
        E 0 90 4b 60
        E 60 80 61 00
        E 0 80 63 00
        E 0 80 55 00
        E 0 80 57 00
        E 0 80 49 00
        E 0 80 4b 00
        E 420 90 64 60
        E 0 90 60 60
        E 0 90 58 60
        E 0 90 54 60
        E 0 90 4c 60
        E 0 90 48 60
        E 0 90 40 60
        E 0 90 3c 60
        E 60 80 64 00
        E 0 80 60 00
        E 0 80 58 00
        E 0 80 54 00
        E 0 80 4c 00
        E 0 80 48 00
        E 0 80 40 00
        E 0 80 3c 00
        E 420 90 61 60
        E 0 90 63 60
        E 0 90 55 60
        E 0 90 57 60
        E 0 90 49 60
        E 0 90 4b 60
        E 60 80 61 00
        E 0 80 63 00
        E 0 80 55 00
        E 0 80 57 00
        E 0 80 49 00
        E 0 80 4b 00
        E 420 90 63 60
        E 0 90 60 60
        E 0 90 57 60
        E 0 90 54 60
        E 0 90 4b 60
        E 0 90 48 60
        E 0 90 3f 60
        E 0 90 3c 60
        E 60 80 63 00
        E 0 80 60 00
        E 0 80 57 00
        E 0 80 54 00
        E 0 80 4b 00
        E 0 80 48 00
        E 0 80 3f 00
        E 0 80 3c 00
        E 180 90 60 60
        E 0 90 54 60
        E 60 80 60 00
        E 0 80 54 00
        E 180 90 61 60
        E 0 90 63 60
        E 0 90 55 60
        E 0 90 57 60
        E 0 90 49 60
        E 0 90 4b 60
        E 60 80 61 00
        E 0 80 63 00
        E 0 80 55 00
        E 0 80 57 00
        E 0 80 49 00
        E 0 80 4b 00
        E 420 90 64 60
        E 0 90 60 60
        E 0 90 58 60
        E 0 90 54 60
        E 0 90 4c 60
        E 0 90 48 60
        E 0 90 40 60
        E 0 90 3c 60
        E 60 80 64 00
        E 0 80 60 00
        E 0 80 58 00
        E 0 80 54 00
        E 0 80 4c 00
        E 0 80 48 00
        E 0 80 40 00
        E 0 80 3c 00
        E 420 90 61 60
        E 0 90 63 60
        E 0 90 55 60
        E 0 90 57 60
        E 0 90 49 60
        E 0 90 4b 60
        E 60 80 61 00
        E 0 80 63 00
        E 0 80 55 00
        E 0 80 57 00
        E 0 80 49 00
        E 0 80 4b 00
        E 420 90 63 60
        E 0 90 60 60
        E 0 90 57 60
        E 0 90 54 60
        E 0 90 4b 60
        E 0 90 48 60
        E 0 90 3f 60
        E 0 90 3c 60
        E 60 80 63 00
        E 0 80 60 00
        E 0 80 57 00
        E 0 80 54 00
        E 0 80 4b 00
        E 0 80 48 00
        E 0 80 3f 00
        E 0 80 3c 00
        E 180 90 60 60
        E 0 90 54 60
        E 60 80 60 00
        E 0 80 54 00
        E 180 90 61 60
        E 0 90 64 60
        E 0 90 55 60
        E 0 90 58 60
        E 0 90 49 60
        E 0 90 4c 60
        E 60 80 61 00
        E 0 80 64 00
        E 0 80 55 00
        E 0 80 58 00
        E 0 80 49 00
        E 0 80 4c 00
        E 420 90 62 60
        E 0 90 60 60
        E 0 90 56 60
        E 0 90 54 60
        E 0 90 4a 60
        E 0 90 48 60
        E 0 90 3e 60
        E 0 90 3c 60
        E 60 80 62 00
        E 0 80 60 00
        E 0 80 56 00
        E 0 80 54 00
        E 0 80 4a 00
        E 0 80 48 00
        E 0 80 3e 00
        E 0 80 3c 00
        E 180 90 62 60
        E 0 90 56 60
        E 60 80 62 00
        E 0 80 56 00
        E 180 90 62 60
        E 0 90 56 60
        E 0 90 4a 60
        E 60 80 62 00
        E 0 80 56 00
        E 0 80 4a 00
        E 180 90 60 60
        E 0 90 62 60
        E 0 90 54 60
        E 0 90 56 60
        E 60 80 60 00
        E 0 80 62 00
        E 0 80 54 00
        E 0 80 56 00
        E 180 90 60 60
        E 0 90 62 60
        E 0 90 54 60
        E 0 90 56 60
        E 0 90 48 60
        E 0 90 4a 60
        E 0 90 3c 60
        E 0 90 3e 60
        E 60 80 60 00
        E 0 80 62 00
        E 0 80 54 00
        E 0 80 56 00
        E 0 80 48 00
        E 0 80 4a 00
        E 0 80 3c 00
        E 0 80 3e 00
        E 180 90 62 60
        E 0 90 56 60
        E 60 80 62 00
        E 0 80 56 00
        E 180 90 61 60
        E 0 90 62 60
        E 0 90 55 60
        E 0 90 56 60
        E 0 90 49 60
        E 0 90 4a 60
        E 60 80 61 00
        E 0 80 62 00
        E 0 80 55 00
        E 0 80 56 00
        E 0 80 49 00
        E 0 80 4a 00
        E 180 90 62 60
        E 0 90 56 60
        E 60 80 62 00
        E 0 80 56 00
        E 180 90 62 60
        E 0 90 60 60
        E 0 90 56 60
        E 0 90 54 60
        E 0 90 4a 60
        E 0 90 48 60
        E 0 90 3e 60
        E 0 90 3c 60
        E 60 80 62 00
        E 0 80 60 00
        E 0 80 56 00
        E 0 80 54 00
        E 0 80 4a 00
        E 0 80 48 00
        E 0 80 3e 00
        E 0 80 3c 00
        E 180 90 62 60
        E 0 90 56 60
        E 54 80 62 00
        E 0 80 56 00
        E 186 90 62 60
        E 0 90 56 60
        E 0 90 4a 60
        E 54 80 62 00
        E 0 80 56 00
        E 0 80 4a 00
        E 186 90 60 60
        E 0 90 62 60
        E 0 90 54 60
        E 0 90 56 60
        E 60 80 60 00
        E 0 80 62 00
        E 0 80 54 00
        E 0 80 56 00
        E 180 90 60 60
        E 0 90 62 60
        E 0 90 54 60
        E 0 90 56 60
        E 0 90 48 60
        E 0 90 4a 60
        E 0 90 3c 60
        E 0 90 3e 60
        E 60 80 60 00
        E 0 80 62 00
        E 0 80 54 00
        E 0 80 56 00
        E 0 80 48 00
        E 0 80 4a 00
        E 0 80 3c 00
        E 0 80 3e 00
        E 180 90 62 60
        E 0 90 56 60
        E 60 80 62 00
        E 0 80 56 00
        E 180 90 61 60
        E 0 90 62 60
        E 0 90 55 60
        E 0 90 56 60
        E 0 90 49 60
        E 0 90 4a 60
        E 60 80 61 00
        E 0 80 62 00
        E 0 80 55 00
        E 0 80 56 00
        E 0 80 49 00
        E 0 80 4a 00
        E 180 90 62 60
        E 0 90 56 60
        E 60 80 62 00
        E 0 80 56 00
        E 180 90 62 60
        E 0 90 60 60
        E 0 90 56 60
        E 0 90 54 60
        E 0 90 4a 60
        E 0 90 48 60
        E 0 90 3e 60
        E 0 90 3c 60
        E 60 80 62 00
        E 0 80 60 00
        E 0 80 56 00
        E 0 80 54 00
        E 0 80 4a 00
        E 0 80 48 00
        E 0 80 3e 00
        E 0 80 3c 00
        E 180 90 62 60
        E 0 90 56 60
        E 60 80 62 00
        E 0 80 56 00
        E 180 90 62 60
        E 0 90 56 60
        E 0 90 4a 60
        E 60 80 62 00
        E 0 80 56 00
        E 0 80 4a 00
        E 180 90 60 60
        E 0 90 62 60
        E 0 90 54 60
        E 0 90 56 60
        E 60 80 60 00
        E 0 80 62 00
        E 0 80 54 00
        E 0 80 56 00
        E 180 90 60 60
        E 0 90 62 60
        E 0 90 54 60
        E 0 90 56 60
        E 0 90 48 60
        E 0 90 4a 60
        E 0 90 3c 60
        E 0 90 3e 60
        E 60 80 60 00
        E 0 80 62 00
        E 0 80 54 00
        E 0 80 56 00
        E 0 80 48 00
        E 0 80 4a 00
        E 0 80 3c 00
        E 0 80 3e 00
        E 180 90 62 60
        E 0 90 56 60
        E 60 80 62 00
        E 0 80 56 00
        E 180 90 61 60
        E 0 90 62 60
        E 0 90 55 60
        E 0 90 56 60
        E 0 90 49 60
        E 0 90 4a 60
        E 60 80 61 00
        E 0 80 62 00
        E 0 80 55 00
        E 0 80 56 00
        E 0 80 49 00
        E 0 80 4a 00
        E 180 90 62 60
        E 0 90 56 60
        E 60 80 62 00
        E 0 80 56 00
        E 180 90 62 60
        E 0 90 60 60
        E 0 90 56 60
        E 0 90 54 60
        E 0 90 4a 60
        E 0 90 48 60
        E 0 90 3e 60
        E 0 90 3c 60
        E 60 80 62 00
        E 0 80 60 00
        E 0 80 56 00
        E 0 80 54 00
        E 0 80 4a 00
        E 0 80 48 00
        E 0 80 3e 00
        E 0 80 3c 00
        E 180 90 62 60
        E 0 90 56 60
        E 60 80 62 00
        E 0 80 56 00
        E 180 90 62 60
        E 0 90 56 60
        E 0 90 4a 60
        E 60 80 62 00
        E 0 80 56 00
        E 0 80 4a 00
        E 180 90 60 60
        E 0 90 62 60
        E 0 90 54 60
        E 0 90 56 60
        E 60 80 60 00
        E 0 80 62 00
        E 0 80 54 00
        E 0 80 56 00
        E 180 90 60 60
        E 0 90 62 60
        E 0 90 54 60
        E 0 90 56 60
        E 0 90 48 60
        E 0 90 4a 60
        E 0 90 3c 60
        E 0 90 3e 60
        E 60 80 60 00
        E 0 80 62 00
        E 0 80 54 00
        E 0 80 56 00
        E 0 80 48 00
        E 0 80 4a 00
        E 0 80 3c 00
        E 0 80 3e 00
        E 180 90 62 60
        E 0 90 56 60
        E 60 80 62 00
        E 0 80 56 00
        E 180 90 61 60
        E 0 90 62 60
        E 0 90 55 60
        E 0 90 56 60
        E 0 90 49 60
        E 0 90 4a 60
        E 60 80 61 00
        E 0 80 62 00
        E 0 80 55 00
        E 0 80 56 00
        E 0 80 49 00
        E 0 80 4a 00
        E 180 90 62 60
        E 0 90 56 60
        E 60 80 62 00
        E 0 80 56 00
        E 180 90 62 60
        E 0 90 60 60
        E 0 90 56 60
        E 0 90 54 60
        E 0 90 4a 60
        E 0 90 48 60
        E 0 90 3e 60
        E 0 90 3c 60
        E 60 80 62 00
        E 0 80 60 00
        E 0 80 56 00
        E 0 80 54 00
        E 0 80 4a 00
        E 0 80 48 00
        E 0 80 3e 00
        E 0 80 3c 00
        E 180 90 62 60
        E 0 90 56 60
        E 60 80 62 00
        E 0 80 56 00
        E 180 90 62 60
        E 0 90 56 60
        E 0 90 4a 60
        E 60 80 62 00
        E 0 80 56 00
        E 0 80 4a 00
        E 180 90 60 60
        E 0 90 62 60
        E 0 90 54 60
        E 0 90 56 60
        E 60 80 60 00
        E 0 80 62 00
        E 0 80 54 00
        E 0 80 56 00
        E 180 90 60 60
        E 0 90 62 60
        E 0 90 54 60
        E 0 90 56 60
        E 0 90 48 60
        E 0 90 4a 60
        E 0 90 3c 60
        E 0 90 3e 60
        E 60 80 60 00
        E 0 80 62 00
        E 0 80 54 00
        E 0 80 56 00
        E 0 80 48 00
        E 0 80 4a 00
        E 0 80 3c 00
        E 0 80 3e 00
        E 180 90 62 60
        E 0 90 56 60
        E 60 80 62 00
        E 0 80 56 00
        E 180 90 61 60
        E 0 90 62 60
        E 0 90 55 60
        E 0 90 56 60
        E 0 90 49 60
        E 0 90 4a 60
        E 60 80 61 00
        E 0 80 62 00
        E 0 80 55 00
        E 0 80 56 00
        E 0 80 49 00
        E 0 80 4a 00
        E 180 90 62 60
        E 0 90 56 60
        E 60 80 62 00
        E 0 80 56 00
        E 180 90 62 60
        E 0 90 60 60
        E 0 90 56 60
        E 0 90 54 60
        E 0 90 4a 60
        E 0 90 48 60
        E 0 90 3e 60
        E 0 90 3c 60
        E 60 80 62 00
        E 0 80 60 00
        E 0 80 56 00
        E 0 80 54 00
        E 0 80 4a 00
        E 0 80 48 00
        E 0 80 3e 00
        E 0 80 3c 00
        E 180 90 62 60
        E 0 90 56 60
        E 60 80 62 00
        E 0 80 56 00
        E 180 90 62 60
        E 0 90 56 60
        E 0 90 4a 60
        E 60 80 62 00
        E 0 80 56 00
        E 0 80 4a 00
        E 180 90 60 60
        E 0 90 62 60
        E 0 90 54 60
        E 0 90 56 60
        E 60 80 60 00
        E 0 80 62 00
        E 0 80 54 00
        E 0 80 56 00
        E 180 90 60 60
        E 0 90 62 60
        E 0 90 54 60
        E 0 90 56 60
        E 0 90 48 60
        E 0 90 4a 60
        E 0 90 3c 60
        E 0 90 3e 60
        E 60 80 60 00
        E 0 80 62 00
        E 0 80 54 00
        E 0 80 56 00
        E 0 80 48 00
        E 0 80 4a 00
        E 0 80 3c 00
        E 0 80 3e 00
        E 180 90 62 60
        E 0 90 56 60
        E 60 80 62 00
        E 0 80 56 00
        E 180 90 61 60
        E 0 90 62 60
        E 0 90 55 60
        E 0 90 56 60
        E 0 90 49 60
        E 0 90 4a 60
        E 60 80 61 00
        E 0 80 62 00
        E 0 80 55 00
        E 0 80 56 00
        E 0 80 49 00
        E 0 80 4a 00
        E 180 90 62 60
        E 0 90 56 60
        E 60 80 62 00
        E 0 80 56 00
        E 180 90 62 60
        E 0 90 60 60
        E 0 90 56 60
        E 0 90 54 60
        E 0 90 4a 60
        E 0 90 48 60
        E 0 90 3e 60
        E 0 90 3c 60
        E 60 80 62 00
        E 0 80 60 00
        E 0 80 56 00
        E 0 80 54 00
        E 0 80 4a 00
        E 0 80 48 00
        E 0 80 3e 00
        E 0 80 3c 00
        E 180 90 62 60
        E 0 90 56 60
        E 60 80 62 00
        E 0 80 56 00
        E 180 90 62 60
        E 0 90 56 60
        E 0 90 4a 60
        E 60 80 62 00
        E 0 80 56 00
        E 0 80 4a 00
        E 180 90 60 60
        E 0 90 62 60
        E 0 90 54 60
        E 0 90 56 60
        E 60 80 60 00
        E 0 80 62 00
        E 0 80 54 00
        E 0 80 56 00
        E 180 90 60 60
        E 0 90 62 60
        E 0 90 54 60
        E 0 90 56 60
        E 0 90 48 60
        E 0 90 4a 60
        E 0 90 3c 60
        E 0 90 3e 60
        E 60 80 60 00
        E 0 80 62 00
        E 0 80 54 00
        E 0 80 56 00
        E 0 80 48 00
        E 0 80 4a 00
        E 0 80 3c 00
        E 0 80 3e 00
        E 180 90 62 60
        E 0 90 56 60
        E 60 80 62 00
        E 0 80 56 00
        E 180 90 61 60
        E 0 90 62 60
        E 0 90 55 60
        E 0 90 56 60
        E 0 90 49 60
        E 0 90 4a 60
        E 60 80 61 00
        E 0 80 62 00
        E 0 80 55 00
        E 0 80 56 00
        E 0 80 49 00
        E 0 80 4a 00
        E 180 90 62 60
        E 0 90 56 60
        E 60 80 62 00
        E 0 80 56 00
        E 180 90 62 60
        E 0 90 60 60
        E 0 90 56 60
        E 0 90 54 60
        E 0 90 4a 60
        E 0 90 48 60
        E 0 90 3e 60
        E 0 90 3c 60
        E 60 80 62 00
        E 0 80 60 00
        E 0 80 56 00
        E 0 80 54 00
        E 0 80 4a 00
        E 0 80 48 00
        E 0 80 3e 00
        E 0 80 3c 00
        E 180 90 62 60
        E 0 90 56 60
        E 60 80 62 00
        E 0 80 56 00
        E 180 90 62 60
        E 0 90 56 60
        E 0 90 4a 60
        E 60 80 62 00
        E 0 80 56 00
        E 0 80 4a 00
        E 180 90 60 60
        E 0 90 62 60
        E 0 90 54 60
        E 0 90 56 60
        E 60 80 60 00
        E 0 80 62 00
        E 0 80 54 00
        E 0 80 56 00
        E 180 90 60 60
        E 0 90 62 60
        E 0 90 54 60
        E 0 90 56 60
        E 0 90 48 60
        E 0 90 4a 60
        E 0 90 3c 60
        E 0 90 3e 60
        E 60 80 60 00
        E 0 80 62 00
        E 0 80 54 00
        E 0 80 56 00
        E 0 80 48 00
        E 0 80 4a 00
        E 0 80 3c 00
        E 0 80 3e 00
        E 180 90 62 60
        E 0 90 56 60
        E 60 80 62 00
        E 0 80 56 00
        E 180 90 61 60
        E 0 90 62 60
        E 0 90 55 60
        E 0 90 56 60
        E 0 90 49 60
        E 0 90 4a 60
        E 60 80 61 00
        E 0 80 62 00
        E 0 80 55 00
        E 0 80 56 00
        E 0 80 49 00
        E 0 80 4a 00
        E 180 90 62 60
        E 0 90 56 60
        E 60 80 62 00
        E 0 80 56 00
        E 180 90 62 60
        E 0 90 60 60
        E 0 90 56 60
        E 0 90 54 60
        E 0 90 4a 60
        E 0 90 48 60
        E 0 90 3e 60
        E 0 90 3c 60
        E 60 80 62 00
        E 0 80 60 00
        E 0 80 56 00
        E 0 80 54 00
        E 0 80 4a 00
        E 0 80 48 00
        E 0 80 3e 00
        E 0 80 3c 00
        E 180 90 62 60
        E 0 90 56 60
        E 60 80 62 00
        E 0 80 56 00
        E 180 90 62 60
        E 0 90 56 60
        E 0 90 4a 60
        E 60 80 62 00
        E 0 80 56 00
        E 0 80 4a 00
        E 180 90 60 60
        E 0 90 62 60
        E 0 90 54 60
        E 0 90 56 60
        E 60 80 60 00
        E 0 80 62 00
        E 0 80 54 00
        E 0 80 56 00
        E 180 90 60 60
        E 0 90 62 60
        E 0 90 54 60
        E 0 90 56 60
        E 0 90 48 60
        E 0 90 4a 60
        E 0 90 3c 60
        E 0 90 3e 60
        E 60 80 60 00
        E 0 80 62 00
        E 0 80 54 00
        E 0 80 56 00
        E 0 80 48 00
        E 0 80 4a 00
        E 0 80 3c 00
        E 0 80 3e 00
        E 180 90 62 60
        E 0 90 56 60
        E 60 80 62 00
        E 0 80 56 00
        E 180 90 61 60
        E 0 90 62 60
        E 0 90 55 60
        E 0 90 56 60
        E 0 90 49 60
        E 0 90 4a 60
        E 60 80 61 00
        E 0 80 62 00
        E 0 80 55 00
        E 0 80 56 00
        E 0 80 49 00
        E 0 80 4a 00
        E 180 90 62 60
        E 0 90 56 60
        E 60 80 62 00
        E 0 80 56 00
        E 180 90 62 60
        E 0 90 60 60
        E 0 90 56 60
        E 0 90 54 60
        E 0 90 4a 60
        E 0 90 48 60
        E 0 90 3e 60
        E 0 90 3c 60
        E 60 80 62 00
        E 0 80 60 00
        E 0 80 56 00
        E 0 80 54 00
        E 0 80 4a 00
        E 0 80 48 00
        E 0 80 3e 00
        E 0 80 3c 00
        E 180 90 62 60
        E 0 90 56 60
        E 60 80 62 00
        E 0 80 56 00
        E 60 90 62 60
        E 60 80 62 00
        E 60 90 62 60
        E 0 90 56 60
        E 0 90 4a 60
        E 60 80 62 00
        E 0 80 56 00
        E 0 80 4a 00
        E 180 90 60 60
        E 0 90 62 60
        E 0 90 54 60
        E 0 90 56 60
        E 60 80 60 00
        E 0 80 62 00
        E 0 80 54 00
        E 0 80 56 00
        E 180 90 60 60
        E 0 90 62 60
        E 0 90 54 60
        E 0 90 56 60
        E 0 90 48 60
        E 0 90 4a 60
        E 0 90 3c 60
        E 0 90 3e 60
        E 60 80 60 00
        E 0 80 62 00
        E 0 80 54 00
        E 0 80 56 00
        E 0 80 48 00
        E 0 80 4a 00
        E 0 80 3c 00
        E 0 80 3e 00
        E 180 90 62 60
        E 0 90 56 60
        E 60 80 62 00
        E 0 80 56 00
        E 180 90 61 60
        E 0 90 62 60
        E 0 90 55 60
        E 0 90 56 60
        E 0 90 49 60
        E 0 90 4a 60
        E 60 80 61 00
        E 0 80 62 00
        E 0 80 55 00
        E 0 80 56 00
        E 0 80 49 00
        E 0 80 4a 00
        E 180 90 62 60
        E 0 90 56 60
        E 60 80 62 00
        E 0 80 56 00
        E 180 90 62 60
        E 0 90 60 60
        E 0 90 56 60
        E 0 90 54 60
        E 0 90 4a 60
        E 0 90 48 60
        E 0 90 3e 60
        E 0 90 3c 60
        E 60 80 62 00
        E 0 80 60 00
        E 0 80 56 00
        E 0 80 54 00
        E 0 80 4a 00
        E 0 80 48 00
        E 0 80 3e 00
        E 0 80 3c 00
        E 180 90 62 60
        E 0 90 56 60
        E 60 80 62 00
        E 0 80 56 00
        E 180 90 62 60
        E 0 90 56 60
        E 0 90 4a 60
        E 60 80 62 00
        E 0 80 56 00
        E 0 80 4a 00
        E 180 90 60 60
        E 0 90 62 60
        E 0 90 54 60
        E 0 90 56 60
        E 60 80 60 00
        E 0 80 62 00
        E 0 80 54 00
        E 0 80 56 00
        E 180 90 60 60
        E 0 90 62 60
        E 0 90 54 60
        E 0 90 56 60
        E 0 90 48 60
        E 0 90 4a 60
        E 0 90 3c 60
        E 0 90 3e 60
        E 60 80 60 00
        E 0 80 62 00
        E 0 80 54 00
        E 0 80 56 00
        E 0 80 48 00
        E 0 80 4a 00
        E 0 80 3c 00
        E 0 80 3e 00
        E 180 90 62 60
        E 0 90 56 60
        E 60 80 62 00
        E 0 80 56 00
        E 180 90 61 60
        E 0 90 62 60
        E 0 90 55 60
        E 0 90 56 60
        E 0 90 49 60
        E 0 90 4a 60
        E 60 80 61 00
        E 0 80 62 00
        E 0 80 55 00
        E 0 80 56 00
        E 0 80 49 00
        E 0 80 4a 00
        E 180 90 62 60
        E 0 90 56 60
        E 60 80 62 00
        E 0 80 56 00
        E 180 90 62 60
        E 0 90 60 60
        E 0 90 56 60
        E 0 90 54 60
        E 0 90 4a 60
        E 0 90 48 60
        E 0 90 3e 60
        E 0 90 3c 60
        E 60 80 62 00
        E 0 80 60 00
        E 0 80 56 00
        E 0 80 54 00
        E 0 80 4a 00
        E 0 80 48 00
        E 0 80 3e 00
        E 0 80 3c 00
        E 180 90 62 60
        E 0 90 56 60
        E 60 80 62 00
        E 0 80 56 00
        E 180 90 62 60
        E 0 90 56 60
        E 0 90 4a 60
        E 60 80 62 00
        E 0 80 56 00
        E 0 80 4a 00
        E 180 90 60 60
        E 0 90 62 60
        E 0 90 54 60
        E 0 90 56 60
        E 60 80 60 00
        E 0 80 62 00
        E 0 80 54 00
        E 0 80 56 00
        E 180 90 60 60
        E 0 90 62 60
        E 0 90 54 60
        E 0 90 56 60
        E 0 90 48 60
        E 0 90 4a 60
        E 0 90 3c 60
        E 0 90 3e 60
        E 60 80 60 00
        E 0 80 62 00
        E 0 80 54 00
        E 0 80 56 00
        E 0 80 48 00
        E 0 80 4a 00
        E 0 80 3c 00
        E 0 80 3e 00
        E 180 90 62 60
        E 0 90 56 60
        E 60 80 62 00
        E 0 80 56 00
        E 180 90 61 60
        E 0 90 62 60
        E 0 90 55 60
        E 0 90 56 60
        E 0 90 49 60
        E 0 90 4a 60
        E 60 80 61 00
        E 0 80 62 00
        E 0 80 55 00
        E 0 80 56 00
        E 0 80 49 00
        E 0 80 4a 00
        E 180 90 62 60
        E 0 90 56 60
        E 60 80 62 00
        E 0 80 56 00
        E 180 90 62 60
        E 0 90 60 60
        E 0 90 56 60
        E 0 90 54 60
        E 0 90 4a 60
        E 0 90 48 60
        E 0 90 3e 60
        E 0 90 3c 60
        E 60 80 62 00
        E 0 80 60 00
        E 0 80 56 00
        E 0 80 54 00
        E 0 80 4a 00
        E 0 80 48 00
        E 0 80 3e 00
        E 0 80 3c 00
        E 180 90 62 60
        E 0 90 56 60
        E 60 80 62 00
        E 0 80 56 00
        E 180 90 62 60
        E 0 90 56 60
        E 0 90 4a 60
        E 60 80 62 00
        E 0 80 56 00
        E 0 80 4a 00
        E 180 90 60 60
        E 0 90 62 60
        E 0 90 54 60
        E 0 90 56 60
        E 60 80 60 00
        E 0 80 62 00
        E 0 80 54 00
        E 0 80 56 00
        E 180 90 60 60
        E 0 90 62 60
        E 0 90 54 60
        E 0 90 56 60
        E 0 90 48 60
        E 0 90 4a 60
        E 0 90 3c 60
        E 0 90 3e 60
        E 60 80 60 00
        E 0 80 62 00
        E 0 80 54 00
        E 0 80 56 00
        E 0 80 48 00
        E 0 80 4a 00
        E 0 80 3c 00
        E 0 80 3e 00
        E 180 90 62 60
        E 0 90 56 60
        E 60 80 62 00
        E 0 80 56 00
        E 180 90 61 60
        E 0 90 62 60
        E 0 90 55 60
        E 0 90 56 60
        E 0 90 49 60
        E 0 90 4a 60
        E 60 80 61 00
        E 0 80 62 00
        E 0 80 55 00
        E 0 80 56 00
        E 0 80 49 00
        E 0 80 4a 00
        E 180 90 62 60
        E 0 90 56 60
        E 60 80 62 00
        E 0 80 56 00
        E 180 90 62 60
        E 0 90 60 60
        E 0 90 56 60
        E 0 90 54 60
        E 0 90 4a 60
        E 0 90 48 60
        E 0 90 3e 60
        E 0 90 3c 60
        E 60 80 62 00
        E 0 80 60 00
        E 0 80 56 00
        E 0 80 54 00
        E 0 80 4a 00
        E 0 80 48 00
        E 0 80 3e 00
        E 0 80 3c 00
        E 180 90 62 60
        E 0 90 56 60
        E 60 80 62 00
        E 0 80 56 00
        E 180 90 62 60
        E 0 90 56 60
        E 0 90 4a 60
        E 60 80 62 00
        E 0 80 56 00
        E 0 80 4a 00
        E 180 90 60 60
        E 0 90 62 60
        E 0 90 54 60
        E 0 90 56 60
        E 60 80 60 00
        E 0 80 62 00
        E 0 80 54 00
        E 0 80 56 00
        E 180 90 60 60
        E 0 90 62 60
        E 0 90 54 60
        E 0 90 56 60
        E 0 90 48 60
        E 0 90 4a 60
        E 0 90 3c 60
        E 0 90 3e 60
        E 60 80 60 00
        E 0 80 62 00
        E 0 80 54 00
        E 0 80 56 00
        E 0 80 48 00
        E 0 80 4a 00
        E 0 80 3c 00
        E 0 80 3e 00
        E 180 90 62 60
        E 0 90 56 60
        E 60 80 62 00
        E 0 80 56 00
        E 180 90 61 60
        E 0 90 62 60
        E 0 90 55 60
        E 0 90 56 60
        E 0 90 49 60
        E 0 90 4a 60
        E 60 80 61 00
        E 0 80 62 00
        E 0 80 55 00
        E 0 80 56 00
        E 0 80 49 00
        E 0 80 4a 00
        E 180 90 62 60
        E 0 90 56 60
        E 60 80 62 00
        E 0 80 56 00
        E 180 90 62 60
        E 0 90 60 60
        E 0 90 56 60
        E 0 90 54 60
        E 0 90 4a 60
        E 0 90 48 60
        E 0 90 3e 60
        E 0 90 3c 60
        E 60 80 62 00
        E 0 80 60 00
        E 0 80 56 00
        E 0 80 54 00
        E 0 80 4a 00
        E 0 80 48 00
        E 0 80 3e 00
        E 0 80 3c 00
        E 180 90 62 60
        E 0 90 56 60
        E 60 80 62 00
        E 0 80 56 00
        E 180 90 62 60
        E 0 90 61 60
        E 0 90 56 60
        E 0 90 55 60
        E 0 90 4a 60
        E 0 90 49 60
        E 60 80 62 00
        E 0 80 61 00
        E 0 80 56 00
        E 0 80 55 00
        E 0 80 4a 00
        E 0 80 49 00
        E 180 90 62 60
        E 0 90 60 60
        E 0 90 56 60
        E 0 90 54 60
        E 60 80 62 00
        E 0 80 60 00
        E 0 80 56 00
        E 0 80 54 00
        E 180 90 60 60
        E 0 90 62 60
        E 0 90 54 60
        E 0 90 56 60
        E 0 90 48 60
        E 0 90 4a 60
        E 0 90 3c 60
        E 0 90 3e 60
        E 60 80 60 00
        E 0 80 62 00
        E 0 80 54 00
        E 0 80 56 00
        E 0 80 48 00
        E 0 80 4a 00
        E 0 80 3c 00
        E 0 80 3e 00
        E 180 90 62 60
        E 0 90 56 60
        E 60 80 62 00
        E 0 80 56 00
        E 180 90 61 60
        E 0 90 62 60
        E 0 90 55 60
        E 0 90 56 60
        E 0 90 49 60
        E 0 90 4a 60
        E 60 80 61 00
        E 0 80 62 00
        E 0 80 55 00
        E 0 80 56 00
        E 0 80 49 00
        E 0 80 4a 00
        E 420 90 62 60
        E 0 90 60 60
        E 0 90 56 60
        E 0 90 54 60
        E 0 90 4a 60
        E 0 90 48 60
        E 0 90 3e 60
        E 0 90 3c 60
        E 60 80 62 00
        E 0 80 60 00
        E 0 80 56 00
        E 0 80 54 00
        E 0 80 4a 00
        E 0 80 48 00
        E 0 80 3e 00
        E 0 80 3c 00
        E 420 90 62 60
        E 0 90 61 60
        E 0 90 56 60
        E 0 90 55 60
        E 0 90 4a 60
        E 0 90 49 60
        E 60 80 62 00
        E 0 80 61 00
        E 0 80 56 00
        E 0 80 55 00
        E 0 80 4a 00
        E 0 80 49 00
        E 300 90 61 60
        E 60 80 61 00
        E 60 90 60 60
        E 0 90 62 60
        E 0 90 54 60
        E 0 90 56 60
        E 0 90 48 60
        E 0 90 4a 60
        E 0 90 3c 60
        E 0 90 3e 60
        E 60 80 60 00
        E 0 80 62 00
        E 0 80 54 00
        E 0 80 56 00
        E 0 80 48 00
        E 0 80 4a 00
        E 0 80 3c 00
        E 0 80 3e 00
        E 180 90 60 60
        E 0 90 54 60
        E 60 80 60 00
        E 0 80 54 00
        E 180 90 61 60
        E 0 90 62 60
        E 0 90 55 60
        E 0 90 56 60
        E 0 90 49 60
        E 0 90 4a 60
        E 60 80 61 00
        E 0 80 62 00
        E 0 80 55 00
        E 0 80 56 00
        E 0 80 49 00
        E 0 80 4a 00
        E 180 90 61 60
        E 0 90 55 60
        E 60 80 61 00
        E 0 80 55 00
        E 60 90 61 60
        E 60 80 61 00
        E 60 90 64 60
        E 0 90 60 60
        E 0 90 58 60
        E 0 90 54 60
        E 0 90 4c 60
        E 0 90 48 60
        E 0 90 40 60
        E 0 90 3c 60
        E 60 80 64 00
        E 0 80 60 00
        E 0 80 58 00
        E 0 80 54 00
        E 0 80 4c 00
        E 0 80 48 00
        E 0 80 40 00
        E 0 80 3c 00
        E 420 90 61 60
        E 0 90 63 60
        E 0 90 55 60
        E 0 90 57 60
        E 0 90 49 60
        E 0 90 4b 60
        E 60 80 61 00
        E 0 80 63 00
        E 0 80 55 00
        E 0 80 57 00
        E 0 80 49 00
        E 0 80 4b 00
        E 420 90 63 60
        E 0 90 60 60
        E 0 90 57 60
        E 0 90 54 60
        E 0 90 4b 60
        E 0 90 48 60
        E 0 90 3f 60
        E 0 90 3c 60
        E 60 80 63 00
        E 0 80 60 00
        E 0 80 57 00
        E 0 80 54 00
        E 0 80 4b 00
        E 0 80 48 00
        E 0 80 3f 00
        E 0 80 3c 00
        E 180 90 60 60
        E 0 90 54 60
        E 60 80 60 00
        E 0 80 54 00
        E 180 90 61 60
        E 0 90 63 60
        E 0 90 55 60
        E 0 90 57 60
        E 0 90 49 60
        E 0 90 4b 60
        E 60 80 61 00
        E 0 80 63 00
        E 0 80 55 00
        E 0 80 57 00
        E 0 80 49 00
        E 0 80 4b 00
        E 420 90 63 60
        E 0 90 60 60
        E 0 90 57 60
        E 0 90 54 60
        E 0 90 4b 60
        E 0 90 48 60
        E 0 90 3f 60
        E 0 90 3c 60
        E 60 80 63 00
        E 0 80 60 00
        E 0 80 57 00
        E 0 80 54 00
        E 0 80 4b 00
        E 0 80 48 00
        E 0 80 3f 00
        E 0 80 3c 00
        E 420 90 61 60
        E 0 90 63 60
        E 0 90 55 60
        E 0 90 57 60
        E 0 90 49 60
        E 0 90 4b 60
        E 60 80 61 00
        E 0 80 63 00
        E 0 80 55 00
        E 0 80 57 00
        E 0 80 49 00
        E 0 80 4b 00
        E 420 90 63 60
        E 0 90 60 60
        E 0 90 57 60
        E 0 90 54 60
        E 0 90 4b 60
        E 0 90 48 60
        E 0 90 3f 60
        E 0 90 3c 60
        E 60 80 63 00
        E 0 80 60 00
        E 0 80 57 00
        E 0 80 54 00
        E 0 80 4b 00
        E 0 80 48 00
        E 0 80 3f 00
        E 0 80 3c 00
        E 180 90 60 60
        E 0 90 54 60
        E 60 80 60 00
        E 0 80 54 00
        E 180 90 61 60
        E 0 90 63 60
        E 0 90 55 60
        E 0 90 57 60
        E 0 90 49 60
        E 0 90 4b 60
        E 60 80 61 00
        E 0 80 63 00
        E 0 80 55 00
        E 0 80 57 00
        E 0 80 49 00
        E 0 80 4b 00
        E 420 90 64 60
        E 0 90 60 60
        E 0 90 58 60
        E 0 90 54 60
        E 0 90 4c 60
        E 0 90 48 60
        E 0 90 40 60
        E 0 90 3c 60
        E 60 80 64 00
        E 0 80 60 00
        E 0 80 58 00
        E 0 80 54 00
        E 0 80 4c 00
        E 0 80 48 00
        E 0 80 40 00
        E 0 80 3c 00
        E 420 90 61 60
        E 0 90 63 60
        E 0 90 55 60
        E 0 90 57 60
        E 0 90 49 60
        E 0 90 4b 60
        E 60 80 61 00
        E 0 80 63 00
        E 0 80 55 00
        E 0 80 57 00
        E 0 80 49 00
        E 0 80 4b 00
        E 420 90 63 60
        E 0 90 60 60
        E 0 90 57 60
        E 0 90 54 60
        E 0 90 4b 60
        E 0 90 48 60
        E 0 90 3f 60
        E 0 90 3c 60
        E 60 80 63 00
        E 0 80 60 00
        E 0 80 57 00
        E 0 80 54 00
        E 0 80 4b 00
        E 0 80 48 00
        E 0 80 3f 00
        E 0 80 3c 00
        E 180 90 60 60
        E 0 90 54 60
        E 60 80 60 00
        E 0 80 54 00
        E 180 90 61 60
        E 0 90 63 60
        E 0 90 55 60
        E 0 90 57 60
        E 0 90 49 60
        E 0 90 4b 60
        E 60 80 61 00
        E 0 80 63 00
        E 0 80 55 00
        E 0 80 57 00
        E 0 80 49 00
        E 0 80 4b 00
        E 420 90 63 60
        E 0 90 60 60
        E 0 90 57 60
        E 0 90 54 60
        E 0 90 4b 60
        E 0 90 48 60
        E 0 90 3f 60
        E 0 90 3c 60
        E 60 80 63 00
        E 0 80 60 00
        E 0 80 57 00
        E 0 80 54 00
        E 0 80 4b 00
        E 0 80 48 00
        E 0 80 3f 00
        E 0 80 3c 00
        E 420 90 61 60
        E 0 90 63 60
        E 0 90 55 60
        E 0 90 57 60
        E 0 90 49 60
        E 0 90 4b 60
        E 60 80 61 00
        E 0 80 63 00
        E 0 80 55 00
        E 0 80 57 00
        E 0 80 49 00
        E 0 80 4b 00
        E 420 90 63 60
        E 0 90 60 60
        E 0 90 57 60
        E 0 90 54 60
        E 0 90 4b 60
        E 0 90 48 60
        E 0 90 3f 60
        E 0 90 3c 60
        E 60 80 63 00
        E 0 80 60 00
        E 0 80 57 00
        E 0 80 54 00
        E 0 80 4b 00
        E 0 80 48 00
        E 0 80 3f 00
        E 0 80 3c 00
        E 180 90 60 60
        E 0 90 54 60
        E 60 80 60 00
        E 0 80 54 00
        E 180 90 61 60
        E 0 90 63 60
        E 0 90 55 60
        E 0 90 57 60
        E 0 90 49 60
        E 0 90 4b 60
        E 60 80 61 00
        E 0 80 63 00
        E 0 80 55 00
        E 0 80 57 00
        E 0 80 49 00
        E 0 80 4b 00
        E 420 90 64 60
        E 0 90 60 60
        E 0 90 58 60
        E 0 90 54 60
        E 0 90 4c 60
        E 0 90 48 60
        E 0 90 40 60
        E 0 90 3c 60
        E 60 80 64 00
        E 0 80 60 00
        E 0 80 58 00
        E 0 80 54 00
        E 0 80 4c 00
        E 0 80 48 00
        E 0 80 40 00
        E 0 80 3c 00
        E 420 90 61 60
        E 0 90 63 60
        E 0 90 55 60
        E 0 90 57 60
        E 0 90 49 60
        E 0 90 4b 60
        E 60 80 61 00
        E 0 80 63 00
        E 0 80 55 00
        E 0 80 57 00
        E 0 80 49 00
        E 0 80 4b 00
        E 420 90 63 60
        E 0 90 60 60
        E 0 90 57 60
        E 0 90 54 60
        E 0 90 4b 60
        E 0 90 48 60
        E 0 90 3f 60
        E 0 90 3c 60
        E 60 80 63 00
        E 0 80 60 00
        E 0 80 57 00
        E 0 80 54 00
        E 0 80 4b 00
        E 0 80 48 00
        E 0 80 3f 00
        E 0 80 3c 00
        E 180 90 60 60
        E 0 90 54 60
        E 60 80 60 00
        E 0 80 54 00
        E 180 90 61 60
        E 0 90 63 60
        E 0 90 55 60
        E 0 90 57 60
        E 0 90 49 60
        E 0 90 4b 60
        E 60 80 61 00
        E 0 80 63 00
        E 0 80 55 00
        E 0 80 57 00
        E 0 80 49 00
        E 0 80 4b 00
        E 420 90 63 60
        E 0 90 60 60
        E 0 90 57 60
        E 0 90 54 60
        E 0 90 4b 60
        E 0 90 48 60
        E 0 90 3f 60
        E 0 90 3c 60
        E 60 80 63 00
        E 0 80 60 00
        E 0 80 57 00
        E 0 80 54 00
        E 0 80 4b 00
        E 0 80 48 00
        E 0 80 3f 00
        E 0 80 3c 00
        E 420 90 61 60
        E 0 90 63 60
        E 0 90 55 60
        E 0 90 57 60
        E 0 90 49 60
        E 0 90 4b 60
        E 60 80 61 00
        E 0 80 63 00
        E 0 80 55 00
        E 0 80 57 00
        E 0 80 49 00
        E 0 80 4b 00
        E 420 90 63 60
        E 0 90 60 60
        E 0 90 57 60
        E 0 90 54 60
        E 0 90 4b 60
        E 0 90 48 60
        E 0 90 3f 60
        E 0 90 3c 60
        E 60 80 63 00
        E 0 80 60 00
        E 0 80 57 00
        E 0 80 54 00
        E 0 80 4b 00
        E 0 80 48 00
        E 0 80 3f 00
        E 0 80 3c 00
        E 180 90 60 60
        E 0 90 54 60
        E 60 80 60 00
        E 0 80 54 00
        E 180 90 61 60
        E 0 90 63 60
        E 0 90 55 60
        E 0 90 57 60
        E 0 90 49 60
        E 0 90 4b 60
        E 60 80 61 00
        E 0 80 63 00
        E 0 80 55 00
        E 0 80 57 00
        E 0 80 49 00
        E 0 80 4b 00
        E 420 90 64 60
        E 0 90 60 60
        E 0 90 58 60
        E 0 90 54 60
        E 0 90 4c 60
        E 0 90 48 60
        E 0 90 40 60
        E 0 90 3c 60
        E 60 80 64 00
        E 0 80 60 00
        E 0 80 58 00
        E 0 80 54 00
        E 0 80 4c 00
        E 0 80 48 00
        E 0 80 40 00
        E 0 80 3c 00
        E 420 90 61 60
        E 0 90 63 60
        E 0 90 55 60
        E 0 90 57 60
        E 0 90 49 60
        E 0 90 4b 60
        E 60 80 61 00
        E 0 80 63 00
        E 0 80 55 00
        E 0 80 57 00
        E 0 80 49 00
        E 0 80 4b 00
        E 420 90 63 60
        E 0 90 60 60
        E 0 90 57 60
        E 0 90 54 60
        E 0 90 4b 60
        E 0 90 48 60
        E 0 90 3f 60
        E 0 90 3c 60
        E 60 80 63 00
        E 0 80 60 00
        E 0 80 57 00
        E 0 80 54 00
        E 0 80 4b 00
        E 0 80 48 00
        E 0 80 3f 00
        E 0 80 3c 00
        E 180 90 60 60
        E 0 90 54 60
        E 60 80 60 00
        E 0 80 54 00
        E 180 90 61 60
        E 0 90 63 60
        E 0 90 55 60
        E 0 90 57 60
        E 0 90 49 60
        E 0 90 4b 60
        E 60 80 61 00
        E 0 80 63 00
        E 0 80 55 00
        E 0 80 57 00
        E 0 80 49 00
        E 0 80 4b 00
        E 420 90 63 60
        E 0 90 60 60
        E 0 90 57 60
        E 0 90 54 60
        E 0 90 4b 60
        E 0 90 48 60
        E 0 90 3f 60
        E 0 90 3c 60
        E 60 80 63 00
        E 0 80 60 00
        E 0 80 57 00
        E 0 80 54 00
        E 0 80 4b 00
        E 0 80 48 00
        E 0 80 3f 00
        E 0 80 3c 00
        E 180 90 60 69
        E 45 80 60 00
        E 195 90 61 60
        E 0 90 63 60
        E 0 90 55 60
        E 0 90 57 60
        E 0 90 49 60
        E 0 90 4b 60
        E 60 80 61 00
        E 0 80 63 00
        E 0 80 55 00
        E 0 80 57 00
        E 0 80 49 00
        E 0 80 4b 00
        E 180 90 61 60
        E 0 90 55 60
        E 60 80 61 00
        E 0 80 55 00
        E 60 90 61 60
        E 60 80 61 00
        E 60 90 63 60
        E 0 90 60 60
        E 0 90 57 60
        E 0 90 54 60
        E 0 90 4b 60
        E 0 90 48 60
        E 0 90 3f 60
        E 0 90 3c 60
        E 60 80 63 00
        E 0 80 60 00
        E 0 80 57 00
        E 0 80 54 00
        E 0 80 4b 00
        E 0 80 48 00
        E 0 80 3f 00
        E 0 80 3c 00
        E 180 90 6e 60
        E 0 90 61 60
        E 0 90 62 60
        E 0 90 55 60
        E 0 90 56 60
        E 60 80 6e 00
        E 0 80 61 00
        E 0 80 62 00
        E 0 80 55 00
        E 0 80 56 00
        E 180 90 61 60
        E 0 90 55 60
        E 0 90 49 60
        E 60 80 61 00
        E 0 80 55 00
        E 0 80 49 00
        E 60 90 61 60
        E 60 80 61 00
        E 60 90 63 60
        E 0 90 6f 60
        E 0 90 57 60
        E 60 80 63 00
        E 0 80 6f 00
        E 0 80 57 00
        E 60 90 63 60
        E 0 90 6f 60
        E 60 80 63 00
        E 0 80 6f 00
        E 60 90 64 60
        E 0 90 60 60
        E 0 90 58 60
        E 0 90 54 60
        E 0 90 4c 60
        E 0 90 48 60
        E 0 90 40 60
        E 0 90 3c 60
        E 60 80 64 00
        E 0 80 60 00
        E 0 80 58 00
        E 0 80 54 00
        E 0 80 4c 00
        E 0 80 48 00
        E 0 80 40 00
        E 0 80 3c 00
        E 420 90 61 60
        E 0 90 63 60
        E 0 90 55 60
        E 0 90 57 60
        E 0 90 49 60
        E 0 90 4b 60
        E 60 80 61 00
        E 0 80 63 00
        E 0 80 55 00
        E 0 80 57 00
        E 0 80 49 00
        E 0 80 4b 00
        E 420 90 63 60
        E 0 90 60 60
        E 0 90 57 60
        E 0 90 54 60
        E 0 90 4b 60
        E 0 90 48 60
        E 0 90 3f 60
        E 0 90 3c 60
        E 60 80 63 00
        E 0 80 60 00
        E 0 80 57 00
        E 0 80 54 00
        E 0 80 4b 00
        E 0 80 48 00
        E 0 80 3f 00
        E 0 80 3c 00
        E 180 90 60 60
        E 0 90 54 60
        E 60 80 60 00
        E 0 80 54 00
        E 180 90 61 60
        E 0 90 63 60
        E 0 90 55 60
        E 0 90 57 60
        E 0 90 49 60
        E 0 90 4b 60
        E 60 80 61 00
        E 0 80 63 00
        E 0 80 55 00
        E 0 80 57 00
        E 0 80 49 00
        E 0 80 4b 00
        E 420 90 63 60
        E 0 90 60 60
        E 0 90 57 60
        E 0 90 54 60
        E 0 90 4b 60
        E 0 90 48 60
        E 0 90 3f 60
        E 0 90 3c 60
        E 60 80 63 00
        E 0 80 60 00
        E 0 80 57 00
        E 0 80 54 00
        E 0 80 4b 00
        E 0 80 48 00
        E 0 80 3f 00
        E 0 80 3c 00
        E 420 90 61 60
        E 0 90 63 60
        E 0 90 55 60
        E 0 90 57 60
        E 0 90 49 60
        E 0 90 4b 60
        E 60 80 61 00
        E 0 80 63 00
        E 0 80 55 00
        E 0 80 57 00
        E 0 80 49 00
        E 0 80 4b 00
        E 420 90 63 60
        E 0 90 60 60
        E 0 90 57 60
        E 0 90 54 60
        E 0 90 4b 60
        E 0 90 48 60
        E 0 90 3f 60
        E 0 90 3c 60
        E 60 80 63 00
        E 0 80 60 00
        E 0 80 57 00
        E 0 80 54 00
        E 0 80 4b 00
        E 0 80 48 00
        E 0 80 3f 00
        E 0 80 3c 00
        E 180 90 60 60
        E 0 90 54 60
        E 60 80 60 00
        E 0 80 54 00
        E 180 90 61 60
        E 0 90 63 60
        E 0 90 55 60
        E 0 90 57 60
        E 0 90 49 60
        E 0 90 4b 60
        E 60 80 61 00
        E 0 80 63 00
        E 0 80 55 00
        E 0 80 57 00
        E 0 80 49 00
        E 0 80 4b 00
        E 420 90 64 60
        E 0 90 60 60
        E 0 90 58 60
        E 0 90 54 60
        E 0 90 4c 60
        E 0 90 48 60
        E 0 90 40 60
        E 0 90 3c 60
        E 60 80 64 00
        E 0 80 60 00
        E 0 80 58 00
        E 0 80 54 00
        E 0 80 4c 00
        E 0 80 48 00
        E 0 80 40 00
        E 0 80 3c 00
        E 420 90 61 60
        E 0 90 63 60
        E 0 90 55 60
        E 0 90 57 60
        E 0 90 49 60
        E 0 90 4b 60
        E 60 80 61 00
        E 0 80 63 00
        E 0 80 55 00
        E 0 80 57 00
        E 0 80 49 00
        E 0 80 4b 00
        E 420 90 63 60
        E 0 90 60 60
        E 0 90 57 60
        E 0 90 54 60
        E 0 90 4b 60
        E 0 90 48 60
        E 0 90 3f 60
        E 0 90 3c 60
        E 60 80 63 00
        E 0 80 60 00
        E 0 80 57 00
        E 0 80 54 00
        E 0 80 4b 00
        E 0 80 48 00
        E 0 80 3f 00
        E 0 80 3c 00
        E 180 90 60 60
        E 0 90 54 60
        E 60 80 60 00
        E 0 80 54 00
        E 180 90 61 60
        E 0 90 63 60
        E 0 90 55 60
        E 0 90 57 60
        E 0 90 49 60
        E 0 90 4b 60
        E 60 80 61 00
        E 0 80 63 00
        E 0 80 55 00
        E 0 80 57 00
        E 0 80 49 00
        E 0 80 4b 00
        E 420 90 63 60
        E 0 90 60 60
        E 0 90 57 60
        E 0 90 54 60
        E 0 90 4b 60
        E 0 90 48 60
        E 0 90 3f 60
        E 0 90 3c 60
        E 60 80 63 00
        E 0 80 60 00
        E 0 80 57 00
        E 0 80 54 00
        E 0 80 4b 00
        E 0 80 48 00
        E 0 80 3f 00
        E 0 80 3c 00
        E 420 90 61 60
        E 0 90 63 60
        E 0 90 55 60
        E 0 90 57 60
        E 0 90 49 60
        E 0 90 4b 60
        E 60 80 61 00
        E 0 80 63 00
        E 0 80 55 00
        E 0 80 57 00
        E 0 80 49 00
        E 0 80 4b 00
        E 420 90 63 60
        E 0 90 60 60
        E 0 90 57 60
        E 0 90 54 60
        E 0 90 4b 60
        E 0 90 48 60
        E 0 90 3f 60
        E 0 90 3c 60
        E 60 80 63 00
        E 0 80 60 00
        E 0 80 57 00
        E 0 80 54 00
        E 0 80 4b 00
        E 0 80 48 00
        E 0 80 3f 00
        E 0 80 3c 00
        E 180 90 60 60
        E 0 90 54 60
        E 60 80 60 00
        E 0 80 54 00
        E 180 90 61 60
        E 0 90 63 60
        E 0 90 55 60
        E 0 90 57 60
        E 0 90 49 60
        E 0 90 4b 60
        E 60 80 61 00
        E 0 80 63 00
        E 0 80 55 00
        E 0 80 57 00
        E 0 80 49 00
        E 0 80 4b 00
        E 420 90 64 60
        E 0 90 60 60
        E 0 90 58 60
        E 0 90 54 60
        E 0 90 4c 60
        E 0 90 48 60
        E 0 90 40 60
        E 0 90 3c 60
        E 60 80 64 00
        E 0 80 60 00
        E 0 80 58 00
        E 0 80 54 00
        E 0 80 4c 00
        E 0 80 48 00
        E 0 80 40 00
        E 0 80 3c 00
        E 420 90 61 60
        E 0 90 63 60
        E 0 90 55 60
        E 0 90 57 60
        E 0 90 49 60
        E 0 90 4b 60
        E 60 80 61 00
        E 0 80 63 00
        E 0 80 55 00
        E 0 80 57 00
        E 0 80 49 00
        E 0 80 4b 00
        E 420 90 63 60
        E 0 90 60 60
        E 0 90 57 60
        E 0 90 54 60
        E 0 90 4b 60
        E 0 90 48 60
        E 0 90 3f 60
        E 0 90 3c 60
        E 60 80 63 00
        E 0 80 60 00
        E 0 80 57 00
        E 0 80 54 00
        E 0 80 4b 00
        E 0 80 48 00
        E 0 80 3f 00
        E 0 80 3c 00
        E 180 90 60 60
        E 0 90 54 60
        E 60 80 60 00
        E 0 80 54 00
        E 180 90 61 60
        E 0 90 63 60
        E 0 90 55 60
        E 0 90 57 60
        E 0 90 49 60
        E 0 90 4b 60
        E 60 80 61 00
        E 0 80 63 00
        E 0 80 55 00
        E 0 80 57 00
        E 0 80 49 00
        E 0 80 4b 00
        E 420 90 63 60
        E 0 90 60 60
        E 0 90 57 60
        E 0 90 54 60
        E 0 90 4b 60
        E 0 90 48 60
        E 0 90 3f 60
        E 0 90 3c 60
        E 60 80 63 00
        E 0 80 60 00
        E 0 80 57 00
        E 0 80 54 00
        E 0 80 4b 00
        E 0 80 48 00
        E 0 80 3f 00
        E 0 80 3c 00
        E 420 90 61 60
        E 0 90 63 60
        E 0 90 55 60
        E 0 90 57 60
        E 0 90 49 60
        E 0 90 4b 60
        E 60 80 61 00
        E 0 80 63 00
        E 0 80 55 00
        E 0 80 57 00
        E 0 80 49 00
        E 0 80 4b 00
        E 420 90 63 60
        E 0 90 60 60
        E 0 90 57 60
        E 0 90 54 60
        E 0 90 4b 60
        E 0 90 48 60
        E 0 90 3f 60
        E 0 90 3c 60
        E 60 80 63 00
        E 0 80 60 00
        E 0 80 57 00
        E 0 80 54 00
        E 0 80 4b 00
        E 0 80 48 00
        E 0 80 3f 00
        E 0 80 3c 00
        E 180 90 60 60
        E 0 90 54 60
        E 60 80 60 00
        E 0 80 54 00
        E 180 90 61 60
        E 0 90 63 60
        E 0 90 55 60
        E 0 90 57 60
        E 0 90 49 60
        E 0 90 4b 60
        E 60 80 61 00
        E 0 80 63 00
        E 0 80 55 00
        E 0 80 57 00
        E 0 80 49 00
        E 0 80 4b 00
        E 420 90 64 60
        E 0 90 60 60
        E 0 90 58 60
        E 0 90 54 60
        E 0 90 4c 60
        E 0 90 48 60
        E 0 90 40 60
        E 0 90 3c 60
        E 60 80 64 00
        E 0 80 60 00
        E 0 80 58 00
        E 0 80 54 00
        E 0 80 4c 00
        E 0 80 48 00
        E 0 80 40 00
        E 0 80 3c 00
        E 420 90 61 60
        E 0 90 63 60
        E 0 90 55 60
        E 0 90 57 60
        E 0 90 49 60
        E 0 90 4b 60
        E 60 80 61 00
        E 0 80 63 00
        E 0 80 55 00
        E 0 80 57 00
        E 0 80 49 00
        E 0 80 4b 00
        E 420 90 63 60
        E 0 90 60 60
        E 0 90 57 60
        E 0 90 54 60
        E 0 90 4b 60
        E 0 90 48 60
        E 0 90 3f 60
        E 0 90 3c 60
        E 60 80 63 00
        E 0 80 60 00
        E 0 80 57 00
        E 0 80 54 00
        E 0 80 4b 00
        E 0 80 48 00
        E 0 80 3f 00
        E 0 80 3c 00
        E 180 90 60 60
        E 0 90 54 60
        E 60 80 60 00
        E 0 80 54 00
        E 180 90 61 60
        E 0 90 63 60
        E 0 90 55 60
        E 0 90 57 60
        E 0 90 49 60
        E 0 90 4b 60
        E 60 80 61 00
        E 0 80 63 00
        E 0 80 55 00
        E 0 80 57 00
        E 0 80 49 00
        E 0 80 4b 00
        E 420 90 63 60
        E 0 90 60 60
        E 0 90 57 60
        E 0 90 54 60
        E 0 90 4b 60
        E 0 90 48 60
        E 0 90 3f 60
        E 0 90 3c 60
        E 60 80 63 00
        E 0 80 60 00
        E 0 80 57 00
        E 0 80 54 00
        E 0 80 4b 00
        E 0 80 48 00
        E 0 80 3f 00
        E 0 80 3c 00
        E 180 90 60 60
        E 0 90 54 60
        E 60 80 60 00
        E 0 80 54 00
        E 180 90 61 60
        E 0 90 63 60
        E 0 90 55 60
        E 0 90 57 60
        E 0 90 49 60
        E 0 90 4b 60
        E 60 80 61 00
        E 0 80 63 00
        E 0 80 55 00
        E 0 80 57 00
        E 0 80 49 00
        E 0 80 4b 00
        E 180 90 61 60
        E 0 90 63 60
        E 0 90 55 60
        E 0 90 57 60
        E 60 80 61 00
        E 0 80 63 00
        E 0 80 55 00
        E 0 80 57 00
        E 180 90 63 60
        E 0 90 60 60
        E 0 90 57 60
        E 0 90 54 60
        E 0 90 4b 60
        E 0 90 48 60
        E 0 90 3f 60
        E 0 90 3c 60
        E 60 80 63 00
        E 0 80 60 00
        E 0 80 57 00
        E 0 80 54 00
        E 0 80 4b 00
        E 0 80 48 00
        E 0 80 3f 00
        E 0 80 3c 00
        E 180 90 60 60
        E 0 90 63 60
        E 0 90 54 60
        E 0 90 57 60
        E 60 80 60 00
        E 0 80 63 00
        E 0 80 54 00
        E 0 80 57 00
        E 180 90 61 60
        E 0 90 63 60
        E 0 90 55 60
        E 0 90 57 60
        E 0 90 49 60
        E 0 90 4b 60
        E 60 80 61 00
        E 0 80 63 00
        E 0 80 55 00
        E 0 80 57 00
        E 0 80 49 00
        E 0 80 4b 00
        E 180 90 61 60
        E 0 90 55 60
        E 60 80 61 00
        E 0 80 55 00
        E 60 90 61 60
        E 60 80 61 00
        E 60 90 63 60
        E 0 90 60 60
        E 0 90 57 60
        E 0 90 54 60
        E 0 90 4b 60
        E 0 90 48 60
        E 0 90 3f 60
        E 0 90 3c 60
        E 60 80 63 00
        E 0 80 60 00
        E 0 80 57 00
        E 0 80 54 00
        E 0 80 4b 00
        E 0 80 48 00
        E 0 80 3f 00
        E 0 80 3c 00
        E 180 90 63 60
        E 0 90 57 60
        E 60 80 63 00
        E 0 80 57 00
        E 180 90 63 60
        E 0 90 57 60
        E 0 90 4b 60
        E 60 80 63 00
        E 0 80 57 00
        E 0 80 4b 00
        E 180 90 63 60
        E 0 90 60 60
        E 0 90 57 60
        E 0 90 54 60
        E 60 80 63 00
        E 0 80 60 00
        E 0 80 57 00
        E 0 80 54 00
        E 180 90 63 60
        E 0 90 57 60
        E 0 90 4b 60
        E 0 90 3f 60
        E 60 80 63 00
        E 0 80 57 00
        E 0 80 4b 00
        E 0 80 3f 00
        E 180 90 63 60
        E 0 90 57 60
        E 60 80 63 00
        E 0 80 57 00
        E 180 90 63 60
        E 0 90 61 60
        E 0 90 57 60
        E 0 90 55 60
        E 0 90 4b 60
        E 0 90 49 60
        E 60 80 63 00
        E 0 80 61 00
        E 0 80 57 00
        E 0 80 55 00
        E 0 80 4b 00
        E 0 80 49 00
        E 180 90 63 60
        E 0 90 57 60
        E 60 80 63 00
        E 0 80 57 00
        E 180 90 63 60
        E 0 90 60 60
        E 0 90 57 60
        E 0 90 54 60
        E 0 90 4b 60
        E 0 90 48 60
        E 0 90 3f 60
        E 0 90 3c 60
        E 60 80 63 00
        E 0 80 60 00
        E 0 80 57 00
        E 0 80 54 00
        E 0 80 4b 00
        E 0 80 48 00
        E 0 80 3f 00
        E 0 80 3c 00
        E 180 90 63 60
        E 0 90 57 60
        E 60 80 63 00
        E 0 80 57 00
        E 180 90 63 60
        E 0 90 57 60
        E 0 90 4b 60
        E 60 80 63 00
        E 0 80 57 00
        E 0 80 4b 00
        E 180 90 63 60
        E 0 90 60 60
        E 0 90 57 60
        E 0 90 54 60
        E 60 80 63 00
        E 0 80 60 00
        E 0 80 57 00
        E 0 80 54 00
        E 180 90 63 60
        E 0 90 57 60
        E 0 90 4b 60
        E 0 90 3f 60
        E 60 80 63 00
        E 0 80 57 00
        E 0 80 4b 00
        E 0 80 3f 00
        E 180 90 63 60
        E 0 90 57 60
        E 60 80 63 00
        E 0 80 57 00
        E 180 90 63 60
        E 0 90 61 60
        E 0 90 57 60
        E 0 90 55 60
        E 0 90 4b 60
        E 0 90 49 60
        E 60 80 63 00
        E 0 80 61 00
        E 0 80 57 00
        E 0 80 55 00
        E 0 80 4b 00
        E 0 80 49 00
        E 180 90 63 60
        E 0 90 57 60
        E 60 80 63 00
        E 0 80 57 00
        E 180 90 63 60
        E 0 90 60 60
        E 0 90 57 60
        E 0 90 54 60
        E 0 90 4b 60
        E 0 90 48 60
        E 0 90 3f 60
        E 0 90 3c 60
        E 60 80 63 00
        E 0 80 60 00
        E 0 80 57 00
        E 0 80 54 00
        E 0 80 4b 00
        E 0 80 48 00
        E 0 80 3f 00
        E 0 80 3c 00
        E 180 90 63 60
        E 0 90 57 60
        E 60 80 63 00
        E 0 80 57 00
        E 180 90 63 60
        E 0 90 57 60
        E 0 90 4b 60
        E 60 80 63 00
        E 0 80 57 00
        E 0 80 4b 00
        E 180 90 63 60
        E 0 90 60 60
        E 0 90 57 60
        E 0 90 54 60
        E 60 80 63 00
        E 0 80 60 00
        E 0 80 57 00
        E 0 80 54 00
        E 180 90 63 60
        E 0 90 57 60
        E 0 90 4b 60
        E 0 90 3f 60
        E 60 80 63 00
        E 0 80 57 00
        E 0 80 4b 00
        E 0 80 3f 00
        E 180 90 63 60
        E 0 90 57 60
        E 60 80 63 00
        E 0 80 57 00
        E 180 90 61 60
        E 0 90 63 60
        E 0 90 55 60
        E 0 90 57 60
        E 0 90 49 60
        E 0 90 4b 60
        E 60 80 61 00
        E 0 80 63 00
        E 0 80 55 00
        E 0 80 57 00
        E 0 80 49 00
        E 0 80 4b 00
        E 180 90 62 60
        E 0 90 63 60
        E 0 90 6e 60
        E 0 90 56 60
        E 0 90 57 60
        E 60 80 62 00
        E 0 80 63 00
        E 0 80 6e 00
        E 0 80 56 00
        E 0 80 57 00
        E 180 90 63 60
        E 0 90 57 60
        E 0 90 4b 60
        E 0 90 3f 60
        E 60 80 63 00
        E 0 80 57 00
        E 0 80 4b 00
        E 0 80 3f 00
        E 180 90 63 60
        E 0 90 60 60
        E 0 90 57 60
        E 0 90 54 60
        E 60 80 63 00
        E 0 80 60 00
        E 0 80 57 00
        E 0 80 54 00
        E 180 90 63 60
        E 0 90 60 60
        E 0 90 57 60
        E 0 90 54 60
        E 0 90 4b 60
        E 0 90 48 60
        E 60 80 63 00
        E 0 80 60 00
        E 0 80 57 00
        E 0 80 54 00
        E 0 80 4b 00
        E 0 80 48 00
        E 180 90 63 60
        E 0 90 60 60
        E 0 90 57 60
        E 0 90 54 60
        E 0 90 4b 60
        E 0 90 48 60
        E 60 80 63 00
        E 0 80 60 00
        E 0 80 57 00
        E 0 80 54 00
        E 0 80 4b 00
        E 0 80 48 00
        E 180 90 63 60
        E 0 90 60 60
        E 0 90 57 60
        E 0 90 54 60
        E 0 90 4b 60
        E 0 90 48 60
        E 0 90 3f 60
        E 0 90 3c 60
        E 60 80 63 00
        E 0 80 60 00
        E 0 80 57 00
        E 0 80 54 00
        E 0 80 4b 00
        E 0 80 48 00
        E 0 80 3f 00
        E 0 80 3c 00
        E 180 90 63 60
        E 0 90 60 60
        E 0 90 57 60
        E 0 90 54 60
        E 0 90 4b 60
        E 0 90 48 60
        E 60 80 63 00
        E 0 80 60 00
        E 0 80 57 00
        E 0 80 54 00
        E 0 80 4b 00
        E 0 80 48 00
        E 180 90 63 60
        E 0 90 60 60
        E 0 90 57 60
        E 0 90 54 60
        E 0 90 4b 60
        E 0 90 48 60
        E 0 90 3f 60
        E 0 90 3c 60
        E 60 80 63 00
        E 0 80 60 00
        E 0 80 57 00
        E 0 80 54 00
        E 0 80 4b 00
        E 0 80 48 00
        E 0 80 3f 00
        E 0 80 3c 00
        E 180 90 61 60
        E 0 90 63 60
        E 0 90 60 60
        E 0 90 55 60
        E 0 90 57 60
        E 0 90 54 60
        E 60 80 61 00
        E 0 80 63 00
        E 0 80 60 00
        E 0 80 55 00
        E 0 80 57 00
        E 0 80 54 00
        E 2100 b0 7b 00
        CCINTERP 32
        GUID {99C52F88-C54B-4CCD-B038-A5C950AC8E6E}
        IGNTEMPO 0 120 4 4
        SRCCOLOR 2
        VELLANE 132 123 128 0 1
        TEXTSTRINGFILE "Text Events List.txt"
        CFGEDITVIEW 0 0.005638 3 12 0 -1 0 0 0 0.5
        KEYSNAP 0
        TRACKSEL 269
        EVTFILTER 0 -1 -1 -1 -1 0 1 0 0 -1 -1 -1 -1 0 -1 0 -1 -1
        CFGEDIT 1 1 0 0 0 1 1 1 1 1 1 0.25 0 0 683 728 1 0 0 1 0.125 0 1 0 0 0.5 1 0 1 64
      >
    >
  >
  <TRACK {70C3FE4D-3BC3-4146-95C4-8AC455A2D0F5}
    NAME "PART BASS"
    PEAKCOL 16777471
    BEAT -1
    AUTOMODE 0
    VOLPAN 1 0 -1 -1 1
    MUTESOLO 0 0 0
    IPHASE 0
    PLAYOFFS 0 1
    ISBUS 0 0
    BUSCOMP 1 0 0 0 0
    SHOWINMIX 1 0.6667 0.5 1 0.5 -1 -1 -1
    SEL 0
    REC 0 4096 1 0 0 0 0 0
    TRACKHEIGHT 0 0 0 0 0 0 0
    INQ 0 0 0 0.5 100 0 0 100
    NCHAN 2
    FX 1
    TRACKID {70C3FE4D-3BC3-4146-95C4-8AC455A2D0F5}
    PERF 0
    MIDIOUT -1
    <MIDINOTENAMES
      0 40 "Left Hand Lowest" 0 40
      0 41 - 0 41
      0 42 - 0 42
      0 43 - 0 43
      0 44 - 0 44
      0 45 - 0 45
      0 46 - 0 46
      0 47 - 0 47
      0 48 - 0 48
      0 49 - 0 49
      0 50 - 0 50
      0 51 - 0 51
      0 52 - 0 52
      0 53 - 0 53
      0 54 - 0 54
      0 55 - 0 55
      0 56 - 0 56
      0 57 - 0 57
      0 58 - 0 58
      0 59 "Left Hand Highest" 0 59
      0 60 "EASY Green" 0 60
      0 61 "EASY Red" 0 61
      0 62 "EASY Yellow" 0 62
      0 63 "EASY Blue" 0 63
      0 64 "EASY Orange" 0 64
      0 68 ---- 0 68
      0 72 "MEDIUM Green" 0 72
      0 73 "MEDIUM Red" 0 73
      0 74 "MEDIUM Yellow" 0 74
      0 75 "MEDIUM Blue" 0 75
      0 76 "MEDIUM Orange" 0 76
      0 80 ---- 0 80
      0 84 "HARD Green" 0 84
      0 85 "HARD Red" 0 85
      0 86 "HARD Yellow" 0 86
      0 87 "HARD Blue" 0 87
      0 88 "HARD Orange" 0 88
      0 89 "Force HOPO On" 0 89
      0 90 "Force HOPO Off" 0 90
      0 91 ---- 0 91
      0 96 "EXPERT Green" 0 96
      0 97 "EXPERT Red" 0 97
      0 98 "EXPERT Yellow" 0 98
      0 99 "EXPERT Blue" 0 99
      0 100 "EXPERT Orange" 0 100
      0 101 "Force HOPO On" 0 101
      0 102 "Force HOPO Off" 0 102
      0 103 "Solo Marker" 0 103
      0 111 ---- 0 111
      0 116 OVERDRIVE 0 116
      0 119 ---- 0 119
      0 120 "BRE (use all 5)" 0 120
      0 121 BRE 0 121
      0 122 BRE 0 122
      0 123 BRE 0 123
      0 124 BRE 0 124
      0 125 ---- 0 125
      0 126 "Strum Marker" 0 126
      0 127 "Trill Marker" 0 127
    >
    MAINSEND 1 0
    <FXCHAIN
      WNDRECT 0 38 878 585
      SHOW 0
      LASTSEL 1
      DOCKED 0
      BYPASS 1 0 0
      <VST "VSTi: ReaSynth (Cockos)" reasynth.dll 0 "" 1919251321<5653547265737972656173796E746800> ""
        eXNlcu9e7f4AAAAAAgAAAAEAAAAAAAAAAgAAAAAAAABEAAAAAAAAAAAAAAA=
        776t3g3wrd4AAAAAAAAAAAAAAAAAAAAAObRIPn3L2z61tLE5AAAAALbz/T5VpCs6AAAAAAAAAAAAAIA/AAAAAAAAgD8=
        AFByb2dyYW0gMQAAAAAA
      >
      FLOATPOS 0 0 0 0
      FXID {D4EC3C58-478E-4D1F-A0FC-2252BD344989}
      WAK 0 0
      BYPASS 0 0 0
      <VST "VSTi: RBN Preview (RBN)" rbprev_vst.dll 0 "" 1919053942<5653547262707672626E707265766965> ""
        dnBicu5e7f4AAAAAAgAAAAEAAAAAAAAAAgAAAAAAAAAEAAAAAQAAAAAAAAA=
        AwCqAA==
        AFByb2dyYW0gMQAAAAAA
      >
      FLOATPOS 32 32 659 497
      FXID {72D22271-4F4F-4081-90C4-66415E7AEC47}
      WAK 0 0
    >
    <ITEM
      POSITION 0
      SNAPOFFS 0
      LENGTH 224.8650436170455
      LOOP 0
      ALLTAKES 0
      FADEIN 1 0 0 1 0 0 0
      FADEOUT 1 0 0 1 0 0 0
      MUTE 0 0
      SEL 0
      IGUID {A1B24BBF-93B7-476C-BC6D-33F5621C633F}
      IID 8
      NAME "PART BASS"
      VOLPAN 1 0 1 -1
      SOFFS 0 0
      PLAYRATE 1 1 0 -65536 0 0.0025
      CHANMODE 0
      GUID {344A7487-35C3-41F9-8B1E-12A4F3D7F336}
      <SOURCE MIDI
        HASDATA 1 480 QN
        CCINTERP 32
        POOLEDEVTS {5C4860DA-B006-4179-B528-085509E9D927}
        <X 0 0 0 0 3 "PART BASS"
          /wNQQVJUIEJBU1M=
        >
        e 3840 90 40 7f
        e 0 90 4c 7f
        e 0 90 58 7f
        e 0 90 74 64
        e 0 90 64 7f
        e 60 80 40 00
        e 0 80 4c 00
        e 0 80 58 00
        e 0 80 64 00
        e 30 90 3f 7f
        e 0 90 4b 7f
        e 0 90 57 7f
        e 0 90 63 7f
        e 60 80 3f 00
        e 0 80 4b 00
        e 0 80 57 00
        e 0 80 63 00
        e 30 90 3e 7f
        e 0 90 4a 7f
        e 0 90 56 7f
        e 0 90 62 7f
        e 60 80 3e 00
        e 0 80 4a 00
        e 0 80 56 00
        e 0 80 62 00
        e 30 90 3d 7f
        e 0 90 49 7f
        e 0 90 55 7f
        e 0 90 61 7f
        e 60 80 3d 00
        e 0 80 49 00
        e 0 80 55 00
        e 0 80 61 00
        e 30 90 3c 7f
        e 0 90 48 7f
        e 0 90 54 7f
        e 0 90 60 7f
        e 60 80 3c 00
        e 0 80 48 00
        e 0 80 54 00
        e 0 80 60 00
        e 480 80 74 00
        E 208380 b0 7b 00
        CCINTERP 32
        GUID {54A57D35-811F-42A6-AB75-F5706122F903}
        IGNTEMPO 0 120 4 4
        SRCCOLOR 3
        VELLANE 132 123 128 0 1
        TEXTSTRINGFILE "Text Events List.txt"
        CFGEDITVIEW 196576.427897 0.228347 0 12 0 -1 0 0 0 0.5
        KEYSNAP 0
        TRACKSEL 269
        EVTFILTER 0 -1 -1 -1 -1 0 1 0 0 -1 -1 -1 -1 0 -1 0 -1 -1
        CFGEDIT 1 1 0 0 0 1 1 1 1 1 1 0.0625 0 0 683 728 1 0 0 1 0.125 0 1 0 0 0.5 1 0 1 64
      >
    >
  >
  <TRACK {6B7F9B4B-FF4E-4CE6-9E2D-4C9BD5DAED77}
    NAME "PART GUITAR"
    PEAKCOL 33488896
    BEAT -1
    AUTOMODE 0
    VOLPAN 1 0 -1 -1 1
    MUTESOLO 0 0 0
    IPHASE 0
    PLAYOFFS 0 1
    ISBUS 0 0
    BUSCOMP 1 0 0 0 0
    SHOWINMIX 1 0.6667 0.5 1 0.5 -1 -1 -1
    SEL 0
    REC 0 4096 1 7 0 0 0 0
    TRACKHEIGHT 0 0 0 0 0 0 0
    INQ 0 0 0 0.5 100 0 0 100
    NCHAN 2
    FX 1
    TRACKID {6B7F9B4B-FF4E-4CE6-9E2D-4C9BD5DAED77}
    PERF 0
    MIDIOUT -1
    <MIDINOTENAMES
      0 40 "Left Hand Lowest" 0 40
      0 41 - 0 41
      0 42 - 0 42
      0 43 - 0 43
      0 44 - 0 44
      0 45 - 0 45
      0 46 - 0 46
      0 47 - 0 47
      0 48 - 0 48
      0 49 - 0 49
      0 50 - 0 50
      0 51 - 0 51
      0 52 - 0 52
      0 53 - 0 53
      0 54 - 0 54
      0 55 - 0 55
      0 56 - 0 56
      0 57 - 0 57
      0 58 - 0 58
      0 59 "Left Hand Highest" 0 59
      0 60 "EASY Green" 0 60
      0 61 "EASY Red" 0 61
      0 62 "EASY Yellow" 0 62
      0 63 "EASY Blue" 0 63
      0 64 "EASY Orange" 0 64
      0 65 ---- 0 65
      0 72 "MEDIUM Green" 0 72
      0 73 "MEDIUM Red" 0 73
      0 74 "MEDIUM Yellow" 0 74
      0 75 "MEDIUM Blue" 0 75
      0 76 "MEDIUM Orange" 0 76
      0 77 ---- 0 77
      0 84 "HARD Green" 0 84
      0 85 "HARD Red" 0 85
      0 86 "HARD Yellow" 0 86
      0 87 "HARD Blue" 0 87
      0 88 "HARD Orange" 0 88
      0 89 "Force HOPO On" 0 89
      0 90 "Force HOPO Off" 0 90
      0 95 ---- 0 95
      0 96 "EXPERT Green" 0 96
      0 97 "EXPERT Red" 0 97
      0 98 "EXPERT Yellow" 0 98
      0 99 "EXPERT Blue" 0 99
      0 100 "EXPERT Orange" 0 100
      0 101 "Force HOPO On" 0 101
      0 102 "Force HOPO Off" 0 102
      0 103 "Solo Marker" 0 103
      0 115 ---- 0 115
      0 116 OVERDRIVE 0 116
      0 119 ---- 0 119
      0 120 "BRE (use all 5)" 0 120
      0 121 BRE 0 121
      0 122 BRE 0 122
      0 123 BRE 0 123
      0 124 BRE 0 124
      0 125 ---- 0 125
      0 126 "Strum Marker" 0 126
      0 127 "Trill Marker" 0 127
    >
    MAINSEND 1 0
    <FXCHAIN
      WNDRECT 0 38 878 585
      SHOW 0
      LASTSEL 1
      DOCKED 0
      BYPASS 1 0 0
      <VST "VSTi: ReaSynth (Cockos)" reasynth.dll 0 "" 1919251321<5653547265737972656173796E746800> ""
        eXNlcu9e7f4AAAAAAgAAAAEAAAAAAAAAAgAAAAAAAABEAAAAAAAAAAAAAAA=
        776t3g3wrd4AAAAAAAAAAAAAAAAAAAAAObRIPn3L2z61tLE5AAAAALbz/T5VpCs6AAAAAAAAAAAAAIA/AAAAAAAAgD8=
        AFByb2dyYW0gMQAAAAAA
      >
      FLOATPOS 0 0 0 0
      FXID {52B28C73-185B-48E4-B8F4-1FD7A8848B0F}
      WAK 0 0
      BYPASS 0 0 0
      <VST "VSTi: RBN Preview (RBN)" rbprev_vst.dll 0 "" 1919053942<5653547262707672626E707265766965> ""
        dnBicu5e7f4AAAAAAgAAAAEAAAAAAAAAAgAAAAAAAAAEAAAAAQAAAAAAAAA=
        AwCqAA==
        AFByb2dyYW0gMQAAAAAA
      >
      FLOATPOS 32 32 659 497
      FXID {190BBB08-7A86-476B-BD07-5F71F5CD6F7C}
      WAK 0 0
    >
    <ITEM
      POSITION 0
      SNAPOFFS 0
      LENGTH 224.86504361704624
      LOOP 0
      ALLTAKES 0
      FADEIN 1 0 0 1 0 0 0
      FADEOUT 1 0 0 1 0 0 0
      MUTE 0 0
      SEL 0
      IGUID {81210F06-DA35-41E7-BA75-C6E1C5689733}
      IID 9
      NAME "PART GUITAR"
      VOLPAN 1 0 1 -1
      SOFFS 0 0
      PLAYRATE 1 1 0 -65536 0 0.0025
      CHANMODE 0
      GUID {61757875-B3D4-49E4-8483-EE351B7D2386}
      <SOURCE MIDI
        HASDATA 1 480 QN
        CCINTERP 32
        POOLEDEVTS {1EF5A5BB-DA89-451E-8F52-50149335E0C3}
        <X 0 0 0 0 3 "PART GUITAR"
          /wNQQVJUIEdVSVRBUg==
        >
        e 3840 90 40 7f
        e 0 90 4c 7f
        e 0 90 58 7f
        e 0 90 74 64
        e 0 90 64 7f
        e 60 80 40 00
        e 0 80 4c 00
        e 0 80 58 00
        e 0 80 64 00
        e 30 90 3f 7f
        e 0 90 4b 7f
        e 0 90 57 7f
        e 0 90 63 7f
        e 60 80 3f 00
        e 0 80 4b 00
        e 0 80 57 00
        e 0 80 63 00
        e 30 90 3e 7f
        e 0 90 4a 7f
        e 0 90 56 7f
        e 0 90 62 7f
        e 60 80 3e 00
        e 0 80 4a 00
        e 0 80 56 00
        e 0 80 62 00
        e 30 90 3d 7f
        e 0 90 49 7f
        e 0 90 55 7f
        e 0 90 61 7f
        e 60 80 3d 00
        e 0 80 49 00
        e 0 80 55 00
        e 0 80 61 00
        e 30 90 3c 7f
        e 0 90 48 7f
        e 0 90 54 7f
        e 0 90 60 7f
        e 60 80 3c 00
        e 0 80 48 00
        e 0 80 54 00
        e 0 80 60 00
        e 480 80 74 00
        E 208380 b0 7b 00
        CCINTERP 32
        GUID {14D9E950-FB92-4048-8603-8FD02AE3B865}
        IGNTEMPO 0 120 4 4
        SRCCOLOR 4
        VELLANE 132 123 128 0 1
        TEXTSTRINGFILE "Text Events List.txt"
        CFGEDITVIEW 196576.427897 0.228347 38 12 0 -1 0 0 0 0.5
        KEYSNAP 0
        TRACKSEL 269
        EVTFILTER 0 -1 -1 -1 -1 0 1 0 0 -1 -1 -1 -1 0 -1 0 -1 -1
        CFGEDIT 1 1 0 0 0 1 1 1 1 1 1 0.0625 0 0 683 728 1 0 0 1 0.125 0 1 0 0 0.5 1 0 1 64
      >
    >
  >
  <TRACK {C298A11E-8E06-44B8-AA31-429ECCE3F0AF}
    NAME "PART VOCALS"
    PEAKCOL 16810239
    BEAT -1
    AUTOMODE 0
    VOLPAN 0.99997469241676 0 -1 -1 1
    MUTESOLO 0 2 0
    IPHASE 0
    PLAYOFFS 0 1
    ISBUS 0 0
    BUSCOMP 1 0 0 0 0
    SHOWINMIX 1 0.6667 0.5 1 0.5 -1 -1 -1
    SEL 0
    REC 0 4096 1 7 0 0 0 0
    TRACKHEIGHT 0 0 0 0 0 0 0
    INQ 0 0 0 0.5 100 0 0 100
    NCHAN 2
    FX 1
    TRACKID {C298A11E-8E06-44B8-AA31-429ECCE3F0AF}
    PERF 0
    MIDIOUT -1
    <MIDINOTENAMES
      0 0 "Range Shift" 0 0
      0 1 "Lyric Shift" 0 1
      0 36 C1 0 36
      0 37 C# 0 37
      0 38 D 0 38
      0 39 Eb 0 39
      0 40 E 0 40
      0 41 F 0 41
      0 42 F# 0 42
      0 43 G 0 43
      0 44 G# 0 44
      0 45 A 0 45
      0 46 Bb 0 46
      0 47 B 0 47
      0 48 C2 0 48
      0 49 C# 0 49
      0 50 D 0 50
      0 51 Eb 0 51
      0 52 E 0 52
      0 53 F 0 53
      0 54 F# 0 54
      0 55 G 0 55
      0 56 G# 0 56
      0 57 A 0 57
      0 58 Bb 0 58
      0 59 B 0 59
      0 60 C3 0 60
      0 61 C# 0 61
      0 62 D 0 62
      0 63 Eb 0 63
      0 64 E 0 64
      0 65 F 0 65
      0 66 F# 0 66
      0 67 G 0 67
      0 68 G# 0 68
      0 69 A 0 69
      0 70 Bb 0 70
      0 71 B 0 71
      0 72 C4 0 72
      0 73 C# 0 73
      0 74 D 0 74
      0 75 Eb 0 75
      0 76 E 0 76
      0 77 F 0 77
      0 78 F# 0 78
      0 79 G 0 79
      0 80 G# 0 80
      0 81 A 0 81
      0 82 Bb 0 82
      0 83 B 0 83
      0 84 C5 0 84
      0 95 ---- 0 95
      0 96 "Displayed Percussion" 0 96
      0 97 "Not Displayed Percussion" 0 97
      0 104 ---- 0 104
      0 105 "Phrase Marker" 0 105
      0 115 ---- 0 115
      0 116 OVERDRIVE 0 116
    >
    MAINSEND 1 0
    <FXCHAIN
      WNDRECT 581 377 716 493
      SHOW 0
      LASTSEL 1
      DOCKED 0
      BYPASS 0 0 0
      <JS "IX/MIDI_Tool II" ""
        0 85 127 0 0 0 100 0 0 127 0 0 1 0 0 - - - - - - - - - - - - - - - - - - - - - - - - - - - - - - - - - - - - - - - - - - - - - - - - -
      >
      FLOATPOS 0 0 0 0
      FXID {CA785021-0433-497E-9A6C-EE23A1BC21B0}
      WAK 0 0
      BYPASS 0 0 0
      <VST "VSTi: ReaSynth (Cockos)" reasynth.dll 0 "" 1919251321<5653547265737972656173796E746800> ""
        eXNlcu9e7f4AAAAAAgAAAAEAAAAAAAAAAgAAAAAAAABEAAAAAAAAAAAAAAA=
        776t3g3wrd6mm8Q7F7fROgAAAAAAAAAAAAAAAJr1Dz/pZ4g9AAAAAAAAAD8AAIA/AAAAAAAAAD8AAIA/AAAAAAAAgD8=
        AFByb2dyYW0gMQAAAAAA
      >
      FLOATPOS 32 32 338 405
      FXID {F124DD19-73B4-4CD5-B659-E246F2A3D0B3}
      WAK 0 0
    >
    <ITEM
      POSITION 0
      SNAPOFFS 0
      LENGTH 224.86504361704624
      LOOP 0
      ALLTAKES 0
      FADEIN 1 0 0 1 0 0 0
      FADEOUT 1 0 0 1 0 0 0
      MUTE 0 0
      SEL 0
      IGUID {9C9617EC-369A-41B9-80F6-31F4222F13F6}
      IID 10
      NAME "PART VOCALS"
      VOLPAN 1 0 1 -1
      SOFFS 0 0
      PLAYRATE 1 1 0 -65536 0 0.0025
      CHANMODE 0
      GUID {8E872349-00D8-4243-95D7-0B92852E4EE5}
      <SOURCE MIDI
        HASDATA 1 480 QN
        CCINTERP 32
        POOLEDEVTS {C33E3526-4236-4D3E-98E3-883923883BBF}
        <x 0 0 0 0 3 "PART VOCALS"
          /wNQQVJUIFZPQ0FMUw==
        >
        e 18726 90 69 64
        <x 5 0 0 0 5 God
          /wVHb2Q=
        >
        e 0 90 37 64
        e 229 80 37 00
        <x 180 0 0 0 5 mon-
          /wVtb24t
        >
        e 0 90 38 64
        e 60 80 38 00
        <x 60 0 0 0 5 ey
          /wVleQ==
        >
        e 0 90 38 64
        e 60 80 38 00
        <x 120 0 0 0 5 I'd
          /wVJJ2Q=
        >
        e 0 90 38 64
        e 120 80 38 00
        <x 120 0 0 0 5 do
          /wVkbw==
        >
        e 0 90 34 64
        e 60 80 34 00
        <x 180 0 0 0 5 an-
          /wVhbi0=
        >
        e 0 90 39 64
        e 120 80 39 00
        <x 120 0 0 0 5 y-
          /wV5LQ==
        >
        e 0 90 39 64
        e 120 80 39 00
        <x 120 0 0 0 5 thing
          /wV0aGluZw==
        >
        e 0 90 39 64
        e 120 80 39 00
        <x 120 0 0 0 5 for
          /wVmb3I=
        >
        e 0 90 34 64
        e 60 80 34 00
        <x 180 0 0 0 5 you
          /wV5b3U=
        >
        e 0 90 38 64
        e 360 80 38 00
        e 210 80 69 00
        e 870 90 69 69
        <x 240 0 0 0 5 God
          /wVHb2Q=
        >
        e 0 90 37 64
        e 240 80 37 00
        <x 240 0 0 0 5 mon-
          /wVtb24t
        >
        e 0 90 38 64
        e 120 80 38 00
        <x 120 0 0 0 5 ey
          /wVleQ==
        >
        e 0 90 38 64
        e 150 80 38 00
        <x 330 0 0 0 5 just
          /wVqdXN0
        >
        e 0 90 38 64
        e 90 80 38 00
        <x 150 0 0 0 5 tell
          /wV0ZWxs
        >
        e 0 90 39 64
        e 90 80 39 00
        <x 150 0 0 0 5 me
          /wVtZQ==
        >
        e 0 90 39 64
        e 90 80 39 00
        <x 150 0 0 0 5 what
          /wV3aGF0
        >
        e 0 90 34 64
        e 60 80 34 00
        <x 180 0 0 0 5 you
          /wV5b3U=
        >
        e 0 90 39 64
        e 210 80 39 00
        <x 270 0 0 0 5 want
          /wV3YW50
        >
        e 0 90 39 64
        e 90 80 39 00
        <x 150 0 0 0 5 me
          /wVtZQ==
        >
        e 0 90 39 64
        e 90 80 39 00
        <x 150 0 0 0 5 to
          /wV0bw==
        >
        e 0 90 36 64
        e 240 80 36 00
        <x 480 0 0 0 5 God
          /wVHb2Q=
        >
        e 0 90 37 64
        e 240 80 37 00
        <x 240 0 0 0 5 mon-
          /wVtb24t
        >
        e 0 90 38 64
        e 60 80 38 00
        <x 60 0 0 0 5 ey
          /wVleQ==
        >
        e 0 90 38 64
        e 60 80 38 00
        <x 60 0 0 0 5 nail
          /wVuYWls
        >
        e 0 90 38 64
        e 120 80 38 00
        <x 120 0 0 0 5 me
          /wVtZQ==
        >
        e 0 90 34 64
        e 90 80 34 00
        <x 150 0 0 0 5 up
          /wV1cA==
        >
        e 0 90 39 64
        e 90 80 39 00
        <x 150 0 0 0 5 a-
          /wVhLQ==
        >
        e 0 90 39 64
        e 90 80 39 00
        <x 150 0 0 0 5 gainst
          /wVnYWluc3Q=
        >
        e 0 90 39 64
        e 120 80 39 00
        <x 120 0 0 0 5 the
          /wV0aGU=
        >
        e 0 90 3b 64
        e 120 80 3b 00
        <x 120 0 0 0 5 wall
          /wV3YWxs
        >
        e 0 90 38 64
        e 450 80 38 00
        e 30 80 69 00
        e 855 90 69 69
        <x 345 0 0 0 5 God
          /wVHb2Q=
        >
        e 0 90 37 64
        e 240 80 37 00
        <x 240 0 0 0 5 mon-
          /wVtb24t
        >
        e 0 90 38 64
        e 120 80 38 00
        <x 120 0 0 0 5 ey
          /wVleQ==
        >
        e 0 90 38 64
        e 120 80 38 00
        <x 120 0 0 0 5 don't
          /wVkb24ndA==
        >
        e 0 90 38 64
        e 120 80 38 00
        <x 120 0 0 0 5 want
          /wV3YW50
        >
        e 0 90 34 64
        e 120 80 34 00
        <x 120 0 0 0 5 ev-
          /wVldi0=
        >
        e 0 90 39 64
        e 90 80 39 00
        <x 150 0 0 0 5 ery-
          /wVlcnkt
        >
        e 0 90 36 64
        e 90 80 36 00
        <x 150 0 0 0 5 thing
          /wV0aGluZw==
        >
        e 0 90 31 64
        e 120 80 31 00
        <x 360 0 0 0 5 he
          /wVoZQ==
        >
        e 0 90 38 64
        e 120 80 38 00
        <x 120 0 0 0 5 wants
          /wV3YW50cw==
        >
        e 0 90 38 64
        e 120 80 38 00
        <x 120 0 0 0 5 it
          /wVpdA==
        >
        e 0 90 34 64
        e 60 80 34 00
        <x 180 0 0 0 5 all
          /wVhbGw=
        >
        e 0 90 3b 64
        e 180 80 3b 00
        <x 120 0 0 0 5 +
          /wUr
        >
        e 0 90 34 64
        e 1 80 34 00
        <x 179 0 0 0 5 You
          /wVZb3U=
        >
        e 0 90 3b 64
        e 90 80 3b 00
        <x 150 0 0 0 5 can't
          /wVjYW4ndA==
        >
        e 0 90 3b 64
        e 210 80 3b 00
        <x 210 0 0 0 5 take
          /wV0YWtl
        >
        e 0 90 38 64
        e 120 80 38 00
        <x 120 0 0 0 5 it
          /wVpdA==
        >
        e 0 90 34 64
        e 120 80 34 00
        e 45 80 69 00
        e 345 90 69 69
        <x 30 0 0 0 5 no
          /wVubw==
        >
        e 0 90 3b 64
        e 300 80 3b 00
        <x 180 0 0 0 5 you
          /wV5b3U=
        >
        e 0 90 3b 64
        e 90 80 3b 00
        <x 150 0 0 0 5 can't
          /wVjYW4ndA==
        >
        e 0 90 3b 64
        e 210 80 3b 00
        <x 270 0 0 0 5 take
          /wV0YWtl
        >
        e 0 90 38 64
        e 120 80 38 00
        <x 120 0 0 0 5 it
          /wVpdA==
        >
        e 0 90 34 64
        e 120 80 34 00
        <x 360 0 0 0 5 No
          /wVObw==
        >
        e 0 90 3b 64
        e 300 80 3b 00
        <x 180 0 0 0 5 you
          /wV5b3U=
        >
        e 0 90 3b 64
        e 90 80 3b 00
        <x 150 0 0 0 5 can't
          /wVjYW4ndA==
        >
        e 0 90 3b 64
        e 240 80 3b 00
        <x 240 0 0 0 5 take
          /wV0YWtl
        >
        e 0 90 3b 64
        e 180 80 3b 00
        <x 300 0 0 0 5 that
          /wV0aGF0
        >
        e 0 90 3b 64
        e 90 80 3b 00
        <x 150 0 0 0 5 a-
          /wVhLQ==
        >
        e 0 90 3b 64
        e 90 80 3b 00
        <x 150 0 0 0 5 way
          /wV3YXk=
        >
        e 0 90 39 64
        e 120 80 39 00
        <x 180 0 0 0 5 from
          /wVmcm9t
        >
        e 0 90 38 64
        e 240 80 38 00
        <x 180 0 0 0 5 me
          /wVtZQ==
        >
        e 0 90 36 64
        e 390 80 36 00
        e 165 80 69 00
        <x 405 0 0 0 5 No
          /wVObw==
        >
        e 0 90 3b 64
        e 0 90 69 69
        e 300 80 3b 00
        <x 180 0 0 0 5 you
          /wV5b3U=
        >
        e 0 90 3b 64
        e 90 80 3b 00
        <x 150 0 0 0 5 can't
          /wVjYW4ndA==
        >
        e 0 90 3b 64
        e 180 80 3b 00
        <x 300 0 0 0 5 take
          /wV0YWtl
        >
        e 0 90 38 64
        e 90 80 38 00
        <x 150 0 0 0 5 it
          /wVpdA==
        >
        e 0 90 34 64
        e 120 80 34 00
        <x 360 0 0 0 5 I
          /wVJ
        >
        e 0 90 34 64
        e 90 80 34 00
        <x 150 0 0 0 5 said
          /wVzYWlk
        >
        e 0 90 3d 64
        e 150 80 3d 00
        <x 90 0 0 0 5 you
          /wV5b3U=
        >
        e 0 90 3b 64
        e 90 80 3b 00
        <x 150 0 0 0 5 can't
          /wVjYW4ndA==
        >
        e 0 90 34 64
        e 180 80 34 00
        <x 60 0 0 0 5 +
          /wUr
        >
        e 0 90 38 64
        e 120 80 38 00
        <x 120 0 0 0 5 take
          /wV0YWtl
        >
        e 0 90 36 64
        e 90 80 36 00
        <x 150 0 0 0 5 it
          /wVpdA==
        >
        e 0 90 34 64
        e 120 80 34 00
        e 30 80 69 00
        e 255 90 69 69
        <x 75 0 0 0 5 No
          /wVObw==
        >
        e 0 90 3b 64
        e 300 80 3b 00
        <x 180 0 0 0 5 you
          /wV5b3U=
        >
        e 0 90 3b 64
        e 90 80 3b 00
        <x 150 0 0 0 5 can't
          /wVjYW4ndA==
        >
        e 0 90 3b 64
        e 240 80 3b 00
        <x 240 0 0 0 5 take
          /wV0YWtl
        >
        e 0 90 3b 64
        e 180 80 3b 00
        <x 300 0 0 0 5 that
          /wV0aGF0
        >
        e 0 90 3b 64
        e 120 80 3b 00
        <x 120 0 0 0 5 a-
          /wVhLQ==
        >
        e 0 90 3b 64
        e 90 80 3b 00
        <x 150 0 0 0 5 way
          /wV3YXk=
        >
        e 0 90 3d 64
        e 180 80 3d 00
        <x 180 0 0 0 5 from
          /wVmcm9t
        >
        e 0 90 38 64
        e 210 80 38 00
        <x 150 0 0 0 5 me
          /wVtZQ==
        >
        e 0 90 3b 64
        e 360 80 3b 00
        e 135 80 69 00
        <x 525 0 0 0 5 With
          /wVXaXRo
        >
        e 0 90 34 64
        e 0 90 69 69
        e 60 80 34 00
        <x 60 0 0 0 5 a
          /wVh
        >
        e 0 90 34 64
        e 60 80 34 00
        <x 60 0 0 0 5 head
          /wVoZWFk
        >
        e 0 90 40 64
        e 120 80 40 00
        <x 120 0 0 0 5 like
          /wVsaWtl
        >
        e 0 90 40 64
        e 90 80 40 00
        <x 90 0 0 0 5 a
          /wVh
        >
        e 0 90 3b 64
        e 120 80 3b 00
        <x 180 0 0 0 5 hole
          /wVob2xl
        >
        e 0 90 40 64
        e 360 80 40 00
        <x 180 0 0 0 5 +
          /wUr
        >
        e 0 90 3b 64
        e 1 80 3b 00
        e 164 80 69 00
        e 345 90 69 69
        <x 90 0 0 0 5 black
          /wVibGFjaw==
        >
        e 0 90 40 64
        e 120 80 40 00
        <x 120 0 0 0 5 as
          /wVhcw==
        >
        e 0 90 40 64
        e 120 80 40 00
        <x 120 0 0 0 5 your
          /wV5b3Vy
        >
        e 0 90 3b 64
        e 90 80 3b 00
        <x 210 0 0 0 5 soul
          /wVzb3Vs
        >
        e 0 90 40 64
        e 120 80 40 00
        <x 420 0 0 0 5 +
          /wUr
        >
        e 0 90 3b 64
        e 1 80 3b 00
        e 149 80 69 00
        e 375 90 69 69
        <x 75 0 0 0 5 I'd
          /wVJJ2Q=
        >
        e 0 90 40 64
        e 90 80 40 00
        <x 150 0 0 0 5 rath-
          /wVyYXRoLQ==
        >
        e 0 90 40 64
        e 150 80 40 00
        <x 90 0 0 0 5 er
          /wVlcg==
        >
        e 0 90 3b 64
        e 90 80 3b 00
        <x 150 0 0 0 5 die
          /wVkaWU=
        >
        e 0 90 40 64
        e 240 80 40 00
        <x 300 0 0 0 5 +
          /wUr
        >
        e 0 90 3b 64
        e 1 80 3b 00
        e 224 80 69 00
        e 105 90 69 69
        <x 90 0 0 0 5 than
          /wV0aGFu
        >
        e 0 90 3b 64
        e 90 80 3b 00
        <x 150 0 0 0 5 give
          /wVnaXZl
        >
        e 0 90 40 64
        e 90 80 40 00
        <x 150 0 0 0 5 you
          /wV5b3U=
        >
        e 0 90 40 64
        e 90 80 40 00
        <x 150 0 0 0 5 con-
          /wVjb24t
        >
        e 0 90 3b 64
        e 120 80 3b 00
        <x 120 0 0 0 5 trol
          /wV0cm9s
        >
        e 0 90 40 64
        e 180 80 40 00
        <x 60 0 0 0 5 +
          /wUr
        >
        e 0 90 3f 64
        e 330 80 3f 00
        e 60 80 69 00
        e 555 90 69 69
        <x 45 0 0 0 5 Head
          /wVIZWFk
        >
        e 0 90 40 64
        e 120 80 40 00
        <x 120 0 0 0 5 like
          /wVsaWtl
        >
        e 0 90 40 64
        e 120 80 40 00
        <x 120 0 0 0 5 a
          /wVh
        >
        e 0 90 3b 64
        e 120 80 3b 00
        <x 180 0 0 0 5 hole
          /wVob2xl
        >
        e 0 90 40 64
        e 182 80 40 00
        <x 298 0 0 0 5 +
          /wUr
        >
        e 0 90 3b 64
        e 2 80 3b 00
        e 343 80 69 00
        e 300 90 69 69
        <x 17 0 0 0 5 black
          /wVibGFjaw==
        >
        e 0 90 40 64
        e 118 80 40 00
        <x 120 0 0 0 5 as
          /wVhcw==
        >
        e 0 90 40 64
        e 120 80 40 00
        <x 122 0 0 0 5 your
          /wV5b3Vy
        >
        e 0 90 3b 64
        e 118 80 3b 00
        <x 180 0 0 0 5 soul
          /wVzb3Vs
        >
        e 0 90 40 64
        e 300 80 40 00
        <x 180 0 0 0 5 +
          /wUr
        >
        e 0 90 3b 64
        e 2 80 3b 00
        e 193 80 69 00
        e 405 90 69 69
        <x 30 0 0 0 5 I'd
          /wVJJ2Q=
        >
        e 0 90 40 64
        e 120 80 40 00
        <x 120 0 0 0 5 rath-
          /wVyYXRoLQ==
        >
        e 0 90 40 64
        e 120 80 40 00
        <x 120 0 0 0 5 er
          /wVlcg==
        >
        e 0 90 3b 64
        e 120 80 3b 00
        <x 120 0 0 0 5 die
          /wVkaWU=
        >
        e 0 90 40 64
        e 420 80 40 00
        <x 240 0 0 0 5 +
          /wUr
        >
        e 0 90 3b 64
        e 1 80 3b 00
        e 134 80 69 00
        e 120 90 69 69
        <x 45 0 0 0 5 than
          /wV0aGFu
        >
        e 0 90 3b 64
        e 90 80 3b 00
        <x 150 0 0 0 5 give
          /wVnaXZl
        >
        e 0 90 40 64
        e 120 80 40 00
        <x 120 0 0 0 5 you
          /wV5b3U=
        >
        e 0 90 40 64
        e 120 80 40 00
        <x 120 0 0 0 5 con-
          /wVjb24t
        >
        e 0 90 40 64
        e 90 80 40 00
        <x 150 0 0 0 5 trol
          /wV0cm9s
        >
        e 0 90 3b 64
        e 180 80 3b 00
        <x 60 0 0 0 5 +
          /wUr
        >
        e 0 90 3f 64
        e 210 80 3f 00
        <x 30 0 0 0 5 +
          /wUr
        >
        e 0 90 3b 64
        e 210 80 3b 00
        <x 30 0 0 0 5 +
          /wUr
        >
        e 0 90 3d 64
        e 210 80 3d 00
        <x 30 0 0 0 5 +
          /wUr
        >
        e 0 90 38 64
        e 210 80 38 00
        <x 30 0 0 0 5 +
          /wUr
        >
        e 0 90 3b 64
        e 480 80 3b 00
        e 270 80 69 00
        e 615 90 69 69
        <x 75 0 0 0 5 Bow
          /wVCb3c=
        >
        e 0 90 40 64
        e 300 80 40 00
        <x 180 0 0 0 5 down
          /wVkb3du
        >
        e 0 90 40 64
        e 300 80 40 00
        <x 180 0 0 0 5 be-
          /wViZS0=
        >
        e 0 90 40 64
        e 120 80 40 00
        <x 120 0 0 0 5 fore
          /wVmb3Jl
        >
        e 0 90 3f 64
        e 570 80 3f 00
        e 675 80 69 00
        e 1200 90 69 69
        <x 195 0 0 0 5 the
          /wV0aGU=
        >
        e 0 90 40 64
        e 120 80 40 00
        <x 120 0 0 0 5 one
          /wVvbmU=
        >
        e 0 90 40 64
        e 240 80 40 00
        <x 240 0 0 0 5 you
          /wV5b3U=
        >
        e 0 90 40 64
        e 180 80 40 00
        <x 300 0 0 0 5 serve
          /wVzZXJ2ZQ==
        >
        e 0 90 3f 64
        e 600 80 3f 00
        e 480 80 69 00
        e 1425 90 69 69
        <x 135 0 0 0 5 You're
          /wVZb3UncmU=
        >
        e 0 90 40 64
        e 180 80 40 00
        <x 300 0 0 0 5 gon-
          /wVnb24t
        >
        e 0 90 40 64
        e 120 80 40 00
        <x 120 0 0 0 5 na
          /wVuYQ==
        >
        e 0 90 40 64
        e 240 80 40 00
        <x 240 0 0 0 5 get
          /wVnZXQ=
        >
        e 0 90 3f 64
        e 240 80 3f 00
        e 660 80 69 00
        e 1245 90 69 69
        <x 495 0 0 0 5 what
          /wV3aGF0
        >
        e 0 90 40 64
        e 180 80 40 00
        <x 300 0 0 0 5 you
          /wV5b3U=
        >
        e 0 90 40 64
        e 120 80 40 00
        <x 120 0 0 0 5 de-
          /wVkZS0=
        >
        e 0 90 40 64
        e 300 80 40 00
        <x 180 0 0 0 5 serve
          /wVzZXJ2ZQ==
        >
        e 0 90 3f 64
        e 480 80 3f 00
        e 210 80 69 00
        e 930 90 69 69
        <x 60 0 0 0 5 God
          /wVHb2Q=
        >
        e 0 90 38 64
        e 240 80 38 00
        <x 240 0 0 0 5 mon-
          /wVtb24t
        >
        e 0 90 38 64
        e 120 80 38 00
        <x 120 0 0 0 5 ey
          /wVleQ==
        >
        e 0 90 38 64
        e 120 80 38 00
        <x 120 0 0 0 5 not
          /wVub3Q=
        >
        e 0 90 38 64
        e 120 80 38 00
        <x 120 0 0 0 5 look-
          /wVsb29rLQ==
        >
        e 0 90 38 64
        e 120 80 38 00
        <x 120 0 0 0 5 ing
          /wVpbmc=
        >
        e 0 90 38 64
        e 120 80 38 00
        <x 120 0 0 0 5 for
          /wVmb3I=
        >
        e 0 90 39 64
        e 150 80 39 00
        <x 90 0 0 0 5 a
          /wVh
        >
        e 0 90 34 64
        e 120 80 34 00
        <x 120 0 0 0 5 cure
          /wVjdXJl
        >
        e 0 90 38 64
        e 420 80 38 00
        e 615 80 69 00
        e 570 90 69 69
        <x 75 0 0 0 5 God
          /wVHb2Q=
        >
        e 0 90 38 64
        e 240 80 38 00
        <x 240 0 0 0 5 mon-
          /wVtb24t
        >
        e 0 90 38 64
        e 120 80 38 00
        <x 120 0 0 0 5 ey's
          /wVleSdz
        >
        e 0 90 38 64
        e 120 80 38 00
        <x 120 0 0 0 5 not#
          /wVub3Qj
        >
        e 0 90 32 64
        e 120 80 32 00
        <x 120 0 0 0 5 con-#
          /wVjb24tIw==
        >
        e 0 90 32 64
        e 120 80 32 00
        <x 120 0 0 0 5 cerned#
          /wVjZXJuZWQj
        >
        e 0 90 32 64
        e 90 80 32 00
        <x 90 0 0 0 5 a-#
          /wVhLSM=
        >
        e 0 90 32 64
        e 60 80 32 00
        <x 60 0 0 0 5 bout#
          /wVib3V0Iw==
        >
        e 0 90 32 64
        e 90 80 32 00
        <x 90 0 0 0 5 the#
          /wV0aGUj
        >
        e 0 90 32 64
        e 120 80 32 00
        <x 120 0 0 0 5 sick#
          /wVzaWNrIw==
        >
        e 0 90 32 64
        e 180 80 32 00
        <x 60 0 0 0 5 a-#
          /wVhLSM=
        >
        e 0 90 32 64
        e 90 80 32 00
        <x 90 0 0 0 5 mong#
          /wVtb25nIw==
        >
        e 0 90 32 64
        e 120 80 32 00
        <x 120 0 0 0 5 the#
          /wV0aGUj
        >
        e 0 90 32 64
        e 92 80 32 00
        <x 208 0 0 0 5 pure#
          /wVwdXJlIw==
        >
        e 0 90 32 64
        e 330 80 32 00
        e 135 80 69 00
        <x 255 0 0 0 5 God
          /wVHb2Q=
        >
        e 0 90 38 64
        e 0 90 69 69
        e 240 80 38 00
        <x 240 0 0 0 5 mon-
          /wVtb24t
        >
        e 0 90 38 64
        e 120 80 38 00
        <x 120 0 0 0 5 ey
          /wVleQ==
        >
        e 0 90 38 64
        e 120 80 38 00
        <x 120 0 0 0 5 let's#
          /wVsZXQncyM=
        >
        e 0 90 32 64
        e 120 80 32 00
        <x 120 0 0 0 5 go#
          /wVnbyM=
        >
        e 0 90 32 64
        e 120 80 32 00
        <x 120 0 0 0 5 danc-#
          /wVkYW5jLSM=
        >
        e 0 90 32 64
        e 180 80 32 00
        <x 60 0 0 0 5 ing#
          /wVpbmcj
        >
        e 0 90 32 64
        e 90 80 32 00
        <x 150 0 0 0 5 on#
          /wVvbiM=
        >
        e 0 90 32 64
        e 120 80 32 00
        <x 120 0 0 0 5 the#
          /wV0aGUj
        >
        e 0 90 32 64
        e 120 80 32 00
        <x 120 0 0 0 5 backs#
          /wViYWNrcyM=
        >
        e 0 90 32 64
        e 210 80 32 00
        <x 90 0 0 0 5 of#
          /wVvZiM=
        >
        e 0 90 32 64
        e 60 80 32 00
        <x 60 0 0 0 5 the#
          /wV0aGUj
        >
        e 0 90 32 64
        e 120 80 32 00
        <x 180 0 0 0 5 bruised#
          /wVicnVpc2VkIw==
        >
        e 0 90 32 64
        e 360 80 32 00
        e 60 80 69 00
        e 165 90 69 69
        <x 135 0 0 0 5 God
          /wVHb2Q=
        >
        e 0 90 38 64
        e 240 80 38 00
        <x 240 0 0 0 5 mon-
          /wVtb24t
        >
        e 0 90 38 64
        e 120 80 38 00
        <x 120 0 0 0 5 ey's
          /wVleSdz
        >
        e 0 90 38 64
        e 120 80 38 00
        <x 120 0 0 0 5 not
          /wVub3Q=
        >
        e 0 90 38 64
        e 240 80 38 00
        <x 240 0 0 0 5 one
          /wVvbmU=
        >
        e 0 90 39 64
        e 210 80 39 00
        <x 150 0 0 0 5 to
          /wV0bw==
        >
        e 0 90 38 64
        e 180 80 38 00
        <x 180 0 0 0 5 choose
          /wVjaG9vc2U=
        >
        e 0 90 36 64
        e 540 80 36 00
        e 60 80 69 00
        e 195 90 69 69
        <x 165 0 0 0 5 Oh
          /wVPaA==
        >
        e 0 90 3b 64
        e 300 80 3b 00
        <x 180 0 0 0 5 you
          /wV5b3U=
        >
        e 0 90 3b 64
        e 120 80 3b 00
        <x 120 0 0 0 5 can't
          /wVjYW4ndA==
        >
        e 0 90 3b 64
        e 240 80 3b 00
        <x 240 0 0 0 5 take
          /wV0YWtl
        >
        e 0 90 38 64
        e 120 80 38 00
        <x 120 0 0 0 5 it
          /wVpdA==
        >
        e 0 90 34 64
        e 120 80 34 00
        <x 360 0 0 0 5 no
          /wVubw==
        >
        e 0 90 3b 64
        e 300 80 3b 00
        <x 180 0 0 0 5 you
          /wV5b3U=
        >
        e 0 90 3b 64
        e 120 80 3b 00
        <x 120 0 0 0 5 can't
          /wVjYW4ndA==
        >
        e 0 90 3b 64
        e 240 80 3b 00
        <x 240 0 0 0 5 take
          /wV0YWtl
        >
        e 0 90 38 64
        e 120 80 38 00
        <x 120 0 0 0 5 it
          /wVpdA==
        >
        e 0 90 34 64
        e 120 80 34 00
        <x 360 0 0 0 5 No
          /wVObw==
        >
        e 0 90 3b 64
        e 300 80 3b 00
        <x 180 0 0 0 5 you
          /wV5b3U=
        >
        e 0 90 3b 64
        e 120 80 3b 00
        <x 120 0 0 0 5 can't
          /wVjYW4ndA==
        >
        e 0 90 3b 64
        e 180 80 3b 00
        <x 300 0 0 0 5 take
          /wV0YWtl
        >
        e 0 90 3b 64
        e 180 80 3b 00
        <x 300 0 0 0 5 that
          /wV0aGF0
        >
        e 0 90 3b 64
        e 120 80 3b 00
        <x 120 0 0 0 5 a-
          /wVhLQ==
        >
        e 0 90 3b 64
        e 120 80 3b 00
        <x 120 0 0 0 5 way
          /wV3YXk=
        >
        e 0 90 39 64
        e 120 80 39 00
        <x 120 0 0 0 5 from
          /wVmcm9t
        >
        e 0 90 38 64
        e 150 80 38 00
        <x 30 0 0 0 5 +
          /wUr
        >
        e 0 90 36 64
        e 180 80 36 00
        <x 120 0 0 0 5 me
          /wVtZQ==
        >
        e 0 90 36 64
        e 360 80 36 00
        e 45 80 69 00
        e 330 90 69 69
        <x 225 0 0 0 5 No
          /wVObw==
        >
        e 0 90 3b 64
        e 300 80 3b 00
        <x 180 0 0 0 5 you
          /wV5b3U=
        >
        e 0 90 3b 64
        e 120 80 3b 00
        <x 120 0 0 0 5 can't
          /wVjYW4ndA==
        >
        e 0 90 3b 64
        e 210 80 3b 00
        <x 270 0 0 0 5 take
          /wV0YWtl
        >
        e 0 90 38 64
        e 120 80 38 00
        <x 120 0 0 0 5 it
          /wVpdA==
        >
        e 0 90 34 64
        e 120 80 34 00
        <x 360 0 0 0 5 don't
          /wVkb24ndA==
        >
        e 0 90 34 64
        e 90 80 34 00
        <x 150 0 0 0 5 e-
          /wVlLQ==
        >
        e 0 90 3d 64
        e 150 80 3d 00
        <x 90 0 0 0 5 ven
          /wV2ZW4=
        >
        e 0 90 3b 64
        e 150 80 3b 00
        <x 90 0 0 0 5 try
          /wV0cnk=
        >
        e 0 90 36 64
        e 150 80 36 00
        <x 90 0 0 0 5 to
          /wV0bw==
        >
        e 0 90 38 64
        e 120 80 38 00
        <x 120 0 0 0 5 take
          /wV0YWtl
        >
        e 0 90 36 64
        e 120 80 36 00
        <x 120 0 0 0 5 it
          /wVpdA==
        >
        e 0 90 34 64
        e 120 80 34 00
        <x 360 0 0 0 5 Cause
          /wVDYXVzZQ==
        >
        e 0 90 3b 64
        e 360 80 3b 00
        <x 120 0 0 0 5 you
          /wV5b3U=
        >
        e 0 90 3b 64
        e 120 80 3b 00
        <x 120 0 0 0 5 can't
          /wVjYW4ndA==
        >
        e 0 90 3b 64
        e 180 80 3b 00
        <x 300 0 0 0 5 take
          /wV0YWtl
        >
        e 0 90 3b 64
        e 180 80 3b 00
        <x 300 0 0 0 5 that
          /wV0aGF0
        >
        e 0 90 3b 64
        e 120 80 3b 00
        <x 120 0 0 0 5 a-
          /wVhLQ==
        >
        e 0 90 3b 64
        e 120 80 3b 00
        <x 120 0 0 0 5 way
          /wV3YXk=
        >
        e 0 90 3d 64
        e 180 80 3d 00
        <x 120 0 0 0 5 from
          /wVmcm9t
        >
        e 0 90 40 64
        e 270 80 40 00
        <x 150 0 0 0 5 me
          /wVtZQ==
        >
        e 0 90 3f 64
        e 450 80 3f 00
        e 45 80 69 00
        e 375 90 69 69
        <x 90 0 0 0 5 With
          /wVXaXRo
        >
        e 0 90 34 64
        e 60 80 34 00
        <x 60 0 0 0 5 a
          /wVh
        >
        e 0 90 34 64
        e 60 80 34 00
        <x 60 0 0 0 5 head
          /wVoZWFk
        >
        e 0 90 40 64
        e 120 80 40 00
        <x 120 0 0 0 5 like
          /wVsaWtl
        >
        e 0 90 40 64
        e 120 80 40 00
        <x 120 0 0 0 5 a
          /wVh
        >
        e 0 90 3b 64
        e 120 80 3b 00
        <x 120 0 0 0 5 hole
          /wVob2xl
        >
        e 0 90 40 64
        e 240 80 40 00
        <x 300 0 0 0 5 +
          /wUr
        >
        e 0 90 3b 64
        e 1 80 3b 00
        <x 659 0 0 0 5 black
          /wVibGFjaw==
        >
        e 0 90 40 64
        e 120 80 40 00
        <x 120 0 0 0 5 as
          /wVhcw==
        >
        e 0 90 40 64
        e 120 80 40 00
        <x 120 0 0 0 5 your
          /wV5b3Vy
        >
        e 0 90 3b 64
        e 120 80 3b 00
        <x 180 0 0 0 5 soul
          /wVzb3Vs
        >
        e 0 90 40 64
        e 360 80 40 00
        <x 180 0 0 0 5 +
          /wUr
        >
        e 0 90 3b 64
        e 1 80 3b 00
        <x 599 0 0 0 5 I'd
          /wVJJ2Q=
        >
        e 0 90 40 64
        e 120 80 40 00
        <x 120 0 0 0 5 rath-
          /wVyYXRoLQ==
        >
        e 0 90 40 64
        e 120 80 40 00
        <x 120 0 0 0 5 er
          /wVlcg==
        >
        e 0 90 3b 64
        e 120 80 3b 00
        <x 120 0 0 0 5 die
          /wVkaWU=
        >
        e 0 90 40 64
        e 480 80 40 00
        <x 480 0 0 0 5 than
          /wV0aGFu
        >
        e 0 90 34 64
        e 120 80 34 00
        <x 120 0 0 0 5 give
          /wVnaXZl
        >
        e 0 90 40 64
        e 120 80 40 00
        <x 120 0 0 0 5 you
          /wV5b3U=
        >
        e 0 90 40 64
        e 120 80 40 00
        <x 120 0 0 0 5 con-
          /wVjb24t
        >
        e 0 90 42 64
        e 120 80 42 00
        <x 120 0 0 0 5 trol
          /wV0cm9s
        >
        e 0 90 3f 64
        e 480 80 3f 00
        e 120 80 69 00
        e 525 90 69 69
        <x 75 0 0 0 5 Head
          /wVIZWFk
        >
        e 0 90 40 64
        e 120 80 40 00
        <x 120 0 0 0 5 like
          /wVsaWtl
        >
        e 0 90 40 64
        e 120 80 40 00
        <x 120 0 0 0 5 a
          /wVh
        >
        e 0 90 3b 64
        e 120 80 3b 00
        <x 120 0 0 0 5 hole
          /wVob2xl
        >
        e 0 90 40 64
        e 180 80 40 00
        <x 360 0 0 0 5 +
          /wUr
        >
        e 0 90 3b 64
        e 2 80 3b 00
        <x 658 0 0 0 5 black
          /wVibGFjaw==
        >
        e 0 90 40 64
        e 120 80 40 00
        <x 120 0 0 0 5 as
          /wVhcw==
        >
        e 0 90 40 64
        e 120 80 40 00
        <x 120 0 0 0 5 your
          /wV5b3Vy
        >
        e 0 90 3b 64
        e 90 80 3b 00
        <x 210 0 0 0 5 soul
          /wVzb3Vs
        >
        e 0 90 40 64
        e 270 80 40 00
        <x 210 0 0 0 5 +
          /wUr
        >
        e 0 90 3b 64
        e 2 80 3b 00
        <x 658 0 0 0 5 I'd
          /wVJJ2Q=
        >
        e 0 90 40 64
        e 120 80 40 00
        <x 120 0 0 0 5 rath-
          /wVyYXRoLQ==
        >
        e 0 90 40 64
        e 120 80 40 00
        <x 120 0 0 0 5 er
          /wVlcg==
        >
        e 0 90 3b 64
        e 120 80 3b 00
        <x 120 0 0 0 5 die
          /wVkaWU=
        >
        e 0 90 40 64
        e 450 80 40 00
        <x 510 0 0 0 5 than
          /wV0aGFu
        >
        e 0 90 34 64
        e 120 80 34 00
        <x 120 0 0 0 5 give
          /wVnaXZl
        >
        e 0 90 40 64
        e 120 80 40 00
        <x 120 0 0 0 5 you
          /wV5b3U=
        >
        e 0 90 40 64
        e 120 80 40 00
        <x 120 0 0 0 5 con-
          /wVjb24t
        >
        e 0 90 40 64
        e 120 80 40 00
        <x 120 0 0 0 5 trol
          /wV0cm9s
        >
        e 0 90 3b 64
        e 210 80 3b 00
        <x 30 0 0 0 5 +
          /wUr
        >
        e 0 90 3f 64
        e 210 80 3f 00
        <x 30 0 0 0 5 +
          /wUr
        >
        e 0 90 3b 64
        e 210 80 3b 00
        <x 30 0 0 0 5 +
          /wUr
        >
        e 0 90 3d 64
        e 210 80 3d 00
        <x 30 0 0 0 5 +
          /wUr
        >
        e 0 90 38 64
        e 210 80 38 00
        <x 30 0 0 0 5 +
          /wUr
        >
        e 0 90 3b 64
        e 360 80 3b 00
        e 600 80 69 00
        e 405 90 69 69
        <x 75 0 0 0 5 Bow
          /wVCb3c=
        >
        e 0 90 40 64
        e 240 80 40 00
        <x 240 0 0 0 5 down
          /wVkb3du
        >
        e 0 90 40 64
        e 240 80 40 00
        <x 240 0 0 0 5 be-
          /wViZS0=
        >
        e 0 90 40 64
        e 120 80 40 00
        <x 120 0 0 0 5 fore
          /wVmb3Jl
        >
        e 0 90 3f 64
        e 480 80 3f 00
        e 465 80 69 00
        e 1230 90 69 69
        <x 465 0 0 0 5 the
          /wV0aGU=
        >
        e 0 90 40 64
        e 180 80 40 00
        <x 120 0 0 0 5 one
          /wVvbmU=
        >
        e 0 90 40 64
        e 240 80 40 00
        <x 180 0 0 0 5 you
          /wV5b3U=
        >
        e 0 90 40 64
        e 270 80 40 00
        <x 210 0 0 0 5 serve
          /wVzZXJ2ZQ==
        >
        e 0 90 3f 64
        e 540 80 3f 00
        e 345 80 69 00
        e 1170 90 69 69
        <x 585 0 0 0 5 You're
          /wVZb3UncmU=
        >
        e 0 90 40 64
        e 240 80 40 00
        <x 240 0 0 0 5 gon-
          /wVnb24t
        >
        e 0 90 40 64
        e 120 80 40 00
        <x 120 0 0 0 5 na
          /wVuYQ==
        >
        e 0 90 40 64
        e 240 80 40 00
        <x 240 0 0 0 5 get
          /wVnZXQ=
        >
        e 0 90 3f 64
        e 240 80 3f 00
        e 1065 80 69 00
        e 795 90 69 69
        <x 540 0 0 0 5 what
          /wV3aGF0
        >
        e 0 90 40 64
        e 240 80 40 00
        <x 240 0 0 0 5 you
          /wV5b3U=
        >
        e 0 90 40 64
        e 120 80 40 00
        <x 120 0 0 0 5 de-
          /wVkZS0=
        >
        e 0 90 40 64
        e 240 80 40 00
        <x 240 0 0 0 5 serve
          /wVzZXJ2ZQ==
        >
        e 0 90 3f 64
        e 420 80 3f 00
        e 435 80 69 00
        e 1710 90 69 69
        <x 795 0 0 0 5 Dar-#
          /wVEYXItIw==
        >
        e 0 90 32 64
        e 120 80 32 00
        <x 120 0 0 0 5 ling#
          /wVsaW5nIw==
        >
        e 0 90 32 64
        e 150 80 32 00
        <x 1350 0 0 0 5 hon-#
          /wVob24tIw==
        >
        e 0 90 32 64
        e 60 80 32 00
        <x 60 0 0 0 5 ey-#
          /wVleS0j
        >
        e 0 90 32 64
        e 120 80 32 00
        <x 60 0 0 0 5 pie#
          /wVwaWUj
        >
        e 0 90 32 64
        e 240 80 32 00
        e 600 80 69 00
        e 660 90 69 69
        <x 180 0 0 0 5 You#
          /wVZb3Uj
        >
        e 0 90 32 64
        e 60 80 32 00
        <x 60 0 0 0 5 know#
          /wVrbm93Iw==
        >
        e 0 90 32 64
        e 60 80 32 00
        <x 60 0 0 0 5 I#
          /wVJIw==
        >
        e 0 90 32 64
        e 90 80 32 00
        <x 90 0 0 0 5 love#
          /wVsb3ZlIw==
        >
        e 0 90 32 64
        e 120 80 32 00
        <x 60 0 0 0 5 you#
          /wV5b3Uj
        >
        e 0 90 32 64
        e 90 80 32 00
        <x 150 0 0 0 5 more#
          /wVtb3JlIw==
        >
        e 0 90 32 64
        e 90 80 32 00
        <x 90 0 0 0 5 than#
          /wV0aGFuIw==
        >
        e 0 90 32 64
        e 120 80 32 00
        <x 120 0 0 0 5 words#
          /wV3b3JkcyM=
        >
        e 0 90 32 64
        e 120 80 32 00
        <x 120 0 0 0 5 can#
          /wVjYW4j
        >
        e 0 90 32 64
        e 120 80 32 00
        <x 120 0 0 0 5 say#
          /wVzYXkj
        >
        e 0 90 32 64
        e 180 80 32 00
        e 585 80 69 00
        e 255 90 69 69
        <x 360 0 0 0 5 But#
          /wVCdXQj
        >
        e 0 90 32 64
        e 60 80 32 00
        <x 60 0 0 0 5 there's#
          /wV0aGVyZSdzIw==
        >
        e 0 90 32 64
        e 90 80 32 00
        <x 90 0 0 0 5 some-#
          /wVzb21lLSM=
        >
        e 0 90 32 64
        e 120 80 32 00
        <x 60 0 0 0 5 thing#
          /wV0aGluZyM=
        >
        e 0 90 32 64
        e 60 80 32 00
        <x 60 0 0 0 5 I#
          /wVJIw==
        >
        e 0 90 32 64
        e 60 80 32 00
        <x 60 0 0 0 5 need#
          /wVuZWVkIw==
        >
        e 0 90 32 64
        e 90 80 32 00
        <x 90 0 0 0 5 to#
          /wV0byM=
        >
        e 0 90 32 64
        e 90 80 32 00
        <x 90 0 0 0 5 tell#
          /wV0ZWxsIw==
        >
        e 0 90 32 64
        e 120 80 32 00
        <x 120 0 0 0 5 ya#
          /wV5YSM=
        >
        e 0 90 32 64
        e 180 80 32 00
        e 525 80 69 00
        e 1350 90 69 69
        <x 705 0 0 0 5 It's#
          /wVJdCdzIw==
        >
        e 0 90 32 64
        e 60 80 32 00
        <x 60 0 0 0 5 a-#
          /wVhLSM=
        >
        e 0 90 32 64
        e 60 80 32 00
        <x 60 0 0 0 5 bout#
          /wVib3V0Iw==
        >
        e 0 90 32 64
        e 120 80 32 00
        <x 60 0 0 0 5 your#
          /wV5b3VyIw==
        >
        e 0 90 32 64
        e 120 80 32 00
        <x 120 0 0 0 5 head#
          /wVoZWFkIw==
        >
        e 0 90 32 64
        e 150 80 32 00
        e 960 80 69 00
        e 390 90 69 69
        <x 120 0 0 0 5 Late-#
          /wVMYXRlLSM=
        >
        e 0 90 32 64
        e 120 80 32 00
        <x 120 0 0 0 5 ly#
          /wVseSM=
        >
        e 0 90 32 64
        e 120 80 32 00
        <x 120 0 0 0 5 it's#
          /wVpdCdzIw==
        >
        e 0 90 32 64
        e 120 80 32 00
        <x 120 0 0 0 5 been#
          /wViZWVuIw==
        >
        e 0 90 32 64
        e 120 80 32 00
        <x 240 0 0 0 5 look-#
          /wVsb29rLSM=
        >
        e 0 90 32 64
        e 60 80 32 00
        <x 60 0 0 0 5 ing#
          /wVpbmcj
        >
        e 0 90 32 64
        e 60 80 32 00
        <x 60 0 0 0 5 a-#
          /wVhLSM=
        >
        e 0 90 32 64
        e 60 80 32 00
        <x 60 0 0 0 5 lot#
          /wVsb3Qj
        >
        e 0 90 32 64
        e 120 80 32 00
        <x 120 0 0 0 5 like#
          /wVsaWtlIw==
        >
        e 0 90 32 64
        e 120 80 32 00
        e 360 80 69 00
        <x 240 0 0 0 5 well#
          /wV3ZWxsIw==
        >
        e 0 90 69 69
        e 0 90 32 64
        e 120 80 32 00
        <x 360 0 0 0 5 kind#
          /wVraW5kIw==
        >
        e 0 90 32 64
        e 60 80 32 00
        <x 60 0 0 0 5 of#
          /wVvZiM=
        >
        e 0 90 32 64
        e 60 80 32 00
        <x 60 0 0 0 5 like#
          /wVsaWtlIw==
        >
        e 0 90 32 64
        e 60 80 32 00
        <x 60 0 0 0 5 a#
          /wVhIw==
        >
        e 0 90 32 64
        e 120 80 32 00
        <x 120 0 0 0 5 hole#
          /wVob2xlIw==
        >
        e 0 90 32 64
        e 180 80 32 00
        <x 60 0 0 0 5 ac-#
          /wVhYy0j
        >
        e 0 90 32 64
        e 120 80 32 00
        <x 60 0 0 0 5 tual-#
          /wV0dWFsLSM=
        >
        e 0 90 32 64
        e 120 80 32 00
        <x 60 0 0 0 5 ly#
          /wVseSM=
        >
        e 0 90 32 64
        e 180 80 32 00
        <x 210 0 0 0 5 It's#
          /wVJdCdzIw==
        >
        e 0 90 32 64
        e 60 80 32 00
        <x 30 0 0 0 5 all#
          /wVhbGwj
        >
        e 0 90 32 64
        e 180 80 32 00
        e 120 80 69 00
        e 255 90 69 69
        <x 165 0 0 0 5 big#
          /wViaWcj
        >
        e 0 90 32 64
        e 60 80 32 00
        <x 60 0 0 0 5 and#
          /wVhbmQj
        >
        e 0 90 32 64
        e 120 80 32 00
        <x 180 0 0 0 5 black#
          /wVibGFjayM=
        >
        e 0 90 32 64
        e 150 80 32 00
        <x 90 0 0 0 5 and#
          /wVhbmQj
        >
        e 0 90 32 64
        e 90 80 32 00
        <x 150 0 0 0 5 emp-#
          /wVlbXAtIw==
        >
        e 0 90 32 64
        e 120 80 32 00
        <x 180 0 0 0 5 ty#
          /wV0eSM=
        >
        e 0 90 32 64
        e 90 80 32 00
        <x 90 0 0 0 5 and#
          /wVhbmQj
        >
        e 0 90 32 64
        e 120 80 32 00
        e 120 80 69 00
        e 315 90 69 69
        <x 165 0 0 0 5 To#
          /wVUbyM=
        >
        e 0 90 32 64
        e 60 80 32 00
        <x 60 0 0 0 5 be#
          /wViZSM=
        >
        e 0 90 32 64
        e 120 80 32 00
        <x 60 0 0 0 5 hon-#
          /wVob24tIw==
        >
        e 0 90 32 64
        e 120 80 32 00
        <x 120 0 0 0 5 est#
          /wVlc3Qj
        >
        e 0 90 32 64
        e 60 80 32 00
        <x 60 0 0 0 5 it#
          /wVpdCM=
        >
        e 0 90 32 64
        e 90 80 32 00
        <x 270 0 0 0 5 kin-#
          /wVraW4tIw==
        >
        e 0 90 32 64
        e 90 80 32 00
        <x 30 0 0 0 5 da#
          /wVkYSM=
        >
        e 0 90 32 64
        e 60 80 32 00
        <x 30 0 0 0 5 re-#
          /wVyZS0j
        >
        e 0 90 32 64
        e 90 80 32 00
        <x 60 0 0 0 5 minds#
          /wVtaW5kcyM=
        >
        e 0 90 32 64
        e 120 80 32 00
        <x 60 0 0 0 5 me#
          /wVtZSM=
        >
        e 0 90 32 64
        e 60 80 32 00
        <x 60 0 0 0 5 of#
          /wVvZiM=
        >
        e 0 90 32 64
        e 60 80 32 00
        <x 60 0 0 0 5 your#
          /wV5b3VyIw==
        >
        e 0 90 32 64
        e 150 80 32 00
        <x 150 0 0 0 5 soul#
          /wVzb3VsIw==
        >
        e 0 90 32 64
        e 360 80 32 00
        e 180 80 69 00
        e 540 90 69 69
        <x 60 0 0 0 5 And#
          /wVBbmQj
        >
        e 0 90 32 64
        e 60 80 32 00
        <x 60 0 0 0 5 then#
          /wV0aGVuIw==
        >
        e 0 90 32 64
        e 60 80 32 00
        <x 60 0 0 0 5 when#
          /wV3aGVuIw==
        >
        e 0 90 32 64
        e 60 80 32 00
        <x 60 0 0 0 5 you#
          /wV5b3Uj
        >
        e 0 90 32 64
        e 60 80 32 00
        <x 60 0 0 0 5 take#
          /wV0YWtlIw==
        >
        e 0 90 32 64
        e 120 80 32 00
        <x 60 0 0 0 5 all#
          /wVhbGwj
        >
        e 0 90 32 64
        e 60 80 32 00
        <x 60 0 0 0 5 of#
          /wVvZiM=
        >
        e 0 90 32 64
        e 60 80 32 00
        <x 60 0 0 0 5 that#
          /wV0aGF0Iw==
        >
        e 0 90 32 64
        e 180 80 32 00
        <x 60 0 0 0 5 And#
          /wVBbmQj
        >
        e 0 90 32 64
        e 120 80 32 00
        <x 60 0 0 0 5 com-#
          /wVjb20tIw==
        >
        e 0 90 32 64
        e 120 80 32 00
        <x 180 0 0 0 5 bine#
          /wViaW5lIw==
        >
        e 0 90 32 64
        e 120 80 32 00
        <x 60 0 0 0 5 it#
          /wVpdCM=
        >
        e 0 90 32 64
        e 60 80 32 00
        <x 30 0 0 0 5 with#
          /wV3aXRoIw==
        >
        e 0 90 32 64
        e 60 80 32 00
        <x 60 0 0 0 5 The#
          /wVUaGUj
        >
        e 0 90 32 64
        e 60 80 32 00
        <x 30 0 0 0 5 way#
          /wV3YXkj
        >
        e 0 90 32 64
        e 60 80 32 00
        <x 60 0 0 0 5 that#
          /wV0aGF0Iw==
        >
        e 0 90 32 64
        e 60 80 32 00
        <x 30 0 0 0 5 you're#
          /wV5b3UncmUj
        >
        e 0 90 32 64
        e 60 80 32 00
        <x 60 0 0 0 5 try-#
          /wV0cnktIw==
        >
        e 0 90 32 64
        e 60 80 32 00
        <x 30 0 0 0 5 ing#
          /wVpbmcj
        >
        e 0 90 32 64
        e 60 80 32 00
        <x 60 0 0 0 5 to#
          /wV0byM=
        >
        e 0 90 32 64
        e 60 80 32 00
        <x 60 0 0 0 5 get#
          /wVnZXQj
        >
        e 0 90 32 64
        e 60 80 32 00
        <x 120 0 0 0 5 me#
          /wVtZSM=
        >
        e 0 90 32 64
        e 60 80 32 00
        <x 60 0 0 0 5 to#
          /wV0byM=
        >
        e 0 90 32 64
        e 60 80 32 00
        <x 60 0 0 0 5 give#
          /wVnaXZlIw==
        >
        e 0 90 32 64
        e 60 80 32 00
        <x 30 0 0 0 5 you#
          /wV5b3Uj
        >
        e 0 90 32 64
        e 62 80 32 00
        <x 118 0 0 0 5 con-#
          /wVjb24tIw==
        >
        e 0 90 32 64
        e 120 80 32 00
        <x 60 0 0 0 5 trol#
          /wV0cm9sIw==
        >
        e 0 90 32 64
        e 240 80 32 00
        <x 150 0 0 0 5 Well#
          /wVXZWxsIw==
        >
        e 0 90 32 64
        e 60 80 32 00
        <x 60 0 0 0 5 I'd#
          /wVJJ2Qj
        >
        e 0 90 32 64
        e 180 80 32 00
        <x 120 0 0 0 5 rath-#
          /wVyYXRoLSM=
        >
        e 0 90 32 64
        e 120 80 32 00
        <x 60 0 0 0 5 er#
          /wVlciM=
        >
        e 0 90 32 64
        e 210 80 32 00
        <x 150 0 0 0 5 die!#
          /wVkaWUhIw==
        >
        e 0 90 32 64
        e 600 80 32 00
        e 120 80 69 00
        e 435 90 69 69
        <x 45 0 0 0 5 Bow
          /wVCb3c=
        >
        e 0 90 40 64
        e 240 80 40 00
        <x 240 0 0 0 5 down
          /wVkb3du
        >
        e 0 90 40 64
        e 240 80 40 00
        <x 240 0 0 0 5 be-
          /wViZS0=
        >
        e 0 90 40 64
        e 120 80 40 00
        <x 120 0 0 0 5 fore
          /wVmb3Jl
        >
        e 0 90 3f 64
        e 480 80 3f 00
        e 165 80 69 00
        e 1710 90 69 69
        <x 285 0 0 0 5 the
          /wV0aGU=
        >
        e 0 90 40 64
        e 120 80 40 00
        <x 120 0 0 0 5 one
          /wVvbmU=
        >
        e 0 90 40 64
        e 300 80 40 00
        <x 180 0 0 0 5 you
          /wV5b3U=
        >
        e 0 90 40 64
        e 300 80 40 00
        <x 180 0 0 0 5 serve
          /wVzZXJ2ZQ==
        >
        e 0 90 3f 64
        e 600 80 3f 00
        e 1215 80 69 00
        e 480 90 69 69
        <x 345 0 0 0 5 You're
          /wVZb3UncmU=
        >
        e 0 90 40 64
        e 360 80 40 00
        <x 120 0 0 0 5 gon-
          /wVnb24t
        >
        e 0 90 40 64
        e 180 80 40 00
        <x 120 0 0 0 5 na
          /wVuYQ==
        >
        e 0 90 40 64
        e 180 80 40 00
        <x 240 0 0 0 5 get
          /wVnZXQ=
        >
        e 0 90 3f 64
        e 240 80 3f 00
        e 945 80 69 00
        e 1005 90 69 69
        <x 450 0 0 0 5 What
          /wVXaGF0
        >
        e 0 90 40 64
        e 330 80 40 00
        <x 150 0 0 0 5 you
          /wV5b3U=
        >
        e 0 90 40 64
        e 180 80 40 00
        <x 120 0 0 0 5 de-
          /wVkZS0=
        >
        e 0 90 40 64
        e 180 80 40 00
        <x 240 0 0 0 5 serve
          /wVzZXJ2ZQ==
        >
        e 0 90 3f 64
        e 600 80 3f 00
        e 405 80 69 00
        e 1080 90 69 69
        <x 555 0 0 0 5 Bow
          /wVCb3c=
        >
        e 0 90 40 64
        e 240 80 40 00
        <x 240 0 0 0 5 down
          /wVkb3du
        >
        e 0 90 40 64
        e 240 80 40 00
        <x 240 0 0 0 5 be-
          /wViZS0=
        >
        e 0 90 40 64
        e 120 80 40 00
        <x 120 0 0 0 5 fore
          /wVmb3Jl
        >
        e 0 90 3f 64
        e 540 80 3f 00
        e 90 80 69 00
        e 405 90 69 69
        <x 165 0 0 0 5 bow
          /wVib3c=
        >
        e 0 90 42 64
        e 120 80 42 00
        <x 120 0 0 0 5 down
          /wVkb3du
        >
        e 0 90 40 64
        e 120 80 40 00
        <x 120 0 0 0 5 be-
          /wViZS0=
        >
        e 0 90 3f 64
        e 120 80 3f 00
        <x 120 0 0 0 5 fore
          /wVmb3Jl
        >
        e 0 90 42 64
        e 180 80 42 00
        <x 60 0 0 0 5 +
          /wUr
        >
        e 0 90 40 64
        e 240 80 40 00
        <x 240 0 0 0 5 The
          /wVUaGU=
        >
        e 0 90 40 64
        e 120 80 40 00
        <x 120 0 0 0 5 one
          /wVvbmU=
        >
        e 0 90 40 64
        e 240 80 40 00
        <x 240 0 0 0 5 you
          /wV5b3U=
        >
        e 0 90 40 64
        e 240 80 40 00
        <x 240 0 0 0 5 serve
          /wVzZXJ2ZQ==
        >
        e 0 90 3f 64
        e 480 80 3f 00
        <x 240 0 0 0 5 the
          /wV0aGU=
        >
        e 0 90 2f 64
        e 120 80 2f 00
        <x 120 0 0 0 5 one
          /wVvbmU=
        >
        e 0 90 2f 64
        e 300 80 2f 00
        <x 180 0 0 0 5 you
          /wV5b3U=
        >
        e 0 90 2f 64
        e 300 80 2f 00
        <x 180 0 0 0 5 serve
          /wVzZXJ2ZQ==
        >
        e 0 90 28 64
        e 450 80 28 00
        e 15 80 69 00
        e 240 90 69 69
        <x 15 0 0 0 5 You're
          /wVZb3UncmU=
        >
        e 0 90 40 64
        e 360 80 40 00
        <x 120 0 0 0 5 gon-
          /wVnb24t
        >
        e 0 90 40 64
        e 180 80 40 00
        <x 120 0 0 0 5 na
          /wVuYQ==
        >
        e 0 90 40 64
        e 180 80 40 00
        <x 240 0 0 0 5 get
          /wVnZXQ=
        >
        e 0 90 3f 64
        e 240 80 3f 00
        <x 270 0 0 0 5 you're
          /wV5b3UncmU=
        >
        e 0 90 3f 64
        e 120 80 3f 00
        <x 122 0 0 0 5 gon-
          /wVnb24t
        >
        e 0 90 40 64
        e 118 80 40 00
        <x 120 0 0 0 5 na
          /wVuYQ==
        >
        e 0 90 3f 64
        e 120 80 3f 00
        <x 120 0 0 0 5 get
          /wVnZXQ=
        >
        e 0 90 42 64
        e 180 80 42 00
        <x 302 0 0 0 5 now
          /wVub3c=
        >
        e 0 90 3d 64
        e 178 80 3d 00
        <x 60 0 0 0 5 +
          /wUr
        >
        e 0 90 3b 64
        e 270 80 3b 00
        <x 420 0 0 0 5 What
          /wVXaGF0
        >
        e 0 90 40 64
        e 240 80 40 00
        <x 240 0 0 0 5 you
          /wV5b3U=
        >
        e 0 90 40 64
        e 120 80 40 00
        <x 120 0 0 0 5 de-
          /wVkZS0=
        >
        e 0 90 40 64
        e 240 80 40 00
        <x 240 0 0 0 5 serve
          /wVzZXJ2ZQ==
        >
        e 0 90 3f 64
        e 480 80 3f 00
        e 480 80 69 00
        e 1110 90 69 69
        <x 90 0 0 0 5 Aah
          /wVBYWg=
        >
        e 0 90 2f 64
        e 1860 80 2f 00
        <x 60 0 0 0 5 +
          /wUr
        >
        e 0 90 33 64
        e 1860 80 33 00
        <x 60 0 0 0 5 +
          /wUr
        >
        e 0 90 36 64
        e 1920 80 36 00
        <x 240 0 0 0 5 You've
          /wVZb3UndmU=
        >
        e 0 90 3f 64
        e 120 80 3f 00
        <x 120 0 0 0 5 got
          /wVnb3Q=
        >
        e 0 90 3f 64
        e 150 80 3f 00
        <x 90 0 0 0 5 a
          /wVh
        >
        e 0 90 3f 64
        e 120 80 3f 00
        <x 120 0 0 0 5 head
          /wVoZWFk
        >
        e 0 90 3f 64
        e 120 80 3f 00
        <x 120 0 0 0 5 like
          /wVsaWtl
        >
        e 0 90 3f 64
        e 120 80 3f 00
        <x 120 0 0 0 5 a
          /wVh
        >
        e 0 90 3f 64
        e 120 80 3f 00
        <x 120 0 0 0 5 hole
          /wVob2xl
        >
        e 0 90 40 64
        e 180 80 40 00
        e 300 80 69 00
        E 1680 b0 7b 00
        CCINTERP 32
        GUID {C9A1A4CA-4224-4672-91C0-075BEB2A8650}
        IGNTEMPO 0 120 4 4
        SRCCOLOR 5
        VELLANE 132 123 128 0 1
        TEXTSTRINGFILE "Text Events List.txt"
        CFGEDITVIEW 0 0.005638 20 12 0 -1 0 0 0 0.5
        KEYSNAP 0
        TRACKSEL 269
        EVTFILTER 0 -1 -1 -1 -1 0 1 0 0 -1 -1 -1 -1 0 -1 0 -1 -1
        CFGEDIT 1 1 0 0 0 1 1 1 1 1 1 0.25 0 0 683 728 1 0 0 1 0.125 0 1 0 0 0.5 1 0 1 64
      >
    >
  >
  <TRACK {E60BCF67-80FD-4554-840A-5B0B5C2E06A0}
    NAME HARM1
    PEAKCOL 24624127
    BEAT -1
    AUTOMODE 0
    VOLPAN 1 0 -1 -1 1
    MUTESOLO 1 0 0
    IPHASE 0
    PLAYOFFS 0 1
    ISBUS 0 0
    BUSCOMP 0 0 0 0 0
    SHOWINMIX 1 0.6667 0.5 1 0.5 -1 -1 -1
    SEL 0
    REC 0 0 0 0 0 0 0 0
    TRACKHEIGHT 0 0 0 0 0 0 0
    INQ 0 0 0 0.5 100 0 0 100
    NCHAN 2
    FX 1
    TRACKID {E60BCF67-80FD-4554-840A-5B0B5C2E06A0}
    PERF 0
    MIDIOUT -1
    <MIDINOTENAMES
      0 0 "Range Shift" 0 0
      0 1 "Lyric Shift" 0 1
      0 36 C1 0 36
      0 37 C# 0 37
      0 38 D 0 38
      0 39 Eb 0 39
      0 40 E 0 40
      0 41 F 0 41
      0 42 F# 0 42
      0 43 G 0 43
      0 44 G# 0 44
      0 45 A 0 45
      0 46 Bb 0 46
      0 47 B 0 47
      0 48 C2 0 48
      0 49 C# 0 49
      0 50 D 0 50
      0 51 Eb 0 51
      0 52 E 0 52
      0 53 F 0 53
      0 54 F# 0 54
      0 55 G 0 55
      0 56 G# 0 56
      0 57 A 0 57
      0 58 Bb 0 58
      0 59 B 0 59
      0 60 C3 0 60
      0 61 C# 0 61
      0 62 D 0 62
      0 63 Eb 0 63
      0 64 E 0 64
      0 65 F 0 65
      0 66 F# 0 66
      0 67 G 0 67
      0 68 G# 0 68
      0 69 A 0 69
      0 70 Bb 0 70
      0 71 B 0 71
      0 72 C4 0 72
      0 73 C# 0 73
      0 74 D 0 74
      0 75 Eb 0 75
      0 76 E 0 76
      0 77 F 0 77
      0 78 F# 0 78
      0 79 G 0 79
      0 80 G# 0 80
      0 81 A 0 81
      0 82 Bb 0 82
      0 83 B 0 83
      0 84 C5 0 84
      0 95 ---- 0 95
      0 96 "Displayed Percussion" 0 96
      0 97 "Not Displayed Percussion" 0 97
      0 104 ---- 0 104
      0 105 "Phrase Marker" 0 105
      0 115 ---- 0 115
      0 116 OVERDRIVE 0 116
    >
    MAINSEND 1 0
    <FXCHAIN
      WNDRECT 786 197 716 493
      SHOW 0
      LASTSEL 1
      DOCKED 0
      BYPASS 0 0 0
      <JS "IX/MIDI_Tool II" ""
        0 85 127 0 0 0 100 0 0 127 0 0 1 0 0 - - - - - - - - - - - - - - - - - - - - - - - - - - - - - - - - - - - - - - - - - - - - - - - - -
      >
      FLOATPOS 0 0 0 0
      FXID {2E79298C-F056-441C-A64B-722C2599E1AA}
      WAK 0 0
      BYPASS 0 0 0
      <VST "VSTi: ReaSynth (Cockos)" reasynth.dll 0 "" 1919251321<5653547265737972656173796E746800> ""
        eXNlcu9e7f4AAAAAAgAAAAEAAAAAAAAAAgAAAAAAAABEAAAAAAAAAAAAAAA=
        776t3g3wrd6mm8Q7F7fROgAAAAAAAAAAAAAAAJr1Dz/pZ4g9AAAAAAAAAD8AAIA/AAAAAAAAAD8AAIA/AAAAAAAAgD8=
        AFByb2dyYW0gMQAAAAAA
      >
      FLOATPOS 0 0 0 0
      FXID {A391E59B-3475-47CA-9BDB-E03F3B8FF2C4}
      WAK 0 0
    >
    <ITEM
      POSITION 0
      SNAPOFFS 0
      LENGTH 224.86504361704624
      LOOP 0
      ALLTAKES 0
      FADEIN 1 0 0 1 0 0 0
      FADEOUT 1 0 0 1 0 0 0
      MUTE 0 0
      SEL 0
      IGUID {FE84F6DE-5A5E-43D1-BFBE-4632BD10F85F}
      IID 11
      NAME "HARM1 untitled MIDI item"
      VOLPAN 1 0 1 -1
      SOFFS 0 0
      PLAYRATE 1 1 0 -1 0 0.0025
      CHANMODE 0
      GUID {188D8841-6EF7-4ADC-A9DC-A83C2882A63B}
      <SOURCE MIDI
        HASDATA 1 480 QN
        CCINTERP 32
        POOLEDEVTS {C22F4145-C244-4228-B938-9AC2C74BA79C}
        <X 0 0 0 0 3 HARM1
          /wNIQVJNMQ==
        >
        E 213120 b0 7b 00
        CCINTERP 32
        GUID {D78D8959-2AD8-48C0-8F6C-4A6670952331}
        IGNTEMPO 0 120 4 4
        SRCCOLOR 6
        VELLANE 132 128 60 0 1
        TEXTSTRINGFILE "C:\Program Files\REAPER\Data\Text_Strings\Text Events List.txt"
        CFGEDITVIEW 0 0.005638 20 12 0 -1 0 0 0 0.5
        KEYSNAP 0
        TRACKSEL 269
        EVTFILTER 0 -1 -1 -1 -1 0 1 0 0 -1 -1 -1 -1 0 -1 0 -1 -1
        CFGEDIT 1 1 0 0 0 1 1 1 1 1 1 0.25 0 0 683 728 1 0 0 1 0.125 0 1 0 0 0.5 1 0 1 64
      >
    >
  >
  <TRACK {4A30D2A4-111B-40E3-8633-0926E85E641C}
    NAME DRYVOX1
    PEAKCOL 16576
    BEAT -1
    AUTOMODE 0
    VOLPAN 1 0 -1 -1 1
    MUTESOLO 1 0 0
    IPHASE 0
    PLAYOFFS 0 1
    ISBUS 0 0
    BUSCOMP 0 0 0 0 0
    SHOWINMIX 1 0.6667 0.5 1 0.5 -1 -1 -1
    SEL 0
    REC 0 0 0 0 0 0 0 0
    TRACKHEIGHT 24 0 0 0 0 0 0
    INQ 0 0 0 0.5 100 0 0 100
    NCHAN 2
    FX 1
    TRACKID {4A30D2A4-111B-40E3-8633-0926E85E641C}
    PERF 0
    MIDIOUT -1
    MAINSEND 1 0
    <FXCHAIN
      SHOW 0
      LASTSEL 0
      DOCKED 0
      BYPASS 0 0 0
      <VST "VST: ReaGate (Cockos)" reagate.dll 0 "" 1919248244<56535472656774726561676174650000> ""
        dGdlcu9e7f4EAAAAAQAAAAAAAAACAAAAAAAAAAQAAAAAAAAACAAAAAAAAAACAAAAAQAAAAAAAAACAAAAAAAAAFwAAAAAAAAAAAAQAA==
        776t3g3wrd6c0QczppvEOwrXozwAAAAAAAAAAAAAgD8AAAAAAAAAAAAAAACc0QczHlRzP5zRBzMAAIA/AAAAAAAAAAAAAAAALBYLPwAAAAAAAAAAAAAAAAAAAAA=
        AFByb2dyYW0gMQAQAAAA
      >
      FLOATPOS 859 184 511 385
      FXID {BF545B5B-7DD0-4B4C-AC52-F095A552DA08}
      WAK 0 0
    >
  >
  <TRACK {983C7D04-DAF6-462A-B5E6-64213F29FBA0}
    NAME HARM2
    PEAKCOL 24624127
    BEAT -1
    AUTOMODE 0
    VOLPAN 1.00497380427334 0 -1 -1 1
    MUTESOLO 1 0 0
    IPHASE 0
    PLAYOFFS 0 1
    ISBUS 0 0
    BUSCOMP 0 0 0 0 0
    SHOWINMIX 1 0.6667 0.5 1 0.5 -1 -1 -1
    SEL 0
    REC 0 0 0 0 0 0 0 0
    TRACKHEIGHT 0 0 0 0 0 0 0
    INQ 0 0 0 0.5 100 0 0 100
    NCHAN 2
    FX 1
    TRACKID {983C7D04-DAF6-462A-B5E6-64213F29FBA0}
    PERF 0
    MIDIOUT -1
    <MIDINOTENAMES
      0 0 "Range Shift" 0 0
      0 1 "Lyric Shift" 0 1
      0 35 ---- 0 35
      0 36 C1 0 36
      0 37 C# 0 37
      0 38 D 0 38
      0 39 Eb 0 39
      0 40 E 0 40
      0 41 F 0 41
      0 42 F# 0 42
      0 43 G 0 43
      0 44 G# 0 44
      0 45 A 0 45
      0 46 Bb 0 46
      0 47 B 0 47
      0 48 C2 0 48
      0 49 C# 0 49
      0 50 D 0 50
      0 51 Eb 0 51
      0 52 E 0 52
      0 53 F 0 53
      0 54 F# 0 54
      0 55 G 0 55
      0 56 G# 0 56
      0 57 A 0 57
      0 58 Bb 0 58
      0 59 B 0 59
      0 60 C3 0 60
      0 61 C# 0 61
      0 62 D 0 62
      0 63 Eb 0 63
      0 64 E 0 64
      0 65 F 0 65
      0 66 F# 0 66
      0 67 G 0 67
      0 68 G# 0 68
      0 69 A 0 69
      0 70 Bb 0 70
      0 71 B 0 71
      0 72 C4 0 72
      0 73 C# 0 73
      0 74 D 0 74
      0 75 Eb 0 75
      0 76 E 0 76
      0 77 F 0 77
      0 78 F# 0 78
      0 79 G 0 79
      0 80 G# 0 80
      0 81 A 0 81
      0 82 Bb 0 82
      0 83 B 0 83
      0 84 C5 0 84
      0 95 ---- 0 95
      0 96 "Displayed Percussion" 0 96
      0 97 "Not Displayed Percussion" 0 97
      0 104 ---- 0 104
      0 105 "Phrase Marker" 0 105
      0 115 ---- 0 115
      0 116 OVERDRIVE 0 116
    >
    MAINSEND 1 0
    <FXCHAIN
      WNDRECT 0 42 716 493
      SHOW 0
      LASTSEL 1
      DOCKED 0
      BYPASS 0 0 0
      <JS "IX/MIDI_Tool II" ""
        0 85 127 0 0 0 100 0 0 127 0 0 1 0 0 - - - - - - - - - - - - - - - - - - - - - - - - - - - - - - - - - - - - - - - - - - - - - - - - -
      >
      FLOATPOS 0 0 0 0
      FXID {0D2127EF-90E6-4278-AB57-59BADA75D3A0}
      WAK 0 0
      BYPASS 0 0 0
      <VST "VSTi: ReaSynth (Cockos)" reasynth.dll 0 "" 1919251321<5653547265737972656173796E746800> ""
        eXNlcu9e7f4AAAAAAgAAAAEAAAAAAAAAAgAAAAAAAABEAAAAAAAAAAAAAAA=
        776t3g3wrd6mm8Q7F7fROgAAAAAAAAAAAAAAAJr1Dz/pZ4g9AAAAAAAAAD8AAIA/AAAAAAAAAD8AAIA/AAAAAAAAgD8=
        AFByb2dyYW0gMQAAAAAA
      >
      FLOATPOS 0 0 0 0
      FXID {9CF76FE8-51DE-4F46-8774-EF282D9874DF}
      WAK 0 0
    >
    <ITEM
      POSITION 0
      SNAPOFFS 0
      LENGTH 224.8650436170455
      LOOP 0
      ALLTAKES 0
      FADEIN 1 0 0 1 0 0 0
      FADEOUT 1 0 0 1 0 0 0
      MUTE 0 0
      SEL 0
      IGUID {85B4D2FA-0EE6-4979-8286-EAC89A15680D}
      IID 12
      NAME "HARM2 untitled MIDI item"
      VOLPAN 1 0 1 -1
      SOFFS 0 0
      PLAYRATE 1 1 0 -1 0 0.0025
      CHANMODE 0
      GUID {67C8C31A-733D-46F5-9A6D-0FDF2143554E}
      <SOURCE MIDI
        HASDATA 1 480 QN
        CCINTERP 32
        POOLEDEVTS {1066F7C4-D822-4698-ABD5-80AF2176F6B0}
        <X 0 0 0 0 3 HARM2
          /wNIQVJNMg==
        >
        E 213120 b0 7b 00
        CCINTERP 32
        GUID {E53B89F8-ECC8-4A25-86E2-BC4D240C9444}
        IGNTEMPO 0 120 4 4
        SRCCOLOR 7
        VELLANE 132 128 60 0 1
        TEXTSTRINGFILE "C:\Program Files\REAPER\Data\Text_Strings\Text Events List.txt"
        CFGEDITVIEW -605.860027 82.395269 0 12 0 0 0 0 0 0.5
        KEYSNAP 0
        TRACKSEL 0
        EVTFILTER 0 -1 -1 -1 -1 0 1 0 0 -1 -1 -1 -1 0 -1 0 -1 -1
        CFGEDIT 1 1 0 1 1 1 1 1 1 1 1 0.0625 -8 -8 1374 736 1 2 1 2 0 0 0 0 0 0.5 1 0 1 64
      >
    >
  >
  <TRACK {58A7B9C6-1373-47A1-A41A-295306551BF7}
    NAME DRYVOX2
    PEAKCOL 16576
    BEAT -1
    AUTOMODE 0
    VOLPAN 1 0 -1 -1 1
    MUTESOLO 1 0 0
    IPHASE 0
    PLAYOFFS 0 1
    ISBUS 0 0
    BUSCOMP 0 0 0 0 0
    SHOWINMIX 1 0.6667 0.5 1 0.5 -1 -1 -1
    SEL 0
    REC 0 0 0 0 0 0 0 0
    TRACKHEIGHT 24 0 0 0 0 0 0
    INQ 0 0 0 0.5 100 0 0 100
    NCHAN 2
    FX 1
    TRACKID {58A7B9C6-1373-47A1-A41A-295306551BF7}
    PERF 0
    MIDIOUT -1
    MAINSEND 1 0
    <FXCHAIN
      SHOW 0
      LASTSEL 0
      DOCKED 0
      BYPASS 0 0 0
      <VST "VST: ReaGate (Cockos)" reagate.dll 0 "" 1919248244<56535472656774726561676174650000> ""
        dGdlcu9e7f4EAAAAAQAAAAAAAAACAAAAAAAAAAQAAAAAAAAACAAAAAAAAAACAAAAAQAAAAAAAAACAAAAAAAAAFwAAAAAAAAAAAAQAA==
        776t3g3wrd6c0QczppvEOwrXozwAAAAAAAAAAAAAgD8AAAAAAAAAAAAAAACc0QczHlRzP5zRBzMAAIA/AAAAAAAAAAAAAAAALBYLPwAAAAAAAAAAAAAAAAAAAAA=
        AFByb2dyYW0gMQAQAAAA
      >
      FLOATPOS 859 184 511 385
      FXID {BF545B5B-7DD0-4B4C-AC52-F095A552DA08}
      WAK 0 0
    >
  >
  <TRACK {4299BF31-E988-4C64-900A-97AC9ECE5EBC}
    NAME HARM3
    PEAKCOL 24624127
    BEAT -1
    AUTOMODE 0
    VOLPAN 1 0 -1 -1 1
    MUTESOLO 1 0 0
    IPHASE 0
    PLAYOFFS 0 1
    ISBUS 0 0
    BUSCOMP 0 0 0 0 0
    SHOWINMIX 1 0.6667 0.5 1 0.5 -1 -1 -1
    SEL 1
    REC 0 0 0 0 0 0 0 0
    TRACKHEIGHT 0 0 0 0 0 0 0
    INQ 0 0 0 0.5 100 0 0 100
    NCHAN 2
    FX 1
    TRACKID {4299BF31-E988-4C64-900A-97AC9ECE5EBC}
    PERF 0
    MIDIOUT -1
    <MIDINOTENAMES
      0 0 "Range Shift" 0 0
      0 1 "Lyric Shift" 0 1
      0 35 ---- 0 35
      0 36 C1 0 36
      0 37 C# 0 37
      0 38 D 0 38
      0 39 Eb 0 39
      0 40 E 0 40
      0 41 F 0 41
      0 42 F# 0 42
      0 43 G 0 43
      0 44 G# 0 44
      0 45 A 0 45
      0 46 Bb 0 46
      0 47 B 0 47
      0 48 C2 0 48
      0 49 C# 0 49
      0 50 D 0 50
      0 51 Eb 0 51
      0 52 E 0 52
      0 53 F 0 53
      0 54 F# 0 54
      0 55 G 0 55
      0 56 G# 0 56
      0 57 A 0 57
      0 58 Bb 0 58
      0 59 B 0 59
      0 60 C3 0 60
      0 61 C# 0 61
      0 62 D 0 62
      0 63 Eb 0 63
      0 64 E 0 64
      0 65 F 0 65
      0 66 F# 0 66
      0 67 G 0 67
      0 68 G# 0 68
      0 69 A 0 69
      0 70 Bb 0 70
      0 71 B 0 71
      0 72 C4 0 72
      0 73 C# 0 73
      0 74 D 0 74
      0 75 Eb 0 75
      0 76 E 0 76
      0 77 F 0 77
      0 78 F# 0 78
      0 79 G 0 79
      0 80 G# 0 80
      0 81 A 0 81
      0 82 Bb 0 82
      0 83 B 0 83
      0 84 C5 0 84
      0 95 ---- 0 95
      0 96 "Displayed Percussion" 0 96
      0 97 "Not Displayed Percussion" 0 97
      0 104 ---- 0 104
      0 105 "Phrase Marker" 0 105
      0 115 ---- 0 115
      0 116 OVERDRIVE 0 116
    >
    MAINSEND 1 0
    <FXCHAIN
      WNDRECT 0 42 716 493
      SHOW 0
      LASTSEL 1
      DOCKED 0
      BYPASS 0 0 0
      <JS "IX/MIDI_Tool II" ""
        0 85 127 0 0 0 100 0 0 127 0 0 1 0 0 - - - - - - - - - - - - - - - - - - - - - - - - - - - - - - - - - - - - - - - - - - - - - - - - -
      >
      FLOATPOS 0 0 0 0
      FXID {3D33E2FB-5DDE-4F81-B16F-BCB1EAD8D4FA}
      WAK 0 0
      BYPASS 0 0 0
      <VST "VSTi: ReaSynth (Cockos)" reasynth.dll 0 "" 1919251321<5653547265737972656173796E746800> ""
        eXNlcu9e7f4AAAAAAgAAAAEAAAAAAAAAAgAAAAAAAABEAAAAAAAAAAAAAAA=
        776t3g3wrd6mm8Q7F7fROgAAAAAAAAAAAAAAAJr1Dz/pZ4g9AAAAAAAAAD8AAIA/AAAAAAAAAD8AAIA/AAAAAAAAgD8=
        AFByb2dyYW0gMQAAAAAA
      >
      FLOATPOS 0 0 0 0
      FXID {98E235B6-3365-4F58-AC74-F5BD513BFA85}
      WAK 0 0
    >
    <ITEM
      POSITION 0
      SNAPOFFS 0
      LENGTH 224.86504361704624
      LOOP 0
      ALLTAKES 0
      FADEIN 1 0 0 1 0 0 0
      FADEOUT 1 0 0 1 0 0 0
      MUTE 0 0
      SEL 0
      IGUID {14DAFADF-64E7-40FA-8E65-65BBB77CBDB7}
      IID 13
      NAME "HARM3 untitled MIDI item"
      VOLPAN 1 0 1 -1
      SOFFS 0 0
      PLAYRATE 1 1 0 -1 0 0.0025
      CHANMODE 0
      GUID {BA30FF02-694D-4D9D-9D54-87AECA42C3BA}
      <SOURCE MIDI
        HASDATA 1 480 QN
        CCINTERP 32
        POOLEDEVTS {02950317-A851-4F2F-9E29-2905CF2E3042}
        <X 0 0 0 0 3 HARM3
          /wNIQVJNMw==
        >
        E 213120 b0 7b 00
        CCINTERP 32
        GUID {F1082209-E2A8-4526-8AA6-2FE8F2DEB335}
        IGNTEMPO 0 120 4 4
        SRCCOLOR 8
        VELLANE 132 128 60 0 1
        TEXTSTRINGFILE "C:\Program Files\REAPER\Data\Text_Strings\Text Events List.txt"
        CFGEDITVIEW -605.860027 82.395269 0 12 0 0 0 0 0 0.5
        KEYSNAP 0
        TRACKSEL 0
        EVTFILTER 0 -1 -1 -1 -1 0 1 0 0 -1 -1 -1 -1 0 -1 0 -1 -1
        CFGEDIT 1 1 0 1 1 1 1 1 1 1 1 0.0625 -8 -8 1374 736 1 2 1 2 0 0 0 0 0 0.5 1 0 1 64
      >
    >
  >
  <TRACK {AB3E8FDC-23A9-4945-BA6C-055C630028D0}
    NAME DRYVOX3
    PEAKCOL 16576
    BEAT -1
    AUTOMODE 0
    VOLPAN 1 0 -1 -1 1
    MUTESOLO 1 0 0
    IPHASE 0
    PLAYOFFS 0 1
    ISBUS 0 0
    BUSCOMP 0 0 0 0 0
    SHOWINMIX 1 0.6667 0.5 1 0.5 -1 -1 -1
    SEL 0
    REC 0 0 0 0 0 0 0 0
    TRACKHEIGHT 24 0 0 0 0 0 0
    INQ 0 0 0 0.5 100 0 0 100
    NCHAN 2
    FX 1
    TRACKID {AB3E8FDC-23A9-4945-BA6C-055C630028D0}
    PERF 0
    MIDIOUT -1
    MAINSEND 1 0
    <FXCHAIN
      SHOW 0
      LASTSEL 0
      DOCKED 0
      BYPASS 0 0 0
      <VST "VST: ReaGate (Cockos)" reagate.dll 0 "" 1919248244<56535472656774726561676174650000> ""
        dGdlcu9e7f4EAAAAAQAAAAAAAAACAAAAAAAAAAQAAAAAAAAACAAAAAAAAAACAAAAAQAAAAAAAAACAAAAAAAAAFwAAAAAAAAAAAAQAA==
        776t3g3wrd6c0QczppvEOwrXozwAAAAAAAAAAAAAgD8AAAAAAAAAAAAAAACc0QczHlRzP5zRBzMAAIA/AAAAAAAAAAAAAAAALBYLPwAAAAAAAAAAAAAAAAAAAAA=
        AFByb2dyYW0gMQAQAAAA
      >
      FLOATPOS 859 184 511 385
      FXID {BF545B5B-7DD0-4B4C-AC52-F095A552DA08}
      WAK 0 0
    >
  >
  <TRACK {14F64FB7-FE44-4E53-9F58-44F4178BCEF9}
    NAME "PART KEYS"
    PEAKCOL 16842496
    BEAT -1
    AUTOMODE 0
    VOLPAN 1 0 -1 -1 1
    MUTESOLO 1 0 0
    IPHASE 0
    PLAYOFFS 0 1
    ISBUS 1 1
    BUSCOMP 0 0 0 0 0
    SHOWINMIX 1 0.6667 0.5 1 0.5 -1 -1 -1
    SEL 0
    REC 0 0 0 0 0 0 0 0
    TRACKHEIGHT 0 0 0 0 0 0 0
    INQ 0 0 0 0.5 100 0 0 100
    NCHAN 2
    FX 1
    TRACKID {14F64FB7-FE44-4E53-9F58-44F4178BCEF9}
    PERF 0
    MIDIOUT -1
    <MIDINOTENAMES
      0 60 "EASY Green" 0 60
      0 61 "EASY Red" 0 61
      0 62 "EASY Yellow" 0 62
      0 63 "EASY Blue" 0 63
      0 64 "EASY Orange" 0 64
      0 71 ---- 0 71
      0 72 "MEDIUM Green" 0 72
      0 73 "MEDIUM Red" 0 73
      0 74 "MEDIUM Yellow" 0 74
      0 75 "MEDIUM Blue" 0 75
      0 76 "MEDIUM Orange" 0 76
      0 83 ---- 0 83
      0 84 "HARD Green" 0 84
      0 85 "HARD Red" 0 85
      0 86 "HARD Yellow" 0 86
      0 87 "HARD Blue" 0 87
      0 88 "HARD Orange" 0 88
      0 95 ---- 0 95
      0 96 "EXPERT Green" 0 96
      0 97 "EXPERT Red" 0 97
      0 98 "EXPERT Yellow" 0 98
      0 99 "EXPERT Blue" 0 99
      0 100 "EXPERT Orange" 0 100
      0 101 "Force HoPo on" 0 101
      0 102 "Force HoPo off" 0 102
      0 103 "Solo Marker" 0 103
      0 115 ---- 0 115
      0 116 OVERDRIVE 0 116
      0 119 ---- 0 119
      0 120 "BRE (use all 5)" 0 120
      0 121 BRE 0 121
      0 122 BRE 0 122
      0 123 BRE 0 123
      0 124 BRE 0 124
      0 126 ---- 0 126
      0 127 "Trill Marker" 0 127
    >
    MAINSEND 1 0
    <FXCHAIN
      WNDRECT 0 40 878 585
      SHOW 0
      LASTSEL 0
      DOCKED 0
      BYPASS 0 0 0
      <VST "VSTi: RBN Preview (RBN)" rbprev_vst.dll 0 "" 1919053942<5653547262707672626E707265766965> ""
        dnBicu5e7f4AAAAAAgAAAAEAAAAAAAAAAgAAAAAAAAAEAAAAAQAAAAAAAAA=
        AwCqAA==
        AFByb2dyYW0gMQAAAAAA
      >
      FLOATPOS 0 0 0 0
      FXID {EE0C80EE-5E5F-4EA2-B367-78AAAB3793F5}
      WAK 0 0
    >
    <ITEM
      POSITION 0
      SNAPOFFS 0
      LENGTH 190.61334591708234
      LOOP 0
      ALLTAKES 0
      FADEIN 1 0 0 1 0 0 0
      FADEOUT 1 0 0 1 0 0 0
      MUTE 0 0
      SEL 0
      IGUID {52D9F6AC-16AD-4CE9-95E4-6AD6396BB4E2}
      IID 14
      NAME "PART KEYS"
      VOLPAN 1 0 1 -1
      SOFFS 0 0
      PLAYRATE 1 1 0 -65536 0 0.0025
      CHANMODE 0
      GUID {78E1CCBD-C30B-4DD8-81CD-2AEB0D2D38C8}
      <SOURCE MIDI
        HASDATA 1 480 QN
        CCINTERP 32
        POOLEDEVTS {D0DD6C24-F1A0-4300-B03B-6C95DE06971C}
        <X 0 0 0 0 3 "PART KEYS"
          /wNQQVJUIEtFWVM=
        >
        <X 3840 0 0 0 1 [play]
          /wFbcGxheV0=
        >
        E 0 90 40 7f
        E 0 90 4c 7f
        E 0 90 58 7f
        E 60 80 40 00
        E 0 80 4c 00
        E 0 80 58 00
        E 30 90 3f 7f
        E 0 90 4b 7f
        E 0 90 57 7f
        E 60 80 3f 00
        E 0 80 4b 00
        E 0 80 57 00
        E 30 90 3e 7f
        E 0 90 4a 7f
        E 0 90 56 7f
        E 60 80 3e 00
        E 0 80 4a 00
        E 0 80 56 00
        E 30 90 3d 7f
        E 0 90 49 7f
        E 0 90 55 7f
        E 60 80 3d 00
        E 0 80 49 00
        E 0 80 55 00
        E 30 90 3c 7f
        E 0 90 48 7f
        E 0 90 54 7f
        E 60 80 3c 00
        E 0 80 48 00
        E 0 80 54 00
        E 176221 b0 7b 00
        CCINTERP 32
        GUID {F537F270-CEBA-461E-8612-DC28913708FC}
        IGNTEMPO 0 120 4 4
        SRCCOLOR 9
        VELLANE 132 128 60 0 1
        TEXTSTRINGFILE "C:\Program Files\REAPER\Data\Text_Strings\Text Events List.txt"
        CFGEDITVIEW -4299.275963 82.395269 19 12 0 0 0 0 0 0.5
        KEYSNAP 0
        TRACKSEL 0
        EVTFILTER 0 -1 -1 -1 -1 0 1 0 0 -1 -1 -1 -1 0 -1 0 -1 -1
        CFGEDIT 1 1 0 0 0 1 1 1 1 1 1 0.125 -8 -8 1370 736 1 0 1 2 0 0 0 0 0 0.5 1 0 1 64
      >
    >
  >
  <TRACK {D39F8BD7-8730-4182-94EC-51AF9F9ACC90}
    NAME "PART REAL_KEYS_X"
    PEAKCOL 25231232
    BEAT -1
    AUTOMODE 0
    VOLPAN 0.64382266579432 0 -1 -1 1
    MUTESOLO 1 0 0
    IPHASE 0
    PLAYOFFS 0 1
    ISBUS 0 0
    BUSCOMP 1 0 0 0 0
    SHOWINMIX 1 0.6667 0.5 1 0.5 -1 -1 -1
    SEL 0
    REC 0 0 0 0 0 0 0 0
    TRACKHEIGHT 0 0 0 0 0 0 0
    INQ 0 0 0 0.5 100 0 0 100
    NCHAN 2
    FX 1
    TRACKID {D39F8BD7-8730-4182-94EC-51AF9F9ACC90}
    PERF 0
    MIDIOUT -1
    <MIDINOTENAMES
      0 0 "C2-E3 Range" 0 0
      0 2 "D2-F3 Range" 0 2
      0 4 "E2-G3 Range" 0 4
      0 5 "F2-A3 Range" 0 5
      0 7 "G2-B3 Range" 0 7
      0 9 "A2-C4 Range" 0 9
      0 47 ---- 0 47
      0 48 "C2 (Lowest Note)" 0 48
      0 49 C#2 0 49
      0 50 D2 0 50
      0 51 Eb2 0 51
      0 52 E2 0 52
      0 53 F2 0 53
      0 54 F#2 0 54
      0 55 G2 0 55
      0 56 G#2 0 56
      0 57 A2 0 57
      0 58 Bb2 0 58
      0 59 B2 0 59
      0 60 C3 0 60
      0 61 C#3 0 61
      0 62 D3 0 62
      0 63 Eb3 0 63
      0 64 E3 0 64
      0 65 F3 0 65
      0 66 F#3 0 66
      0 67 G3 0 67
      0 68 G#3 0 68
      0 69 A3 0 69
      0 70 Bb3 0 70
      0 71 B3 0 71
      0 72 "C4 (Highest Note)" 0 72
      0 114 ---- 0 114
      0 115 "Solo Marker" 0 115
      0 116 "Overdrive Marker" 0 116
      0 125 ---- 0 125
      0 126 "Glissando Marker" 0 126
      0 127 "Trill Marker" 0 127
    >
    MAINSEND 1 0
    <FXCHAIN
      WNDRECT 0 40 655 493
      SHOW 0
      LASTSEL 1
      DOCKED 0
      BYPASS 0 0 0
      <JS "IX/MIDI_Tool II" ""
        0 85 127 0 0 0 100 0 0 127 0 0 1 0 0 - - - - - - - - - - - - - - - - - - - - - - - - - - - - - - - - - - - - - - - - - - - - - - - - -
      >
      FLOATPOS 0 0 0 0
      FXID {A891DAA7-5D8A-4720-AA8F-E43D2ABA2AE5}
      WAK 0 0
      BYPASS 0 0 0
      <VST "VSTi: ReaSynth (Cockos)" reasynth.dll 0 "" 1919251321<5653547265737972656173796E746800> ""
        eXNlcu9e7f4AAAAAAgAAAAEAAAAAAAAAAgAAAAAAAABEAAAAAAAAAAAAAAA=
        776t3g3wrd6mm8Q7F7fROpzEoD5zaNE+AAAAAMybgD7pZ4g9AAAAAAAAAD8AAIA/6SaxPgAAAD8AAIA/AAAAAAAAgD8=
        AFByb2dyYW0gMQAAAAAA
      >
      FLOATPOS 0 0 0 0
      FXID {A0CE5851-0C70-49E2-AD61-BC7B1C50A030}
      WAK 0 0
    >
    <ITEM
      POSITION 0
      SNAPOFFS 0
      LENGTH 190.61334591708234
      LOOP 0
      ALLTAKES 0
      FADEIN 1 0 0 1 0 0 0
      FADEOUT 1 0 0 1 0 0 0
      MUTE 0 0
      SEL 0
      IGUID {974100C2-06C4-4CB5-BD67-2F1BC71A1259}
      IID 15
      NAME "PART REAL_KEYS_X"
      VOLPAN 1 0 1 -1
      SOFFS 0 0
      PLAYRATE 1 1 0 -65536 0 0.0025
      CHANMODE 0
      GUID {08703F3F-9741-46EB-9ED4-B09B2390F876}
      <SOURCE MIDI
        HASDATA 1 480 QN
        CCINTERP 32
        POOLEDEVTS {6320FFFF-E6A3-4719-852E-A4D9CFE7775B}
        <X 0 0 0 0 3 "PART REAL_KEYS_X"
          /wNQQVJUIFJFQUxfS0VZU19Y
        >
        <X 3840 0 0 0 1 [play]
          /wFbcGxheV0=
        >
        E 176641 b0 7b 00
        CCINTERP 32
        GUID {0E0CBFB7-4AC8-4E67-A764-85891754BB41}
        IGNTEMPO 0 120 4 4
        SRCCOLOR 10
        VELLANE 132 128 60 0 1
        TEXTSTRINGFILE "C:\Program Files\REAPER\Data\Text_Strings\Text Events List.txt"
        CFGEDITVIEW -4299.275963 82.395269 48 12 0 0 0 0 0 0.5
        KEYSNAP 0
        TRACKSEL 0
        EVTFILTER 0 -1 -1 -1 -1 0 1 0 0 -1 -1 -1 -1 0 -1 0 -1 -1
        CFGEDIT 1 1 0 1 1 1 1 1 1 1 1 0.125 -8 -8 1370 736 1 0 1 2 0 0 0 0 0 0.5 1 0 1 64
      >
    >
  >
  <TRACK {117931B6-9EA5-432A-AEED-ACF4C8876354}
    NAME "PART REAL _KEYS_H"
    PEAKCOL 25231232
    BEAT -1
    AUTOMODE 0
    VOLPAN 1.00000843600341 0 -1 -1 1
    MUTESOLO 1 0 0
    IPHASE 0
    PLAYOFFS 0 1
    ISBUS 0 0
    BUSCOMP 0 0 0 0 0
    SHOWINMIX 1 0.6667 0.5 1 0.5 -1 -1 -1
    SEL 0
    REC 0 0 0 0 0 0 0 0
    TRACKHEIGHT 0 0 0 0 0 0 0
    INQ 0 0 0 0.5 100 0 0 100
    NCHAN 2
    FX 1
    TRACKID {117931B6-9EA5-432A-AEED-ACF4C8876354}
    PERF 0
    MIDIOUT -1
    <MIDINOTENAMES
      0 0 "C2-E3 Range" 0 0
      0 2 "D2-F3 Range" 0 2
      0 4 "E2-G3 Range" 0 4
      0 5 "F2-A3 Range" 0 5
      0 7 "G2-B3 Range" 0 7
      0 9 "A2-C4 Range" 0 9
      0 47 ---- 0 47
      0 48 "C2 (Lowest Note)" 0 48
      0 49 C#2 0 49
      0 50 D2 0 50
      0 51 Eb2 0 51
      0 52 E2 0 52
      0 53 F2 0 53
      0 54 F#2 0 54
      0 55 G2 0 55
      0 56 G#2 0 56
      0 57 A2 0 57
      0 58 Bb2 0 58
      0 59 B2 0 59
      0 60 C3 0 60
      0 61 C#3 0 61
      0 62 D3 0 62
      0 63 Eb3 0 63
      0 64 E3 0 64
      0 65 F3 0 65
      0 66 F#3 0 66
      0 67 G3 0 67
      0 68 G#3 0 68
      0 69 A3 0 69
      0 70 Bb3 0 70
      0 71 B3 0 71
      0 72 "C4 (Highest Note)" 0 72
      0 114 ---- 0 114
      0 115 "Solo Marker" 0 115
      0 116 "Overdrive Marker" 0 116
      0 125 ---- 0 125
      0 126 "Glissando Marker" 0 126
      0 127 "Trill Marker" 0 127
    >
    MAINSEND 1 0
    <FXCHAIN
      SHOW 0
      LASTSEL 0
      DOCKED 0
      BYPASS 0 0 0
      <JS "IX/MIDI_Tool II" ""
        0 85 127 0 0 0 100 0 0 127 0 0 1 0 0 - - - - - - - - - - - - - - - - - - - - - - - - - - - - - - - - - - - - - - - - - - - - - - - - -
      >
      FLOATPOS 0 0 0 0
      FXID {5BF1E178-D070-4445-A488-4CE4E31F6508}
      WAK 0 0
      BYPASS 0 0 0
      <VST "VSTi: ReaSynth (Cockos)" reasynth.dll 0 "" 1919251321<5653547265737972656173796E746800> ""
        eXNlcu9e7f4AAAAAAgAAAAEAAAAAAAAAAgAAAAAAAABEAAAAAAAAAAAAAAA=
        776t3g3wrd6mm8Q7F7fROpzEoD5zaNE+AAAAAMybgD7pZ4g9AAAAAAAAAD8AAIA/6SaxPgAAAD8AAIA/AAAAAAAAgD8=
        AFByb2dyYW0gMQAAAAAA
      >
      FLOATPOS 0 0 0 0
      FXID {C48567E0-8372-4900-9933-4B040EA2A253}
      WAK 0 0
    >
    <ITEM
      POSITION 0
      SNAPOFFS 0
      LENGTH 190.61334591708234
      LOOP 0
      ALLTAKES 0
      FADEIN 1 0 0 1 0 0 0
      FADEOUT 1 0 0 1 0 0 0
      MUTE 0 0
      SEL 0
      IGUID {DA514BF3-AF34-46C0-BD23-58406C871A44}
      IID 16
      NAME "PART REAL _KEYS_H"
      VOLPAN 1 0 1 -1
      SOFFS 0 0
      PLAYRATE 1 1 0 -65536 0 0.0025
      CHANMODE 0
      GUID {8E0AC36B-D538-4BB8-A507-FFF40527D1BA}
      <SOURCE MIDI
        HASDATA 1 480 QN
        CCINTERP 32
        POOLEDEVTS {7A35D814-DA54-46D2-9BCA-00AAA1C467A8}
        <X 0 0 0 0 3 "PART REAL_KEYS_H"
          /wNQQVJUIFJFQUxfS0VZU19I
        >
        E 0 90 09 60
        E 480 80 09 00
        E 3360 90 39 60
        E 360 80 39 00
        E 176281 b0 7b 00
        CCINTERP 32
        GUID {53F487B1-1F2F-4D54-9DAE-BC2E7B032E3B}
        IGNTEMPO 0 120 4 4
        SRCCOLOR 11
        VELLANE 132 128 60 0 1
        TEXTSTRINGFILE "C:\Program Files\REAPER\Data\Text_Strings\Text Events List.txt"
        CFGEDITVIEW -4299.275963 82.395269 5 14 0 0 0 0 0 0.5
        KEYSNAP 0
        TRACKSEL 0
        EVTFILTER 0 -1 -1 -1 -1 0 1 0 0 -1 -1 -1 -1 0 -1 0 -1 -1
        CFGEDIT 1 1 0 1 1 1 1 1 1 1 1 0.125 -8 -8 1374 736 1 2 1 2 0 0 0 0 0 0.5 1 0 1 64
      >
    >
  >
  <TRACK {3B6F726E-1CAB-4A00-9B01-2E1CC375B13E}
    NAME "PART REAL_KEYS_M"
    PEAKCOL 25231232
    BEAT -1
    AUTOMODE 0
    VOLPAN 1 0 -1 -1 1
    MUTESOLO 1 0 0
    IPHASE 0
    PLAYOFFS 0 1
    ISBUS 0 0
    BUSCOMP 0 0 0 0 0
    SHOWINMIX 1 0.6667 0.5 1 0.5 -1 -1 -1
    SEL 0
    REC 0 0 0 0 0 0 0 0
    TRACKHEIGHT 0 0 0 0 0 0 0
    INQ 0 0 0 0.5 100 0 0 100
    NCHAN 2
    FX 1
    TRACKID {3B6F726E-1CAB-4A00-9B01-2E1CC375B13E}
    PERF 0
    MIDIOUT -1
    <MIDINOTENAMES
      0 0 "C2-E3 Range" 0 0
      0 2 "D2-F3 Range" 0 2
      0 4 "E2-G3 Range" 0 4
      0 5 "F2-A3 Range" 0 5
      0 7 "G2-B3 Range" 0 7
      0 9 "A2-C4 Range" 0 9
      0 47 ---- 0 47
      0 48 "C2 (Lowest Note)" 0 48
      0 49 C#2 0 49
      0 50 D2 0 50
      0 51 Eb2 0 51
      0 52 E2 0 52
      0 53 F2 0 53
      0 54 F#2 0 54
      0 55 G2 0 55
      0 56 G#2 0 56
      0 57 A2 0 57
      0 58 Bb2 0 58
      0 59 B2 0 59
      0 60 C3 0 60
      0 61 C#3 0 61
      0 62 D3 0 62
      0 63 Eb3 0 63
      0 64 E3 0 64
      0 65 F3 0 65
      0 66 F#3 0 66
      0 67 G3 0 67
      0 68 G#3 0 68
      0 69 A3 0 69
      0 70 Bb3 0 70
      0 71 B3 0 71
      0 72 "C4 (Highest Note)" 0 72
      0 114 ---- 0 114
      0 115 "Solo Marker" 0 115
      0 116 "Overdrive Marker" 0 116
      0 125 ---- 0 125
      0 126 "Glissando Marker" 0 126
      0 127 "Trill Marker" 0 127
    >
    MAINSEND 1 0
    <FXCHAIN
      SHOW 0
      LASTSEL 0
      DOCKED 0
      BYPASS 0 0 0
      <JS "IX/MIDI_Tool II" ""
        0 85 127 0 0 0 100 0 0 127 0 0 1 0 0 - - - - - - - - - - - - - - - - - - - - - - - - - - - - - - - - - - - - - - - - - - - - - - - - -
      >
      FLOATPOS 0 0 0 0
      FXID {096BA8B0-BFAB-4802-A0D3-DEA88A16B5B2}
      WAK 0 0
      BYPASS 0 0 0
      <VST "VSTi: ReaSynth (Cockos)" reasynth.dll 0 "" 1919251321<5653547265737972656173796E746800> ""
        eXNlcu9e7f4AAAAAAgAAAAEAAAAAAAAAAgAAAAAAAABEAAAAAAAAAAAAAAA=
        776t3g3wrd6mm8Q7F7fROpzEoD5zaNE+AAAAAMybgD7pZ4g9AAAAAAAAAD8AAIA/6SaxPgAAAD8AAIA/AAAAAAAAgD8=
        AFByb2dyYW0gMQAAAAAA
      >
      FLOATPOS 0 0 0 0
      FXID {A5115AF9-13EF-41D8-80FF-CB81A74D6CD4}
      WAK 0 0
    >
    <ITEM
      POSITION 0
      SNAPOFFS 0
      LENGTH 190.61334591708234
      LOOP 0
      ALLTAKES 0
      FADEIN 1 0 0 1 0 0 0
      FADEOUT 1 0 0 1 0 0 0
      MUTE 0 0
      SEL 0
      IGUID {6F5DF5D5-958D-4566-AA6E-AFD27D997F3F}
      IID 17
      NAME "PART REAL_KEYS_M"
      VOLPAN 1 0 1 -1
      SOFFS 0 0
      PLAYRATE 1 1 0 -65536 0 0.0025
      CHANMODE 0
      GUID {14BC6779-E32B-455D-A61C-C2E68D8FE08C}
      <SOURCE MIDI
        HASDATA 1 480 QN
        CCINTERP 32
        POOLEDEVTS {A271A061-1035-46F0-8682-181D0566710F}
        <X 0 0 0 0 3 "PART REAL_KEYS_M"
          /wNQQVJUIFJFQUxfS0VZU19N
        >
        e 0 90 09 60
        e 480 80 09 00
        e 3360 90 39 60
        e 360 80 39 00
        E 176281 b0 7b 00
        CCINTERP 32
        GUID {806139BE-556B-4882-A297-06705078FD7A}
        IGNTEMPO 0 120 4 4
        SRCCOLOR 12
        VELLANE 132 128 60 0 1
        TEXTSTRINGFILE "C:\Program Files\REAPER\Data\Text_Strings\Text Events List.txt"
        CFGEDITVIEW -4299.275963 82.395269 0 17 0 0 0 0 0 0.5
        KEYSNAP 0
        TRACKSEL 0
        EVTFILTER 0 -1 -1 -1 -1 0 1 0 0 -1 -1 -1 -1 0 -1 0 -1 -1
        CFGEDIT 1 1 0 1 1 1 1 1 1 1 1 0.125 -8 -8 1374 736 1 2 1 2 0 0 0 0 0 0.5 1 0 1 64
      >
    >
  >
  <TRACK {49B8D0E0-0069-415C-8FC3-AC29B0E2C3CF}
    NAME "PART REAL_KEYS_E"
    PEAKCOL 25231232
    BEAT -1
    AUTOMODE 0
    VOLPAN 0.84084642809367 0 -1 -1 1
    MUTESOLO 1 0 0
    IPHASE 0
    PLAYOFFS 0 1
    ISBUS 0 0
    BUSCOMP 0 0 0 0 0
    SHOWINMIX 1 0.6667 0.5 1 0.5 -1 -1 -1
    SEL 0
    REC 0 0 0 0 0 0 0 0
    TRACKHEIGHT 0 0 0 0 0 0 0
    INQ 0 0 0 0.5 100 0 0 100
    NCHAN 2
    FX 1
    TRACKID {49B8D0E0-0069-415C-8FC3-AC29B0E2C3CF}
    PERF 0
    MIDIOUT -1
    <MIDINOTENAMES
      0 0 "C2-E3 Range" 0 0
      0 2 "D2-F3 Range" 0 2
      0 4 "E2-G3 Range" 0 4
      0 5 "F2-A3 Range" 0 5
      0 7 "G2-B3 Range" 0 7
      0 9 "A2-C4 Range" 0 9
      0 47 ---- 0 47
      0 48 "C2 (Lowest Note)" 0 48
      0 49 C#2 0 49
      0 50 D2 0 50
      0 51 Eb2 0 51
      0 52 E2 0 52
      0 53 F2 0 53
      0 54 F#2 0 54
      0 55 G2 0 55
      0 56 G#2 0 56
      0 57 A2 0 57
      0 58 Bb2 0 58
      0 59 B2 0 59
      0 60 C3 0 60
      0 61 C#3 0 61
      0 62 D3 0 62
      0 63 Eb3 0 63
      0 64 E3 0 64
      0 65 F3 0 65
      0 66 F#3 0 66
      0 67 G3 0 67
      0 68 G#3 0 68
      0 69 A3 0 69
      0 70 Bb3 0 70
      0 71 B3 0 71
      0 72 "C4 (Highest Note)" 0 72
      0 114 ---- 0 114
      0 115 "Solo Marker" 0 115
      0 116 "Overdrive Marker" 0 116
      0 125 ---- 0 125
      0 126 "Glissando Marker" 0 126
      0 127 "Trill Marker" 0 127
    >
    MAINSEND 1 0
    <FXCHAIN
      SHOW 0
      LASTSEL 0
      DOCKED 0
      BYPASS 0 0 0
      <JS "IX/MIDI_Tool II" ""
        0 85 127 0 0 0 100 0 0 127 0 0 1 0 0 - - - - - - - - - - - - - - - - - - - - - - - - - - - - - - - - - - - - - - - - - - - - - - - - -
      >
      FLOATPOS 0 0 0 0
      FXID {71EF04AA-9A38-4C4E-8E04-9FB37BDA6361}
      WAK 0 0
      BYPASS 0 0 0
      <VST "VSTi: ReaSynth (Cockos)" reasynth.dll 0 "" 1919251321<5653547265737972656173796E746800> ""
        eXNlcu9e7f4AAAAAAgAAAAEAAAAAAAAAAgAAAAAAAABEAAAAAAAAAAAAAAA=
        776t3g3wrd6mm8Q7F7fROpzEoD5zaNE+AAAAAMybgD7pZ4g9AAAAAAAAAD8AAIA/6SaxPgAAAD8AAIA/AAAAAAAAgD8=
        AFByb2dyYW0gMQAAAAAA
      >
      FLOATPOS 0 0 0 0
      FXID {6C388847-2A2F-4264-AA7A-4C4ACA9A9672}
      WAK 0 0
    >
    <ITEM
      POSITION 0
      SNAPOFFS 0
      LENGTH 190.61334591708234
      LOOP 0
      ALLTAKES 0
      FADEIN 1 0 0 1 0 0 0
      FADEOUT 1 0 0 1 0 0 0
      MUTE 0 0
      SEL 0
      IGUID {656317AD-B690-4307-9096-C4F4536C131B}
      IID 18
      NAME "PART REAL_KEYS_E"
      VOLPAN 1 0 1 -1
      SOFFS 0 0
      PLAYRATE 1 1 0 -65536 0 0.0025
      CHANMODE 0
      GUID {43BDFFBF-75D6-4727-BD3F-08B25C56980C}
      <SOURCE MIDI
        HASDATA 1 480 QN
        CCINTERP 32
        POOLEDEVTS {EF239800-7729-45CA-9A11-26D080F99F01}
        <X 0 0 0 0 3 "PART REAL_KEYS_E"
          /wNQQVJUIFJFQUxfS0VZU19F
        >
        E 0 90 09 60
        E 480 80 09 00
        E 180001 b0 7b 00
        CCINTERP 32
        GUID {F9363449-15E8-4EF0-8BC0-ABEB4CDC1D98}
        IGNTEMPO 0 120 4 4
        SRCCOLOR 13
        VELLANE 132 128 60 0 1
        TEXTSTRINGFILE "C:\Program Files\REAPER\Data\Text_Strings\Text Events List.txt"
        CFGEDITVIEW 1257.930012 0.103438 51 12 0 0 0 0 0 0.5
        KEYSNAP 0
        TRACKSEL 0
        EVTFILTER 0 -1 -1 -1 -1 0 1 0 0 -1 -1 -1 -1 0 -1 0 -1 -1
        CFGEDIT 1 1 0 0 1 1 1 1 1 1 1 0.25 0 0 683 728 1 0 0 2 0.125 0 0 0 0 0.5 0 0 1 64
      >
    >
  >
  <TRACK {80604035-2BD9-43BB-A255-4E5F9E756779}
    NAME "PART KEYS_ANIM_RH"
    PEAKCOL 16842624
    BEAT -1
    AUTOMODE 0
    VOLPAN 0.36279289742106 0 -1 -1 1
    MUTESOLO 1 0 0
    IPHASE 0
    PLAYOFFS 0 1
    ISBUS 0 0
    BUSCOMP 0 0 0 0 0
    SHOWINMIX 1 0.6667 0.5 1 0.5 -1 -1 -1
    SEL 0
    REC 0 0 0 0 0 0 0 0
    TRACKHEIGHT 0 0 0 0 0 0 0
    INQ 0 0 0 0.5 100 0 0 100
    NCHAN 2
    FX 1
    TRACKID {80604035-2BD9-43BB-A255-4E5F9E756779}
    PERF 0
    MIDIOUT -1
    <MIDINOTENAMES
      0 0 "C2-E3 Range" 0 0
      0 2 "D2-F3 Range" 0 2
      0 4 "E2-G3 Range" 0 4
      0 5 "F2-A3 Range" 0 5
      0 7 "G2-B3 Range" 0 7
      0 9 "A2-C4 Range" 0 9
      0 47 ---- 0 47
      0 48 "C2 (Lowest Note)" 0 48
      0 49 C#2 0 49
      0 50 D2 0 50
      0 51 Eb2 0 51
      0 52 E2 0 52
      0 53 F2 0 53
      0 54 F#2 0 54
      0 55 G2 0 55
      0 56 G#2 0 56
      0 57 A2 0 57
      0 58 Bb2 0 58
      0 59 B2 0 59
      0 60 C3 0 60
      0 61 C#3 0 61
      0 62 D3 0 62
      0 63 Eb3 0 63
      0 64 E3 0 64
      0 65 F3 0 65
      0 66 F#3 0 66
      0 67 G3 0 67
      0 68 G#3 0 68
      0 69 A3 0 69
      0 70 Bb3 0 70
      0 71 B3 0 71
      0 72 "C4 (Highest Note)" 0 72
      0 114 ---- 0 114
      0 115 "Solo Marker" 0 115
      0 116 "Overdrive Marker" 0 116
      0 125 ---- 0 125
      0 126 "Glissando Marker" 0 126
      0 127 "Trill Marker" 0 127
    >
    MAINSEND 1 0
    <FXCHAIN
      SHOW 0
      LASTSEL 0
      DOCKED 0
    >
    <ITEM
      POSITION 0
      SNAPOFFS 0
      LENGTH 190.61334591708234
      LOOP 0
      ALLTAKES 0
      FADEIN 1 0 0 1 0 0 0
      FADEOUT 1 0 0 1 0 0 0
      MUTE 0 0
      SEL 0
      IGUID {6A43A4E9-6390-4FBA-9F07-B2C821A1720C}
      IID 19
      NAME "PART KEYS_ANIM_RH"
      VOLPAN 1 0 1 -1
      SOFFS 0 0
      PLAYRATE 1 1 0 -65536 0 0.0025
      CHANMODE 0
      GUID {FA5AE238-E1D7-41F5-A663-4C49E4376041}
      <SOURCE MIDI
        HASDATA 1 480 QN
        CCINTERP 32
        POOLEDEVTS {F3E81E01-BDB4-4D54-8C5A-A595C6FE1426}
        <X 0 0 0 0 3 "PART KEYS_ANIM_RH"
          /wNQQVJUIEtFWVNfQU5JTV9SSA==
        >
        E 180481 b0 7b 00
        CCINTERP 32
        GUID {268DE88D-9169-44F5-97A1-ABDA1E2CF031}
        IGNTEMPO 0 120 4 4
        SRCCOLOR 14
        VELLANE 132 128 60 0 1
        TEXTSTRINGFILE "C:\Program Files\REAPER\Data\Text_Strings\Text Events List.txt"
        CFGEDITVIEW 2612.554938 0.179136 51 12 0 0 0 0 0 0.5
        KEYSNAP 0
        TRACKSEL 0
        EVTFILTER 0 -1 -1 -1 -1 0 1 0 0 -1 -1 -1 -1 0 -1 0 -1 -1
        CFGEDIT 1 1 0 0 1 1 1 1 1 1 1 0.25 0 0 683 728 1 0 0 2 0 0 0 0 0 0.5 0 0 1 64
      >
    >
  >
  <TRACK {F014911F-41F0-491C-9A25-C3D2A462D8D7}
    NAME "PART KEYS_ANIM_LH"
    PEAKCOL 16842624
    BEAT -1
    AUTOMODE 0
    VOLPAN 1.28351656094823 0 -1 -1 1
    MUTESOLO 1 0 0
    IPHASE 0
    PLAYOFFS 0 1
    ISBUS 2 -1
    BUSCOMP 0 0 0 0 0
    SHOWINMIX 1 0.6667 0.5 1 0.5 -1 -1 -1
    SEL 0
    REC 0 0 0 0 0 0 0 0
    TRACKHEIGHT 0 0 0 0 0 0 0
    INQ 0 0 0 0.5 100 0 0 100
    NCHAN 2
    FX 1
    TRACKID {F014911F-41F0-491C-9A25-C3D2A462D8D7}
    PERF 0
    MIDIOUT -1
    <MIDINOTENAMES
      0 0 "C2-E3 Range" 0 0
      0 2 "D2-F3 Range" 0 2
      0 4 "E2-G3 Range" 0 4
      0 5 "F2-A3 Range" 0 5
      0 7 "G2-B3 Range" 0 7
      0 9 "A2-C4 Range" 0 9
      0 47 ---- 0 47
      0 48 "C2 (Lowest Note)" 0 48
      0 49 C#2 0 49
      0 50 D2 0 50
      0 51 Eb2 0 51
      0 52 E2 0 52
      0 53 F2 0 53
      0 54 F#2 0 54
      0 55 G2 0 55
      0 56 G#2 0 56
      0 57 A2 0 57
      0 58 Bb2 0 58
      0 59 B2 0 59
      0 60 C3 0 60
      0 61 C#3 0 61
      0 62 D3 0 62
      0 63 Eb3 0 63
      0 64 E3 0 64
      0 65 F3 0 65
      0 66 F#3 0 66
      0 67 G3 0 67
      0 68 G#3 0 68
      0 69 A3 0 69
      0 70 Bb3 0 70
      0 71 B3 0 71
      0 72 "C4 (Highest Note)" 0 72
      0 114 ---- 0 114
      0 115 "Solo Marker" 0 115
      0 116 "Overdrive Marker" 0 116
      0 125 ---- 0 125
      0 126 "Glissando Marker" 0 126
      0 127 "Trill Marker" 0 127
    >
    MAINSEND 1 0
    <FXCHAIN
      SHOW 0
      LASTSEL 0
      DOCKED 0
    >
    <ITEM
      POSITION 0
      SNAPOFFS 0
      LENGTH 190.61334591708234
      LOOP 0
      ALLTAKES 0
      FADEIN 1 0 0 1 0 0 0
      FADEOUT 1 0 0 1 0 0 0
      MUTE 0 0
      SEL 0
      IGUID {F0F97A68-91AD-4B41-8D32-822B6159FDBC}
      IID 20
      NAME "PART KEYS_ANIM_LH"
      VOLPAN 1 0 1 -1
      SOFFS 0 0
      PLAYRATE 1 1 0 -65536 0 0.0025
      CHANMODE 0
      GUID {214023C3-6BA4-450F-A73F-59780553B94C}
      <SOURCE MIDI
        HASDATA 1 480 QN
        CCINTERP 32
        POOLEDEVTS {CDB62F15-0A12-4F8B-B87F-B2F2FB940A07}
        <X 0 0 0 0 3 "PART KEYS_ANIM_LH"
          /wNQQVJUIEtFWVNfQU5JTV9MSA==
        >
        E 180481 b0 7b 00
        CCINTERP 32
        GUID {9527D45A-14D5-4C89-A39E-3528B0F29941}
        IGNTEMPO 0 120 4 4
        SRCCOLOR 15
        VELLANE 132 128 60 0 1
        TEXTSTRINGFILE "C:\Program Files\REAPER\Data\Text_Strings\Text Events List.txt"
        CFGEDITVIEW -4299.275963 82.395269 11 17 0 0 0 0 0 0.5
        KEYSNAP 0
        TRACKSEL 0
        EVTFILTER 0 -1 -1 -1 -1 0 1 0 0 -1 -1 -1 -1 0 -1 0 -1 -1
        CFGEDIT 1 1 0 1 1 1 1 1 1 1 1 0.125 -8 -8 1374 736 1 2 1 2 0 0 0 0 0 0.5 1 0 1 64
      >
    >
  >
  <TRACK {4BCC1CF3-63A3-43C4-A155-D3593AD88A10}
    NAME EVENTS
    PEAKCOL 29393024
    BEAT -1
    AUTOMODE 0
    VOLPAN 1 0 -1 -1 1
    MUTESOLO 0 0 0
    IPHASE 0
    PLAYOFFS 0 1
    ISBUS 0 0
    BUSCOMP 0 0 0 0 0
    SHOWINMIX 1 0.6667 0.5 1 0.5 -1 -1 -1
    SEL 0
    REC 0 0 0 0 0 0 0 0
    TRACKHEIGHT 0 0 0 0 0 0 0
    INQ 0 0 0 0.5 100 0 0 100
    NCHAN 2
    FX 1
    TRACKID {4BCC1CF3-63A3-43C4-A155-D3593AD88A10}
    PERF 0
    MIDIOUT -1
    MAINSEND 1 0
    <FXCHAIN
      SHOW 0
      LASTSEL 0
      DOCKED 0
    >
    <ITEM
      POSITION 0
      SNAPOFFS 0
      LENGTH 224.86504361704624
      LOOP 0
      ALLTAKES 0
      FADEIN 1 0 0 1 0 0 0
      FADEOUT 1 0 0 1 0 0 0
      MUTE 0 0
      SEL 0
      IGUID {86A06D27-867C-4398-9CE6-8F0526B3B594}
      IID 21
      NAME EVENTS
      VOLPAN 1 0 1 -1
      SOFFS 0 0
      PLAYRATE 1 1 0 -65536 0 0.0025
      CHANMODE 0
      GUID {584C8192-4FF3-4E29-8138-2E6BD568B61A}
      <SOURCE MIDI
        HASDATA 1 480 QN
        CCINTERP 32
        POOLEDEVTS {899D1E78-D2CD-4F1B-9516-8A9E0CAAADA7}
        <X 0 0 0 0 3 EVENTS
          /wNFVkVOVFM=
        >
        <X 0 0 0 0 1 [crowd_normal]
          /wFbY3Jvd2Rfbm9ybWFsXQ==
        >
        <X 0 0 0 0 1 [prc_intro]
          /wFbcHJjX2ludHJvXQ==
        >
        <X 3840 0 0 0 1 [music_start]
          /wFbbXVzaWNfc3RhcnRd
        >
        <X 14880 0 0 0 1 [prc_verse_1a]
          /wFbcHJjX3ZlcnNlXzFhXQ==
        >
        <X 15360 0 0 0 1 [prc_verse_1b]
          /wFbcHJjX3ZlcnNlXzFiXQ==
        >
        <X 23040 0 0 0 1 [prc_bridge_a]
          /wFbcHJjX2JyaWRnZV9hXQ==
        >
        <X 7680 0 0 0 1 [prc_verse_2a]
          /wFbcHJjX3ZlcnNlXzJhXQ==
        >
        <X 23040 0 0 0 1 [prc_verse_2b]
          /wFbcHJjX3ZlcnNlXzJiXQ==
        >
        <X 15360 0 0 0 1 [prc_chorus_1a]
          /wFbcHJjX2Nob3J1c18xYV0=
        >
        <X 10080 0 0 0 1 [prc_gtr_solo]
          /wFbcHJjX2d0cl9zb2xvXQ==
        >
        <X 8160 0 0 0 1 [prc_verse_3a]
          /wFbcHJjX3ZlcnNlXzNhXQ==
        >
        <X 15360 0 0 0 1 [prc_verse_3b]
          /wFbcHJjX3ZlcnNlXzNiXQ==
        >
        <X 9600 0 0 0 1 [prc_verse_3c]
          /wFbcHJjX3ZlcnNlXzNjXQ==
        >
        <X 15360 0 0 0 1 [prc_chorus_2a]
          /wFbcHJjX2Nob3J1c18yYV0=
        >
        <X 6720 0 0 0 1 [prc_outro]
          /wFbcHJjX291dHJvXQ==
        >
        <X 42600 0 0 0 1 [music_end]
          /wFbbXVzaWNfZW5kXQ==
        >
        <x 1080 0 0 0 1 [end]
          /wFbZW5kXQ==
        >
        E 960 b0 7b 00
        CCINTERP 32
        GUID {40AD7956-A22A-434A-8513-4D3792B9DF69}
        IGNTEMPO 0 120 4 4
        SRCCOLOR 16
        VELLANE 132 123 128 0 1
        TEXTSTRINGFILE "Text Events List.txt"
        CFGEDITVIEW 196576.427897 0.228347 0 12 0 -1 0 0 0 0.5
        KEYSNAP 0
        TRACKSEL 269
        EVTFILTER 0 -1 -1 -1 -1 0 1 0 0 -1 -1 -1 -1 0 -1 0 -1 -1
        CFGEDIT 1 1 0 0 0 1 1 1 1 1 1 0.0625 0 0 683 728 1 0 0 1 0.125 0 1 0 0 0.5 1 0 1 64
      >
    >
  >
  <TRACK {1529008F-97D2-43EB-8634-7C5A7418AD90}
    NAME VENUE
    PEAKCOL 16842496
    BEAT -1
    AUTOMODE 0
    VOLPAN 1 0 -1 -1 1
    MUTESOLO 0 0 0
    IPHASE 0
    PLAYOFFS 0 1
    ISBUS 0 0
    BUSCOMP 0 0 0 0 0
    SHOWINMIX 1 0.6667 0.5 1 0.5 -1 -1 -1
    SEL 0
    REC 0 0 0 0 0 0 0 0
    TRACKHEIGHT 0 0 0 0 0 0 0
    INQ 0 0 0 0.5 100 0 0 100
    NCHAN 2
    FX 1
    TRACKID {1529008F-97D2-43EB-8634-7C5A7418AD90}
    PERF 0
    MIDIOUT -1
    <MIDINOTENAMES
      0 37 "Spotlight on Bass" 0 37
      0 38 "Spotlight on Drums" 0 38
      0 39 "Spotlight on Guitar" 0 39
      0 40 "Spotlight on Vocals" 0 40
      0 41 "Spotlight on Keys" 0 41
      0 85 "Bassist Sing Along" 0 85
      0 86 "Drummer Sing Along" 0 86
      0 87 "Guitarist Sing Along" 0 87
    >
    MAINSEND 1 0
    <FXCHAIN
      SHOW 0
      LASTSEL 0
      DOCKED 0
    >
    <ITEM
      POSITION 0
      SNAPOFFS 0
      LENGTH 190.61334591708234
      LOOP 0
      ALLTAKES 0
      FADEIN 1 0 0 1 0 0 0
      FADEOUT 1 0 0 1 0 0 0
      MUTE 0 0
      SEL 0
      IGUID {71027329-E0AB-447D-A192-4839733334E7}
      IID 22
      NAME VENUE
      VOLPAN 1 0 1 -1
      SOFFS 0 0
      PLAYRATE 1 1 0 -65536 0 0.0025
      CHANMODE 0
      GUID {44F0FFD1-5109-4A47-8BED-262AA04D3B23}
      <SOURCE MIDI
        HASDATA 1 480 QN
        CCINTERP 32
        POOLEDEVTS {1E8118CF-4515-481B-92F7-2CDF8EA27294}
        <X 0 0 0 0 3 VENUE
          /wNWRU5VRQ==
        >
        <X 0 0 0 0 1 "[lighting ()]"
          /wFbbGlnaHRpbmcgKCld
        >
        E 180481 b0 7b 00
        CCINTERP 32
        GUID {30097062-47C5-4B33-B665-170EF09D70D9}
        IGNTEMPO 0 120 4 4
        SRCCOLOR 17
        VELLANE 132 230 230 0 1
        TEXTSTRINGFILE "Text Events List.txt"
        CFGEDITVIEW -4299.275963 82.395269 79 12 0 0 0 0 0 0.5
        KEYSNAP 0
        TRACKSEL 0
        EVTFILTER 0 -1 -1 -1 -1 0 1 0 0 -1 -1 -1 -1 0 -1 0 -1 -1
        CFGEDIT 1 1 0 0 1 1 1 1 1 1 1 0.25 133 19 1300 803 1 0 1 2 0 0 0 0 0 0.5 1 0 1 64
      >
    >
  >
  <TRACK {7BC63EFC-0ABC-4D0D-8204-E9893AE9FFFA}
    NAME BEAT
    PEAKCOL 23514346
    BEAT -1
    AUTOMODE 0
    VOLPAN 1 0 -1 -1 1
    MUTESOLO 0 0 0
    IPHASE 0
    PLAYOFFS 0 1
    ISBUS 0 0
    BUSCOMP 1 0 0 0 0
    SHOWINMIX 1 0.6667 0.5 1 0.5 -1 -1 -1
    SEL 0
    REC 0 0 0 0 0 0 0 0
    TRACKHEIGHT 0 0 0 0 0 0 0
    INQ 0 0 0 0.5 100 0 0 100
    NCHAN 2
    FX 1
    TRACKID {7BC63EFC-0ABC-4D0D-8204-E9893AE9FFFA}
    PERF 0
    MIDIOUT -1
    <MIDINOTENAMES
      0 12 Downbeat 0 12
      0 13 "Up Beats" 0 13
    >
    MAINSEND 1 0
    <FXCHAIN
      SHOW 0
      LASTSEL 0
      DOCKED 0
    >
    <ITEM
      POSITION 0
      SNAPOFFS 0
      LENGTH 224.86504361704624
      LOOP 0
      ALLTAKES 0
      FADEIN 1 0 0 1 0 0 0
      FADEOUT 1 0 0 1 0 0 0
      MUTE 0 0
      SEL 0
      IGUID {9960CDFD-BF2E-4E67-97CD-4F13D0A3F2ED}
      IID 23
      NAME BEAT
      VOLPAN 1 0 1 -1
      SOFFS 0 0
      PLAYRATE 1 1 0 -65536 0 0.0025
      CHANMODE 0
      GUID {CEBFDCF1-B2BD-47E1-A085-C26E1C9E9ED2}
      <SOURCE MIDI
        HASDATA 1 480 QN
        CCINTERP 32
        POOLEDEVTS {C7B48D80-3AAB-486E-884E-A81D584C00DF}
        <X 0 0 0 0 3 BEAT
          /wNCRUFU
        >
        e 0 96 0c 64
        e 120 86 0c 00
        e 360 96 0d 64
        e 120 86 0d 00
        e 360 96 0d 64
        e 120 86 0d 00
        e 360 96 0d 64
        e 120 86 0d 00
        e 360 96 0c 64
        e 120 86 0c 00
        e 360 96 0d 64
        e 120 86 0d 00
        e 360 96 0d 64
        e 120 86 0d 00
        e 360 96 0d 64
        e 120 86 0d 00
        e 360 96 0c 64
        e 120 86 0c 00
        e 360 96 0d 64
        e 120 86 0d 00
        e 360 96 0d 64
        e 120 86 0d 00
        e 360 96 0d 64
        e 120 86 0d 00
        e 360 96 0c 64
        e 120 86 0c 00
        e 360 96 0d 64
        e 120 86 0d 00
        e 360 96 0d 64
        e 120 86 0d 00
        e 360 96 0d 64
        e 120 86 0d 00
        e 360 96 0c 64
        e 120 86 0c 00
        e 360 96 0d 64
        e 120 86 0d 00
        e 360 96 0d 64
        e 120 86 0d 00
        e 360 96 0d 64
        e 120 86 0d 00
        e 360 96 0c 64
        e 120 86 0c 00
        e 360 96 0d 64
        e 120 86 0d 00
        e 360 96 0d 64
        e 120 86 0d 00
        e 360 96 0d 64
        e 120 86 0d 00
        e 360 96 0c 64
        e 120 86 0c 00
        e 360 96 0d 64
        e 120 86 0d 00
        e 360 96 0d 64
        e 120 86 0d 00
        e 360 96 0d 64
        e 120 86 0d 00
        e 360 96 0c 64
        e 120 86 0c 00
        e 360 96 0d 64
        e 120 86 0d 00
        e 360 96 0d 64
        e 120 86 0d 00
        e 360 96 0d 64
        e 120 86 0d 00
        e 360 96 0c 64
        e 120 86 0c 00
        e 360 96 0d 64
        e 120 86 0d 00
        e 360 96 0d 64
        e 120 86 0d 00
        e 360 96 0d 64
        e 120 86 0d 00
        e 360 96 0c 64
        e 120 86 0c 00
        e 360 96 0d 64
        e 120 86 0d 00
        e 360 96 0d 64
        e 120 86 0d 00
        e 360 96 0d 64
        e 120 86 0d 00
        e 360 96 0c 64
        e 120 86 0c 00
        e 360 96 0d 64
        e 120 86 0d 00
        e 360 96 0d 64
        e 120 86 0d 00
        e 360 96 0d 64
        e 120 86 0d 00
        e 360 96 0c 64
        e 120 86 0c 00
        e 360 96 0d 64
        e 120 86 0d 00
        e 360 96 0d 64
        e 120 86 0d 00
        e 360 96 0d 64
        e 120 86 0d 00
        e 360 96 0c 64
        e 120 86 0c 00
        e 360 96 0d 64
        e 120 86 0d 00
        e 360 96 0d 64
        e 120 86 0d 00
        e 360 96 0d 64
        e 120 86 0d 00
        e 360 96 0c 64
        e 120 86 0c 00
        e 360 96 0d 64
        e 120 86 0d 00
        e 360 96 0d 64
        e 120 86 0d 00
        e 360 96 0d 64
        e 120 86 0d 00
        e 360 96 0c 64
        e 120 86 0c 00
        e 360 96 0d 64
        e 120 86 0d 00
        e 360 96 0d 64
        e 120 86 0d 00
        e 360 96 0d 64
        e 120 86 0d 00
        e 360 96 0c 64
        e 120 86 0c 00
        e 360 96 0d 64
        e 120 86 0d 00
        e 360 96 0d 64
        e 120 86 0d 00
        e 360 96 0d 64
        e 120 86 0d 00
        e 360 96 0c 64
        e 120 86 0c 00
        e 360 96 0d 64
        e 120 86 0d 00
        e 360 96 0d 64
        e 120 86 0d 00
        e 360 96 0d 64
        e 120 86 0d 00
        e 360 96 0c 64
        e 120 86 0c 00
        e 360 96 0d 64
        e 120 86 0d 00
        e 360 96 0d 64
        e 120 86 0d 00
        e 360 96 0d 64
        e 120 86 0d 00
        e 360 96 0c 64
        e 120 86 0c 00
        e 360 96 0d 64
        e 120 86 0d 00
        e 360 96 0d 64
        e 120 86 0d 00
        e 360 96 0d 64
        e 120 86 0d 00
        e 360 96 0c 64
        e 120 86 0c 00
        e 360 96 0d 64
        e 120 86 0d 00
        e 360 96 0d 64
        e 120 86 0d 00
        e 360 96 0d 64
        e 120 86 0d 00
        e 360 96 0c 64
        e 120 86 0c 00
        e 360 96 0d 64
        e 120 86 0d 00
        e 360 96 0d 64
        e 120 86 0d 00
        e 360 96 0d 64
        e 120 86 0d 00
        e 360 96 0c 64
        e 120 86 0c 00
        e 360 96 0d 64
        e 120 86 0d 00
        e 360 96 0d 64
        e 120 86 0d 00
        e 360 96 0d 64
        e 120 86 0d 00
        e 360 96 0c 64
        e 120 86 0c 00
        e 360 96 0d 64
        e 120 86 0d 00
        e 360 96 0d 64
        e 120 86 0d 00
        e 360 96 0d 64
        e 120 86 0d 00
        e 360 96 0c 64
        e 120 86 0c 00
        e 360 96 0d 64
        e 120 86 0d 00
        e 360 96 0d 64
        e 120 86 0d 00
        e 360 96 0d 64
        e 120 86 0d 00
        e 360 96 0c 64
        e 120 86 0c 00
        e 360 96 0d 64
        e 120 86 0d 00
        e 360 96 0d 64
        e 120 86 0d 00
        e 360 96 0d 64
        e 120 86 0d 00
        e 360 96 0c 64
        e 120 86 0c 00
        e 360 96 0d 64
        e 120 86 0d 00
        e 360 96 0d 64
        e 120 86 0d 00
        e 360 96 0d 64
        e 120 86 0d 00
        e 360 96 0c 64
        e 120 86 0c 00
        e 360 96 0d 64
        e 120 86 0d 00
        e 360 96 0d 64
        e 120 86 0d 00
        e 360 96 0d 64
        e 120 86 0d 00
        e 360 96 0c 64
        e 120 86 0c 00
        e 360 96 0d 64
        e 120 86 0d 00
        e 360 96 0d 64
        e 120 86 0d 00
        e 360 96 0d 64
        e 120 86 0d 00
        e 360 96 0c 64
        e 120 86 0c 00
        e 360 96 0d 64
        e 120 86 0d 00
        e 360 96 0d 64
        e 120 86 0d 00
        e 360 96 0d 64
        e 120 86 0d 00
        e 360 96 0c 64
        e 120 86 0c 00
        e 360 96 0d 64
        e 120 86 0d 00
        e 360 96 0d 64
        e 120 86 0d 00
        e 360 96 0d 64
        e 120 86 0d 00
        e 360 96 0c 64
        e 120 86 0c 00
        e 360 96 0d 64
        e 120 86 0d 00
        e 360 96 0d 64
        e 120 86 0d 00
        e 360 96 0d 64
        e 120 86 0d 00
        e 360 96 0c 64
        e 120 86 0c 00
        e 360 96 0d 64
        e 120 86 0d 00
        e 360 96 0d 64
        e 120 86 0d 00
        e 360 96 0d 64
        e 120 86 0d 00
        e 360 96 0c 64
        e 120 86 0c 00
        e 360 96 0d 64
        e 120 86 0d 00
        e 360 96 0d 64
        e 120 86 0d 00
        e 360 96 0d 64
        e 120 86 0d 00
        e 360 96 0c 64
        e 120 86 0c 00
        e 360 96 0d 64
        e 120 86 0d 00
        e 360 96 0d 64
        e 120 86 0d 00
        e 360 96 0d 64
        e 120 86 0d 00
        e 360 96 0c 64
        e 120 86 0c 00
        e 360 96 0d 64
        e 120 86 0d 00
        e 360 96 0d 64
        e 120 86 0d 00
        e 360 96 0d 64
        e 120 86 0d 00
        e 360 96 0c 64
        e 120 86 0c 00
        e 360 96 0d 64
        e 120 86 0d 00
        e 360 96 0d 64
        e 120 86 0d 00
        e 360 96 0d 64
        e 120 86 0d 00
        e 360 96 0c 64
        e 120 86 0c 00
        e 360 96 0d 64
        e 120 86 0d 00
        e 360 96 0d 64
        e 120 86 0d 00
        e 360 96 0d 64
        e 120 86 0d 00
        e 360 96 0c 64
        e 120 86 0c 00
        e 360 96 0d 64
        e 120 86 0d 00
        e 360 96 0d 64
        e 120 86 0d 00
        e 360 96 0d 64
        e 120 86 0d 00
        e 360 96 0c 64
        e 120 86 0c 00
        e 360 96 0d 64
        e 120 86 0d 00
        e 360 96 0d 64
        e 120 86 0d 00
        e 360 96 0d 64
        e 120 86 0d 00
        e 360 96 0c 64
        e 120 86 0c 00
        e 360 96 0d 64
        e 120 86 0d 00
        e 360 96 0d 64
        e 120 86 0d 00
        e 360 96 0d 64
        e 120 86 0d 00
        e 360 96 0c 64
        e 120 86 0c 00
        e 360 96 0d 64
        e 120 86 0d 00
        e 360 96 0d 64
        e 120 86 0d 00
        e 360 96 0d 64
        e 120 86 0d 00
        e 360 96 0c 64
        e 120 86 0c 00
        e 360 96 0d 64
        e 120 86 0d 00
        e 360 96 0d 64
        e 120 86 0d 00
        e 360 96 0d 64
        e 120 86 0d 00
        e 360 96 0c 64
        e 120 86 0c 00
        e 360 96 0d 64
        e 120 86 0d 00
        e 360 96 0d 64
        e 120 86 0d 00
        e 360 96 0d 64
        e 120 86 0d 00
        e 360 96 0c 64
        e 120 86 0c 00
        e 360 96 0d 64
        e 120 86 0d 00
        e 360 96 0d 64
        e 120 86 0d 00
        e 360 96 0d 64
        e 120 86 0d 00
        e 360 96 0c 64
        e 120 86 0c 00
        e 360 96 0d 64
        e 120 86 0d 00
        e 360 96 0d 64
        e 120 86 0d 00
        e 360 96 0d 64
        e 120 86 0d 00
        e 360 96 0c 64
        e 120 86 0c 00
        e 360 96 0d 64
        e 120 86 0d 00
        e 360 96 0d 64
        e 120 86 0d 00
        e 360 96 0d 64
        e 120 86 0d 00
        e 360 96 0c 64
        e 120 86 0c 00
        e 360 96 0d 64
        e 120 86 0d 00
        e 360 96 0d 64
        e 120 86 0d 00
        e 360 96 0d 64
        e 120 86 0d 00
        e 360 96 0c 64
        e 120 86 0c 00
        e 360 96 0d 64
        e 120 86 0d 00
        e 360 96 0d 64
        e 120 86 0d 00
        e 360 96 0d 64
        e 120 86 0d 00
        e 360 96 0c 64
        e 120 86 0c 00
        e 360 96 0d 64
        e 120 86 0d 00
        e 360 96 0d 64
        e 120 86 0d 00
        e 360 96 0d 64
        e 120 86 0d 00
        e 360 96 0c 64
        e 120 86 0c 00
        e 360 96 0d 64
        e 120 86 0d 00
        e 360 96 0d 64
        e 120 86 0d 00
        e 360 96 0d 64
        e 120 86 0d 00
        e 360 96 0c 64
        e 120 86 0c 00
        e 360 96 0d 64
        e 120 86 0d 00
        e 360 96 0d 64
        e 120 86 0d 00
        e 360 96 0d 64
        e 120 86 0d 00
        e 360 96 0c 64
        e 120 86 0c 00
        e 360 96 0d 64
        e 120 86 0d 00
        e 360 96 0d 64
        e 120 86 0d 00
        e 360 96 0d 64
        e 120 86 0d 00
        e 360 96 0c 64
        e 120 86 0c 00
        e 360 96 0d 64
        e 120 86 0d 00
        e 360 96 0d 64
        e 120 86 0d 00
        e 360 96 0d 64
        e 120 86 0d 00
        e 360 96 0c 64
        e 120 86 0c 00
        e 360 96 0d 64
        e 120 86 0d 00
        e 360 96 0d 64
        e 120 86 0d 00
        e 360 96 0d 64
        e 120 86 0d 00
        e 360 96 0c 64
        e 120 86 0c 00
        e 360 96 0d 64
        e 120 86 0d 00
        e 360 96 0d 64
        e 120 86 0d 00
        e 360 96 0d 64
        e 120 86 0d 00
        e 360 96 0c 64
        e 120 86 0c 00
        e 360 96 0d 64
        e 120 86 0d 00
        e 360 96 0d 64
        e 120 86 0d 00
        e 360 96 0d 64
        e 120 86 0d 00
        e 360 96 0c 64
        e 120 86 0c 00
        e 360 96 0d 64
        e 120 86 0d 00
        e 360 96 0d 64
        e 120 86 0d 00
        e 360 96 0d 64
        e 120 86 0d 00
        e 360 96 0c 64
        e 120 86 0c 00
        e 360 96 0d 64
        e 120 86 0d 00
        e 360 96 0d 64
        e 120 86 0d 00
        e 360 96 0d 64
        e 120 86 0d 00
        e 360 96 0c 64
        e 120 86 0c 00
        e 360 96 0d 64
        e 120 86 0d 00
        e 360 96 0d 64
        e 120 86 0d 00
        e 360 96 0d 64
        e 120 86 0d 00
        e 360 96 0c 64
        e 120 86 0c 00
        e 360 96 0d 64
        e 120 86 0d 00
        e 360 96 0d 64
        e 120 86 0d 00
        e 360 96 0d 64
        e 120 86 0d 00
        e 360 96 0c 64
        e 120 86 0c 00
        e 360 96 0d 64
        e 120 86 0d 00
        e 360 96 0d 64
        e 120 86 0d 00
        e 360 96 0d 64
        e 120 86 0d 00
        e 360 96 0c 64
        e 120 86 0c 00
        e 360 96 0d 64
        e 120 86 0d 00
        e 360 96 0d 64
        e 120 86 0d 00
        e 360 96 0d 64
        e 120 86 0d 00
        e 360 96 0c 64
        e 120 86 0c 00
        e 360 96 0d 64
        e 120 86 0d 00
        e 360 96 0d 64
        e 120 86 0d 00
        e 360 96 0d 64
        e 120 86 0d 00
        e 360 96 0c 64
        e 120 86 0c 00
        e 360 96 0d 64
        e 120 86 0d 00
        e 360 96 0d 64
        e 120 86 0d 00
        e 360 96 0d 64
        e 120 86 0d 00
        e 360 96 0c 64
        e 120 86 0c 00
        e 360 96 0d 64
        e 120 86 0d 00
        e 360 96 0d 64
        e 120 86 0d 00
        e 360 96 0d 64
        e 120 86 0d 00
        e 360 96 0c 64
        e 120 86 0c 00
        e 360 96 0d 64
        e 120 86 0d 00
        e 360 96 0d 64
        e 120 86 0d 00
        e 360 96 0d 64
        e 120 86 0d 00
        e 360 96 0c 64
        e 120 86 0c 00
        e 360 96 0d 64
        e 120 86 0d 00
        e 360 96 0d 64
        e 120 86 0d 00
        e 360 96 0d 64
        e 120 86 0d 00
        e 360 96 0c 64
        e 120 86 0c 00
        e 360 96 0d 64
        e 120 86 0d 00
        e 360 96 0d 64
        e 120 86 0d 00
        e 360 96 0d 64
        e 120 86 0d 00
        e 360 96 0c 64
        e 120 86 0c 00
        e 360 96 0d 64
        e 120 86 0d 00
        e 360 96 0d 64
        e 120 86 0d 00
        e 360 96 0d 64
        e 120 86 0d 00
        e 360 96 0c 64
        e 120 86 0c 00
        e 360 96 0d 64
        e 120 86 0d 00
        e 360 96 0d 64
        e 120 86 0d 00
        e 360 96 0d 64
        e 120 86 0d 00
        e 360 96 0c 64
        e 120 86 0c 00
        e 360 96 0d 64
        e 120 86 0d 00
        e 360 96 0d 64
        e 120 86 0d 00
        e 360 96 0d 64
        e 120 86 0d 00
        e 360 96 0c 64
        e 120 86 0c 00
        e 360 96 0d 64
        e 120 86 0d 00
        e 360 96 0d 64
        e 120 86 0d 00
        e 360 96 0d 64
        e 120 86 0d 00
        e 360 96 0c 64
        e 120 86 0c 00
        e 360 96 0d 64
        e 120 86 0d 00
        e 360 96 0d 64
        e 120 86 0d 00
        e 360 96 0d 64
        e 120 86 0d 00
        e 360 96 0c 64
        e 120 86 0c 00
        e 360 96 0d 64
        e 120 86 0d 00
        e 360 96 0d 64
        e 120 86 0d 00
        e 360 96 0d 64
        e 120 86 0d 00
        e 360 96 0c 64
        e 120 86 0c 00
        e 360 96 0d 64
        e 120 86 0d 00
        e 360 96 0d 64
        e 120 86 0d 00
        e 360 96 0d 64
        e 120 86 0d 00
        e 360 96 0c 64
        e 120 86 0c 00
        e 360 96 0d 64
        e 120 86 0d 00
        e 360 96 0d 64
        e 120 86 0d 00
        e 360 96 0d 64
        e 120 86 0d 00
        e 360 96 0c 64
        e 120 86 0c 00
        e 360 96 0d 64
        e 120 86 0d 00
        e 360 96 0d 64
        e 120 86 0d 00
        e 360 96 0d 64
        e 120 86 0d 00
        e 360 96 0c 64
        e 120 86 0c 00
        e 360 96 0d 64
        e 120 86 0d 00
        e 360 96 0d 64
        e 120 86 0d 00
        e 360 96 0d 64
        e 120 86 0d 00
        e 360 96 0c 64
        e 120 86 0c 00
        e 360 96 0d 64
        e 120 86 0d 00
        e 360 96 0d 64
        e 120 86 0d 00
        e 360 96 0d 64
        e 120 86 0d 00
        e 360 96 0c 64
        e 120 86 0c 00
        e 360 96 0d 64
        e 120 86 0d 00
        e 360 96 0d 64
        e 120 86 0d 00
        e 360 96 0d 64
        e 120 86 0d 00
        e 360 96 0c 64
        e 120 86 0c 00
        e 360 96 0d 64
        e 120 86 0d 00
        e 360 96 0d 64
        e 120 86 0d 00
        e 360 96 0d 64
        e 120 86 0d 00
        e 360 96 0c 64
        e 120 86 0c 00
        e 360 96 0d 64
        e 120 86 0d 00
        e 360 96 0d 64
        e 120 86 0d 00
        e 360 96 0d 64
        e 120 86 0d 00
        e 360 96 0c 64
        e 120 86 0c 00
        e 360 96 0d 64
        e 120 86 0d 00
        e 360 96 0d 64
        e 120 86 0d 00
        e 360 96 0d 64
        e 120 86 0d 00
        e 360 96 0c 64
        e 120 86 0c 00
        e 360 96 0d 64
        e 120 86 0d 00
        e 360 96 0d 64
        e 120 86 0d 00
        e 360 96 0d 64
        e 120 86 0d 00
        e 360 96 0c 64
        e 120 86 0c 00
        e 360 96 0d 64
        e 120 86 0d 00
        e 360 96 0d 64
        e 120 86 0d 00
        e 360 96 0d 64
        e 120 86 0d 00
        e 360 96 0c 64
        e 120 86 0c 00
        e 360 96 0d 64
        e 120 86 0d 00
        e 360 96 0d 64
        e 120 86 0d 00
        e 360 96 0d 64
        e 120 86 0d 00
        e 360 96 0c 64
        e 120 86 0c 00
        e 360 96 0d 64
        e 120 86 0d 00
        e 360 96 0d 64
        e 120 86 0d 00
        e 360 96 0d 64
        e 120 86 0d 00
        e 360 96 0c 64
        e 120 86 0c 00
        e 360 96 0d 64
        e 120 86 0d 00
        e 360 96 0d 64
        e 120 86 0d 00
        e 360 96 0d 64
        e 120 86 0d 00
        e 360 96 0c 64
        e 120 86 0c 00
        e 360 96 0d 64
        e 120 86 0d 00
        e 360 96 0d 64
        e 120 86 0d 00
        e 360 96 0d 64
        e 120 86 0d 00
        e 360 96 0c 64
        e 120 86 0c 00
        e 360 96 0d 64
        e 120 86 0d 00
        e 360 96 0d 64
        e 120 86 0d 00
        e 360 96 0d 64
        e 120 86 0d 00
        e 360 96 0c 64
        e 120 86 0c 00
        e 360 96 0d 64
        e 120 86 0d 00
        e 360 96 0d 64
        e 120 86 0d 00
        e 360 96 0d 64
        e 120 86 0d 00
        e 360 96 0c 64
        e 120 86 0c 00
        e 360 96 0d 64
        e 120 86 0d 00
        e 360 96 0d 64
        e 120 86 0d 00
        e 360 96 0d 64
        e 120 86 0d 00
        e 360 96 0c 64
        e 120 86 0c 00
        e 360 96 0d 64
        e 120 86 0d 00
        e 360 96 0d 64
        e 120 86 0d 00
        e 360 96 0d 64
        e 120 86 0d 00
        e 360 96 0c 64
        e 120 86 0c 00
        e 360 96 0d 64
        e 120 86 0d 00
        e 360 96 0d 64
        e 120 86 0d 00
        e 360 96 0d 64
        e 120 86 0d 00
        e 360 96 0c 64
        e 120 86 0c 00
        e 360 96 0d 64
        e 120 86 0d 00
        e 360 96 0d 64
        e 120 86 0d 00
        e 360 96 0d 64
        e 120 86 0d 00
        e 360 96 0c 64
        e 120 86 0c 00
        e 360 96 0d 64
        e 120 86 0d 00
        e 360 96 0d 64
        e 120 86 0d 00
        e 360 96 0d 64
        e 120 86 0d 00
        e 360 96 0c 64
        e 120 86 0c 00
        e 360 96 0d 64
        e 120 86 0d 00
        e 360 96 0d 64
        e 120 86 0d 00
        e 360 96 0d 64
        e 120 86 0d 00
        e 360 96 0c 64
        e 120 86 0c 00
        e 360 96 0d 64
        e 120 86 0d 00
        e 360 96 0d 64
        e 120 86 0d 00
        e 360 96 0d 64
        e 120 86 0d 00
        e 360 96 0c 64
        e 120 86 0c 00
        e 360 96 0d 64
        e 120 86 0d 00
        e 360 96 0d 64
        e 120 86 0d 00
        e 360 96 0d 64
        e 120 86 0d 00
        e 360 96 0c 64
        e 120 86 0c 00
        e 360 96 0d 64
        e 120 86 0d 00
        e 360 96 0d 64
        e 120 86 0d 00
        e 360 96 0d 64
        e 120 86 0d 00
        e 360 96 0c 64
        e 120 86 0c 00
        e 360 96 0d 64
        e 120 86 0d 00
        e 360 96 0d 64
        e 120 86 0d 00
        e 360 96 0d 64
        e 120 86 0d 00
        e 360 96 0c 64
        e 120 86 0c 00
        e 360 96 0d 64
        e 120 86 0d 00
        e 360 96 0d 64
        e 120 86 0d 00
        e 360 96 0d 64
        e 120 86 0d 00
        e 360 96 0c 64
        e 120 86 0c 00
        e 360 96 0d 64
        e 120 86 0d 00
        e 360 96 0d 64
        e 120 86 0d 00
        e 360 96 0d 64
        e 120 86 0d 00
        e 360 96 0c 64
        e 120 86 0c 00
        e 360 96 0d 64
        e 120 86 0d 00
        e 360 96 0d 64
        e 120 86 0d 00
        e 360 96 0d 64
        e 120 86 0d 00
        e 360 96 0c 64
        e 120 86 0c 00
        e 360 96 0d 64
        e 120 86 0d 00
        e 360 96 0d 64
        e 120 86 0d 00
        e 360 96 0d 64
        e 120 86 0d 00
        e 360 96 0c 64
        e 120 86 0c 00
        e 360 96 0d 64
        e 120 86 0d 00
        e 360 96 0d 64
        e 120 86 0d 00
        e 360 96 0d 64
        e 120 86 0d 00
        e 360 96 0c 64
        e 120 86 0c 00
        e 360 96 0d 64
        e 120 86 0d 00
        e 360 96 0d 64
        e 120 86 0d 00
        e 360 96 0d 64
        e 120 86 0d 00
        e 360 96 0c 64
        e 120 86 0c 00
        e 360 96 0d 64
        e 120 86 0d 00
        e 360 96 0d 64
        e 120 86 0d 00
        e 360 96 0d 64
        e 120 86 0d 00
        e 360 96 0c 64
        e 120 86 0c 00
        e 360 96 0d 64
        e 120 86 0d 00
        e 360 96 0d 64
        e 120 86 0d 00
        e 360 96 0d 64
        e 120 86 0d 00
        e 360 96 0c 64
        e 120 86 0c 00
        e 360 96 0d 64
        e 120 86 0d 00
        e 360 96 0d 64
        e 120 86 0d 00
        e 360 96 0d 64
        e 120 86 0d 00
        e 360 96 0c 64
        e 120 86 0c 00
        e 360 96 0d 64
        e 120 86 0d 00
        E 1320 b0 7b 00
        CCINTERP 32
        GUID {8CB930E8-B6A0-4CAD-825A-9F47FB66C1D0}
        IGNTEMPO 0 120 4 4
        SRCCOLOR 18
        VELLANE 132 100 100 0 1
        TEXTSTRINGFILE "Text Events List.txt"
        CFGEDITVIEW -4299.275963 82.395269 0 48 0 0 0 0 0 0.5
        KEYSNAP 0
        TRACKSEL 0
        EVTFILTER 0 -1 -1 -1 -1 0 1 0 0 -1 -1 -1 -1 0 -1 0 -1 -1
        CFGEDIT 1 1 0 0 0 1 1 1 1 1 1 1 44 63 1223 847 1 2 1 2 0 0 0 0 0 0.5 1 0 1 64
      >
    >
  >
  <TRACK {0E2FE3F2-76C0-4A51-94D0-F118951ACC28}
    NAME "PART REAL_GUITAR"
    PEAKCOL 16576
    BEAT -1
    AUTOMODE 0
    VOLPAN 0.78736664651321 0 -1 -1 1
    MUTESOLO 0 0 0
    IPHASE 0
    PLAYOFFS 0 1
    ISBUS 0 0
    BUSCOMP 0 0 0 0 0
    SHOWINMIX 1 0.6667 0.5 1 0.5 -1 -1 -1
    SEL 0
    REC 0 0 0 0 0 0 0 0
    TRACKHEIGHT 0 0 0 0 0 0 0
    INQ 0 0 0 0.5 100 0 0 100
    NCHAN 2
    FX 1
    TRACKID {0E2FE3F2-76C0-4A51-94D0-F118951ACC28}
    PERF 0
    MIDIOUT -1
    <MIDINOTENAMES
      0 4 E 0 4
      0 5 F 0 5
      0 6 Gb 0 6
      0 7 G 0 7
      0 8 Ab 0 8
      0 9 A 0 9
      0 10 Bb 0 10
      0 11 B 0 11
      0 12 C 0 12
      0 13 Db 0 13
      0 14 D 0 14
      0 15 Eb 0 15
      0 16 "Slash Chord" 0 16
      0 17 "Hide Chord Names" 0 17
      0 18 "Flat/Sharp Swap" 0 18
      0 21 "CHORD NAMES" 0 21
      0 24 "EASY E String (LOW)" 0 24
      0 25 "EASY A String" 0 25
      0 26 "EASY D String" 0 26
      0 27 "EASY G String" 0 27
      0 28 "EASY B String" 0 28
      0 29 "EASY E String (HIGH)" 0 29
      0 31 "EASY Slide Marker" 0 31
      0 32 "EASY Arpeggio Marker" 0 32
      0 48 "MEDIUM E String (LOW)" 0 48
      0 49 "MEDIUM A String" 0 49
      0 50 "MEDIUM D String" 0 50
      0 51 "MEDIUM G String" 0 51
      0 52 "MEDIUM B String" 0 52
      0 53 "MEDIUM E String (HIGH)" 0 53
      0 55 "MEDIUM Slide Marker" 0 55
      0 56 "MEDIUM Arpeggio Marker" 0 56
      0 72 "HARD E String (LOW)" 0 72
      0 73 "HARD A String" 0 73
      0 74 "HARD D String" 0 74
      0 75 "HARD G String" 0 75
      0 76 "HARD B String" 0 76
      0 77 "HARD E String (HIGH)" 0 77
      0 78 "Force Ho/Po" 0 78
      0 79 "HARD Slide Marker" 0 79
      0 80 "HARD Arpeggio Marker" 0 80
      0 81 "HARD Strum Direction" 0 81
      0 96 "EXPERT E String (LOW)" 0 96
      0 97 "EXPERT A String" 0 97
      0 98 "EXPERT D String" 0 98
      0 99 "EXPERT G String" 0 99
      0 100 "EXPERT B String" 0 100
      0 101 "EXPERT E String (HIGH)" 0 101
      0 102 "EXPERT Force Ho/Po" 0 102
      0 103 "EXPERT Slide Marker" 0 103
      0 104 "EXPERT Arpeggio Marker" 0 104
      0 105 "EXPERT Strum Direction" 0 105
      0 107 "Force Chord Numbering" 0 107
      0 108 "Left hand position" 0 108
      0 115 "Solo Marker" 0 115
      0 116 OVERDRIVE 0 116
      0 120 "BRE (use all 6)" 0 120
      0 121 BRE 0 121
      0 122 BRE 0 122
      0 123 BRE 0 123
      0 124 BRE 0 124
      0 125 BRE 0 125
      0 126 Tremelo 0 126
      0 127 Trill 0 127
    >
    MAINSEND 1 0
    <FXCHAIN
      WNDRECT 1967 550 655 408
      SHOW 0
      LASTSEL 0
      DOCKED 0
      BYPASS 0 0 0
      <JS c3/progtr ""
        0 3 0 0 0 0 0 0 0 1 - - - - - - - - - - - - - - - - - - - - - - - - - - - - - - - - - - - - - - - - - - - - - - - - - - - - - -
      >
      FLOATPOS 0 0 0 0
      FXID {C70495CD-CEBB-464E-897D-2351685947FD}
      WAK 0 0
      BYPASS 0 0 0
      <VST "VSTi: ReaSynth (Cockos)" reasynth.dll 0 "" 1919251321<5653547265737972656173796E746800> ""
        eXNlcu9e7f4AAAAAAgAAAAEAAAAAAAAAAgAAAAAAAABEAAAAAAAAAAAAEAA=
        776t3g3wrd6mm8Q76AkyPIcWWT8AAAAAAAAAAMybgD7iMAQ8AAAAAAAAAD+01hM+j8L1PQAAAD8AAIA/AAAAAAAAgD8=
        AFByb2dyYW0gMQAQAAAA
      >
      FLOATPOS 0 0 0 0
      FXID {12956B67-A7CB-43C0-BAB6-A14D1B5DECF6}
      WAK 0 0
    >
    <ITEM
      POSITION 0
      SNAPOFFS 0
      LENGTH 224.86504361704624
      LOOP 0
      ALLTAKES 0
      FADEIN 1 0 0 1 0 0 0
      FADEOUT 1 0 0 1 0 0 0
      MUTE 0 0
      SEL 0
      IGUID {20F1321F-9ED7-4853-AD09-40B222B05CF8}
      IID 24
      NAME "PART REAL_GUITAR"
      VOLPAN 1 0 1 -1
      SOFFS 0 0
      PLAYRATE 1 1 0 -1 0 0.0025
      CHANMODE 0
      GUID {3CDDC74F-292B-448F-83EC-680F8CEF1C9B}
      <SOURCE MIDI
        HASDATA 1 480 QN
        CCINTERP 32
        POOLEDEVTS {ED1F8803-04E8-4329-B783-23046FE61910}
        <X 0 0 0 0 3 "PART REAL_GUITAR"
          /wNQQVJUIFJFQUxfR1VJVEFS
        >
        E 3840 90 18 64
        E 0 90 19 64
        E 0 90 1a 64
        E 0 90 1b 64
        E 0 90 1c 64
        E 0 90 1d 64
        E 0 90 30 64
        E 0 90 31 64
        E 0 90 32 64
        E 0 90 33 64
        E 0 90 34 64
        E 0 90 35 64
        E 0 90 48 64
        E 0 90 49 64
        E 0 90 4a 64
        E 0 90 4b 64
        E 0 90 4c 64
        E 0 90 4d 64
        E 0 90 63 6d
        E 0 90 04 6d
        E 0 90 6c 6d
        E 0 90 74 64
        E 60 80 63 00
        E 0 80 04 00
        E 0 80 6c 00
        E 60 80 18 00
        E 0 80 19 00
        E 0 80 1a 00
        E 0 80 1b 00
        E 0 80 1c 00
        E 0 80 1d 00
        E 0 80 30 00
        E 0 80 31 00
        E 0 80 32 00
        E 0 80 33 00
        E 0 80 34 00
        E 0 80 35 00
        E 0 80 48 00
        E 0 80 49 00
        E 0 80 4a 00
        E 0 80 4b 00
        E 0 80 4c 00
        E 0 80 4d 00
        E 360 90 64 6d
        E 0 90 08 6d
        E 60 80 64 00
        E 0 80 08 00
        E 180 90 63 6d
        E 0 90 04 6d
        E 60 80 63 00
        E 0 80 04 00
        E 120 80 74 00
        E 60 90 62 6f
        E 0 90 0d 6f
        E 60 80 62 00
        E 0 80 0d 00
        E 420 90 62 6d
        E 0 90 0b 6d
        E 60 80 62 00
        E 0 80 0b 00
        E 420 90 63 6d
        E 0 90 04 6d
        E 60 80 63 00
        E 0 80 04 00
        E 180 90 63 6d
        E 13 90 04 6d
        E 47 80 63 00
        E 13 80 04 00
        E 167 90 64 6d
        E 0 90 08 6d
        E 60 80 64 00
        E 0 80 08 00
        E 180 90 63 6d
        E 0 90 04 6d
        E 60 80 63 00
        E 0 80 04 00
        E 180 90 62 6f
        E 0 90 0d 6f
        E 60 80 62 00
        E 0 80 0d 00
        E 420 90 62 6d
        E 0 90 0b 6d
        E 60 80 62 00
        E 0 80 0b 00
        E 420 90 63 6d
        E 0 90 04 6d
        E 60 80 63 00
        E 0 80 04 00
        E 420 90 64 6d
        E 0 90 08 6d
        E 60 80 64 00
        E 0 80 08 00
        E 180 90 63 6d
        E 0 90 04 6d
        E 60 80 63 00
        E 0 80 04 00
        E 180 90 62 6f
        E 0 90 0d 6f
        E 60 80 62 00
        E 0 80 0d 00
        E 420 90 62 6d
        E 0 90 0b 6d
        E 60 80 62 00
        E 0 80 0b 00
        E 420 90 62 6f
        E 0 90 0d 6f
        E 60 80 62 00
        E 0 80 0d 00
        E 0 90 0e 70
        E 60 90 66 6d
        E 0 90 62 70
        E 60 80 66 00
        E 630 80 62 00
        E 30 80 0e 00
        E 120 90 62 70
        E 0 90 0e 70
        E 60 80 62 00
        E 0 80 0e 00
        E 0 90 0f 71
        E 0 90 6c 71
        E 60 90 66 6d
        E 0 90 62 71
        E 60 80 66 00
        E 630 80 62 00
        E 30 80 0f 00
        E 0 80 6c 00
        E 120 90 63 6d
        E 0 90 04 6d
        E 0 90 6c 6d
        E 60 80 63 00
        E 0 80 04 00
        E 0 80 6c 00
        E 420 90 64 6d
        E 0 90 08 6d
        E 60 80 64 00
        E 0 80 08 00
        E 180 90 63 6d
        E 0 90 04 6d
        E 60 80 63 00
        E 0 80 04 00
        E 180 90 62 6f
        E 0 90 0d 6f
        E 60 80 62 00
        E 0 80 0d 00
        E 420 90 62 6d
        E 0 90 0b 6d
        E 60 80 62 00
        E 0 80 0b 00
        E 420 90 63 6d
        E 0 90 04 6d
        E 60 80 63 00
        E 0 80 04 00
        E 180 90 63 6d
        E 13 90 04 6d
        E 47 80 63 00
        E 13 80 04 00
        E 167 90 64 6d
        E 0 90 08 6d
        E 60 80 64 00
        E 0 80 08 00
        E 180 90 63 6d
        E 0 90 04 6d
        E 60 80 63 00
        E 0 80 04 00
        E 180 90 62 6f
        E 0 90 0d 6f
        E 60 80 62 00
        E 0 80 0d 00
        E 420 90 62 6d
        E 0 90 0b 6d
        E 60 80 62 00
        E 0 80 0b 00
        E 420 90 63 6d
        E 0 90 04 6d
        E 60 80 63 00
        E 0 80 04 00
        E 420 90 64 6d
        E 0 90 08 6d
        E 60 80 64 00
        E 0 80 08 00
        E 180 90 63 6d
        E 0 90 04 6d
        E 60 80 63 00
        E 0 80 04 00
        E 180 90 62 6f
        E 0 90 0d 6f
        E 60 80 62 00
        E 0 80 0d 00
        E 420 90 62 6d
        E 0 90 0b 6d
        E 60 80 62 00
        E 0 80 0b 00
        E 420 90 0d 6f
        E 0 90 62 6f
        E 60 80 0d 00
        E 0 80 62 00
        E 0 90 0e 70
        E 60 90 66 6d
        E 0 90 62 70
        E 60 80 66 00
        E 630 80 62 00
        E 30 80 0e 00
        E 120 90 0e 70
        E 0 90 62 70
        E 60 80 0e 00
        E 0 80 62 00
        E 0 90 0f 71
        E 0 90 6c 71
        E 60 90 66 6d
        E 0 90 62 71
        E 60 80 66 00
        E 630 80 62 00
        E 30 80 0f 00
        E 0 80 6c 00
        E 120 90 63 6d
        E 0 90 04 6d
        E 0 90 6c 6d
        E 60 80 63 00
        E 0 80 04 00
        E 0 80 6c 00
        E 420 90 64 6d
        E 0 90 08 6d
        E 60 80 64 00
        E 0 80 08 00
        E 180 90 63 6d
        E 0 90 04 6d
        E 60 80 63 00
        E 0 80 04 00
        E 180 90 62 6f
        E 0 90 0d 6f
        E 60 80 62 00
        E 0 80 0d 00
        E 420 90 62 6d
        E 0 90 0b 6d
        E 60 80 62 00
        E 0 80 0b 00
        E 420 90 63 6d
        E 0 90 04 6d
        E 60 80 63 00
        E 0 80 04 00
        E 180 90 63 6d
        E 13 90 04 6d
        E 47 80 63 00
        E 13 80 04 00
        E 167 90 64 6d
        E 0 90 08 6d
        E 60 80 64 00
        E 0 80 08 00
        E 180 90 63 6d
        E 0 90 04 6d
        E 60 80 63 00
        E 0 80 04 00
        E 180 90 62 6f
        E 0 90 0d 6f
        E 60 80 62 00
        E 0 80 0d 00
        E 420 90 62 6d
        E 0 90 0b 6d
        E 60 80 62 00
        E 0 80 0b 00
        E 420 90 63 6d
        E 0 90 04 6d
        E 60 80 63 00
        E 0 80 04 00
        E 420 90 64 6d
        E 0 90 08 6d
        E 60 80 64 00
        E 0 80 08 00
        E 180 90 63 6d
        E 0 90 04 6d
        E 60 80 63 00
        E 0 80 04 00
        E 180 90 62 6f
        E 0 90 0d 6f
        E 60 80 62 00
        E 0 80 0d 00
        E 420 90 62 6d
        E 0 90 0b 6d
        E 60 80 62 00
        E 0 80 0b 00
        E 420 90 0d 6f
        E 0 90 62 6f
        E 60 80 0d 00
        E 0 80 62 00
        E 0 90 0e 70
        E 60 90 66 6d
        E 0 90 62 70
        E 60 80 66 00
        E 630 80 62 00
        E 30 80 0e 00
        E 120 90 0e 70
        E 0 90 62 70
        E 60 80 0e 00
        E 0 80 62 00
        E 0 90 0f 71
        E 0 90 6c 71
        E 60 90 66 6d
        E 0 90 62 71
        E 60 80 66 00
        E 630 80 62 00
        E 30 80 0f 00
        E 0 80 6c 00
        E 120 90 63 6d
        E 0 90 04 6d
        E 0 90 6c 6d
        E 60 80 63 00
        E 0 80 04 00
        E 0 80 6c 00
        E 420 90 64 6d
        E 0 90 08 6d
        E 60 80 64 00
        E 0 80 08 00
        E 180 90 63 6d
        E 0 90 04 6d
        E 60 80 63 00
        E 0 80 04 00
        E 180 90 62 6f
        E 0 90 0d 6f
        E 60 80 62 00
        E 0 80 0d 00
        E 420 90 62 6d
        E 0 90 0b 6d
        E 60 80 62 00
        E 0 80 0b 00
        E 420 90 63 6d
        E 0 90 04 6d
        E 60 80 63 00
        E 0 80 04 00
        E 180 90 63 6d
        E 13 90 04 6d
        E 47 80 63 00
        E 13 80 04 00
        E 167 90 64 6d
        E 0 90 08 6d
        E 60 80 64 00
        E 0 80 08 00
        E 180 90 63 6d
        E 0 90 04 6d
        E 60 80 63 00
        E 0 80 04 00
        E 180 90 62 6f
        E 0 90 0d 6f
        E 60 80 62 00
        E 0 80 0d 00
        E 420 90 62 6d
        E 0 90 0b 6d
        E 60 80 62 00
        E 0 80 0b 00
        E 420 90 63 6d
        E 0 90 04 6d
        E 60 80 63 00
        E 0 80 04 00
        E 420 90 64 6d
        E 0 90 08 6d
        E 60 80 64 00
        E 0 80 08 00
        E 180 90 63 6d
        E 0 90 04 6d
        E 60 80 63 00
        E 0 80 04 00
        E 180 90 62 6f
        E 0 90 0d 6f
        E 60 80 62 00
        E 0 80 0d 00
        E 420 90 62 6d
        E 0 90 0b 6d
        E 60 80 62 00
        E 0 80 0b 00
        E 420 90 0d 6f
        E 0 90 62 6f
        E 60 80 0d 00
        E 0 80 62 00
        E 0 90 0e 70
        E 60 90 66 6d
        E 0 90 62 70
        E 60 80 66 00
        E 630 80 62 00
        E 30 80 0e 00
        E 120 90 0e 70
        E 0 90 62 70
        E 60 80 0e 00
        E 0 80 62 00
        E 0 90 0f 71
        E 0 90 6c 71
        E 60 90 66 6d
        E 0 90 62 71
        E 60 80 66 00
        E 630 80 62 00
        E 30 80 0f 00
        E 0 80 6c 00
        E 120 93 61 6b
        E 0 93 62 6d
        E 0 93 63 6d
        E 0 93 64 6d
        E 0 93 04 6b
        E 0 93 6c 6b
        E 0 90 6a 64
        E 60 83 61 00
        E 0 83 62 00
        E 0 83 63 00
        E 0 83 64 00
        E 0 83 04 00
        E 0 83 6c 00
        E 420 90 61 6b
        E 0 90 62 6d
        E 0 90 63 6d
        E 0 90 64 6d
        E 0 90 04 6b
        E 60 80 61 00
        E 0 80 62 00
        E 0 80 63 00
        E 0 80 64 00
        E 0 80 04 00
        E 180 90 61 6b
        E 0 90 62 6d
        E 0 90 63 6d
        E 0 90 64 6d
        E 0 90 04 6b
        E 60 80 61 00
        E 0 80 62 00
        E 0 80 63 00
        E 0 80 64 00
        E 0 80 04 00
        E 180 93 61 6b
        E 0 93 62 6d
        E 0 93 63 6d
        E 0 93 64 6d
        E 0 93 04 6b
        E 60 83 61 00
        E 0 83 62 00
        E 0 83 63 00
        E 0 83 64 00
        E 0 83 04 00
        E 180 93 61 6b
        E 0 93 62 6d
        E 0 93 63 6d
        E 0 93 64 6d
        E 0 93 04 6b
        E 60 83 61 00
        E 0 83 62 00
        E 0 83 63 00
        E 0 83 64 00
        E 0 83 04 00
        E 180 90 61 6b
        E 0 90 62 6d
        E 0 90 63 6d
        E 0 90 64 6d
        E 0 90 04 6b
        E 60 80 61 00
        E 0 80 62 00
        E 0 80 63 00
        E 0 80 64 00
        E 0 80 04 00
        E 180 93 61 6b
        E 0 93 62 6d
        E 0 93 63 6d
        E 0 93 64 6d
        E 0 93 04 6b
        E 60 83 61 00
        E 0 83 62 00
        E 0 83 63 00
        E 0 83 64 00
        E 0 83 04 00
        E 180 90 61 70
        E 0 90 62 72
        E 0 90 63 72
        E 0 90 64 72
        E 0 90 09 70
        E 0 90 6c 70
        E 60 80 61 00
        E 0 80 62 00
        E 0 80 63 00
        E 0 80 64 00
        E 0 80 09 00
        E 0 80 6c 00
        E 180 93 61 70
        E 0 93 62 72
        E 0 93 63 72
        E 0 93 64 72
        E 0 93 09 70
        E 60 83 61 00
        E 0 83 62 00
        E 0 83 63 00
        E 0 83 64 00
        E 0 83 09 00
        E 180 90 61 70
        E 0 90 62 72
        E 0 90 63 72
        E 0 90 64 72
        E 0 90 09 70
        E 60 80 61 00
        E 0 80 62 00
        E 0 80 63 00
        E 0 80 64 00
        E 0 80 09 00
        E 180 90 61 70
        E 0 90 62 72
        E 0 90 63 72
        E 0 90 64 72
        E 0 90 09 70
        E 60 80 61 00
        E 0 80 62 00
        E 0 80 63 00
        E 0 80 64 00
        E 0 80 09 00
        E 180 93 61 70
        E 0 93 62 72
        E 0 93 63 72
        E 0 93 64 72
        E 0 93 09 70
        E 60 83 61 00
        E 0 83 62 00
        E 0 83 63 00
        E 0 83 64 00
        E 0 83 09 00
        E 180 93 61 70
        E 0 93 62 72
        E 0 93 63 72
        E 0 93 64 72
        E 0 93 09 70
        E 60 83 61 00
        E 0 83 62 00
        E 0 83 63 00
        E 0 83 64 00
        E 0 83 09 00
        E 180 90 61 70
        E 0 90 62 72
        E 0 90 63 72
        E 0 90 64 72
        E 0 90 09 70
        E 60 80 61 00
        E 0 80 62 00
        E 0 80 63 00
        E 0 80 64 00
        E 0 80 09 00
        E 180 93 61 70
        E 0 93 62 72
        E 0 93 63 72
        E 0 93 64 72
        E 0 93 09 70
        E 60 83 61 00
        E 0 83 62 00
        E 0 83 63 00
        E 0 83 64 00
        E 0 83 09 00
        E 180 90 62 6d
        E 0 90 63 6d
        E 0 90 64 6d
        E 0 90 61 6b
        E 0 90 0b 6d
        E 0 90 6c 6b
        E 240 80 62 00
        E 0 80 63 00
        E 0 80 64 00
        E 0 80 61 00
        E 0 80 0b 00
        E 0 80 6c 00
        E 120 90 61 6b
        E 30 80 61 00
        E 0 90 04 6b
        E 15 90 62 6d
        E 15 80 04 00
        E 0 90 0b 6d
        E 15 80 62 00
        E 15 80 0b 00
        E 0 90 63 6d
        E 0 90 04 6d
        E 30 80 63 00
        E 0 80 04 00
        E 0 90 08 6d
        E 15 90 64 6d
        E 15 80 08 00
        E 15 80 64 00
        E 195 90 62 6d
        E 0 90 63 6d
        E 0 90 64 6d
        E 0 90 61 6b
        E 0 90 0b 6d
        E 60 80 62 00
        E 0 80 63 00
        E 0 80 64 00
        E 0 80 61 00
        E 0 80 0b 00
        E 180 93 62 6d
        E 0 93 63 6d
        E 0 93 64 6d
        E 0 93 61 6b
        E 0 93 0b 6d
        E 60 83 62 00
        E 0 83 63 00
        E 0 83 64 00
        E 0 83 61 00
        E 0 83 0b 00
        E 180 93 62 6d
        E 0 93 63 6d
        E 0 93 64 6d
        E 0 93 61 6b
        E 0 93 0b 6d
        E 60 83 62 00
        E 0 83 63 00
        E 0 83 64 00
        E 0 83 61 00
        E 0 83 0b 00
        E 180 90 62 6d
        E 0 90 63 6d
        E 0 90 64 6d
        E 0 90 61 6b
        E 0 90 0b 6d
        E 60 80 62 00
        E 0 80 63 00
        E 0 80 64 00
        E 0 80 61 00
        E 0 80 0b 00
        E 180 93 62 6d
        E 0 93 63 6d
        E 0 93 64 6d
        E 0 93 61 6b
        E 0 93 0b 6d
        E 60 83 62 00
        E 0 83 63 00
        E 0 83 64 00
        E 0 83 61 00
        E 0 83 0b 00
        E 180 90 61 6b
        E 0 90 62 6d
        E 0 90 63 6c
        E 0 90 64 6d
        E 0 90 04 6b
        E 210 80 61 00
        E 0 80 62 00
        E 0 80 63 00
        E 0 80 64 00
        E 0 80 04 00
        E 150 90 61 6b
        E 30 80 61 00
        E 0 90 04 6b
        E 15 90 62 6d
        E 15 80 04 00
        E 0 90 0b 6d
        E 15 80 62 00
        E 15 80 0b 00
        E 0 90 63 6c
        E 0 90 0f 6c
        E 30 80 63 00
        E 0 80 0f 00
        E 0 90 08 6d
        E 15 90 64 6d
        E 15 80 08 00
        E 15 80 64 00
        E 195 90 64 6d
        E 0 90 63 6c
        E 0 90 62 6d
        E 0 90 61 6b
        E 0 90 08 6d
        E 60 80 64 00
        E 0 80 63 00
        E 0 80 62 00
        E 0 80 61 00
        E 0 80 08 00
        E 180 93 63 6c
        E 0 93 62 6d
        E 0 93 61 6b
        E 0 93 08 6d
        E 60 83 63 00
        E 0 83 62 00
        E 0 83 61 00
        E 0 83 08 00
        E 180 93 63 6c
        E 0 93 62 6d
        E 0 93 61 6b
        E 0 93 08 6d
        E 60 83 63 00
        E 0 83 62 00
        E 0 83 61 00
        E 0 83 08 00
        E 180 90 61 6b
        E 0 90 63 6d
        E 0 90 04 6b
        E 60 80 61 00
        E 0 80 63 00
        E 0 80 04 00
        E 180 93 60 6b
        E 0 93 08 6d
        E 60 83 60 00
        E 0 83 08 00
        E 180 90 60 64
        E 0 90 04 70
        E 0 90 6c 70
        E 240 80 60 00
        E 0 80 04 00
        E 0 80 6c 00
        E 105 90 60 64
        E 30 80 60 00
        E 15 90 04 70
        E 0 90 61 66
        E 30 80 04 00
        E 0 80 61 00
        E 0 90 0b 72
        E 15 90 62 66
        E 15 80 0b 00
        E 0 90 04 72
        E 15 80 62 00
        E 15 80 04 00
        E 0 90 63 65
        E 0 90 08 71
        E 30 80 63 00
        E 0 80 08 00
        E 210 90 60 64
        E 0 90 61 66
        E 0 90 62 66
        E 0 90 63 65
        E 0 90 04 70
        E 60 80 60 00
        E 0 80 61 00
        E 0 80 62 00
        E 0 80 63 00
        E 0 80 04 00
        E 180 93 60 64
        E 0 93 61 66
        E 0 93 62 66
        E 0 93 63 65
        E 0 93 04 70
        E 60 83 60 00
        E 0 83 61 00
        E 0 83 62 00
        E 0 83 63 00
        E 0 83 04 00
        E 180 93 60 64
        E 0 93 61 66
        E 0 93 62 66
        E 0 93 63 65
        E 0 93 04 70
        E 60 83 60 00
        E 0 83 61 00
        E 0 83 62 00
        E 0 83 63 00
        E 0 83 04 00
        E 180 90 60 64
        E 0 90 61 66
        E 0 90 62 66
        E 0 90 63 65
        E 0 90 04 70
        E 60 80 60 00
        E 0 80 61 00
        E 0 80 62 00
        E 0 80 63 00
        E 0 80 04 00
        E 180 93 60 64
        E 0 93 61 66
        E 0 93 62 66
        E 0 93 63 65
        E 0 93 04 70
        E 60 83 60 00
        E 0 83 61 00
        E 0 83 62 00
        E 0 83 63 00
        E 0 83 04 00
        E 180 90 61 70
        E 0 90 62 72
        E 0 90 09 70
        E 0 90 63 72
        E 0 90 64 72
        E 300 80 61 00
        E 0 80 62 00
        E 0 80 09 00
        E 0 80 63 00
        E 0 80 64 00
        E 180 90 61 70
        E 0 90 62 72
        E 0 90 63 72
        E 0 90 09 70
        E 0 90 64 72
        E 60 80 61 00
        E 0 80 62 00
        E 0 80 63 00
        E 0 80 09 00
        E 0 80 64 00
        E 180 90 64 72
        E 0 90 61 70
        E 0 90 62 72
        E 0 90 63 72
        E 0 90 0d 72
        E 60 80 64 00
        E 0 80 61 00
        E 0 80 62 00
        E 0 80 63 00
        E 0 80 0d 00
        E 180 93 61 70
        E 0 93 62 72
        E 0 93 63 72
        E 0 93 64 72
        E 0 93 09 70
        E 60 83 61 00
        E 0 83 62 00
        E 0 83 63 00
        E 0 83 64 00
        E 0 83 09 00
        E 180 93 61 70
        E 0 93 62 72
        E 0 93 63 72
        E 0 93 64 72
        E 0 93 09 70
        E 60 83 61 00
        E 0 83 62 00
        E 0 83 63 00
        E 0 83 64 00
        E 0 83 09 00
        E 180 90 64 72
        E 0 90 61 70
        E 0 90 62 72
        E 0 90 63 72
        E 0 90 0d 72
        E 60 80 64 00
        E 0 80 61 00
        E 0 80 62 00
        E 0 80 63 00
        E 0 80 0d 00
        E 180 93 61 70
        E 0 93 62 72
        E 0 93 63 72
        E 0 93 64 72
        E 0 93 09 70
        E 60 83 61 00
        E 0 83 62 00
        E 0 83 63 00
        E 0 83 64 00
        E 0 83 09 00
        E 180 90 60 70
        E 0 90 61 72
        E 0 90 62 72
        E 0 90 63 71
        E 0 90 04 70
        E 300 80 60 00
        E 0 80 61 00
        E 0 80 62 00
        E 0 80 63 00
        E 0 80 04 00
        E 180 90 60 70
        E 0 90 61 72
        E 0 90 62 72
        E 0 90 63 71
        E 0 90 04 70
        E 60 80 60 00
        E 0 80 61 00
        E 0 80 62 00
        E 0 80 63 00
        E 0 80 04 00
        E 180 90 60 70
        E 0 90 61 72
        E 0 90 62 72
        E 0 90 63 71
        E 0 90 04 70
        E 60 80 60 00
        E 0 80 61 00
        E 0 80 62 00
        E 0 80 63 00
        E 0 80 04 00
        E 180 93 60 70
        E 0 93 61 72
        E 0 93 62 72
        E 0 93 04 70
        E 60 83 60 00
        E 0 83 61 00
        E 0 83 62 00
        E 0 83 04 00
        E 180 93 60 70
        E 0 93 61 72
        E 0 93 62 72
        E 0 93 04 70
        E 60 83 60 00
        E 0 83 61 00
        E 0 83 62 00
        E 0 83 04 00
        E 180 90 60 70
        E 0 90 62 72
        E 0 90 04 70
        E 60 80 60 00
        E 0 80 62 00
        E 0 80 04 00
        E 180 93 60 70
        E 0 93 61 72
        E 0 93 62 72
        E 3 93 04 70
        E 57 83 60 00
        E 0 83 61 00
        E 0 83 62 00
        E 3 83 04 00
        E 177 90 61 70
        E 0 90 60 70
        E 0 90 62 72
        E 0 90 09 70
        E 360 80 61 00
        E 0 80 60 00
        E 0 80 62 00
        E 0 80 09 00
        E 120 90 09 70
        E 0 93 60 70
        E 0 93 61 72
        E 0 93 62 72
        E 60 80 09 00
        E 0 83 60 00
        E 0 83 61 00
        E 0 83 62 00
        E 180 90 63 71
        E 0 90 62 72
        E 0 90 61 72
        E 0 90 08 71
        E 0 90 60 70
        E 360 80 63 00
        E 0 80 62 00
        E 0 80 61 00
        E 0 80 08 00
        E 0 80 60 00
        E 120 93 63 71
        E 0 93 62 72
        E 0 93 61 72
        E 0 93 08 71
        E 60 83 63 00
        E 0 83 62 00
        E 0 83 61 00
        E 0 83 08 00
        E 180 90 63 71
        E 0 90 61 72
        E 0 90 08 71
        E 60 80 63 00
        E 0 80 61 00
        E 0 80 08 00
        E 180 90 67 64
        E 0 93 04 72
        E 0 90 63 64
        E 0 90 62 64
        E 0 90 64 64
        E 0 90 61 64
        E 0 90 60 64
        E 0 90 65 64
        E 30 80 67 00
        E 0 80 63 00
        E 0 80 62 00
        E 0 80 64 00
        E 0 80 61 00
        E 0 80 60 00
        E 0 80 65 00
        E 180 83 04 00
        E 30 90 60 64
        E 0 90 61 66
        E 0 90 62 66
        E 0 90 63 65
        E 0 90 64 64
        E 0 90 65 64
        E 0 90 04 64
        E 0 90 6c 65
        E 405 80 60 00
        E 0 80 61 00
        E 0 80 62 00
        E 0 80 63 00
        E 0 80 64 00
        E 0 80 65 00
        E 15 80 04 00
        E 0 80 6c 00
        E 60 90 60 64
        E 0 90 61 66
        E 0 90 62 66
        E 0 90 63 65
        E 0 90 64 64
        E 0 90 65 64
        E 0 90 04 64
        E 30 80 60 00
        E 0 80 61 00
        E 0 80 62 00
        E 0 80 63 00
        E 0 80 64 00
        E 0 80 65 00
        E 30 80 04 00
        E 180 90 63 65
        E 0 90 64 64
        E 0 90 65 64
        E 0 90 08 65
        E 60 80 63 00
        E 0 80 64 00
        E 0 80 65 00
        E 0 80 08 00
        E 420 93 60 64
        E 0 93 61 66
        E 0 93 62 66
        E 0 93 63 65
        E 0 93 64 64
        E 0 93 65 64
        E 0 93 04 64
        E 60 83 60 00
        E 0 83 61 00
        E 0 83 62 00
        E 0 83 63 00
        E 0 83 64 00
        E 0 83 65 00
        E 0 83 04 00
        E 180 90 60 64
        E 0 90 61 66
        E 0 90 62 66
        E 0 90 63 65
        E 0 90 64 64
        E 0 90 65 64
        E 0 90 04 64
        E 60 80 60 00
        E 0 80 61 00
        E 0 80 62 00
        E 0 80 63 00
        E 0 80 64 00
        E 0 80 65 00
        E 0 80 04 00
        E 176 93 60 64
        E 0 93 61 66
        E 0 93 62 66
        E 0 93 63 65
        E 0 93 64 64
        E 0 93 65 64
        E 0 93 04 64
        E 60 83 60 00
        E 0 83 61 00
        E 0 83 62 00
        E 0 83 63 00
        E 0 83 64 00
        E 0 83 65 00
        E 0 83 04 00
        E 184 90 65 68
        E 0 90 61 68
        E 0 90 62 6a
        E 0 90 63 6a
        E 0 90 64 69
        E 0 90 08 68
        E 0 90 6c 68
        E 60 80 65 00
        E 0 80 61 00
        E 0 80 62 00
        E 0 80 63 00
        E 0 80 64 00
        E 0 80 08 00
        E 0 80 6c 00
        E 240 90 61 68
        E 30 80 61 00
        E 15 90 62 6a
        E 15 90 0d 68
        E 15 80 62 00
        E 15 80 0d 00
        E 0 90 08 6a
        E 0 90 63 6a
        E 30 80 08 00
        E 0 80 63 00
        E 0 90 0d 6a
        E 15 90 64 69
        E 15 80 0d 00
        E 0 90 04 69
        E 15 80 64 00
        E 15 80 04 00
        E 0 90 65 68
        E 0 90 08 68
        E 30 80 65 00
        E 0 80 08 00
        E 210 90 65 68
        E 0 90 61 68
        E 0 90 62 6a
        E 0 90 63 6a
        E 0 90 64 69
        E 0 90 08 68
        E 60 80 65 00
        E 0 80 61 00
        E 0 80 62 00
        E 0 80 63 00
        E 0 80 64 00
        E 0 80 08 00
        E 180 93 65 68
        E 0 93 61 68
        E 0 93 62 6a
        E 0 93 63 6a
        E 0 93 64 69
        E 0 93 08 68
        E 60 83 65 00
        E 0 83 61 00
        E 0 83 62 00
        E 0 83 63 00
        E 0 83 64 00
        E 0 83 08 00
        E 180 93 65 68
        E 0 93 61 68
        E 0 93 62 6a
        E 0 93 63 6a
        E 0 93 64 69
        E 0 93 08 68
        E 60 83 65 00
        E 0 83 61 00
        E 0 83 62 00
        E 0 83 63 00
        E 0 83 64 00
        E 0 83 08 00
        E 180 90 65 68
        E 0 90 61 68
        E 0 90 62 6a
        E 0 90 63 6a
        E 0 90 64 69
        E 0 90 08 68
        E 60 80 65 00
        E 0 80 61 00
        E 0 80 62 00
        E 0 80 63 00
        E 0 80 64 00
        E 0 80 08 00
        E 180 93 65 68
        E 0 93 61 68
        E 0 93 62 6a
        E 0 93 63 6a
        E 0 93 64 69
        E 0 93 08 68
        E 60 83 65 00
        E 0 83 61 00
        E 0 83 62 00
        E 0 83 63 00
        E 0 83 64 00
        E 0 83 08 00
        E 180 90 60 69
        E 0 90 61 6b
        E 0 90 62 6b
        E 0 90 63 6a
        E 0 90 64 69
        E 0 90 09 69
        E 30 80 60 00
        E 0 80 61 00
        E 0 80 62 00
        E 0 80 63 00
        E 0 80 64 00
        E 30 80 09 00
        E 240 90 60 69
        E 30 80 60 00
        E 15 90 61 6b
        E 15 90 09 69
        E 15 80 61 00
        E 15 80 09 00
        E 0 90 04 6b
        E 0 90 62 6b
        E 30 80 04 00
        E 0 80 62 00
        E 0 90 09 6b
        E 15 90 63 6a
        E 15 80 09 00
        E 0 90 0d 6a
        E 15 80 63 00
        E 15 80 0d 00
        E 0 90 64 69
        E 0 90 04 69
        E 30 80 64 00
        E 0 80 04 00
        E 210 90 60 69
        E 0 90 61 6b
        E 0 90 62 6b
        E 0 90 63 6a
        E 0 90 64 69
        E 0 90 09 69
        E 60 80 60 00
        E 0 80 61 00
        E 0 80 62 00
        E 0 80 63 00
        E 0 80 64 00
        E 0 80 09 00
        E 420 93 60 69
        E 0 93 61 6b
        E 0 93 62 6b
        E 0 93 63 6a
        E 0 93 64 69
        E 0 93 09 69
        E 60 83 60 00
        E 0 83 61 00
        E 0 83 62 00
        E 0 83 63 00
        E 0 83 64 00
        E 0 83 09 00
        E 180 90 60 69
        E 0 90 61 6b
        E 0 90 62 6b
        E 0 90 63 6a
        E 0 90 64 69
        E 0 90 09 69
        E 60 80 60 00
        E 0 80 61 00
        E 0 80 62 00
        E 0 80 63 00
        E 0 80 64 00
        E 0 80 09 00
        E 180 93 60 69
        E 0 93 61 6b
        E 0 93 62 6b
        E 0 93 63 6a
        E 0 93 64 69
        E 0 93 09 69
        E 60 83 60 00
        E 0 83 61 00
        E 0 83 62 00
        E 0 83 63 00
        E 0 83 64 00
        E 0 83 09 00
        E 180 90 60 6b
        E 0 90 61 6d
        E 0 90 62 6d
        E 0 90 63 6c
        E 0 90 64 6b
        E 0 90 0b 6b
        E 0 90 6c 6b
        E 60 80 60 00
        E 0 80 61 00
        E 0 80 62 00
        E 0 80 63 00
        E 0 80 64 00
        E 0 80 0b 00
        E 0 80 6c 00
        E 240 90 60 6b
        E 30 80 60 00
        E 15 90 61 6d
        E 15 90 0b 6b
        E 15 80 61 00
        E 15 80 0b 00
        E 0 90 06 6d
        E 0 90 62 6d
        E 30 80 06 00
        E 0 80 62 00
        E 0 90 0b 6d
        E 15 90 63 6c
        E 15 80 0b 00
        E 0 90 0f 6c
        E 15 80 63 00
        E 15 80 0f 00
        E 0 90 64 6b
        E 0 90 06 6b
        E 30 80 64 00
        E 0 80 06 00
        E 210 90 60 6b
        E 0 90 61 6d
        E 0 90 62 6d
        E 0 90 63 6c
        E 0 90 64 6b
        E 0 90 0b 6b
        E 60 80 60 00
        E 0 80 61 00
        E 0 80 62 00
        E 0 80 63 00
        E 0 80 64 00
        E 0 80 0b 00
        E 420 93 60 6b
        E 0 93 61 6d
        E 0 93 62 6d
        E 0 93 63 6c
        E 0 93 64 6b
        E 0 93 0b 6b
        E 60 83 60 00
        E 0 83 61 00
        E 0 83 62 00
        E 0 83 63 00
        E 0 83 64 00
        E 0 83 0b 00
        E 180 90 60 6b
        E 0 90 61 6d
        E 0 90 62 6d
        E 0 90 63 6c
        E 0 90 64 6b
        E 0 90 0b 6b
        E 60 80 60 00
        E 0 80 61 00
        E 0 80 62 00
        E 0 80 63 00
        E 0 80 64 00
        E 0 80 0b 00
        E 180 93 60 6b
        E 0 93 61 6d
        E 0 93 62 6d
        E 0 93 63 6c
        E 0 93 64 6b
        E 0 93 0b 6b
        E 60 83 60 00
        E 0 83 61 00
        E 0 83 62 00
        E 0 83 63 00
        E 0 83 64 00
        E 0 83 0b 00
        E 180 90 61 6b
        E 0 90 62 6d
        E 0 90 63 6d
        E 0 90 64 6d
        E 0 90 60 64
        E 0 90 04 6b
        E 60 80 61 00
        E 0 80 62 00
        E 0 80 63 00
        E 0 80 64 00
        E 0 80 60 00
        E 0 80 04 00
        E 240 90 60 64
        E 30 80 60 00
        E 15 90 61 6b
        E 15 90 04 64
        E 15 80 61 00
        E 15 80 04 00
        E 0 90 04 6b
        E 0 90 62 6d
        E 30 80 04 00
        E 0 80 62 00
        E 0 90 0b 6d
        E 15 90 63 6d
        E 15 80 0b 00
        E 0 90 04 6d
        E 15 80 63 00
        E 15 80 04 00
        E 0 90 64 6d
        E 0 90 08 6d
        E 30 80 64 00
        E 0 80 08 00
        E 210 90 61 6b
        E 0 90 62 6d
        E 0 90 63 6d
        E 0 90 64 6d
        E 0 90 60 64
        E 0 90 04 6b
        E 60 80 61 00
        E 0 80 62 00
        E 0 80 63 00
        E 0 80 64 00
        E 0 80 60 00
        E 0 80 04 00
        E 420 93 61 6b
        E 0 93 62 6d
        E 0 93 63 6d
        E 0 93 64 6d
        E 0 93 60 64
        E 0 93 04 6b
        E 60 83 61 00
        E 0 83 62 00
        E 0 83 63 00
        E 0 83 64 00
        E 0 83 60 00
        E 0 83 04 00
        E 180 90 61 6b
        E 0 90 62 6d
        E 0 90 63 6d
        E 0 90 64 6d
        E 0 90 60 64
        E 0 90 04 6b
        E 60 80 61 00
        E 0 80 62 00
        E 0 80 63 00
        E 0 80 64 00
        E 0 80 60 00
        E 0 80 04 00
        E 180 93 61 6b
        E 0 93 62 6d
        E 0 93 63 6d
        E 0 93 64 6d
        E 0 93 60 64
        E 0 93 04 6b
        E 60 83 61 00
        E 0 83 62 00
        E 0 83 63 00
        E 0 83 64 00
        E 0 83 60 00
        E 0 83 04 00
        E 180 90 65 68
        E 0 90 61 68
        E 0 90 62 6a
        E 0 90 63 6a
        E 0 90 64 69
        E 0 90 08 68
        E 0 90 6c 68
        E 60 80 65 00
        E 0 80 61 00
        E 0 80 62 00
        E 0 80 63 00
        E 0 80 64 00
        E 0 80 08 00
        E 0 80 6c 00
        E 240 90 61 68
        E 30 80 61 00
        E 15 90 62 6a
        E 15 90 0d 68
        E 15 80 62 00
        E 15 80 0d 00
        E 0 90 08 6a
        E 0 90 63 6a
        E 30 80 08 00
        E 0 80 63 00
        E 0 90 0d 6a
        E 15 90 64 69
        E 15 80 0d 00
        E 0 90 04 69
        E 15 80 64 00
        E 15 80 04 00
        E 0 90 65 68
        E 0 90 08 68
        E 30 80 65 00
        E 0 80 08 00
        E 210 90 65 68
        E 0 90 61 68
        E 0 90 62 6a
        E 0 90 63 6a
        E 0 90 64 69
        E 0 90 08 68
        E 60 80 65 00
        E 0 80 61 00
        E 0 80 62 00
        E 0 80 63 00
        E 0 80 64 00
        E 0 80 08 00
        E 420 93 65 68
        E 0 93 61 68
        E 0 93 62 6a
        E 0 93 63 6a
        E 0 93 64 69
        E 0 93 08 68
        E 60 83 65 00
        E 0 83 61 00
        E 0 83 62 00
        E 0 83 63 00
        E 0 83 64 00
        E 0 83 08 00
        E 180 90 65 68
        E 0 90 61 68
        E 0 90 62 6a
        E 0 90 63 6a
        E 0 90 64 69
        E 0 90 08 68
        E 60 80 65 00
        E 0 80 61 00
        E 0 80 62 00
        E 0 80 63 00
        E 0 80 64 00
        E 0 80 08 00
        E 180 93 65 68
        E 0 93 61 68
        E 0 93 62 6a
        E 0 93 63 6a
        E 0 93 64 69
        E 0 93 08 68
        E 60 83 65 00
        E 0 83 61 00
        E 0 83 62 00
        E 0 83 63 00
        E 0 83 64 00
        E 0 83 08 00
        E 180 90 60 69
        E 0 90 61 6b
        E 0 90 62 6b
        E 0 90 63 6a
        E 0 90 64 69
        E 0 90 09 69
        E 60 80 60 00
        E 0 80 61 00
        E 0 80 62 00
        E 0 80 63 00
        E 0 80 64 00
        E 0 80 09 00
        E 240 90 60 69
        E 30 80 60 00
        E 15 90 61 6b
        E 15 90 09 69
        E 15 80 61 00
        E 15 80 09 00
        E 0 90 04 6b
        E 0 90 62 6b
        E 30 80 04 00
        E 0 80 62 00
        E 0 90 09 6b
        E 15 90 63 6a
        E 15 80 09 00
        E 0 90 0d 6a
        E 15 80 63 00
        E 15 80 0d 00
        E 0 90 64 69
        E 0 90 04 69
        E 30 80 64 00
        E 0 80 04 00
        E 210 90 60 69
        E 0 90 61 6b
        E 0 90 62 6b
        E 0 90 63 6a
        E 0 90 64 69
        E 0 90 09 69
        E 60 80 60 00
        E 0 80 61 00
        E 0 80 62 00
        E 0 80 63 00
        E 0 80 64 00
        E 0 80 09 00
        E 420 93 60 69
        E 0 93 61 6b
        E 0 93 62 6b
        E 0 93 63 6a
        E 0 93 64 69
        E 0 93 09 69
        E 60 83 60 00
        E 0 83 61 00
        E 0 83 62 00
        E 0 83 63 00
        E 0 83 64 00
        E 0 83 09 00
        E 180 90 60 69
        E 0 90 61 6b
        E 0 90 62 6b
        E 0 90 63 6a
        E 0 90 64 69
        E 0 90 09 69
        E 60 80 60 00
        E 0 80 61 00
        E 0 80 62 00
        E 0 80 63 00
        E 0 80 64 00
        E 0 80 09 00
        E 180 93 60 69
        E 0 93 61 6b
        E 0 93 62 6b
        E 0 93 63 6a
        E 0 93 64 69
        E 0 93 09 69
        E 60 83 60 00
        E 0 83 61 00
        E 0 83 62 00
        E 0 83 63 00
        E 0 83 64 00
        E 0 83 09 00
        E 180 90 60 6b
        E 0 90 61 6d
        E 0 90 62 6d
        E 0 90 63 6c
        E 0 90 64 6b
        E 0 90 0b 6b
        E 0 90 6c 6b
        E 60 80 60 00
        E 0 80 61 00
        E 0 80 62 00
        E 0 80 63 00
        E 0 80 64 00
        E 0 80 0b 00
        E 0 80 6c 00
        E 240 90 60 6b
        E 30 80 60 00
        E 15 90 61 6d
        E 15 90 0b 6b
        E 15 80 61 00
        E 15 80 0b 00
        E 0 90 06 6d
        E 0 90 62 6d
        E 30 80 06 00
        E 0 80 62 00
        E 0 90 0b 6d
        E 15 90 63 6c
        E 15 80 0b 00
        E 0 90 0f 6c
        E 15 80 63 00
        E 15 80 0f 00
        E 0 90 64 6b
        E 0 90 06 6b
        E 30 80 64 00
        E 0 80 06 00
        E 210 90 60 6b
        E 0 90 61 6d
        E 0 90 62 6d
        E 0 90 63 6c
        E 0 90 64 6b
        E 0 90 0b 6b
        E 60 80 60 00
        E 0 80 61 00
        E 0 80 62 00
        E 0 80 63 00
        E 0 80 64 00
        E 0 80 0b 00
        E 420 93 60 6b
        E 0 93 61 6d
        E 0 93 62 6d
        E 0 93 63 6c
        E 0 93 64 6b
        E 0 93 0b 6b
        E 30 83 60 00
        E 0 83 61 00
        E 0 83 62 00
        E 0 83 63 00
        E 0 83 64 00
        E 30 83 0b 00
        E 180 90 60 6b
        E 0 90 61 6d
        E 0 90 62 6d
        E 0 90 63 6c
        E 0 90 64 6b
        E 0 90 0b 6b
        E 30 80 60 00
        E 0 80 61 00
        E 0 80 62 00
        E 0 80 63 00
        E 0 80 64 00
        E 30 80 0b 00
        E 180 93 60 6b
        E 0 93 61 6d
        E 0 93 62 6d
        E 0 93 63 6c
        E 0 93 64 6b
        E 0 93 0b 6b
        E 0 93 65 6b
        E 30 83 60 00
        E 0 83 61 00
        E 0 83 62 00
        E 0 83 63 00
        E 0 83 64 00
        E 0 83 65 00
        E 30 83 0b 00
        E 180 90 60 64
        E 0 90 61 66
        E 0 90 62 66
        E 0 90 63 65
        E 0 90 64 64
        E 0 90 65 64
        E 0 90 04 64
        E 0 90 6c 65
        E 405 80 60 00
        E 0 80 61 00
        E 0 80 62 00
        E 0 80 63 00
        E 0 80 64 00
        E 0 80 65 00
        E 15 80 04 00
        E 0 80 6c 00
        E 60 90 60 64
        E 0 90 61 66
        E 0 90 62 66
        E 0 90 63 65
        E 0 90 64 64
        E 0 90 65 64
        E 0 90 04 64
        E 30 80 60 00
        E 0 80 61 00
        E 0 80 62 00
        E 0 80 63 00
        E 0 80 64 00
        E 0 80 65 00
        E 30 80 04 00
        E 180 90 60 64
        E 0 90 61 66
        E 0 90 62 66
        E 0 90 63 65
        E 0 90 64 64
        E 0 90 65 64
        E 0 90 04 64
        E 405 80 60 00
        E 0 80 61 00
        E 0 80 62 00
        E 0 80 63 00
        E 0 80 64 00
        E 0 80 65 00
        E 15 80 04 00
        E 60 90 60 64
        E 0 90 61 66
        E 0 90 62 66
        E 0 90 63 65
        E 0 90 64 64
        E 0 90 65 64
        E 0 90 04 64
        E 30 80 60 00
        E 0 80 61 00
        E 0 80 62 00
        E 0 80 63 00
        E 0 80 64 00
        E 0 80 65 00
        E 30 80 04 00
        E 180 90 60 64
        E 0 90 61 66
        E 0 90 62 66
        E 0 90 63 65
        E 0 90 64 64
        E 0 90 65 64
        E 0 90 04 64
        E 30 80 60 00
        E 0 80 61 00
        E 0 80 62 00
        E 0 80 63 00
        E 0 80 64 00
        E 0 80 65 00
        E 30 80 04 00
        E 176 93 60 64
        E 0 93 61 66
        E 0 93 62 66
        E 0 93 63 65
        E 0 93 64 64
        E 0 93 65 64
        E 0 93 04 64
        E 30 83 60 00
        E 0 83 61 00
        E 0 83 62 00
        E 0 83 63 00
        E 0 83 64 00
        E 0 83 65 00
        E 30 83 04 00
        E 184 90 64 68
        E 0 90 60 68
        E 0 90 61 6a
        E 0 90 62 6a
        E 0 90 63 69
        E 0 90 65 68
        E 0 90 0f 68
        E 0 90 6c 68
        E 405 80 64 00
        E 0 80 60 00
        E 0 80 61 00
        E 0 80 62 00
        E 0 80 63 00
        E 0 80 65 00
        E 15 80 0f 00
        E 0 80 6c 00
        E 60 90 64 68
        E 0 90 60 68
        E 0 90 61 6a
        E 0 90 62 6a
        E 0 90 63 69
        E 0 90 65 68
        E 0 90 0f 68
        E 60 80 64 00
        E 0 80 60 00
        E 0 80 61 00
        E 0 80 62 00
        E 0 80 63 00
        E 0 80 65 00
        E 0 80 0f 00
        E 180 90 64 68
        E 0 90 60 68
        E 0 90 61 6a
        E 0 90 62 6a
        E 0 90 63 69
        E 0 90 65 68
        E 0 90 0f 68
        E 60 80 64 00
        E 0 80 60 00
        E 0 80 61 00
        E 0 80 62 00
        E 0 80 63 00
        E 0 80 65 00
        E 0 80 0f 00
        E 180 90 64 68
        E 0 90 60 68
        E 0 90 61 6a
        E 0 90 62 6a
        E 0 90 63 69
        E 0 90 65 68
        E 0 90 0f 68
        E 60 80 64 00
        E 0 80 60 00
        E 0 80 61 00
        E 0 80 62 00
        E 0 80 63 00
        E 0 80 65 00
        E 0 80 0f 00
        E 180 90 64 68
        E 0 90 60 68
        E 0 90 61 6a
        E 0 90 62 6a
        E 0 90 63 69
        E 0 90 65 68
        E 0 90 0f 68
        E 60 80 64 00
        E 0 80 60 00
        E 0 80 61 00
        E 0 80 62 00
        E 0 80 63 00
        E 0 80 65 00
        E 0 80 0f 00
        E 180 90 64 68
        E 0 90 60 68
        E 0 90 61 6a
        E 0 90 62 6a
        E 0 90 63 69
        E 0 90 65 68
        E 0 90 0f 68
        E 60 80 64 00
        E 0 80 60 00
        E 0 80 61 00
        E 0 80 62 00
        E 0 80 63 00
        E 0 80 65 00
        E 0 80 0f 00
        E 180 93 64 68
        E 0 93 60 68
        E 0 93 61 6a
        E 0 93 62 6a
        E 0 93 63 69
        E 0 93 65 68
        E 0 93 0f 68
        E 60 83 64 00
        E 0 83 60 00
        E 0 83 61 00
        E 0 83 62 00
        E 0 83 63 00
        E 0 83 65 00
        E 0 83 0f 00
        E 180 90 60 69
        E 0 90 61 6b
        E 0 90 62 6b
        E 0 90 63 6a
        E 0 90 64 69
        E 0 90 65 69
        E 0 90 09 69
        E 405 80 60 00
        E 0 80 61 00
        E 0 80 62 00
        E 0 80 63 00
        E 0 80 64 00
        E 0 80 65 00
        E 15 80 09 00
        E 60 90 60 69
        E 0 90 61 6b
        E 0 90 62 6b
        E 0 90 63 6a
        E 0 90 64 69
        E 0 90 65 69
        E 0 90 09 69
        E 30 80 60 00
        E 0 80 61 00
        E 0 80 62 00
        E 0 80 63 00
        E 0 80 64 00
        E 0 80 65 00
        E 30 80 09 00
        E 180 90 60 69
        E 0 90 61 6b
        E 0 90 62 6b
        E 0 90 63 6a
        E 0 90 64 69
        E 0 90 65 69
        E 0 90 09 69
        E 300 80 09 00
        E 105 80 60 00
        E 0 80 61 00
        E 0 80 62 00
        E 0 80 63 00
        E 0 80 64 00
        E 0 80 65 00
        E 75 90 60 69
        E 0 90 61 6b
        E 0 90 62 6b
        E 0 90 63 6a
        E 0 90 64 69
        E 0 90 65 69
        E 0 90 09 69
        E 60 80 60 00
        E 0 80 61 00
        E 0 80 62 00
        E 0 80 63 00
        E 0 80 64 00
        E 0 80 65 00
        E 0 80 09 00
        E 180 90 60 69
        E 0 90 61 6b
        E 0 90 62 6b
        E 0 90 63 6a
        E 0 90 64 69
        E 0 90 65 69
        E 0 90 09 69
        E 30 80 60 00
        E 0 80 61 00
        E 0 80 62 00
        E 0 80 63 00
        E 0 80 64 00
        E 0 80 65 00
        E 180 80 09 00
        E 30 90 60 6b
        E 0 90 61 6d
        E 0 90 62 6d
        E 0 90 63 6c
        E 0 90 64 6b
        E 0 90 65 6b
        E 0 90 0b 6b
        E 0 90 6c 6b
        E 30 80 60 00
        E 0 80 61 00
        E 0 80 62 00
        E 0 80 63 00
        E 0 80 64 00
        E 0 80 65 00
        E 180 80 0b 00
        E 0 80 6c 00
        E 30 90 60 6b
        E 0 90 61 6d
        E 0 90 62 6d
        E 0 90 63 6c
        E 0 90 64 6b
        E 0 90 65 6b
        E 0 90 0b 6b
        E 405 80 60 00
        E 0 80 61 00
        E 0 80 62 00
        E 0 80 63 00
        E 0 80 64 00
        E 0 80 65 00
        E 15 80 0b 00
        E 60 90 60 6b
        E 0 90 61 6d
        E 0 90 62 6d
        E 0 90 63 6c
        E 0 90 64 6b
        E 0 90 65 6b
        E 0 90 0b 6b
        E 60 80 60 00
        E 0 80 61 00
        E 0 80 62 00
        E 0 80 63 00
        E 0 80 64 00
        E 0 80 65 00
        E 0 80 0b 00
        E 180 90 60 6b
        E 0 90 61 6d
        E 0 90 62 6d
        E 0 90 63 6c
        E 0 90 64 6b
        E 0 90 65 6b
        E 0 90 0b 6b
        E 60 80 60 00
        E 0 80 61 00
        E 0 80 62 00
        E 0 80 63 00
        E 0 80 64 00
        E 0 80 65 00
        E 0 80 0b 00
        E 180 90 60 6b
        E 0 90 61 6d
        E 0 90 62 6d
        E 0 90 63 6c
        E 0 90 64 6b
        E 0 90 65 6b
        E 0 90 0b 6b
        E 60 80 60 00
        E 0 80 61 00
        E 0 80 62 00
        E 0 80 63 00
        E 0 80 64 00
        E 0 80 65 00
        E 0 80 0b 00
        E 180 90 60 6b
        E 0 90 61 6d
        E 0 90 62 6d
        E 0 90 63 6c
        E 0 90 64 6b
        E 0 90 65 6b
        E 0 90 0b 6b
        E 60 80 60 00
        E 0 80 61 00
        E 0 80 62 00
        E 0 80 63 00
        E 0 80 64 00
        E 0 80 65 00
        E 0 80 0b 00
        E 180 90 60 6b
        E 0 90 61 6d
        E 0 90 62 6d
        E 0 90 63 6c
        E 0 90 64 6b
        E 0 90 65 6b
        E 0 90 0b 6b
        E 60 80 60 00
        E 0 80 61 00
        E 0 80 62 00
        E 0 80 63 00
        E 0 80 64 00
        E 0 80 65 00
        E 0 80 0b 00
        E 180 90 60 64
        E 0 90 61 64
        E 0 90 62 64
        E 0 90 63 64
        E 0 90 64 64
        E 0 90 65 64
        E 0 90 04 64
        E 60 80 60 00
        E 0 80 61 00
        E 0 80 62 00
        E 0 80 63 00
        E 0 80 64 00
        E 0 80 65 00
        E 0 80 04 00
        E 180 90 60 64
        E 0 90 61 66
        E 0 90 62 66
        E 0 90 63 65
        E 0 90 64 64
        E 0 90 65 64
        E 0 90 04 64
        E 0 90 6c 65
        E 405 80 60 00
        E 0 80 61 00
        E 0 80 62 00
        E 0 80 63 00
        E 0 80 64 00
        E 0 80 65 00
        E 15 80 04 00
        E 0 80 6c 00
        E 60 90 60 64
        E 0 90 61 66
        E 0 90 62 66
        E 0 90 63 65
        E 0 90 64 64
        E 0 90 65 64
        E 0 90 04 64
        E 60 80 60 00
        E 0 80 61 00
        E 0 80 62 00
        E 0 80 63 00
        E 0 80 64 00
        E 0 80 65 00
        E 0 80 04 00
        E 180 90 60 64
        E 0 90 61 66
        E 0 90 62 66
        E 0 90 63 65
        E 0 90 64 64
        E 0 90 65 64
        E 0 90 04 64
        E 60 80 60 00
        E 0 80 61 00
        E 0 80 62 00
        E 0 80 63 00
        E 0 80 64 00
        E 0 80 65 00
        E 0 80 04 00
        E 180 90 60 64
        E 0 90 61 66
        E 0 90 62 66
        E 0 90 63 65
        E 0 90 64 64
        E 0 90 65 64
        E 0 90 04 64
        E 60 80 60 00
        E 0 80 61 00
        E 0 80 62 00
        E 0 80 63 00
        E 0 80 64 00
        E 0 80 65 00
        E 0 80 04 00
        E 180 90 60 64
        E 0 90 61 66
        E 0 90 62 66
        E 0 90 63 65
        E 0 90 64 64
        E 0 90 65 64
        E 0 90 04 64
        E 60 80 60 00
        E 0 80 61 00
        E 0 80 62 00
        E 0 80 63 00
        E 0 80 64 00
        E 0 80 65 00
        E 0 80 04 00
        E 180 90 60 64
        E 0 90 61 66
        E 0 90 62 66
        E 0 90 63 65
        E 0 90 64 64
        E 0 90 65 64
        E 0 90 04 64
        E 60 80 60 00
        E 0 80 61 00
        E 0 80 62 00
        E 0 80 63 00
        E 0 80 64 00
        E 0 80 65 00
        E 0 80 04 00
        E 176 93 60 64
        E 0 93 61 66
        E 0 93 62 66
        E 0 93 63 65
        E 0 93 64 64
        E 0 93 65 64
        E 0 93 04 64
        E 60 83 60 00
        E 0 83 61 00
        E 0 83 62 00
        E 0 83 63 00
        E 0 83 64 00
        E 0 83 65 00
        E 0 83 04 00
        E 184 90 64 68
        E 0 90 60 68
        E 0 90 61 6a
        E 0 90 62 6a
        E 0 90 63 69
        E 0 90 65 68
        E 0 90 0f 68
        E 0 90 6c 68
        E 405 80 64 00
        E 0 80 60 00
        E 0 80 61 00
        E 0 80 62 00
        E 0 80 63 00
        E 0 80 65 00
        E 15 80 0f 00
        E 0 80 6c 00
        E 60 90 64 68
        E 0 90 60 68
        E 0 90 61 6a
        E 0 90 62 6a
        E 0 90 63 69
        E 0 90 65 68
        E 0 90 0f 68
        E 60 80 64 00
        E 0 80 60 00
        E 0 80 61 00
        E 0 80 62 00
        E 0 80 63 00
        E 0 80 65 00
        E 0 80 0f 00
        E 180 90 64 68
        E 0 90 60 68
        E 0 90 61 6a
        E 0 90 62 6a
        E 0 90 63 69
        E 0 90 65 68
        E 0 90 0f 68
        E 60 80 64 00
        E 0 80 60 00
        E 0 80 61 00
        E 0 80 62 00
        E 0 80 63 00
        E 0 80 65 00
        E 0 80 0f 00
        E 180 90 64 68
        E 0 90 60 68
        E 0 90 61 6a
        E 0 90 62 6a
        E 0 90 63 69
        E 0 90 65 68
        E 0 90 0f 68
        E 60 80 64 00
        E 0 80 60 00
        E 0 80 61 00
        E 0 80 62 00
        E 0 80 63 00
        E 0 80 65 00
        E 0 80 0f 00
        E 180 90 64 68
        E 0 90 60 68
        E 0 90 61 6a
        E 0 90 62 6a
        E 0 90 63 69
        E 0 90 65 68
        E 0 90 0f 68
        E 60 80 64 00
        E 0 80 60 00
        E 0 80 61 00
        E 0 80 62 00
        E 0 80 63 00
        E 0 80 65 00
        E 0 80 0f 00
        E 180 90 64 68
        E 0 90 60 68
        E 0 90 61 6a
        E 0 90 62 6a
        E 0 90 63 69
        E 0 90 65 68
        E 0 90 0f 68
        E 60 80 64 00
        E 0 80 60 00
        E 0 80 61 00
        E 0 80 62 00
        E 0 80 63 00
        E 0 80 65 00
        E 0 80 0f 00
        E 180 93 64 68
        E 0 93 60 68
        E 0 93 61 6a
        E 0 93 62 6a
        E 0 93 63 69
        E 0 93 65 68
        E 0 93 0f 68
        E 60 83 64 00
        E 0 83 60 00
        E 0 83 61 00
        E 0 83 62 00
        E 0 83 63 00
        E 0 83 65 00
        E 0 83 0f 00
        E 180 90 60 69
        E 0 90 61 6b
        E 0 90 62 6b
        E 0 90 63 6a
        E 0 90 64 69
        E 0 90 65 69
        E 0 90 09 69
        E 405 80 60 00
        E 0 80 61 00
        E 0 80 62 00
        E 0 80 63 00
        E 0 80 64 00
        E 0 80 65 00
        E 15 80 09 00
        E 60 90 60 69
        E 0 90 61 6b
        E 0 90 62 6b
        E 0 90 63 6a
        E 0 90 64 69
        E 0 90 65 69
        E 0 90 09 69
        E 60 80 60 00
        E 0 80 61 00
        E 0 80 62 00
        E 0 80 63 00
        E 0 80 64 00
        E 0 80 65 00
        E 0 80 09 00
        E 180 90 60 69
        E 0 90 61 6b
        E 0 90 62 6b
        E 0 90 63 6a
        E 0 90 64 69
        E 0 90 65 69
        E 0 90 09 69
        E 60 80 60 00
        E 0 80 61 00
        E 0 80 62 00
        E 0 80 63 00
        E 0 80 64 00
        E 0 80 65 00
        E 0 80 09 00
        E 180 90 60 69
        E 0 90 61 6b
        E 0 90 62 6b
        E 0 90 63 6a
        E 0 90 64 69
        E 0 90 65 69
        E 0 90 09 69
        E 60 80 60 00
        E 0 80 61 00
        E 0 80 62 00
        E 0 80 63 00
        E 0 80 64 00
        E 0 80 65 00
        E 0 80 09 00
        E 180 90 60 69
        E 0 90 61 6b
        E 0 90 62 6b
        E 0 90 63 6a
        E 0 90 64 69
        E 0 90 65 69
        E 0 90 09 69
        E 60 80 60 00
        E 0 80 61 00
        E 0 80 62 00
        E 0 80 63 00
        E 0 80 64 00
        E 0 80 65 00
        E 0 80 09 00
        E 180 93 60 69
        E 0 93 61 6b
        E 0 93 62 6b
        E 0 93 63 6a
        E 0 93 64 69
        E 0 93 65 69
        E 0 93 09 69
        E 60 83 60 00
        E 0 83 61 00
        E 0 83 62 00
        E 0 83 63 00
        E 0 83 64 00
        E 0 83 65 00
        E 0 83 09 00
        E 420 90 60 6b
        E 0 90 61 6d
        E 0 90 62 6d
        E 0 90 63 6c
        E 0 90 0b 6b
        E 0 90 6c 6b
        E 0 90 64 6b
        E 0 90 65 6b
        E 90 80 60 00
        E 0 80 61 00
        E 0 80 62 00
        E 0 80 63 00
        E 0 80 0b 00
        E 0 80 6c 00
        E 0 80 64 00
        E 0 80 65 00
        E 150 90 60 6b
        E 0 90 61 6d
        E 0 90 62 6d
        E 0 90 63 6c
        E 0 90 0b 6b
        E 0 90 64 6b
        E 0 90 65 6b
        E 60 80 60 00
        E 0 80 61 00
        E 0 80 62 00
        E 0 80 63 00
        E 0 80 0b 00
        E 0 80 64 00
        E 0 80 65 00
        E 180 90 60 6b
        E 0 90 61 6d
        E 0 90 62 6d
        E 0 90 63 6c
        E 0 90 0b 6b
        E 0 90 64 6b
        E 0 90 65 6b
        E 60 80 60 00
        E 0 80 61 00
        E 0 80 62 00
        E 0 80 63 00
        E 0 80 0b 00
        E 0 80 64 00
        E 0 80 65 00
        E 180 90 60 6b
        E 0 90 61 6d
        E 0 90 62 6d
        E 0 90 63 6c
        E 0 90 0b 6b
        E 0 90 64 6b
        E 0 90 65 6b
        E 60 80 60 00
        E 0 80 61 00
        E 0 80 62 00
        E 0 80 63 00
        E 0 80 0b 00
        E 0 80 64 00
        E 0 80 65 00
        E 180 90 60 6b
        E 0 90 61 6d
        E 0 90 62 6d
        E 0 90 63 6c
        E 0 90 0b 6b
        E 0 90 64 6b
        E 0 90 65 6b
        E 60 80 60 00
        E 0 80 61 00
        E 0 80 62 00
        E 0 80 63 00
        E 0 80 0b 00
        E 0 80 64 00
        E 0 80 65 00
        E 900 90 63 6d
        E 0 90 04 6d
        E 60 80 63 00
        E 0 80 04 00
        E 15 80 6a 00
        E 405 90 64 6d
        E 0 90 08 6d
        E 60 80 64 00
        E 0 80 08 00
        E 180 90 63 6d
        E 0 90 04 6d
        E 60 80 63 00
        E 0 80 04 00
        E 180 90 62 6f
        E 0 90 0d 6f
        E 0 90 6c 6f
        E 60 80 62 00
        E 0 80 0d 00
        E 0 80 6c 00
        E 420 90 62 6d
        E 0 90 0b 6d
        E 0 90 6c 6d
        E 60 80 62 00
        E 0 80 0b 00
        E 0 80 6c 00
        E 420 90 63 6d
        E 0 90 04 6d
        E 60 80 63 00
        E 0 80 04 00
        E 180 90 63 6d
        E 13 90 04 6d
        E 47 80 63 00
        E 13 80 04 00
        E 167 90 64 6d
        E 0 90 08 6d
        E 60 80 64 00
        E 0 80 08 00
        E 180 90 63 6d
        E 0 90 04 6d
        E 60 80 63 00
        E 0 80 04 00
        E 180 90 62 6f
        E 0 90 0d 6f
        E 60 80 62 00
        E 0 80 0d 00
        E 420 90 62 6d
        E 0 90 0b 6d
        E 60 80 62 00
        E 0 80 0b 00
        E 420 90 63 6d
        E 0 90 04 6d
        E 60 80 63 00
        E 0 80 04 00
        E 420 90 64 6d
        E 0 90 08 6d
        E 60 80 64 00
        E 0 80 08 00
        E 180 90 63 6d
        E 0 90 04 6d
        E 60 80 63 00
        E 0 80 04 00
        E 180 90 62 6f
        E 0 90 0d 6f
        E 60 80 62 00
        E 0 80 0d 00
        E 420 90 62 6d
        E 0 90 0b 6d
        E 60 80 62 00
        E 0 80 0b 00
        E 420 90 0d 6f
        E 0 90 62 6f
        E 60 80 0d 00
        E 0 80 62 00
        E 0 90 0e 70
        E 60 90 66 6d
        E 0 90 62 70
        E 60 80 66 00
        E 630 80 62 00
        E 30 80 0e 00
        E 120 90 0e 70
        E 0 90 62 70
        E 60 80 0e 00
        E 0 80 62 00
        E 0 90 0f 71
        E 0 90 6c 71
        E 60 90 66 6d
        E 0 90 62 71
        E 60 80 66 00
        E 630 80 62 00
        E 30 80 0f 00
        E 0 80 6c 00
        E 120 90 63 6d
        E 0 90 04 6d
        E 0 90 6c 6d
        E 60 80 63 00
        E 0 80 04 00
        E 0 80 6c 00
        E 420 90 64 6d
        E 0 90 08 6d
        E 60 80 64 00
        E 0 80 08 00
        E 180 90 63 6d
        E 0 90 04 6d
        E 60 80 63 00
        E 0 80 04 00
        E 180 90 62 6f
        E 0 90 0d 6f
        E 60 80 62 00
        E 0 80 0d 00
        E 420 90 62 6d
        E 0 90 0b 6d
        E 60 80 62 00
        E 0 80 0b 00
        E 420 90 63 6d
        E 0 90 04 6d
        E 60 80 63 00
        E 0 80 04 00
        E 180 90 63 6d
        E 13 90 04 6d
        E 47 80 63 00
        E 13 80 04 00
        E 167 90 64 6d
        E 0 90 08 6d
        E 60 80 64 00
        E 0 80 08 00
        E 180 90 63 6d
        E 0 90 04 6d
        E 60 80 63 00
        E 0 80 04 00
        E 180 90 62 6f
        E 0 90 0d 6f
        E 60 80 62 00
        E 0 80 0d 00
        E 420 90 62 6d
        E 0 90 0b 6d
        E 60 80 62 00
        E 0 80 0b 00
        E 420 90 63 6d
        E 0 90 04 6d
        E 60 80 63 00
        E 0 80 04 00
        E 420 90 64 6d
        E 0 90 08 6d
        E 60 80 64 00
        E 0 80 08 00
        E 180 90 63 6d
        E 0 90 04 6d
        E 60 80 63 00
        E 0 80 04 00
        E 180 90 62 6f
        E 0 90 0d 6f
        E 60 80 62 00
        E 0 80 0d 00
        E 420 90 62 6d
        E 0 90 0b 6d
        E 60 80 62 00
        E 0 80 0b 00
        E 420 90 0d 6f
        E 0 90 62 6f
        E 60 80 0d 00
        E 0 80 62 00
        E 0 90 0e 70
        E 60 90 66 6d
        E 0 90 62 70
        E 60 80 66 00
        E 630 80 62 00
        E 30 80 0e 00
        E 120 90 0e 70
        E 0 90 62 70
        E 60 80 0e 00
        E 0 80 62 00
        E 0 90 0f 71
        E 0 90 6c 71
        E 60 90 66 6d
        E 0 90 62 71
        E 60 80 66 00
        E 630 80 62 00
        E 30 80 0f 00
        E 0 80 6c 00
        E 120 90 63 6d
        E 0 90 04 6d
        E 0 90 6c 6d
        E 570 80 63 00
        E 90 80 04 00
        E 0 80 6c 00
        E 60 90 63 6f
        E 0 90 06 6f
        E 570 80 63 00
        E 90 80 06 00
        E 60 90 63 71
        E 0 90 08 71
        E 0 90 6c 71
        E 330 80 63 00
        E 90 80 08 00
        E 0 80 6c 00
        E 60 90 63 6d
        E 0 90 04 6d
        E 0 90 6c 6d
        E 570 80 63 00
        E 90 80 04 00
        E 0 80 6c 00
        E 60 90 63 6f
        E 0 90 06 6f
        E 570 80 63 00
        E 90 80 06 00
        E 60 90 63 71
        E 0 90 08 71
        E 0 90 6c 71
        E 330 80 63 00
        E 90 80 08 00
        E 0 80 6c 00
        E 60 90 63 6d
        E 0 90 04 6d
        E 0 90 6c 6d
        E 570 80 63 00
        E 90 80 04 00
        E 0 80 6c 00
        E 60 90 63 6f
        E 0 90 06 6f
        E 570 80 63 00
        E 90 80 06 00
        E 60 90 63 71
        E 0 90 08 71
        E 0 90 6c 71
        E 330 80 63 00
        E 90 80 08 00
        E 0 80 6c 00
        E 60 90 63 72
        E 0 90 09 72
        E 570 80 63 00
        E 90 80 09 00
        E 60 90 63 71
        E 0 90 08 71
        E 60 80 63 00
        E 60 80 08 00
        E 120 90 63 6f
        E 0 90 06 6f
        E 0 90 6c 6f
        E 810 80 63 00
        E 30 80 06 00
        E 0 80 6c 00
        E 120 90 63 6d
        E 0 90 04 6d
        E 0 90 6c 6d
        E 570 80 63 00
        E 90 80 04 00
        E 0 80 6c 00
        E 60 90 63 6f
        E 0 90 06 6f
        E 570 80 63 00
        E 90 80 06 00
        E 60 90 63 71
        E 0 90 08 71
        E 0 90 6c 71
        E 330 80 63 00
        E 90 80 08 00
        E 0 80 6c 00
        E 60 90 63 6d
        E 0 90 04 6d
        E 0 90 6c 6d
        E 570 80 63 00
        E 90 80 04 00
        E 0 80 6c 00
        E 60 90 63 6f
        E 0 90 06 6f
        E 570 80 63 00
        E 90 80 06 00
        E 60 90 63 71
        E 0 90 08 71
        E 0 90 6c 71
        E 330 80 63 00
        E 90 80 08 00
        E 0 80 6c 00
        E 60 90 63 6d
        E 0 90 04 6d
        E 0 90 6c 6d
        E 570 80 63 00
        E 90 80 04 00
        E 0 80 6c 00
        E 60 90 63 6f
        E 0 90 06 6f
        E 570 80 63 00
        E 90 80 06 00
        E 60 90 63 71
        E 0 90 08 71
        E 0 90 6c 71
        E 330 80 63 00
        E 90 80 08 00
        E 0 80 6c 00
        E 60 90 63 72
        E 0 90 09 72
        E 570 80 63 00
        E 90 80 09 00
        E 60 90 63 71
        E 0 90 08 71
        E 60 80 63 00
        E 60 80 08 00
        E 120 90 63 6f
        E 0 90 06 6f
        E 0 90 6c 6f
        E 810 80 63 00
        E 30 80 06 00
        E 0 80 6c 00
        E 120 90 63 6d
        E 0 90 04 6d
        E 0 90 6c 6d
        E 75 80 63 00
        E 15 80 04 00
        E 0 80 6c 00
        E 150 90 63 6d
        E 0 90 04 6d
        E 60 80 63 00
        E 0 80 04 00
        E 420 90 63 6d
        E 0 90 04 6d
        E 60 80 63 00
        E 0 80 04 00
        E 420 90 63 6d
        E 0 90 04 6d
        E 60 80 63 00
        E 0 80 04 00
        E 180 90 63 6c
        E 0 90 0f 6c
        E 0 90 6c 6c
        E 60 80 63 00
        E 0 80 0f 00
        E 0 80 6c 00
        E 180 90 63 6d
        E 0 90 04 6d
        E 60 80 63 00
        E 0 80 04 00
        E 180 90 62 6f
        E 0 90 0d 6f
        E 60 80 62 00
        E 0 80 0d 00
        E 180 90 62 6f
        E 0 90 0d 6f
        E 60 80 62 00
        E 0 80 0d 00
        E 420 90 63 6d
        E 0 90 04 6d
        E 60 80 63 00
        E 0 80 04 00
        E 420 90 63 6d
        E 0 90 04 6d
        E 60 80 63 00
        E 0 80 04 00
        E 180 90 63 6c
        E 0 90 0f 6c
        E 60 80 63 00
        E 0 80 0f 00
        E 180 90 63 6d
        E 0 90 04 6d
        E 60 80 63 00
        E 0 80 04 00
        E 180 90 62 6f
        E 0 90 0d 6f
        E 60 80 62 00
        E 0 80 0d 00
        E 180 90 62 6f
        E 0 90 0d 6f
        E 60 80 62 00
        E 0 80 0d 00
        E 420 90 63 6d
        E 0 90 04 6d
        E 60 80 63 00
        E 0 80 04 00
        E 420 90 63 6d
        E 0 90 04 6d
        E 60 80 63 00
        E 0 80 04 00
        E 180 90 62 6f
        E 0 90 0d 6f
        E 60 80 62 00
        E 0 80 0d 00
        E 180 90 63 6d
        E 0 90 04 6d
        E 60 80 63 00
        E 0 80 04 00
        E 180 90 63 6c
        E 0 90 0f 6c
        E 60 80 63 00
        E 0 80 0f 00
        E 180 90 63 6c
        E 0 90 0f 6c
        E 60 80 63 00
        E 0 80 0f 00
        E 420 90 63 6c
        E 0 90 0f 6c
        E 60 80 63 00
        E 0 80 0f 00
        E 420 90 63 6d
        E 0 90 04 6d
        E 60 80 63 00
        E 0 80 04 00
        E 180 90 62 6f
        E 0 90 0d 6f
        E 60 80 62 00
        E 0 80 0d 00
        E 180 90 63 6c
        E 0 90 0f 6c
        E 60 80 63 00
        E 0 80 0f 00
        E 180 90 63 6d
        E 0 90 04 6d
        E 60 80 63 00
        E 30 80 04 00
        E 150 90 63 6d
        E 0 90 04 6d
        E 60 80 63 00
        E 0 80 04 00
        E 420 90 63 6d
        E 0 90 04 6d
        E 60 80 63 00
        E 0 80 04 00
        E 420 90 63 6d
        E 0 90 04 6d
        E 60 80 63 00
        E 0 80 04 00
        E 180 90 63 6c
        E 0 90 0f 6c
        E 60 80 63 00
        E 0 80 0f 00
        E 180 90 63 6d
        E 0 90 04 6d
        E 60 80 63 00
        E 0 80 04 00
        E 180 90 62 6f
        E 0 90 0d 6f
        E 60 80 62 00
        E 0 80 0d 00
        E 180 90 62 6f
        E 0 90 0d 6f
        E 60 80 62 00
        E 0 80 0d 00
        E 420 90 63 6d
        E 0 90 04 6d
        E 60 80 63 00
        E 0 80 04 00
        E 420 90 63 6d
        E 0 90 04 6d
        E 60 80 63 00
        E 0 80 04 00
        E 180 90 63 6c
        E 0 90 0f 6c
        E 60 80 63 00
        E 0 80 0f 00
        E 180 90 63 6d
        E 0 90 04 6d
        E 60 80 63 00
        E 0 80 04 00
        E 180 90 62 6f
        E 0 90 0d 6f
        E 60 80 62 00
        E 0 80 0d 00
        E 180 90 62 6f
        E 0 90 0d 6f
        E 60 80 62 00
        E 0 80 0d 00
        E 420 90 63 6d
        E 0 90 04 6d
        E 60 80 63 00
        E 0 80 04 00
        E 420 90 63 6d
        E 0 90 04 6d
        E 60 80 63 00
        E 0 80 04 00
        E 180 90 62 6f
        E 0 90 0d 6f
        E 60 80 62 00
        E 0 80 0d 00
        E 180 90 63 6d
        E 0 90 04 6d
        E 60 80 63 00
        E 0 80 04 00
        E 180 90 63 6c
        E 0 90 0f 6c
        E 60 80 63 00
        E 0 80 0f 00
        E 180 90 63 6c
        E 0 90 0f 6c
        E 60 80 63 00
        E 0 80 0f 00
        E 420 90 63 6c
        E 0 90 0f 6c
        E 60 80 63 00
        E 0 80 0f 00
        E 420 90 63 6d
        E 0 90 04 6d
        E 60 80 63 00
        E 0 80 04 00
        E 180 90 62 6f
        E 0 90 0d 6f
        E 60 80 62 00
        E 0 80 0d 00
        E 180 90 63 6c
        E 0 90 0f 6c
        E 60 80 63 00
        E 0 80 0f 00
        E 180 90 63 6d
        E 0 90 04 6d
        E 1050 80 63 00
        E 30 80 04 00
        E 180 90 63 6f
        E 0 90 06 6f
        E 60 80 63 00
        E 0 80 06 00
        E 300 90 63 71
        E 0 90 08 71
        E 0 90 6c 71
        E 60 80 63 00
        E 0 80 08 00
        E 0 80 6c 00
        E 240 90 63 71
        E 0 90 08 71
        E 60 80 63 00
        E 0 80 08 00
        E 0 90 09 72
        E 60 90 66 72
        E 0 90 63 72
        E 60 80 66 00
        E 390 80 63 00
        E 30 80 09 00
        E 120 90 63 71
        E 0 90 08 71
        E 60 80 63 00
        E 0 80 08 00
        E 180 90 63 6f
        E 0 90 06 6f
        E 0 90 6c 6f
        E 570 80 63 00
        E 90 80 06 00
        E 0 80 6c 00
        E 60 90 63 71
        E 0 90 08 71
        E 60 80 63 00
        E 0 80 08 00
        E 60 90 63 6f
        E 0 90 06 6f
        E 60 80 63 00
        E 0 80 06 00
        E 60 90 63 6d
        E 0 90 04 6d
        E 0 90 6c 6d
        E 1620 80 63 00
        E 210 80 04 00
        E 0 80 6c 00
        E 90 90 63 6b
        E 0 90 0e 6b
        E 0 90 6c 6b
        E 60 80 63 00
        E 0 80 0e 00
        E 0 80 6c 00
        E 0 90 0f 6c
        E 60 90 66 64
        E 0 90 63 6c
        E 60 80 66 00
        E 375 80 63 00
        E 45 80 0f 00
        E 120 90 63 6c
        E 0 90 0f 6c
        E 60 80 63 00
        E 0 80 0f 00
        E 0 90 04 6d
        E 60 90 66 65
        E 0 90 63 6d
        E 60 80 66 00
        E 390 80 63 00
        E 60 80 04 00
        E 90 90 63 6e
        E 0 90 05 6e
        E 60 80 63 00
        E 0 80 05 00
        E 0 90 06 6f
        E 0 90 6c 6f
        E 60 90 66 67
        E 0 90 63 6f
        E 60 80 66 00
        E 150 80 63 00
        E 90 80 06 00
        E 0 80 6c 00
        E 60 90 63 6d
        E 0 90 04 6d
        E 0 90 6c 6d
        E 960 80 63 00
        E 120 80 04 00
        E 0 80 6c 00
        E 180 90 63 6f
        E 0 90 06 6f
        E 60 80 63 00
        E 0 80 06 00
        E 300 90 63 71
        E 0 90 08 71
        E 0 90 6c 71
        E 60 80 63 00
        E 0 80 08 00
        E 0 80 6c 00
        E 240 90 63 71
        E 0 90 08 71
        E 60 80 63 00
        E 0 80 08 00
        E 0 90 09 72
        E 60 90 66 72
        E 0 90 63 72
        E 60 80 66 00
        E 390 80 63 00
        E 30 80 09 00
        E 120 90 63 71
        E 0 90 08 71
        E 60 80 63 00
        E 0 80 08 00
        E 180 90 63 6f
        E 0 90 06 6f
        E 0 90 6c 6f
        E 570 80 63 00
        E 90 80 06 00
        E 0 80 6c 00
        E 60 90 63 71
        E 0 90 08 71
        E 60 80 63 00
        E 0 80 08 00
        E 60 90 63 6f
        E 0 90 06 6f
        E 60 80 63 00
        E 0 80 06 00
        E 60 90 63 6d
        E 0 90 04 6d
        E 0 90 6c 6d
        E 1680 80 63 00
        E 150 80 04 00
        E 0 80 6c 00
        E 90 90 63 6b
        E 0 90 0e 6b
        E 0 90 6c 6b
        E 60 80 63 00
        E 0 80 0e 00
        E 0 80 6c 00
        E 0 90 0f 6c
        E 60 90 66 64
        E 0 90 63 6c
        E 60 80 66 00
        E 390 80 63 00
        E 30 80 0f 00
        E 120 90 63 6c
        E 0 90 0f 6c
        E 60 80 63 00
        E 0 80 0f 00
        E 0 90 04 6d
        E 60 90 66 65
        E 0 90 63 6d
        E 60 80 66 00
        E 390 80 63 00
        E 60 80 04 00
        E 90 90 63 6e
        E 0 90 05 6e
        E 60 80 63 00
        E 0 80 05 00
        E 0 90 06 6f
        E 0 90 6c 6f
        E 60 90 66 67
        E 0 90 63 6f
        E 60 80 66 00
        E 150 80 63 00
        E 90 80 06 00
        E 0 80 6c 00
        E 60 90 63 6d
        E 0 90 04 6d
        E 0 90 6c 6d
        E 60 80 63 00
        E 0 80 04 00
        E 0 80 6c 00
        E 28470 90 6c 6b
        E 60 80 6c 00
        E 210 90 60 6b
        E 0 90 61 6d
        E 0 90 62 6d
        E 0 90 63 6c
        E 0 90 64 6b
        E 0 90 65 6b
        E 0 90 0b 6b
        E 60 80 60 00
        E 0 80 61 00
        E 0 80 62 00
        E 0 80 63 00
        E 0 80 64 00
        E 0 80 65 00
        E 0 80 0b 00
        E 180 90 60 6b
        E 0 90 61 6d
        E 0 90 62 6d
        E 0 90 63 6c
        E 0 90 64 6b
        E 0 90 65 6b
        E 0 90 0b 6b
        E 60 80 60 00
        E 0 80 61 00
        E 0 80 62 00
        E 0 80 63 00
        E 0 80 64 00
        E 0 80 65 00
        E 0 80 0b 00
        E 180 90 60 6b
        E 0 90 61 6d
        E 0 90 62 6d
        E 0 90 63 6c
        E 0 90 64 6b
        E 0 90 65 6b
        E 0 90 0b 6b
        E 60 80 60 00
        E 0 80 61 00
        E 0 80 62 00
        E 0 80 63 00
        E 0 80 64 00
        E 0 80 65 00
        E 0 80 0b 00
        E 180 90 60 6b
        E 0 90 61 6d
        E 0 90 62 6d
        E 0 90 63 6c
        E 0 90 64 6b
        E 0 90 65 6b
        E 0 90 0b 6b
        E 60 80 60 00
        E 0 80 61 00
        E 0 80 62 00
        E 0 80 63 00
        E 0 80 64 00
        E 0 80 65 00
        E 0 80 0b 00
        E 180 90 60 6b
        E 0 90 61 6d
        E 0 90 62 6d
        E 0 90 63 6c
        E 0 90 64 6b
        E 0 90 65 6b
        E 0 90 0b 6b
        E 60 80 60 00
        E 0 80 61 00
        E 0 80 62 00
        E 0 80 63 00
        E 0 80 64 00
        E 0 80 65 00
        E 0 80 0b 00
        E 180 90 60 6b
        E 0 90 61 6d
        E 0 90 62 6d
        E 0 90 63 6c
        E 0 90 64 6b
        E 0 90 65 6b
        E 0 90 0b 6b
        E 60 80 60 00
        E 0 80 61 00
        E 0 80 62 00
        E 0 80 63 00
        E 0 80 64 00
        E 0 80 65 00
        E 0 80 0b 00
        E 180 90 60 6b
        E 0 90 61 6d
        E 0 90 62 6d
        E 0 90 63 6c
        E 0 90 64 6b
        E 0 90 65 6b
        E 0 90 0b 6b
        E 60 80 60 00
        E 0 80 61 00
        E 0 80 62 00
        E 0 80 63 00
        E 0 80 64 00
        E 0 80 65 00
        E 0 80 0b 00
        E 180 93 60 6b
        E 0 93 61 6d
        E 0 93 62 6d
        E 0 93 63 6c
        E 0 93 64 6b
        E 0 93 65 6b
        E 0 93 0b 6b
        E 60 83 60 00
        E 0 83 61 00
        E 0 83 62 00
        E 0 83 63 00
        E 0 83 64 00
        E 0 83 65 00
        E 0 83 0b 00
        E 180 90 60 64
        E 0 90 61 66
        E 0 90 62 66
        E 0 90 63 65
        E 0 90 64 64
        E 0 90 65 64
        E 0 90 04 64
        E 0 90 6c 65
        E 330 80 60 00
        E 0 80 61 00
        E 0 80 62 00
        E 0 80 63 00
        E 0 80 64 00
        E 0 80 65 00
        E 90 80 04 00
        E 0 80 6c 00
        E 60 90 60 64
        E 0 90 61 66
        E 0 90 62 66
        E 0 90 63 65
        E 0 90 64 64
        E 0 90 65 64
        E 0 90 04 64
        E 60 80 60 00
        E 0 80 61 00
        E 0 80 62 00
        E 0 80 63 00
        E 0 80 64 00
        E 0 80 65 00
        E 0 80 04 00
        E 180 90 60 64
        E 0 90 61 66
        E 0 90 62 66
        E 0 90 63 65
        E 0 90 64 64
        E 0 90 65 64
        E 0 90 04 64
        E 330 80 60 00
        E 0 80 61 00
        E 0 80 62 00
        E 0 80 63 00
        E 0 80 64 00
        E 0 80 65 00
        E 90 80 04 00
        E 60 90 60 64
        E 0 90 61 66
        E 0 90 62 66
        E 0 90 63 65
        E 0 90 64 64
        E 0 90 65 64
        E 0 90 04 64
        E 60 80 60 00
        E 0 80 61 00
        E 0 80 62 00
        E 0 80 63 00
        E 0 80 64 00
        E 0 80 65 00
        E 0 80 04 00
        E 180 90 60 64
        E 0 90 61 66
        E 0 90 62 66
        E 0 90 63 65
        E 0 90 64 64
        E 0 90 65 64
        E 0 90 04 64
        E 60 80 60 00
        E 0 80 61 00
        E 0 80 62 00
        E 0 80 63 00
        E 0 80 64 00
        E 0 80 65 00
        E 0 80 04 00
        E 176 93 60 64
        E 0 93 61 66
        E 0 93 62 66
        E 0 93 63 65
        E 0 93 64 64
        E 0 93 65 64
        E 0 93 04 64
        E 60 83 60 00
        E 0 83 61 00
        E 0 83 62 00
        E 0 83 63 00
        E 0 83 64 00
        E 0 83 65 00
        E 0 83 04 00
        E 184 90 64 68
        E 0 90 60 68
        E 0 90 61 6a
        E 0 90 62 6a
        E 0 90 63 69
        E 0 90 65 68
        E 0 90 0f 68
        E 0 90 6c 68
        E 570 80 64 00
        E 0 80 60 00
        E 0 80 61 00
        E 0 80 62 00
        E 0 80 63 00
        E 0 80 65 00
        E 90 80 0f 00
        E 0 80 6c 00
        E 60 90 64 68
        E 0 90 60 68
        E 0 90 61 6a
        E 0 90 62 6a
        E 0 90 63 69
        E 0 90 65 68
        E 0 90 0f 68
        E 60 80 64 00
        E 0 80 60 00
        E 0 80 61 00
        E 0 80 62 00
        E 0 80 63 00
        E 0 80 65 00
        E 0 80 0f 00
        E 180 90 64 68
        E 0 90 60 68
        E 0 90 61 6a
        E 0 90 62 6a
        E 0 90 63 69
        E 0 90 65 68
        E 0 90 0f 68
        E 60 80 64 00
        E 0 80 60 00
        E 0 80 61 00
        E 0 80 62 00
        E 0 80 63 00
        E 0 80 65 00
        E 0 80 0f 00
        E 180 90 64 68
        E 0 90 60 68
        E 0 90 61 6a
        E 0 90 62 6a
        E 0 90 63 69
        E 0 90 65 68
        E 0 90 0f 68
        E 60 80 64 00
        E 0 80 60 00
        E 0 80 61 00
        E 0 80 62 00
        E 0 80 63 00
        E 0 80 65 00
        E 0 80 0f 00
        E 180 90 64 68
        E 0 90 60 68
        E 0 90 61 6a
        E 0 90 62 6a
        E 0 90 63 69
        E 0 90 65 68
        E 0 90 0f 68
        E 60 80 64 00
        E 0 80 60 00
        E 0 80 61 00
        E 0 80 62 00
        E 0 80 63 00
        E 0 80 65 00
        E 0 80 0f 00
        E 180 93 64 68
        E 0 93 60 68
        E 0 93 61 6a
        E 0 93 62 6a
        E 0 93 63 69
        E 0 93 65 68
        E 0 93 0f 68
        E 60 83 64 00
        E 0 83 60 00
        E 0 83 61 00
        E 0 83 62 00
        E 0 83 63 00
        E 0 83 65 00
        E 0 83 0f 00
        E 180 90 60 69
        E 0 90 61 6b
        E 0 90 62 6b
        E 0 90 63 6a
        E 0 90 64 69
        E 0 90 65 69
        E 0 90 09 69
        E 330 80 60 00
        E 0 80 61 00
        E 0 80 62 00
        E 0 80 63 00
        E 0 80 64 00
        E 0 80 65 00
        E 90 80 09 00
        E 60 90 60 69
        E 0 90 61 6b
        E 0 90 62 6b
        E 0 90 63 6a
        E 0 90 64 69
        E 0 90 65 69
        E 0 90 09 69
        E 60 80 60 00
        E 0 80 61 00
        E 0 80 62 00
        E 0 80 63 00
        E 0 80 64 00
        E 0 80 65 00
        E 0 80 09 00
        E 180 90 60 69
        E 0 90 61 6b
        E 0 90 62 6b
        E 0 90 63 6a
        E 0 90 64 69
        E 0 90 65 69
        E 0 90 09 69
        E 300 80 09 00
        E 30 80 60 00
        E 0 80 61 00
        E 0 80 62 00
        E 0 80 63 00
        E 0 80 64 00
        E 0 80 65 00
        E 150 90 60 69
        E 0 90 61 6b
        E 0 90 62 6b
        E 0 90 63 6a
        E 0 90 64 69
        E 0 90 65 69
        E 0 90 09 69
        E 60 80 60 00
        E 0 80 61 00
        E 0 80 62 00
        E 0 80 63 00
        E 0 80 64 00
        E 0 80 65 00
        E 0 80 09 00
        E 180 90 60 69
        E 0 90 61 6b
        E 0 90 62 6b
        E 0 90 63 6a
        E 0 90 64 69
        E 0 90 65 69
        E 0 90 09 69
        E 60 80 60 00
        E 0 80 61 00
        E 0 80 62 00
        E 0 80 63 00
        E 0 80 64 00
        E 0 80 65 00
        E 0 80 09 00
        E 180 93 61 6b
        E 0 93 62 6b
        E 0 93 63 6a
        E 0 93 64 69
        E 0 93 65 69
        E 0 93 09 69
        E 60 83 61 00
        E 0 83 62 00
        E 0 83 63 00
        E 0 83 64 00
        E 0 83 65 00
        E 0 83 09 00
        E 180 90 62 66
        E 0 90 64 66
        E 0 90 61 64
        E 0 90 63 66
        E 0 90 65 64
        E 0 90 04 66
        E 0 90 6c 65
        E 360 80 62 00
        E 0 80 64 00
        E 0 80 61 00
        E 0 80 63 00
        E 0 80 65 00
        E 0 80 04 00
        E 0 80 6c 00
        E 120 90 62 66
        E 0 90 64 66
        E 0 90 61 64
        E 0 90 63 66
        E 0 90 65 64
        E 0 90 04 66
        E 90 80 62 00
        E 0 80 64 00
        E 0 80 61 00
        E 0 80 63 00
        E 0 80 65 00
        E 0 80 04 00
        E 150 90 64 64
        E 0 90 04 66
        E 0 90 66 67
        E 60 80 64 00
        E 0 80 04 00
        E 0 90 64 66
        E 30 90 0d 66
        E 30 80 64 00
        E 0 90 64 64
        E 30 80 0d 00
        E 30 80 66 00
        E 0 80 64 00
        E 0 90 0b 64
        E 60 80 0b 00
        E 0 90 62 66
        E 0 90 64 64
        E 0 90 61 64
        E 0 90 63 66
        E 0 90 65 64
        E 60 80 62 00
        E 0 80 64 00
        E 0 80 61 00
        E 0 80 63 00
        E 0 80 65 00
        E 180 90 62 66
        E 0 90 64 64
        E 0 90 61 64
        E 0 90 63 66
        E 0 90 65 64
        E 0 90 04 66
        E 60 80 62 00
        E 0 80 64 00
        E 0 80 61 00
        E 0 80 63 00
        E 0 80 65 00
        E 30 80 04 00
        E 150 90 62 66
        E 0 90 64 64
        E 0 90 61 64
        E 0 90 63 66
        E 0 90 65 64
        E 0 90 04 66
        E 90 80 62 00
        E 0 80 64 00
        E 0 80 61 00
        E 0 80 63 00
        E 0 80 65 00
        E 0 80 04 00
        E 150 90 60 64
        E 0 90 61 64
        E 0 90 62 64
        E 0 90 63 64
        E 0 90 64 64
        E 0 90 65 64
        E 0 90 04 64
        E 60 80 60 00
        E 0 80 61 00
        E 0 80 62 00
        E 0 80 63 00
        E 0 80 64 00
        E 0 80 65 00
        E 0 80 04 00
        E 180 90 60 64
        E 0 90 61 66
        E 0 90 62 66
        E 0 90 63 65
        E 0 90 64 64
        E 0 90 65 64
        E 0 90 04 64
        E 330 80 60 00
        E 0 80 61 00
        E 0 80 62 00
        E 0 80 63 00
        E 0 80 64 00
        E 0 80 65 00
        E 90 80 04 00
        E 60 90 60 64
        E 0 90 61 66
        E 0 90 62 66
        E 0 90 63 65
        E 0 90 64 64
        E 0 90 65 64
        E 0 90 04 64
        E 60 80 60 00
        E 0 80 61 00
        E 0 80 62 00
        E 0 80 63 00
        E 0 80 64 00
        E 0 80 65 00
        E 0 80 04 00
        E 180 90 60 64
        E 0 90 61 66
        E 0 90 62 66
        E 0 90 63 65
        E 0 90 64 64
        E 0 90 65 64
        E 0 90 04 64
        E 60 80 60 00
        E 0 80 61 00
        E 0 80 62 00
        E 0 80 63 00
        E 0 80 64 00
        E 0 80 65 00
        E 0 80 04 00
        E 180 90 60 64
        E 0 90 61 66
        E 0 90 62 66
        E 0 90 63 65
        E 0 90 64 64
        E 0 90 65 64
        E 0 90 04 64
        E 60 80 60 00
        E 0 80 61 00
        E 0 80 62 00
        E 0 80 63 00
        E 0 80 64 00
        E 0 80 65 00
        E 0 80 04 00
        E 180 90 60 64
        E 0 90 61 66
        E 0 90 62 66
        E 0 90 63 65
        E 0 90 64 64
        E 0 90 65 64
        E 0 90 04 64
        E 60 80 60 00
        E 0 80 61 00
        E 0 80 62 00
        E 0 80 63 00
        E 0 80 64 00
        E 0 80 65 00
        E 0 80 04 00
        E 180 90 60 64
        E 0 90 61 66
        E 0 90 62 66
        E 0 90 63 65
        E 0 90 64 64
        E 0 90 65 64
        E 0 90 04 64
        E 60 80 60 00
        E 0 80 61 00
        E 0 80 62 00
        E 0 80 63 00
        E 0 80 64 00
        E 0 80 65 00
        E 0 80 04 00
        E 176 93 60 64
        E 0 93 61 66
        E 0 93 62 66
        E 0 93 63 65
        E 0 93 64 64
        E 0 93 65 64
        E 0 93 04 64
        E 60 83 60 00
        E 0 83 61 00
        E 0 83 62 00
        E 0 83 63 00
        E 0 83 64 00
        E 0 83 65 00
        E 0 83 04 00
        E 184 90 64 68
        E 0 90 60 68
        E 0 90 61 6a
        E 0 90 62 6a
        E 0 90 63 69
        E 0 90 65 68
        E 0 90 0f 68
        E 0 90 6c 68
        E 330 80 64 00
        E 0 80 60 00
        E 0 80 61 00
        E 0 80 62 00
        E 0 80 63 00
        E 0 80 65 00
        E 90 80 0f 00
        E 0 80 6c 00
        E 60 90 64 68
        E 0 90 60 68
        E 0 90 61 6a
        E 0 90 62 6a
        E 0 90 63 69
        E 0 90 65 68
        E 0 90 0f 68
        E 60 80 64 00
        E 0 80 60 00
        E 0 80 61 00
        E 0 80 62 00
        E 0 80 63 00
        E 0 80 65 00
        E 0 80 0f 00
        E 180 90 64 68
        E 0 90 60 68
        E 0 90 61 6a
        E 0 90 62 6a
        E 0 90 63 69
        E 0 90 65 68
        E 0 90 0f 68
        E 60 80 64 00
        E 0 80 60 00
        E 0 80 61 00
        E 0 80 62 00
        E 0 80 63 00
        E 0 80 65 00
        E 0 80 0f 00
        E 180 90 64 68
        E 0 90 60 68
        E 0 90 61 6a
        E 0 90 62 6a
        E 0 90 63 69
        E 0 90 65 68
        E 0 90 0f 68
        E 60 80 64 00
        E 0 80 60 00
        E 0 80 61 00
        E 0 80 62 00
        E 0 80 63 00
        E 0 80 65 00
        E 0 80 0f 00
        E 180 90 64 68
        E 0 90 60 68
        E 0 90 61 6a
        E 0 90 62 6a
        E 0 90 63 69
        E 0 90 65 68
        E 0 90 0f 68
        E 60 80 64 00
        E 0 80 60 00
        E 0 80 61 00
        E 0 80 62 00
        E 0 80 63 00
        E 0 80 65 00
        E 0 80 0f 00
        E 180 90 64 68
        E 0 90 60 68
        E 0 90 61 6a
        E 0 90 62 6a
        E 0 90 63 69
        E 0 90 65 68
        E 0 90 0f 68
        E 60 80 64 00
        E 0 80 60 00
        E 0 80 61 00
        E 0 80 62 00
        E 0 80 63 00
        E 0 80 65 00
        E 150 80 0f 00
        E 30 90 60 69
        E 0 90 61 6b
        E 0 90 62 6b
        E 0 90 63 6a
        E 0 90 64 69
        E 0 90 65 69
        E 0 90 09 69
        E 60 80 60 00
        E 0 80 61 00
        E 0 80 62 00
        E 0 80 63 00
        E 0 80 64 00
        E 0 80 65 00
        E 60 80 09 00
        E 120 90 60 69
        E 0 90 61 6b
        E 0 90 62 6b
        E 0 90 63 6a
        E 0 90 64 69
        E 0 90 65 69
        E 0 90 09 69
        E 330 80 60 00
        E 0 80 61 00
        E 0 80 62 00
        E 0 80 63 00
        E 0 80 64 00
        E 0 80 65 00
        E 90 80 09 00
        E 60 90 60 69
        E 0 90 61 6b
        E 0 90 62 6b
        E 0 90 63 6a
        E 0 90 64 69
        E 0 90 65 69
        E 0 90 09 69
        E 60 80 60 00
        E 0 80 61 00
        E 0 80 62 00
        E 0 80 63 00
        E 0 80 64 00
        E 0 80 65 00
        E 0 80 09 00
        E 180 90 60 69
        E 0 90 61 6b
        E 0 90 62 6b
        E 0 90 63 6a
        E 0 90 64 69
        E 0 90 65 69
        E 0 90 09 69
        E 60 80 60 00
        E 0 80 61 00
        E 0 80 62 00
        E 0 80 63 00
        E 0 80 64 00
        E 0 80 65 00
        E 0 80 09 00
        E 180 90 60 69
        E 0 90 61 6b
        E 0 90 62 6b
        E 0 90 63 6a
        E 0 90 64 69
        E 0 90 65 69
        E 0 90 09 69
        E 60 80 60 00
        E 0 80 61 00
        E 0 80 62 00
        E 0 80 63 00
        E 0 80 64 00
        E 0 80 65 00
        E 0 80 09 00
        E 180 90 60 69
        E 0 90 61 6b
        E 0 90 62 6b
        E 0 90 63 6a
        E 0 90 64 69
        E 0 90 65 69
        E 0 90 09 69
        E 60 80 60 00
        E 0 80 61 00
        E 0 80 62 00
        E 0 80 63 00
        E 0 80 64 00
        E 0 80 65 00
        E 0 80 09 00
        E 180 90 60 69
        E 0 90 61 6b
        E 0 90 62 6b
        E 0 90 63 6a
        E 0 90 64 69
        E 0 90 65 69
        E 0 90 09 69
        E 60 80 60 00
        E 0 80 61 00
        E 0 80 62 00
        E 0 80 63 00
        E 0 80 64 00
        E 0 80 65 00
        E 0 80 09 00
        E 180 93 60 69
        E 0 93 61 6b
        E 0 93 62 6b
        E 0 93 63 6a
        E 0 93 64 69
        E 0 93 65 69
        E 0 93 09 69
        E 60 83 60 00
        E 0 83 61 00
        E 0 83 62 00
        E 0 83 63 00
        E 0 83 64 00
        E 0 83 65 00
        E 0 83 09 00
        E 180 90 60 6b
        E 0 90 61 6d
        E 0 90 62 6d
        E 0 90 63 6c
        E 0 90 65 6b
        E 0 90 0b 6b
        E 0 90 6c 6b
        E 0 90 64 6b
        E 60 80 60 00
        E 0 80 61 00
        E 0 80 62 00
        E 0 80 63 00
        E 0 80 65 00
        E 0 80 64 00
        E 30 80 0b 00
        E 0 80 6c 00
        E 150 90 60 6b
        E 0 90 61 6d
        E 0 90 62 6d
        E 0 90 63 6c
        E 0 90 64 6b
        E 0 90 0b 6b
        E 0 90 65 6b
        E 60 80 60 00
        E 0 80 61 00
        E 0 80 62 00
        E 0 80 63 00
        E 0 80 64 00
        E 0 80 0b 00
        E 0 80 65 00
        E 180 90 60 6b
        E 0 90 61 6d
        E 0 90 62 6d
        E 0 90 63 6c
        E 0 90 64 6b
        E 0 90 0b 6b
        E 0 90 65 6b
        E 60 80 60 00
        E 0 80 61 00
        E 0 80 62 00
        E 0 80 63 00
        E 0 80 64 00
        E 0 80 0b 00
        E 0 80 65 00
        E 180 90 60 6b
        E 0 90 61 6d
        E 0 90 62 6d
        E 0 90 63 6c
        E 0 90 64 6b
        E 0 90 0b 6b
        E 0 90 65 6b
        E 60 80 60 00
        E 0 80 61 00
        E 0 80 62 00
        E 0 80 63 00
        E 0 80 64 00
        E 0 80 0b 00
        E 0 80 65 00
        E 180 90 65 6b
        E 0 90 60 6b
        E 0 90 61 6d
        E 0 90 62 6d
        E 0 90 63 6c
        E 0 90 64 6b
        E 0 90 0b 6b
        E 60 80 65 00
        E 0 80 60 00
        E 0 80 61 00
        E 0 80 62 00
        E 0 80 63 00
        E 0 80 64 00
        E 0 80 0b 00
        E 180 90 60 6b
        E 0 90 61 6d
        E 0 90 62 6d
        E 0 90 63 6c
        E 0 90 64 6b
        E 0 90 0b 6b
        E 0 90 65 6b
        E 60 80 60 00
        E 0 80 61 00
        E 0 80 62 00
        E 0 80 63 00
        E 0 80 64 00
        E 0 80 0b 00
        E 0 80 65 00
        E 180 90 60 6b
        E 0 90 61 6d
        E 0 90 62 6d
        E 0 90 63 6c
        E 0 90 64 6b
        E 0 90 0b 6b
        E 0 90 65 6b
        E 60 80 60 00
        E 0 80 61 00
        E 0 80 62 00
        E 0 80 63 00
        E 0 80 64 00
        E 0 80 0b 00
        E 0 80 65 00
        E 180 90 61 64
        E 0 90 63 64
        E 0 90 62 64
        E 0 90 64 64
        E 0 90 09 64
        E 0 90 65 64
        E 0 90 60 64
        E 60 80 61 00
        E 0 80 63 00
        E 0 80 62 00
        E 0 80 64 00
        E 0 80 09 00
        E 0 80 65 00
        E 0 80 60 00
        E 180 90 60 64
        E 0 90 61 66
        E 0 90 62 66
        E 0 90 63 65
        E 0 90 64 64
        E 0 90 65 64
        E 0 90 04 64
        E 0 90 6c 65
        E 330 80 60 00
        E 0 80 61 00
        E 0 80 62 00
        E 0 80 63 00
        E 0 80 64 00
        E 0 80 65 00
        E 90 80 04 00
        E 0 80 6c 00
        E 60 90 60 64
        E 0 90 61 66
        E 0 90 62 66
        E 0 90 63 65
        E 0 90 64 64
        E 0 90 65 64
        E 0 90 04 64
        E 60 80 60 00
        E 0 80 61 00
        E 0 80 62 00
        E 0 80 63 00
        E 0 80 64 00
        E 0 80 65 00
        E 0 80 04 00
        E 180 90 60 64
        E 0 90 61 66
        E 0 90 62 66
        E 0 90 63 65
        E 0 90 64 64
        E 0 90 65 64
        E 0 90 04 64
        E 330 80 60 00
        E 0 80 61 00
        E 0 80 62 00
        E 0 80 63 00
        E 0 80 64 00
        E 0 80 65 00
        E 90 80 04 00
        E 60 90 60 64
        E 0 90 61 66
        E 0 90 62 66
        E 0 90 63 65
        E 0 90 64 64
        E 0 90 65 64
        E 0 90 04 64
        E 60 80 60 00
        E 0 80 61 00
        E 0 80 62 00
        E 0 80 63 00
        E 0 80 64 00
        E 0 80 65 00
        E 0 80 04 00
        E 180 90 60 64
        E 0 90 61 66
        E 0 90 62 66
        E 0 90 63 65
        E 0 90 64 64
        E 0 90 65 64
        E 0 90 04 64
        E 60 80 60 00
        E 0 80 61 00
        E 0 80 62 00
        E 0 80 63 00
        E 0 80 64 00
        E 0 80 65 00
        E 0 80 04 00
        E 176 93 60 64
        E 0 93 61 66
        E 0 93 62 66
        E 0 93 63 65
        E 0 93 64 64
        E 0 93 65 64
        E 0 93 04 64
        E 60 83 60 00
        E 0 83 61 00
        E 0 83 62 00
        E 0 83 63 00
        E 0 83 64 00
        E 0 83 65 00
        E 0 83 04 00
        E 184 90 64 68
        E 0 90 60 68
        E 0 90 61 6a
        E 0 90 62 6a
        E 0 90 63 69
        E 0 90 65 68
        E 0 90 0f 68
        E 0 90 6c 68
        E 330 80 64 00
        E 0 80 60 00
        E 0 80 61 00
        E 0 80 62 00
        E 0 80 63 00
        E 0 80 65 00
        E 90 80 0f 00
        E 0 80 6c 00
        E 60 90 64 68
        E 0 90 60 68
        E 0 90 61 6a
        E 0 90 62 6a
        E 0 90 63 69
        E 0 90 65 68
        E 0 90 0f 68
        E 60 80 64 00
        E 0 80 60 00
        E 0 80 61 00
        E 0 80 62 00
        E 0 80 63 00
        E 0 80 65 00
        E 0 80 0f 00
        E 180 90 64 68
        E 0 90 60 68
        E 0 90 61 6a
        E 0 90 62 6a
        E 0 90 63 69
        E 0 90 65 68
        E 0 90 0f 68
        E 60 80 64 00
        E 0 80 60 00
        E 0 80 61 00
        E 0 80 62 00
        E 0 80 63 00
        E 0 80 65 00
        E 0 80 0f 00
        E 180 90 64 68
        E 0 90 60 68
        E 0 90 61 6a
        E 0 90 62 6a
        E 0 90 63 69
        E 0 90 65 68
        E 0 90 0f 68
        E 60 80 64 00
        E 0 80 60 00
        E 0 80 61 00
        E 0 80 62 00
        E 0 80 63 00
        E 0 80 65 00
        E 0 80 0f 00
        E 180 90 64 68
        E 0 90 60 68
        E 0 90 61 6a
        E 0 90 62 6a
        E 0 90 63 69
        E 0 90 65 68
        E 0 90 0f 68
        E 60 80 64 00
        E 0 80 60 00
        E 0 80 61 00
        E 0 80 62 00
        E 0 80 63 00
        E 0 80 65 00
        E 0 80 0f 00
        E 180 90 64 68
        E 0 90 60 68
        E 0 90 61 6a
        E 0 90 62 6a
        E 0 90 63 69
        E 0 90 65 68
        E 0 90 0f 68
        E 60 80 64 00
        E 0 80 60 00
        E 0 80 61 00
        E 0 80 62 00
        E 0 80 63 00
        E 0 80 65 00
        E 0 80 0f 00
        E 180 90 64 68
        E 0 90 60 68
        E 0 90 61 6a
        E 0 90 62 6a
        E 0 90 63 69
        E 0 90 65 68
        E 0 90 0f 68
        E 60 80 64 00
        E 0 80 60 00
        E 0 80 61 00
        E 0 80 62 00
        E 0 80 63 00
        E 0 80 65 00
        E 0 80 0f 00
        E 60 93 64 68
        E 0 93 60 68
        E 0 93 61 6a
        E 0 93 62 6a
        E 0 93 63 69
        E 0 93 65 68
        E 0 93 0f 68
        E 60 83 64 00
        E 0 83 60 00
        E 0 83 61 00
        E 0 83 62 00
        E 0 83 63 00
        E 0 83 65 00
        E 0 83 0f 00
        E 60 90 60 69
        E 0 90 61 6b
        E 0 90 62 6b
        E 0 90 63 6a
        E 0 90 64 69
        E 0 90 65 69
        E 0 90 09 69
        E 330 80 60 00
        E 0 80 61 00
        E 0 80 62 00
        E 0 80 63 00
        E 0 80 64 00
        E 0 80 65 00
        E 90 80 09 00
        E 60 90 60 69
        E 0 90 61 6b
        E 0 90 62 6b
        E 0 90 63 6a
        E 0 90 64 69
        E 0 90 65 69
        E 0 90 09 69
        E 60 80 60 00
        E 0 80 61 00
        E 0 80 62 00
        E 0 80 63 00
        E 0 80 64 00
        E 0 80 65 00
        E 0 80 09 00
        E 180 90 60 69
        E 0 90 61 6b
        E 0 90 62 6b
        E 0 90 63 6a
        E 0 90 64 69
        E 0 90 65 69
        E 0 90 09 69
        E 60 80 60 00
        E 0 80 61 00
        E 0 80 62 00
        E 0 80 63 00
        E 0 80 64 00
        E 0 80 65 00
        E 0 80 09 00
        E 180 90 60 69
        E 0 90 61 6b
        E 0 90 62 6b
        E 0 90 63 6a
        E 0 90 64 69
        E 0 90 65 69
        E 0 90 09 69
        E 60 80 60 00
        E 0 80 61 00
        E 0 80 62 00
        E 0 80 63 00
        E 0 80 64 00
        E 0 80 65 00
        E 0 80 09 00
        E 180 90 60 69
        E 0 90 61 6b
        E 0 90 62 6b
        E 0 90 63 6a
        E 0 90 64 69
        E 0 90 65 69
        E 0 90 09 69
        E 60 80 60 00
        E 0 80 61 00
        E 0 80 62 00
        E 0 80 63 00
        E 0 80 64 00
        E 0 80 65 00
        E 0 80 09 00
        E 15 90 6f 66
        E 15 80 6f 00
        E 150 90 60 69
        E 0 90 61 6b
        E 0 90 62 6b
        E 0 90 63 6a
        E 0 90 64 69
        E 0 90 65 69
        E 0 90 09 69
        E 60 80 60 00
        E 0 80 61 00
        E 0 80 62 00
        E 0 80 63 00
        E 0 80 64 00
        E 0 80 65 00
        E 0 80 09 00
        E 180 93 61 6b
        E 0 93 62 6b
        E 0 93 63 6a
        E 0 93 64 69
        E 0 93 65 69
        E 0 93 09 69
        E 0 90 6c 64
        E 60 83 61 00
        E 0 83 62 00
        E 0 83 63 00
        E 0 83 64 00
        E 0 83 65 00
        E 0 83 09 00
        E 30 80 6c 00
        E 150 90 62 66
        E 0 90 64 66
        E 0 90 61 64
        E 0 90 63 66
        E 0 90 65 64
        E 0 90 04 66
        E 0 90 6c 65
        E 330 80 62 00
        E 0 80 64 00
        E 0 80 61 00
        E 0 80 63 00
        E 0 80 65 00
        E 30 80 04 00
        E 0 80 6c 00
        E 120 90 62 66
        E 0 90 64 64
        E 0 90 61 64
        E 0 90 63 66
        E 0 90 65 64
        E 0 90 04 66
        E 90 80 62 00
        E 0 80 64 00
        E 0 80 61 00
        E 0 80 63 00
        E 0 80 65 00
        E 0 80 04 00
        E 150 90 62 66
        E 0 90 64 64
        E 0 90 61 64
        E 0 90 63 66
        E 0 90 65 64
        E 0 90 04 66
        E 330 80 62 00
        E 0 80 64 00
        E 0 80 61 00
        E 0 80 63 00
        E 0 80 65 00
        E 90 80 04 00
        E 60 90 62 66
        E 0 90 64 64
        E 0 90 61 64
        E 0 90 63 66
        E 0 90 65 64
        E 0 90 04 66
        E 60 80 62 00
        E 0 80 64 00
        E 0 80 61 00
        E 0 80 63 00
        E 0 80 65 00
        E 30 80 04 00
        E 150 93 62 66
        E 0 93 64 64
        E 0 93 61 64
        E 0 93 63 66
        E 0 93 65 64
        E 0 93 04 66
        E 60 83 62 00
        E 0 83 64 00
        E 0 83 61 00
        E 0 83 63 00
        E 0 83 65 00
        E 30 83 04 00
        E 150 90 60 64
        E 0 90 61 64
        E 0 90 62 64
        E 0 90 63 64
        E 0 90 64 64
        E 0 90 65 64
        E 0 90 04 64
        E 60 80 60 00
        E 0 80 61 00
        E 0 80 62 00
        E 0 80 63 00
        E 0 80 64 00
        E 0 80 65 00
        E 0 80 04 00
        E 180 90 60 64
        E 0 90 61 66
        E 0 90 62 66
        E 0 90 63 65
        E 0 90 64 64
        E 0 90 65 64
        E 0 90 04 64
        E 330 80 60 00
        E 0 80 61 00
        E 0 80 62 00
        E 0 80 63 00
        E 0 80 64 00
        E 0 80 65 00
        E 90 80 04 00
        E 60 90 60 64
        E 0 90 61 66
        E 0 90 62 66
        E 0 90 63 65
        E 0 90 64 64
        E 0 90 65 64
        E 0 90 04 64
        E 60 80 60 00
        E 0 80 61 00
        E 0 80 62 00
        E 0 80 63 00
        E 0 80 64 00
        E 0 80 65 00
        E 0 80 04 00
        E 180 90 60 64
        E 0 90 61 66
        E 0 90 62 66
        E 0 90 63 65
        E 0 90 64 64
        E 0 90 65 64
        E 0 90 04 64
        E 60 80 60 00
        E 0 80 61 00
        E 0 80 62 00
        E 0 80 63 00
        E 0 80 64 00
        E 0 80 65 00
        E 0 80 04 00
        E 180 90 60 64
        E 0 90 61 66
        E 0 90 62 66
        E 0 90 63 65
        E 0 90 64 64
        E 0 90 65 64
        E 0 90 04 64
        E 60 80 60 00
        E 0 80 61 00
        E 0 80 62 00
        E 0 80 63 00
        E 0 80 64 00
        E 0 80 65 00
        E 0 80 04 00
        E 180 90 60 64
        E 0 90 61 66
        E 0 90 62 66
        E 0 90 63 65
        E 0 90 64 64
        E 0 90 65 64
        E 0 90 04 64
        E 60 80 60 00
        E 0 80 61 00
        E 0 80 62 00
        E 0 80 63 00
        E 0 80 64 00
        E 0 80 65 00
        E 0 80 04 00
        E 180 90 60 64
        E 0 90 61 66
        E 0 90 62 66
        E 0 90 63 65
        E 0 90 64 64
        E 0 90 65 64
        E 0 90 04 64
        E 60 80 60 00
        E 0 80 61 00
        E 0 80 62 00
        E 0 80 63 00
        E 0 80 64 00
        E 0 80 65 00
        E 0 80 04 00
        E 176 93 60 64
        E 0 93 61 66
        E 0 93 62 66
        E 0 93 63 65
        E 0 93 64 64
        E 0 93 65 64
        E 0 93 04 64
        E 60 83 60 00
        E 0 83 61 00
        E 0 83 62 00
        E 0 83 63 00
        E 0 83 64 00
        E 0 83 65 00
        E 0 83 04 00
        E 184 90 64 68
        E 0 90 60 68
        E 0 90 61 6a
        E 0 90 62 6a
        E 0 90 63 69
        E 0 90 65 68
        E 0 90 0f 68
        E 0 90 6c 68
        E 330 80 64 00
        E 0 80 60 00
        E 0 80 61 00
        E 0 80 62 00
        E 0 80 63 00
        E 0 80 65 00
        E 90 80 0f 00
        E 0 80 6c 00
        E 60 90 64 68
        E 0 90 60 68
        E 0 90 61 6a
        E 0 90 62 6a
        E 0 90 63 69
        E 0 90 65 68
        E 0 90 0f 68
        E 60 80 64 00
        E 0 80 60 00
        E 0 80 61 00
        E 0 80 62 00
        E 0 80 63 00
        E 0 80 65 00
        E 0 80 0f 00
        E 180 90 64 68
        E 0 90 60 68
        E 0 90 61 6a
        E 0 90 62 6a
        E 0 90 63 69
        E 0 90 65 68
        E 0 90 0f 68
        E 60 80 64 00
        E 0 80 60 00
        E 0 80 61 00
        E 0 80 62 00
        E 0 80 63 00
        E 0 80 65 00
        E 0 80 0f 00
        E 180 90 64 68
        E 0 90 60 68
        E 0 90 61 6a
        E 0 90 62 6a
        E 0 90 63 69
        E 0 90 65 68
        E 0 90 0f 68
        E 330 80 64 00
        E 0 80 60 00
        E 0 80 61 00
        E 0 80 62 00
        E 0 80 63 00
        E 0 80 65 00
        E 90 80 0f 00
        E 60 90 64 68
        E 0 90 60 68
        E 0 90 61 6a
        E 0 90 62 6a
        E 0 90 63 69
        E 0 90 65 68
        E 0 90 0f 68
        E 60 80 64 00
        E 0 80 60 00
        E 0 80 61 00
        E 0 80 62 00
        E 0 80 63 00
        E 0 80 65 00
        E 150 80 0f 00
        E 30 90 60 69
        E 0 90 61 6b
        E 0 90 62 6b
        E 0 90 63 6a
        E 0 90 64 69
        E 0 90 65 69
        E 0 90 09 69
        E 60 80 60 00
        E 0 80 61 00
        E 0 80 62 00
        E 0 80 63 00
        E 0 80 64 00
        E 0 80 65 00
        E 60 80 09 00
        E 120 90 60 69
        E 0 90 61 6b
        E 0 90 62 6b
        E 0 90 63 6a
        E 0 90 64 69
        E 0 90 65 69
        E 0 90 09 69
        E 330 80 60 00
        E 0 80 61 00
        E 0 80 62 00
        E 0 80 63 00
        E 0 80 64 00
        E 0 80 65 00
        E 90 80 09 00
        E 60 90 60 69
        E 0 90 61 6b
        E 0 90 62 6b
        E 0 90 63 6a
        E 0 90 64 69
        E 0 90 65 69
        E 0 90 09 69
        E 60 80 60 00
        E 0 80 61 00
        E 0 80 62 00
        E 0 80 63 00
        E 0 80 64 00
        E 0 80 65 00
        E 0 80 09 00
        E 180 90 60 69
        E 0 90 61 6b
        E 0 90 62 6b
        E 0 90 63 6a
        E 0 90 64 69
        E 0 90 65 69
        E 0 90 09 69
        E 60 80 60 00
        E 0 80 61 00
        E 0 80 62 00
        E 0 80 63 00
        E 0 80 64 00
        E 0 80 65 00
        E 0 80 09 00
        E 180 90 60 69
        E 0 90 61 6b
        E 0 90 62 6b
        E 0 90 63 6a
        E 0 90 64 69
        E 0 90 65 69
        E 0 90 09 69
        E 60 80 60 00
        E 0 80 61 00
        E 0 80 62 00
        E 0 80 63 00
        E 0 80 64 00
        E 0 80 65 00
        E 0 80 09 00
        E 180 90 60 69
        E 0 90 61 6b
        E 0 90 62 6b
        E 0 90 63 6a
        E 0 90 64 69
        E 0 90 65 69
        E 0 90 09 69
        E 60 80 60 00
        E 0 80 61 00
        E 0 80 62 00
        E 0 80 63 00
        E 0 80 64 00
        E 0 80 65 00
        E 0 80 09 00
        E 180 90 60 69
        E 0 90 61 6b
        E 0 90 62 6b
        E 0 90 63 6a
        E 0 90 64 69
        E 0 90 65 69
        E 0 90 09 69
        E 60 80 60 00
        E 0 80 61 00
        E 0 80 62 00
        E 0 80 63 00
        E 0 80 64 00
        E 0 80 65 00
        E 0 80 09 00
        E 180 93 60 69
        E 0 93 61 6b
        E 0 93 62 6b
        E 0 93 63 6a
        E 0 93 64 69
        E 0 93 65 69
        E 0 93 09 69
        E 60 83 60 00
        E 0 83 61 00
        E 0 83 62 00
        E 0 83 63 00
        E 0 83 64 00
        E 0 83 65 00
        E 0 83 09 00
        E 180 90 60 6b
        E 0 90 61 6d
        E 0 90 62 6d
        E 0 90 63 6c
        E 0 90 64 6b
        E 0 90 0b 6b
        E 0 90 6c 6b
        E 0 90 65 6b
        E 300 80 60 00
        E 0 80 61 00
        E 0 80 62 00
        E 0 80 63 00
        E 0 80 64 00
        E 0 80 0b 00
        E 0 80 6c 00
        E 0 80 65 00
        E 180 90 60 6b
        E 0 90 61 6d
        E 0 90 62 6d
        E 0 90 63 6c
        E 0 90 64 6b
        E 0 90 0b 6b
        E 0 90 65 6b
        E 60 80 60 00
        E 0 80 61 00
        E 0 80 62 00
        E 0 80 63 00
        E 0 80 64 00
        E 0 80 0b 00
        E 0 80 65 00
        E 180 90 60 6b
        E 0 90 61 6d
        E 0 90 62 6d
        E 0 90 63 6c
        E 0 90 64 6b
        E 0 90 0b 6b
        E 0 90 65 6b
        E 60 80 60 00
        E 0 80 61 00
        E 0 80 62 00
        E 0 80 63 00
        E 0 80 64 00
        E 0 80 0b 00
        E 0 80 65 00
        E 180 90 60 6b
        E 0 90 61 6d
        E 0 90 62 6d
        E 0 90 63 6c
        E 0 90 64 6b
        E 0 90 0b 6b
        E 0 90 65 6b
        E 60 80 60 00
        E 0 80 61 00
        E 0 80 62 00
        E 0 80 63 00
        E 0 80 64 00
        E 0 80 0b 00
        E 0 80 65 00
        E 180 90 60 6b
        E 0 90 61 6d
        E 0 90 62 6d
        E 0 90 63 6c
        E 0 90 64 6b
        E 0 90 0b 6b
        E 0 90 65 6b
        E 60 80 60 00
        E 0 80 61 00
        E 0 80 62 00
        E 0 80 63 00
        E 0 80 64 00
        E 0 80 0b 00
        E 0 80 65 00
        E 180 90 60 6b
        E 0 90 61 6d
        E 0 90 62 6d
        E 0 90 63 6c
        E 0 90 64 6b
        E 0 90 0b 6b
        E 0 90 65 6b
        E 60 80 60 00
        E 0 80 61 00
        E 0 80 62 00
        E 0 80 63 00
        E 0 80 64 00
        E 0 80 0b 00
        E 0 80 65 00
        E 180 90 61 64
        E 0 90 63 64
        E 0 90 62 64
        E 0 90 64 64
        E 0 90 09 64
        E 0 90 60 64
        E 0 90 65 64
        E 60 80 61 00
        E 0 80 63 00
        E 0 80 62 00
        E 0 80 64 00
        E 0 80 09 00
        E 0 80 60 00
        E 0 80 65 00
        E 180 90 60 6b
        E 0 90 61 6d
        E 0 90 62 6d
        E 0 90 63 6c
        E 0 90 0b 6b
        E 0 90 64 6b
        E 0 90 65 6b
        E 60 80 60 00
        E 0 80 61 00
        E 0 80 62 00
        E 0 80 63 00
        E 0 80 64 00
        E 0 80 65 00
        E 30 80 0b 00
        E 150 90 0b 6b
        E 0 90 60 6b
        E 0 90 61 6d
        E 0 90 62 6d
        E 0 90 63 6c
        E 0 90 64 6b
        E 0 90 65 6b
        E 60 80 60 00
        E 0 80 61 00
        E 0 80 62 00
        E 0 80 63 00
        E 0 80 64 00
        E 0 80 65 00
        E 30 80 0b 00
        E 150 90 0b 6b
        E 0 90 60 6b
        E 0 90 61 6d
        E 0 90 62 6d
        E 0 90 63 6c
        E 0 90 64 6b
        E 0 90 65 6b
        E 60 80 60 00
        E 0 80 61 00
        E 0 80 62 00
        E 0 80 63 00
        E 0 80 64 00
        E 0 80 65 00
        E 30 80 0b 00
        E 150 90 0b 6b
        E 0 90 60 6b
        E 0 90 61 6d
        E 0 90 62 6d
        E 0 90 63 6c
        E 0 90 64 6b
        E 0 90 65 6b
        E 60 80 60 00
        E 0 80 61 00
        E 0 80 62 00
        E 0 80 63 00
        E 0 80 64 00
        E 0 80 65 00
        E 30 80 0b 00
        E 150 90 0b 6b
        E 0 90 60 6b
        E 0 90 61 6d
        E 0 90 62 6d
        E 0 90 63 6c
        E 0 90 64 6b
        E 0 90 65 6b
        E 60 80 60 00
        E 0 80 61 00
        E 0 80 62 00
        E 0 80 63 00
        E 0 80 64 00
        E 0 80 65 00
        E 30 80 0b 00
        E 150 90 0b 6b
        E 0 90 60 6b
        E 0 90 61 6d
        E 0 90 62 6d
        E 0 90 63 6c
        E 0 90 64 6b
        E 0 90 65 6b
        E 60 80 60 00
        E 0 80 61 00
        E 0 80 62 00
        E 0 80 63 00
        E 0 80 64 00
        E 0 80 65 00
        E 30 80 0b 00
        E 150 90 0b 6b
        E 0 90 60 6b
        E 0 90 61 6d
        E 0 90 62 6d
        E 0 90 63 6c
        E 0 90 64 6b
        E 0 90 65 6b
        E 60 80 60 00
        E 0 80 61 00
        E 0 80 62 00
        E 0 80 63 00
        E 0 80 64 00
        E 0 80 65 00
        E 30 80 0b 00
        E 150 90 0b 6b
        E 0 90 60 6b
        E 0 90 61 6d
        E 0 90 62 6d
        E 0 90 63 6c
        E 0 90 64 6b
        E 0 90 65 6b
        E 60 80 60 00
        E 0 80 61 00
        E 0 80 62 00
        E 0 80 63 00
        E 0 80 64 00
        E 0 80 65 00
        E 30 80 0b 00
        E 150 90 0b 6b
        E 0 90 60 6b
        E 0 90 61 6d
        E 0 90 62 6d
        E 0 90 63 6c
        E 0 90 64 6b
        E 0 90 65 6b
        E 60 80 60 00
        E 0 80 61 00
        E 0 80 62 00
        E 0 80 63 00
        E 0 80 64 00
        E 0 80 65 00
        E 30 80 0b 00
        E 150 90 0b 6b
        E 0 90 60 6b
        E 0 90 61 6d
        E 0 90 62 6d
        E 0 90 63 6c
        E 0 90 64 6b
        E 0 90 65 6b
        E 60 80 60 00
        E 0 80 61 00
        E 0 80 62 00
        E 0 80 63 00
        E 0 80 64 00
        E 0 80 65 00
        E 30 80 0b 00
        E 150 90 0b 6b
        E 0 90 60 6b
        E 0 90 61 6d
        E 0 90 62 6d
        E 0 90 63 6c
        E 0 90 64 6b
        E 0 90 65 6b
        E 60 80 60 00
        E 0 80 61 00
        E 0 80 62 00
        E 0 80 63 00
        E 0 80 64 00
        E 0 80 65 00
        E 30 80 0b 00
        E 150 90 0b 6b
        E 0 90 60 6b
        E 0 90 61 6d
        E 0 90 62 6d
        E 0 90 63 6c
        E 0 90 64 6b
        E 0 90 65 6b
        E 60 80 60 00
        E 0 80 61 00
        E 0 80 62 00
        E 0 80 63 00
        E 0 80 64 00
        E 0 80 65 00
        E 30 80 0b 00
        E 150 90 0b 6b
        E 0 90 60 6b
        E 0 90 61 6d
        E 0 90 62 6d
        E 0 90 63 6c
        E 0 90 64 6b
        E 0 90 65 6b
        E 60 80 60 00
        E 0 80 61 00
        E 0 80 62 00
        E 0 80 63 00
        E 0 80 64 00
        E 0 80 65 00
        E 30 80 0b 00
        E 150 90 0b 6b
        E 0 90 60 6b
        E 0 90 61 6d
        E 0 90 62 6d
        E 0 90 63 6c
        E 0 90 64 6b
        E 0 90 65 6b
        E 60 80 60 00
        E 0 80 61 00
        E 0 80 62 00
        E 0 80 63 00
        E 0 80 64 00
        E 0 80 65 00
        E 30 80 0b 00
        E 150 90 0b 6b
        E 0 90 60 6b
        E 0 90 61 6d
        E 0 90 62 6d
        E 0 90 63 6c
        E 0 90 64 6b
        E 0 90 65 6b
        E 60 80 60 00
        E 0 80 61 00
        E 0 80 62 00
        E 0 80 63 00
        E 0 80 64 00
        E 0 80 65 00
        E 30 80 0b 00
        E 150 90 0b 6b
        E 0 90 60 6b
        E 0 90 61 6d
        E 0 90 62 6d
        E 0 90 63 6c
        E 0 90 64 6b
        E 0 90 65 6b
        E 60 80 60 00
        E 0 80 61 00
        E 0 80 62 00
        E 0 80 63 00
        E 0 80 64 00
        E 0 80 65 00
        E 30 80 0b 00
        E 150 90 0b 6b
        E 0 90 60 6b
        E 0 90 61 6d
        E 0 90 62 6d
        E 0 90 63 6c
        E 0 90 64 6b
        E 0 90 65 6b
        E 60 80 60 00
        E 0 80 61 00
        E 0 80 62 00
        E 0 80 63 00
        E 0 80 64 00
        E 0 80 65 00
        E 30 80 0b 00
        E 150 90 0b 6b
        E 0 90 60 6b
        E 0 90 61 6d
        E 0 90 62 6d
        E 0 90 63 6c
        E 0 90 64 6b
        E 0 90 65 6b
        E 60 80 60 00
        E 0 80 61 00
        E 0 80 62 00
        E 0 80 63 00
        E 0 80 64 00
        E 0 80 65 00
        E 30 80 0b 00
        E 150 90 0b 6b
        E 0 90 60 6b
        E 0 90 61 6d
        E 0 90 62 6d
        E 0 90 63 6c
        E 0 90 64 6b
        E 0 90 65 6b
        E 60 80 60 00
        E 0 80 61 00
        E 0 80 62 00
        E 0 80 63 00
        E 0 80 64 00
        E 0 80 65 00
        E 30 80 0b 00
        E 150 90 0b 6b
        E 0 90 60 6b
        E 0 90 61 6d
        E 0 90 62 6d
        E 0 90 63 6c
        E 0 90 64 6b
        E 0 90 65 6b
        E 60 80 60 00
        E 0 80 61 00
        E 0 80 62 00
        E 0 80 63 00
        E 0 80 64 00
        E 0 80 65 00
        E 30 80 0b 00
        E 150 90 0b 6b
        E 0 90 60 6b
        E 0 90 61 6d
        E 0 90 62 6d
        E 0 90 63 6c
        E 0 90 64 6b
        E 0 90 65 6b
        E 60 80 60 00
        E 0 80 61 00
        E 0 80 62 00
        E 0 80 63 00
        E 0 80 64 00
        E 0 80 65 00
        E 30 80 0b 00
        E 150 90 0b 6b
        E 0 90 60 6b
        E 0 90 61 6d
        E 0 90 62 6d
        E 0 90 63 6c
        E 0 90 64 6b
        E 0 90 65 6b
        E 60 80 60 00
        E 0 80 61 00
        E 0 80 62 00
        E 0 80 63 00
        E 0 80 64 00
        E 0 80 65 00
        E 30 80 0b 00
        E 150 90 0b 6b
        E 0 90 60 6b
        E 0 90 61 6d
        E 0 90 62 6d
        E 0 90 63 6c
        E 0 90 64 6b
        E 0 90 65 6b
        E 60 80 60 00
        E 0 80 61 00
        E 0 80 62 00
        E 0 80 63 00
        E 0 80 64 00
        E 0 80 65 00
        E 30 80 0b 00
        E 150 90 0b 6b
        E 0 90 60 6b
        E 0 90 61 6d
        E 0 90 62 6d
        E 0 90 63 6c
        E 0 90 64 6b
        E 0 90 65 6b
        E 60 80 60 00
        E 0 80 61 00
        E 0 80 62 00
        E 0 80 63 00
        E 0 80 64 00
        E 0 80 65 00
        E 30 80 0b 00
        E 150 90 0b 6b
        E 0 90 60 6b
        E 0 90 61 6d
        E 0 90 62 6d
        E 0 90 63 6c
        E 0 90 64 6b
        E 0 90 65 6b
        E 60 80 60 00
        E 0 80 61 00
        E 0 80 62 00
        E 0 80 63 00
        E 0 80 64 00
        E 0 80 65 00
        E 30 80 0b 00
        E 150 90 0b 6b
        E 0 90 60 6b
        E 0 90 61 6d
        E 0 90 62 6d
        E 0 90 63 6c
        E 0 90 64 6b
        E 0 90 65 6b
        E 60 80 60 00
        E 0 80 61 00
        E 0 80 62 00
        E 0 80 63 00
        E 0 80 64 00
        E 0 80 65 00
        E 30 80 0b 00
        E 150 90 0b 6b
        E 0 90 60 6b
        E 0 90 61 6d
        E 0 90 62 6d
        E 0 90 63 6c
        E 0 90 64 6b
        E 0 90 65 6b
        E 60 80 60 00
        E 0 80 61 00
        E 0 80 62 00
        E 0 80 63 00
        E 0 80 64 00
        E 0 80 65 00
        E 30 80 0b 00
        E 150 90 0b 6b
        E 0 90 60 6b
        E 0 90 61 6d
        E 0 90 62 6d
        E 0 90 63 6c
        E 0 90 64 6b
        E 0 90 65 6b
        E 60 80 60 00
        E 0 80 61 00
        E 0 80 62 00
        E 0 80 63 00
        E 0 80 64 00
        E 0 80 65 00
        E 30 80 0b 00
        E 150 90 0b 6b
        E 0 90 60 6b
        E 0 90 61 6d
        E 0 90 62 6d
        E 0 90 63 6c
        E 0 90 64 6b
        E 0 90 65 6b
        E 60 80 60 00
        E 0 80 61 00
        E 0 80 62 00
        E 0 80 63 00
        E 0 80 64 00
        E 0 80 65 00
        E 30 80 0b 00
        E 150 90 0b 6b
        E 0 90 60 6b
        E 0 90 61 6d
        E 0 90 62 6d
        E 0 90 63 6c
        E 0 90 64 6b
        E 0 90 65 6b
        E 60 80 60 00
        E 0 80 61 00
        E 0 80 62 00
        E 0 80 63 00
        E 0 80 64 00
        E 0 80 65 00
        E 30 80 0b 00
        E 150 90 0b 6b
        E 0 90 60 6b
        E 0 90 61 6d
        E 0 90 62 6d
        E 0 90 63 6c
        E 0 90 64 6b
        E 0 90 65 6b
        E 60 80 60 00
        E 0 80 61 00
        E 0 80 62 00
        E 0 80 63 00
        E 0 80 64 00
        E 0 80 65 00
        E 30 80 0b 00
        E 150 90 60 64
        E 0 90 61 6b
        E 0 90 62 6d
        E 0 90 63 6d
        E 0 90 04 64
        E 0 90 64 6b
        E 0 90 65 6b
        E 60 80 60 00
        E 0 80 61 00
        E 0 80 62 00
        E 0 80 63 00
        E 0 80 64 00
        E 0 80 65 00
        E 30 80 04 00
        E 480 b0 7b 00
        CCINTERP 32
        GUID {95EB2031-BC44-4B36-809B-F7595C07BF30}
        IGNTEMPO 0 120 4 4
        SRCCOLOR 19
        VELLANE 132 123 128 0 1
        TEXTSTRINGFILE "C:\Program Files\REAPER\Data\Text_Strings\Text Events List.txt"
        CFGEDITVIEW 0 0.005638 0 12 0 -1 0 0 0 0.5
        KEYSNAP 0
        TRACKSEL 269
        EVTFILTER 0 -1 -1 -1 -1 0 1 0 0 -1 -1 -1 -1 0 -1 0 -1 -1
        CFGEDIT 1 1 0 0 0 1 1 1 1 1 1 0.03125 0 0 683 728 1 0 0 1 0.125 0 1 0 0 0.5 0 0 1 64
      >
    >
  >
  <TRACK {4048E3A2-B3FC-493C-BF0E-D7B7B9F9DFF3}
    NAME "PART REAL_BASS"
    PEAKCOL 16576
    BEAT -1
    AUTOMODE 0
    VOLPAN 0.05749416563011 0 -1 -1 1
    MUTESOLO 0 0 0
    IPHASE 0
    PLAYOFFS 0 1
    ISBUS 0 0
    BUSCOMP 0 0 0 0 0
    SHOWINMIX 1 0.6667 0.5 1 0.5 -1 -1 -1
    SEL 0
    REC 0 0 0 0 0 0 0 0
    TRACKHEIGHT 0 0 0 0 0 0 0
    INQ 0 0 0 0.5 100 0 0 100
    NCHAN 2
    FX 1
    TRACKID {4048E3A2-B3FC-493C-BF0E-D7B7B9F9DFF3}
    PERF 0
    MIDIOUT -1
    <MIDINOTENAMES
      0 4 E 0 4
      0 5 F 0 5
      0 6 Gb 0 6
      0 7 G 0 7
      0 8 Ab 0 8
      0 9 A 0 9
      0 10 Bb 0 10
      0 11 B 0 11
      0 12 C 0 12
      0 13 Db 0 13
      0 14 D 0 14
      0 15 Eb 0 15
      0 16 "Slash Chord" 0 16
      0 17 "Hide Chord Names" 0 17
      0 18 "Flat/Sharp Swap" 0 18
      0 21 "CHORD NAMES" 0 21
      0 24 "EASY E String (LOW)" 0 24
      0 25 "EASY A String" 0 25
      0 26 "EASY D String" 0 26
      0 27 "EASY G String" 0 27
      0 28 "EASY B String" 0 28
      0 29 "EASY E String (HIGH)" 0 29
      0 31 "EASY Slide Marker" 0 31
      0 32 "EASY Arpeggio Marker" 0 32
      0 48 "MEDIUM E String (LOW)" 0 48
      0 49 "MEDIUM A String" 0 49
      0 50 "MEDIUM D String" 0 50
      0 51 "MEDIUM G String" 0 51
      0 52 "MEDIUM B String" 0 52
      0 53 "MEDIUM E String (HIGH)" 0 53
      0 55 "MEDIUM Slide Marker" 0 55
      0 56 "MEDIUM Arpeggio Marker" 0 56
      0 72 "HARD E String (LOW)" 0 72
      0 73 "HARD A String" 0 73
      0 74 "HARD D String" 0 74
      0 75 "HARD G String" 0 75
      0 76 "HARD B String" 0 76
      0 77 "HARD E String (HIGH)" 0 77
      0 78 "Force Ho/Po" 0 78
      0 79 "HARD Slide Marker" 0 79
      0 80 "HARD Arpeggio Marker" 0 80
      0 81 "HARD Strum Direction" 0 81
      0 96 "EXPERT E String (LOW)" 0 96
      0 97 "EXPERT A String" 0 97
      0 98 "EXPERT D String" 0 98
      0 99 "EXPERT G String" 0 99
      0 100 "EXPERT B String" 0 100
      0 101 "EXPERT E String (HIGH)" 0 101
      0 102 "EXPERT Force Ho/Po" 0 102
      0 103 "EXPERT Slide Marker" 0 103
      0 104 "EXPERT Arpeggio Marker" 0 104
      0 105 "EXPERT Strum Direction" 0 105
      0 107 "Force Chord Numbering" 0 107
      0 108 "Left hand position" 0 108
      0 115 "Solo Marker" 0 115
      0 116 OVERDRIVE 0 116
      0 120 "BRE (use all 6)" 0 120
      0 121 BRE 0 121
      0 122 BRE 0 122
      0 123 BRE 0 123
      0 124 BRE 0 124
      0 125 BRE 0 125
      0 126 Tremelo 0 126
      0 127 Trill 0 127
    >
    MAINSEND 1 0
    <FXCHAIN
      WNDRECT 24 52 655 408
      SHOW 0
      LASTSEL 0
      DOCKED 0
      BYPASS 0 0 0
      <JS c3/progtr ""
        0 3 0 0 0 0 0 0 0 1 - - - - - - - - - - - - - - - - - - - - - - - - - - - - - - - - - - - - - - - - - - - - - - - - - - - - - -
      >
      FLOATPOS 0 0 0 0
      FXID {DA909F7A-8AC8-4BEC-B773-AFEE9F365333}
      WAK 0 0
      BYPASS 0 0 0
      <VST "VSTi: ReaSynth (Cockos)" reasynth.dll 0 "" 1919251321<5653547265737972656173796E746800> ""
        eXNlcu9e7f4AAAAAAgAAAAEAAAAAAAAAAgAAAAAAAABEAAAAAAAAAAAAEAA=
        776t3g3wrd6mm8Q76AkyPIcWWT8AAAAAAAAAAMybgD7iMAQ8AAAAAAAAAD+01hM+j8L1PQAAAD8AAIA/AAAAAAAAgD8=
        AFByb2dyYW0gMQAQAAAA
      >
      FLOATPOS 0 0 0 0
      FXID {915DE059-ADFC-408B-8625-8D0C9875A8D8}
      WAK 0 0
    >
    <ITEM
      POSITION 0
      SNAPOFFS 0
      LENGTH 227.384625
      LOOP 0
      ALLTAKES 0
      FADEIN 1 0 0 1 0 0 0
      FADEOUT 1 0 0 1 0 0 0
      MUTE 0 0
      SEL 0
      IGUID {20F1321F-9ED7-4853-AD09-40B222B05CF8}
      IID 25
      NAME "PART REAL_BASS"
      VOLPAN 1 0 1 -1
      SOFFS 0 0
      PLAYRATE 1 1 0 -1 0 0.0025
      CHANMODE 0
      GUID {3CDDC74F-292B-448F-83EC-680F8CEF1C9B}
      <SOURCE MIDI
        HASDATA 1 480 QN
        CCINTERP 32
        POOLEDEVTS {D855CE28-6B03-4F7E-9E3F-3FA367E8806E}
        <X 0 0 0 0 3 "PART REAL_BASS"
          /wNQQVJUIFJFQUxfQkFTUw==
        >
        E 3840 90 60 64
        E 0 90 18 64
        E 0 90 19 64
        E 0 90 1a 64
        E 0 90 1b 64
        E 0 90 30 64
        E 0 90 31 64
        E 0 90 32 64
        E 0 90 33 64
        E 0 90 48 64
        E 0 90 49 64
        E 0 90 4a 64
        E 0 90 4b 64
        E 0 90 04 64
        E 0 90 6c 64
        E 0 90 74 64
        E 60 80 6c 00
        E 60 80 18 00
        E 0 80 19 00
        E 0 80 1a 00
        E 0 80 1b 00
        E 0 80 30 00
        E 0 80 31 00
        E 0 80 32 00
        E 0 80 33 00
        E 0 80 48 00
        E 0 80 49 00
        E 0 80 4a 00
        E 0 80 4b 00
        E 0 80 04 00
        E 240 80 60 00
        E 360 90 60 64
        E 60 80 60 00
        E 120 80 74 00
        E 60 90 60 69
        E 60 80 60 00
        E 180 93 60 64
        E 60 83 60 00
        E 180 90 60 6b
        E 60 80 60 00
        E 420 90 60 64
        E 60 80 60 00
        E 180 90 60 64
        E 60 80 60 00
        E 180 93 60 64
        E 60 83 60 00
        E 180 90 60 64
        E 60 80 60 00
        E 180 90 60 69
        E 60 80 60 00
        E 420 90 60 6b
        E 60 80 60 00
        E 420 90 60 64
        E 360 80 60 00
        E 360 90 60 64
        E 60 80 60 00
        E 180 90 60 69
        E 60 80 60 00
        E 180 93 60 64
        E 60 83 60 00
        E 180 90 60 6b
        E 60 80 60 00
        E 420 90 61 69
        E 600 80 61 00
        E 120 90 61 69
        E 60 80 61 00
        E 180 90 60 6b
        E 360 80 60 00
        E 120 90 60 6b
        E 360 80 60 00
        E 120 90 60 64
        E 360 80 60 00
        E 360 90 60 64
        E 60 80 60 00
        E 180 90 60 69
        E 60 80 60 00
        E 180 93 60 64
        E 60 83 60 00
        E 180 90 60 6b
        E 60 80 60 00
        E 420 90 60 64
        E 360 80 60 00
        E 120 93 60 64
        E 60 83 60 00
        E 180 90 60 64
        E 60 80 60 00
        E 180 90 60 69
        E 60 80 60 00
        E 420 90 60 6b
        E 60 80 60 00
        E 420 90 60 64
        E 360 80 60 00
        E 360 90 60 64
        E 60 80 60 00
        E 180 90 60 69
        E 60 80 60 00
        E 180 93 60 64
        E 60 83 60 00
        E 180 90 60 6b
        E 60 80 60 00
        E 420 90 61 69
        E 600 80 61 00
        E 120 90 61 69
        E 60 80 61 00
        E 180 90 60 6b
        E 360 80 60 00
        E 120 90 60 6b
        E 360 80 60 00
        E 120 90 60 64
        E 360 80 60 00
        E 360 90 60 64
        E 60 80 60 00
        E 180 90 60 69
        E 60 80 60 00
        E 180 93 60 64
        E 60 83 60 00
        E 180 90 60 6b
        E 60 80 60 00
        E 420 90 60 64
        E 60 80 60 00
        E 180 90 60 64
        E 60 80 60 00
        E 180 93 60 64
        E 60 83 60 00
        E 180 90 60 64
        E 60 80 60 00
        E 180 90 60 69
        E 60 80 60 00
        E 420 90 60 6b
        E 60 80 60 00
        E 420 90 60 64
        E 360 80 60 00
        E 360 90 60 64
        E 60 80 60 00
        E 180 90 60 69
        E 60 80 60 00
        E 180 93 60 64
        E 60 83 60 00
        E 180 90 60 6b
        E 60 80 60 00
        E 420 90 61 69
        E 600 80 61 00
        E 120 90 61 69
        E 60 80 61 00
        E 180 90 60 6b
        E 360 80 60 00
        E 120 90 60 6b
        E 360 80 60 00
        E 120 90 60 64
        E 360 80 60 00
        E 360 90 60 64
        E 60 80 60 00
        E 180 90 60 69
        E 60 80 60 00
        E 180 93 60 64
        E 60 83 60 00
        E 180 90 60 6b
        E 60 80 60 00
        E 420 90 60 64
        E 60 80 60 00
        E 180 90 60 64
        E 60 80 60 00
        E 180 93 60 64
        E 60 83 60 00
        E 180 90 60 64
        E 60 80 60 00
        E 180 90 60 69
        E 60 80 60 00
        E 420 90 60 6b
        E 60 80 60 00
        E 420 90 60 64
        E 360 80 60 00
        E 360 90 60 64
        E 60 80 60 00
        E 180 90 60 69
        E 60 80 60 00
        E 420 90 60 6b
        E 60 80 60 00
        E 420 90 61 69
        E 600 80 61 00
        E 120 90 61 69
        E 60 80 61 00
        E 180 90 60 6b
        E 360 80 60 00
        E 120 90 60 6b
        E 360 80 60 00
        E 120 90 60 64
        E 600 80 60 00
        E 120 90 60 64
        E 480 80 60 00
        E 240 90 60 64
        E 60 80 60 00
        E 180 90 60 68
        E 60 80 60 00
        E 180 90 60 69
        E 600 80 60 00
        E 120 90 60 69
        E 600 80 60 00
        E 120 90 60 69
        E 60 80 60 00
        E 180 90 60 68
        E 60 80 60 00
        E 180 90 60 64
        E 360 80 60 00
        E 120 90 60 64
        E 60 80 60 00
        E 180 90 60 64
        E 60 80 60 00
        E 180 90 60 68
        E 60 80 60 00
        E 180 90 60 68
        E 60 80 60 00
        E 180 90 60 69
        E 60 80 60 00
        E 180 90 60 69
        E 60 80 60 00
        E 180 90 60 6b
        E 480 80 60 00
        E 240 90 61 6d
        E 360 80 61 00
        E 120 90 60 6b
        E 60 80 60 00
        E 180 90 61 6d
        E 360 80 61 00
        E 120 90 60 64
        E 600 80 60 00
        E 120 90 60 64
        E 480 80 60 00
        E 240 90 60 64
        E 60 80 60 00
        E 180 90 60 68
        E 60 80 60 00
        E 180 90 60 69
        E 600 80 60 00
        E 120 90 60 69
        E 600 80 60 00
        E 120 90 60 69
        E 60 80 60 00
        E 180 90 60 68
        E 60 80 60 00
        E 180 90 60 64
        E 360 80 60 00
        E 120 90 60 64
        E 60 80 60 00
        E 180 90 60 64
        E 60 80 60 00
        E 180 90 60 68
        E 60 80 60 00
        E 180 90 60 68
        E 60 80 60 00
        E 180 90 60 69
        E 60 80 60 00
        E 180 90 60 69
        E 60 80 60 00
        E 180 90 60 6b
        E 480 80 60 00
        E 240 90 61 6d
        E 360 80 61 00
        E 120 90 60 6b
        E 60 80 60 00
        E 180 90 61 6d
        E 120 80 61 00
        E 120 90 60 6b
        E 60 80 60 00
        E 180 90 61 6b
        E 480 80 61 00
        E 240 90 61 6b
        E 360 80 61 00
        E 120 90 60 6b
        E 60 80 60 00
        E 180 90 61 6b
        E 60 80 61 00
        E 180 90 61 6a
        E 60 80 61 00
        E 180 90 61 68
        E 480 80 61 00
        E 240 90 61 68
        E 352 80 61 00
        E 128 90 60 68
        E 60 80 60 00
        E 180 90 61 68
        E 60 80 61 00
        E 180 90 61 66
        E 60 80 61 00
        E 180 90 60 69
        E 480 80 60 00
        E 240 90 60 69
        E 360 80 60 00
        E 120 90 60 68
        E 60 80 60 00
        E 180 90 60 69
        E 60 80 60 00
        E 180 90 60 64
        E 60 80 60 00
        E 180 90 61 66
        E 480 80 61 00
        E 240 90 61 66
        E 360 80 61 00
        E 120 90 61 66
        E 60 80 61 00
        E 180 90 61 68
        E 60 80 61 00
        E 180 90 61 6a
        E 60 80 61 00
        E 180 90 61 6b
        E 480 80 61 00
        E 240 90 61 6b
        E 360 80 61 00
        E 120 90 60 6b
        E 60 80 60 00
        E 180 90 61 6b
        E 60 80 61 00
        E 180 90 61 6a
        E 60 80 61 00
        E 180 90 61 68
        E 480 80 61 00
        E 240 90 62 66
        E 600 80 62 00
        E 120 90 63 65
        E 360 80 63 00
        E 120 90 61 64
        E 480 80 61 00
        E 240 90 62 66
        E 600 80 62 00
        E 120 90 62 68
        E 360 80 62 00
        E 120 90 61 66
        E 600 80 61 00
        E 120 90 61 66
        E 60 80 61 00
        E 180 90 62 68
        E 60 80 62 00
        E 180 90 61 66
        E 60 80 61 00
        E 180 90 63 68
        E 60 80 63 00
        E 180 90 61 66
        E 60 80 61 00
        E 180 90 60 64
        E 600 80 60 00
        E 120 90 62 66
        E 480 80 62 00
        E 240 90 60 64
        E 120 80 60 00
        E 120 90 60 66
        E 120 80 60 00
        E 120 90 60 68
        E 480 80 60 00
        E 240 90 61 6a
        E 480 80 61 00
        E 240 90 60 68
        E 60 80 60 00
        E 180 90 60 64
        E 60 80 60 00
        E 180 90 61 64
        E 600 80 61 00
        E 120 90 61 64
        E 480 80 61 00
        E 240 90 61 64
        E 60 80 61 00
        E 180 90 60 64
        E 60 80 60 00
        E 180 90 61 66
        E 360 80 61 00
        E 120 90 61 66
        E 60 80 61 00
        E 180 90 61 66
        E 60 80 61 00
        E 180 90 61 68
        E 60 80 61 00
        E 180 90 61 68
        E 60 80 61 00
        E 180 90 62 65
        E 60 80 62 00
        E 180 90 62 65
        E 60 80 62 00
        E 180 90 62 66
        E 600 80 62 00
        E 120 90 60 64
        E 600 80 60 00
        E 120 90 60 64
        E 60 80 60 00
        E 180 90 60 66
        E 60 80 60 00
        E 180 90 60 68
        E 600 80 60 00
        E 120 90 61 6a
        E 600 80 61 00
        E 120 90 60 68
        E 60 80 60 00
        E 180 90 60 64
        E 60 80 60 00
        E 180 90 61 64
        E 600 80 61 00
        E 120 90 61 64
        E 60 80 61 00
        E 180 90 61 64
        E 600 80 61 00
        E 120 90 60 64
        E 60 80 60 00
        E 180 90 61 66
        E 60 80 61 00
        E 180 90 61 66
        E 60 80 61 00
        E 180 90 61 66
        E 60 80 61 00
        E 180 90 61 66
        E 60 80 61 00
        E 180 90 61 66
        E 60 80 61 00
        E 900 90 60 64
        E 360 80 60 00
        E 120 93 60 64
        E 60 83 60 00
        E 180 93 60 64
        E 60 83 60 00
        E 180 90 60 69
        E 60 80 60 00
        E 420 90 60 6b
        E 60 80 60 00
        E 420 90 60 64
        E 480 80 60 00
        E 240 90 60 64
        E 60 80 60 00
        E 180 90 60 69
        E 60 80 60 00
        E 420 90 60 6b
        E 60 80 60 00
        E 420 90 60 64
        E 480 80 60 00
        E 240 90 60 64
        E 60 80 60 00
        E 180 90 60 69
        E 60 80 60 00
        E 180 93 60 64
        E 60 83 60 00
        E 180 90 60 6b
        E 60 80 60 00
        E 420 90 61 69
        E 600 80 61 00
        E 120 90 61 69
        E 60 80 61 00
        E 180 90 60 6b
        E 360 80 60 00
        E 120 90 60 6b
        E 360 80 60 00
        E 120 90 60 64
        E 360 80 60 00
        E 360 90 60 64
        E 60 80 60 00
        E 180 90 60 69
        E 60 80 60 00
        E 420 90 60 6b
        E 60 80 60 00
        E 420 90 60 64
        E 360 80 60 00
        E 360 90 60 64
        E 60 80 60 00
        E 180 90 60 69
        E 60 80 60 00
        E 420 90 60 6b
        E 60 80 60 00
        E 420 90 60 64
        E 360 80 60 00
        E 360 90 60 64
        E 60 80 60 00
        E 180 90 60 69
        E 60 80 60 00
        E 420 90 60 6b
        E 60 80 60 00
        E 420 90 61 69
        E 600 80 61 00
        E 120 90 61 69
        E 60 80 61 00
        E 180 90 60 6b
        E 360 80 60 00
        E 120 90 60 6b
        E 360 80 60 00
        E 120 90 60 64
        E 600 80 60 00
        E 120 90 60 64
        E 480 80 60 00
        E 240 90 60 64
        E 60 80 60 00
        E 180 90 60 68
        E 60 80 60 00
        E 180 90 60 69
        E 600 80 60 00
        E 120 90 60 69
        E 600 80 60 00
        E 120 90 60 69
        E 60 80 60 00
        E 180 90 60 68
        E 60 80 60 00
        E 180 90 60 64
        E 360 80 60 00
        E 120 90 60 64
        E 60 80 60 00
        E 180 90 60 64
        E 60 80 60 00
        E 180 90 60 68
        E 60 80 60 00
        E 180 90 60 68
        E 60 80 60 00
        E 180 90 60 69
        E 60 80 60 00
        E 180 90 60 69
        E 60 80 60 00
        E 180 90 60 6b
        E 480 80 60 00
        E 240 90 61 6d
        E 360 80 61 00
        E 120 90 60 6b
        E 60 80 60 00
        E 180 90 61 6d
        E 360 80 61 00
        E 120 90 60 64
        E 600 80 60 00
        E 120 90 60 64
        E 480 80 60 00
        E 240 90 60 64
        E 60 80 60 00
        E 180 90 60 68
        E 60 80 60 00
        E 180 90 60 69
        E 600 80 60 00
        E 120 90 60 69
        E 600 80 60 00
        E 120 90 60 69
        E 60 80 60 00
        E 180 90 60 68
        E 60 80 60 00
        E 180 90 60 64
        E 360 80 60 00
        E 120 90 60 64
        E 60 80 60 00
        E 180 90 60 64
        E 60 80 60 00
        E 180 90 60 68
        E 60 80 60 00
        E 180 90 60 68
        E 60 80 60 00
        E 180 90 60 69
        E 60 80 60 00
        E 180 90 60 69
        E 60 80 60 00
        E 180 90 60 6b
        E 480 80 60 00
        E 240 90 61 6d
        E 360 80 61 00
        E 120 90 60 6b
        E 60 80 60 00
        E 180 90 61 6d
        E 120 80 61 00
        E 120 90 60 6b
        E 60 80 60 00
        E 180 90 61 6b
        E 480 80 61 00
        E 240 90 61 6b
        E 360 80 61 00
        E 120 90 60 6b
        E 60 80 60 00
        E 180 90 61 6b
        E 60 80 61 00
        E 180 90 61 6a
        E 60 80 61 00
        E 180 90 61 68
        E 480 80 61 00
        E 240 90 61 68
        E 352 80 61 00
        E 128 90 60 68
        E 60 80 60 00
        E 180 90 61 68
        E 60 80 61 00
        E 180 90 61 66
        E 60 80 61 00
        E 180 90 60 69
        E 480 80 60 00
        E 240 90 60 69
        E 360 80 60 00
        E 120 90 60 68
        E 60 80 60 00
        E 180 90 60 69
        E 60 80 60 00
        E 180 90 60 64
        E 60 80 60 00
        E 180 90 61 66
        E 480 80 61 00
        E 240 90 61 66
        E 360 80 61 00
        E 120 90 61 66
        E 60 80 61 00
        E 180 90 61 68
        E 60 80 61 00
        E 180 90 61 6a
        E 60 80 61 00
        E 180 90 61 6b
        E 480 80 61 00
        E 240 90 61 6b
        E 360 80 61 00
        E 120 90 60 6b
        E 60 80 60 00
        E 180 90 61 6b
        E 60 80 61 00
        E 180 90 61 6a
        E 60 80 61 00
        E 180 90 61 68
        E 480 80 61 00
        E 240 90 61 68
        E 352 80 61 00
        E 128 90 60 68
        E 60 80 60 00
        E 180 90 61 68
        E 60 80 61 00
        E 180 90 61 66
        E 60 80 61 00
        E 180 90 60 69
        E 480 80 60 00
        E 240 90 60 69
        E 360 80 60 00
        E 120 90 60 68
        E 60 80 60 00
        E 180 90 60 69
        E 60 80 60 00
        E 180 90 60 64
        E 60 80 60 00
        E 180 90 61 66
        E 480 80 61 00
        E 240 90 61 66
        E 60 80 61 00
        E 180 90 62 68
        E 60 80 62 00
        E 180 90 61 66
        E 60 80 61 00
        E 180 90 63 68
        E 60 80 63 00
        E 180 90 61 6a
        E 60 80 61 00
        E 180 90 60 64
        E 600 80 60 00
        E 120 90 62 66
        E 480 80 62 00
        E 240 90 60 64
        E 120 80 60 00
        E 120 90 60 66
        E 120 80 60 00
        E 120 90 60 68
        E 480 80 60 00
        E 240 90 61 6a
        E 480 80 61 00
        E 240 90 60 68
        E 60 80 60 00
        E 180 90 60 64
        E 60 80 60 00
        E 180 90 61 64
        E 600 80 61 00
        E 120 90 61 64
        E 480 80 61 00
        E 240 90 61 64
        E 60 80 61 00
        E 180 90 60 64
        E 60 80 60 00
        E 180 90 61 66
        E 360 80 61 00
        E 120 90 61 66
        E 60 80 61 00
        E 180 90 61 66
        E 60 80 61 00
        E 180 90 61 68
        E 60 80 61 00
        E 180 90 61 68
        E 60 80 61 00
        E 180 90 62 65
        E 60 80 62 00
        E 180 90 62 65
        E 60 80 62 00
        E 180 90 62 66
        E 600 80 62 00
        E 120 90 60 64
        E 600 80 60 00
        E 120 90 60 64
        E 60 80 60 00
        E 180 90 60 66
        E 60 80 60 00
        E 180 90 60 68
        E 600 80 60 00
        E 120 90 61 6a
        E 600 80 61 00
        E 120 90 60 68
        E 60 80 60 00
        E 180 90 60 64
        E 60 80 60 00
        E 180 90 61 64
        E 600 80 61 00
        E 120 90 61 64
        E 60 80 61 00
        E 180 90 61 64
        E 120 80 61 00
        E 120 90 61 64
        E 60 80 61 00
        E 180 90 61 64
        E 60 80 61 00
        E 180 90 60 64
        E 60 80 60 00
        E 180 90 61 66
        E 600 80 61 00
        E 120 90 61 66
        E 60 80 61 00
        E 180 90 62 68
        E 60 80 62 00
        E 180 90 63 68
        E 60 80 63 00
        E 420 90 61 66
        E 60 80 61 00
        E 180 90 61 6b
        E 480 80 61 00
        E 240 90 61 6b
        E 360 80 61 00
        E 120 90 60 6b
        E 60 80 60 00
        E 180 90 61 6b
        E 60 80 61 00
        E 180 90 61 6a
        E 60 80 61 00
        E 180 90 61 68
        E 480 80 61 00
        E 240 90 61 68
        E 352 80 61 00
        E 128 90 60 68
        E 60 80 60 00
        E 180 90 61 68
        E 60 80 61 00
        E 180 90 61 66
        E 60 80 61 00
        E 180 90 60 69
        E 480 80 60 00
        E 240 90 60 69
        E 360 80 60 00
        E 120 90 60 68
        E 60 80 60 00
        E 180 90 60 69
        E 60 80 60 00
        E 180 90 60 64
        E 60 80 60 00
        E 180 90 61 66
        E 480 80 61 00
        E 240 90 61 66
        E 360 80 61 00
        E 120 90 61 66
        E 60 80 61 00
        E 180 90 61 68
        E 60 80 61 00
        E 180 90 61 6a
        E 60 80 61 00
        E 180 90 61 6b
        E 480 80 61 00
        E 240 90 61 6b
        E 360 80 61 00
        E 120 90 60 6b
        E 60 80 60 00
        E 180 90 61 6b
        E 60 80 61 00
        E 180 90 61 6a
        E 60 80 61 00
        E 180 90 61 68
        E 480 80 61 00
        E 240 90 61 68
        E 352 80 61 00
        E 128 90 60 68
        E 60 80 60 00
        E 180 90 61 68
        E 60 80 61 00
        E 180 90 61 66
        E 60 80 61 00
        E 180 90 60 69
        E 480 80 60 00
        E 240 90 60 69
        E 360 80 60 00
        E 120 90 60 68
        E 60 80 60 00
        E 180 90 60 69
        E 60 80 60 00
        E 180 90 60 64
        E 60 80 60 00
        E 180 90 61 66
        E 480 80 61 00
        E 240 90 61 66
        E 360 80 61 00
        E 120 90 61 66
        E 60 80 61 00
        E 180 90 61 68
        E 60 80 61 00
        E 180 90 61 6a
        E 60 80 61 00
        E 180 90 61 6b
        E 480 80 61 00
        E 240 90 61 6b
        E 360 80 61 00
        E 120 90 60 6b
        E 60 80 60 00
        E 180 90 61 6b
        E 60 80 61 00
        E 180 90 61 6a
        E 60 80 61 00
        E 180 90 61 68
        E 480 80 61 00
        E 240 90 61 68
        E 352 80 61 00
        E 128 90 60 68
        E 60 80 60 00
        E 180 90 61 68
        E 60 80 61 00
        E 180 90 61 66
        E 60 80 61 00
        E 180 90 60 69
        E 480 80 60 00
        E 240 90 60 69
        E 360 80 60 00
        E 120 90 60 68
        E 60 80 60 00
        E 180 90 60 69
        E 60 80 60 00
        E 180 90 60 64
        E 60 80 60 00
        E 180 90 61 66
        E 480 80 61 00
        E 240 90 61 66
        E 360 80 61 00
        E 120 90 61 66
        E 60 80 61 00
        E 180 90 61 68
        E 60 80 61 00
        E 180 90 61 6a
        E 60 80 61 00
        E 180 90 61 6b
        E 480 80 61 00
        E 240 90 61 6b
        E 360 80 61 00
        E 120 90 60 6b
        E 60 80 60 00
        E 180 90 61 6b
        E 60 80 61 00
        E 180 90 61 6a
        E 60 80 61 00
        E 180 90 61 68
        E 480 80 61 00
        E 240 90 61 68
        E 352 80 61 00
        E 128 90 60 68
        E 60 80 60 00
        E 180 90 61 68
        E 60 80 61 00
        E 180 90 61 66
        E 60 80 61 00
        E 180 90 60 69
        E 480 80 60 00
        E 240 90 60 69
        E 360 80 60 00
        E 120 90 60 68
        E 60 80 60 00
        E 180 90 60 69
        E 60 80 60 00
        E 180 90 60 64
        E 60 80 60 00
        E 180 90 61 66
        E 480 80 61 00
        E 240 90 61 66
        E 120 80 61 00
        E 120 90 62 68
        E 60 80 62 00
        E 180 90 61 66
        E 60 80 61 00
        E 180 90 63 68
        E 60 80 63 00
        E 180 90 61 66
        E 60 80 61 00
        E 180 90 60 64
        E 600 80 60 00
        E 120 90 62 66
        E 480 80 62 00
        E 240 90 60 64
        E 120 80 60 00
        E 120 90 60 66
        E 120 80 60 00
        E 120 90 60 68
        E 480 80 60 00
        E 240 90 61 6a
        E 480 80 61 00
        E 240 90 60 68
        E 60 80 60 00
        E 180 90 60 64
        E 60 80 60 00
        E 180 90 61 64
        E 600 80 61 00
        E 120 90 61 64
        E 480 80 61 00
        E 240 90 61 64
        E 60 80 61 00
        E 180 90 60 64
        E 60 80 60 00
        E 180 90 61 66
        E 360 80 61 00
        E 120 90 61 66
        E 60 80 61 00
        E 180 90 61 66
        E 60 80 61 00
        E 180 90 61 68
        E 60 80 61 00
        E 180 90 61 68
        E 60 80 61 00
        E 180 90 62 65
        E 60 80 62 00
        E 180 90 62 65
        E 60 80 62 00
        E 180 90 62 66
        E 600 80 62 00
        E 120 90 60 64
        E 480 80 60 00
        E 240 90 60 64
        E 120 80 60 00
        E 120 90 60 66
        E 120 80 60 00
        E 120 90 60 68
        E 480 80 60 00
        E 240 90 61 6a
        E 480 80 61 00
        E 240 90 60 68
        E 60 80 60 00
        E 180 90 60 68
        E 60 80 60 00
        E 180 90 61 64
        E 600 80 61 00
        E 120 90 61 64
        E 480 80 61 00
        E 240 90 61 64
        E 60 80 61 00
        E 180 90 60 64
        E 60 80 60 00
        E 180 90 61 66
        E 360 80 61 00
        E 120 90 61 66
        E 60 80 61 00
        E 180 90 61 66
        E 60 80 61 00
        E 180 90 61 68
        E 60 80 61 00
        E 180 90 61 68
        E 60 80 61 00
        E 180 90 62 65
        E 60 80 62 00
        E 180 90 62 65
        E 60 80 62 00
        E 180 90 62 66
        E 600 80 62 00
        E 120 90 60 64
        E 480 80 60 00
        E 240 90 60 64
        E 120 80 60 00
        E 120 90 60 66
        E 120 80 60 00
        E 120 90 60 68
        E 480 80 60 00
        E 240 90 61 6a
        E 480 80 61 00
        E 240 90 60 68
        E 60 80 60 00
        E 180 90 60 64
        E 60 80 60 00
        E 180 90 61 64
        E 600 80 61 00
        E 120 90 61 64
        E 480 80 61 00
        E 240 90 61 64
        E 60 80 61 00
        E 180 90 60 64
        E 60 80 60 00
        E 180 90 61 66
        E 600 80 61 00
        E 120 90 61 66
        E 60 80 61 00
        E 180 90 61 68
        E 60 80 61 00
        E 180 90 61 68
        E 60 80 61 00
        E 180 90 62 65
        E 60 80 62 00
        E 180 90 62 65
        E 60 80 62 00
        E 180 90 62 66
        E 600 80 62 00
        E 120 90 60 64
        E 480 80 60 00
        E 240 90 60 64
        E 120 80 60 00
        E 120 90 60 66
        E 120 80 60 00
        E 120 90 60 68
        E 480 80 60 00
        E 240 90 61 6a
        E 480 80 61 00
        E 240 90 60 68
        E 60 80 60 00
        E 180 90 60 64
        E 60 80 60 00
        E 180 90 61 64
        E 600 80 61 00
        E 120 90 61 64
        E 480 80 61 00
        E 240 90 61 64
        E 60 80 61 00
        E 180 90 60 64
        E 60 80 60 00
        E 180 90 61 66
        E 360 80 61 00
        E 120 90 61 66
        E 60 80 61 00
        E 180 90 62 68
        E 360 80 62 00
        E 120 90 61 68
        E 60 80 61 00
        E 420 90 60 66
        E 60 80 60 00
        E 180 90 61 66
        E 600 80 61 00
        E 120 90 61 66
        E 600 80 61 00
        E 120 90 61 66
        E 60 80 61 00
        E 180 90 60 66
        E 60 80 60 00
        E 180 90 61 66
        E 600 80 61 00
        E 120 90 61 66
        E 360 80 61 00
        E 120 90 61 66
        E 60 80 61 00
        E 180 90 61 66
        E 60 80 61 00
        E 180 90 60 66
        E 60 80 60 00
        E 180 90 61 66
        E 599 80 61 00
        E 121 90 61 66
        E 360 80 61 00
        E 120 90 61 66
        E 60 80 61 00
        E 180 90 61 66
        E 59 80 61 00
        E 181 90 60 66
        E 59 80 60 00
        E 181 90 61 66
        E 360 80 61 00
        E 120 90 61 66
        E 60 80 61 00
        E 180 90 61 66
        E 60 80 61 00
        E 180 90 61 66
        E 60 80 61 00
        E 180 90 61 66
        E 60 80 61 00
        E 180 90 61 66
        E 60 80 61 00
        E 180 90 60 64
        E 60 80 60 00
        E 4504 b0 7b 00
        CCINTERP 32
        GUID {95EB2031-BC44-4B36-809B-F7595C07BF30}
        IGNTEMPO 0 120 4 4
        SRCCOLOR 20
        VELLANE 132 123 128 0 1
        TEXTSTRINGFILE "C:\Program Files\REAPER\Data\Text_Strings\Text Events List.txt"
        CFGEDITVIEW 0 0.005638 3 12 0 -1 0 0 0 0.5
        KEYSNAP 0
        TRACKSEL 269
        EVTFILTER 0 -1 -1 -1 -1 0 1 0 0 -1 -1 -1 -1 0 -1 0 -1 -1
        CFGEDIT 1 1 0 0 0 1 1 1 1 1 1 0.25 0 0 683 728 1 0 0 1 0.125 0 1 0 0 0.5 0 0 1 64
      >
    >
  >
  <TRACK {E38BA5F5-AFDB-4CFD-A603-9502D98081F2}
    NAME bass
    PEAKCOL 16576
    BEAT -1
    AUTOMODE 0
    PANLAWFLAGS 3
    VOLPAN 1.3648053125715 0 -1 -1 1
    MUTESOLO 0 0 0
    IPHASE 0
    PLAYOFFS 0 1
    ISBUS 0 0
    BUSCOMP 0 0 0 0 0
    SHOWINMIX 1 0.6667 0.5 1 0.5 0 0 0
    FIXEDLANES 9 0 0 0
    SEL 0
    REC 0 0 1 0 0 0 0 0
    VU 2
    TRACKHEIGHT 0 0 0 0 0 0 0
    INQ 0 0 0 0.5 100 0 0 100
    NCHAN 2
    FX 1
    TRACKID {E38BA5F5-AFDB-4CFD-A603-9502D98081F2}
    PERF 0
    MIDIOUT -1
    MAINSEND 1 0
    <ITEM
      POSITION 0.5
      SNAPOFFS 0
      LENGTH 226.884625
      LOOP 1
      ALLTAKES 0
      FADEIN 1 0 0 1 0 0 0
      FADEOUT 1 0 0 1 0 0 0
      MUTE 0 0
      SEL 0
      IGUID {A9134F5E-1C74-49DC-A475-2EE115AD4FB5}
      IID 26
      NAME bass.wav
      VOLPAN 1 0 1 -1
      SOFFS 2.94058745943506
      PLAYRATE 1 1 0 -1 0 0.0025
      CHANMODE 0
      GUID {551674A1-E5B8-4F0F-AB2E-55C331BDD4D9}
      <SOURCE WAVE
        FILE "D:\ReaperStems\headhole\headhole\bass.wav"
      >
    >
  >
  <TRACK {7355379F-D9F2-44D8-B891-48610D1561C4}
    NAME drum
    PEAKCOL 16576
    BEAT -1
    AUTOMODE 0
    PANLAWFLAGS 3
    VOLPAN 1 0 -1 -1 1
    MUTESOLO 0 0 0
    IPHASE 0
    PLAYOFFS 0 1
    ISBUS 1 1
    BUSCOMP 0 0 0 0 0
    SHOWINMIX 1 0.6667 0.5 1 0.5 0 0 0
    FIXEDLANES 9 0 0 0
    SEL 0
    REC 0 0 1 0 0 0 0 0
    VU 2
    TRACKHEIGHT 97 0 0 0 0 0 0
    INQ 0 0 0 0.5 100 0 0 100
    NCHAN 2
    FX 1
    TRACKID {7355379F-D9F2-44D8-B891-48610D1561C4}
    PERF 0
    MIDIOUT -1
    MAINSEND 1 0
    <ITEM
      POSITION 0.5
      SNAPOFFS 0
      LENGTH 226.884625
      LOOP 1
      ALLTAKES 0
      FADEIN 1 0 0 1 0 0 0
      FADEOUT 1 0 0 1 0 0 0
      MUTE 0 0
      SEL 0
      IGUID {A0B013EC-B0DC-4036-82E3-8ECDC54577DC}
      IID 27
      NAME drum.wav
      VOLPAN 1 0 1 -1
      SOFFS 2.94058745943506
      PLAYRATE 1 1 0 -1 0 0.0025
      CHANMODE 0
      GUID {EBBFE374-8545-4E57-B208-99FA27254885}
      <SOURCE WAVE
        FILE "D:\ReaperStems\headhole\headhole\drum.wav"
      >
    >
  >
  <TRACK {04188180-46FA-4AFF-BF5D-5B9A445F258D}
    NAME GUITAR
    PEAKCOL 16576
    BEAT -1
    AUTOMODE 0
    PANLAWFLAGS 3
    VOLPAN 0.51063081849714 0 -1 -1 1
    MUTESOLO 0 0 0
    IPHASE 0
    PLAYOFFS 0 1
    ISBUS 2 -1
    BUSCOMP 0 0 0 0 0
    SHOWINMIX 1 0.6667 0.5 1 0.5 0 0 0
    FIXEDLANES 9 0 0 0
    SEL 0
    REC 0 0 1 0 0 0 0 0
    VU 2
    TRACKHEIGHT 61 0 0 0 0 0 0
    INQ 0 0 0 0.5 100 0 0 100
    NCHAN 2
    FX 1
    TRACKID {04188180-46FA-4AFF-BF5D-5B9A445F258D}
    PERF 0
    MIDIOUT -1
    MAINSEND 1 0
    <ITEM
      POSITION 0.5
      SNAPOFFS 0
      LENGTH 226.884625
      LOOP 1
      ALLTAKES 0
      FADEIN 1 0 0 1 0 0 0
      FADEOUT 1 0 0 1 0 0 0
      MUTE 0 0
      SEL 0
      IGUID {905747F1-9650-4A5A-88C9-E2CE5AE0EDAC}
      IID 28
      NAME guitar.wav
      VOLPAN 1 0 1 -1
      SOFFS 2.94058745943506
      PLAYRATE 1 1 0 -1 0 0.0025
      CHANMODE 0
      GUID {2413B051-0FFB-4DA0-B508-608DD21F1F33}
      <SOURCE WAVE
        FILE "D:\ReaperStems\headhole\headhole\updated\guitar.wav"
      >
    >
  >
  <TRACK {E5284FCA-6EE6-4669-98E1-8CB098575DE3}
    NAME BACKING
    PEAKCOL 16576
    BEAT -1
    AUTOMODE 0
    PANLAWFLAGS 3
    VOLPAN 1.70265395101868 0 -1 -1 1
    MUTESOLO 0 0 0
    IPHASE 0
    PLAYOFFS 0 1
    ISBUS 0 0
    BUSCOMP 0 0 0 0 0
    SHOWINMIX 1 0.6667 0.5 1 0.5 0 0 0
    FIXEDLANES 9 0 0 0
    SEL 0
    REC 0 0 1 0 0 0 0 0
    VU 2
    TRACKHEIGHT 61 0 0 0 0 0 0
    INQ 0 0 0 0.5 100 0 0 100
    NCHAN 2
    FX 1
    TRACKID {E5284FCA-6EE6-4669-98E1-8CB098575DE3}
    PERF 0
    MIDIOUT -1
    MAINSEND 1 0
    <ITEM
      POSITION 0.5
      SNAPOFFS 0
      LENGTH 226.884625
      LOOP 1
      ALLTAKES 0
      FADEIN 1 0 0 1 0 0 0
      FADEOUT 1 0 0 1 0 0 0
      MUTE 0 0
      SEL 0
      IGUID {3FA5A214-E943-4AAD-9F70-1EB5C651DAFC}
      IID 28
      NAME backing.wav
      VOLPAN 1 0 1 -1
      SOFFS 2.94058745943506
      PLAYRATE 1 1 0 -1 0 0.0025
      CHANMODE 0
      GUID {954E9B9B-E4D4-4F55-A678-4BE933DA0B47}
      <SOURCE WAVE
        FILE "D:\ReaperStems\headhole\headhole\updated\backing.wav"
      >
    >
  >
  <TRACK {9D57118E-2546-4A45-B950-728BD17CA373}
    NAME vox
    PEAKCOL 16576
    BEAT -1
    AUTOMODE 0
    PANLAWFLAGS 3
    VOLPAN 1 0 -1 -1 1
    MUTESOLO 0 2 0
    IPHASE 0
    PLAYOFFS 0 1
    ISBUS 0 0
    BUSCOMP 0 0 0 0 0
    SHOWINMIX 1 0.6667 0.5 1 0.5 0 0 0
    FIXEDLANES 9 0 0 0
    SEL 0
    REC 0 0 1 0 0 0 0 0
    VU 2
    TRACKHEIGHT 74 0 0 0 0 0 0
    INQ 0 0 0 0.5 100 0 0 100
    NCHAN 2
    FX 1
    TRACKID {9D57118E-2546-4A45-B950-728BD17CA373}
    PERF 0
    MIDIOUT -1
    MAINSEND 1 0
    <ITEM
      POSITION 0.5
      SNAPOFFS 0
      LENGTH 226.884625
      LOOP 1
      ALLTAKES 0
      FADEIN 1 0 0 1 0 0 0
      FADEOUT 1 0 0 1 0 0 0
      MUTE 0 0
      SEL 0
      IGUID {42598831-CCA4-4ECA-A1C0-B81CF615CA1A}
      IID 29
      NAME vox.wav
      VOLPAN 1 0 1 -1
      SOFFS 2.94058745943506
      PLAYRATE 1 1 0 -1 0 0.0025
      CHANMODE 0
      GUID {50540BB1-EB63-4DDA-AC79-3797961CDAF3}
      <SOURCE WAVE
        FILE "D:\ReaperStems\headhole\headhole\vox.wav"
      >
    >
  >
>
